<svg width="26" height="26" viewBox="0 0 46 88" fill="none" xmlns="http://www.w3.org/2000/svg">
<path d="M42.4596 11.6431C41.5978 11.6432 40.7714 11.9856 40.162 12.595C39.5526 13.2044 39.2102 14.0308 39.2101 14.8926L39.3181 65.0624C39.3183 67.1965 38.8981 69.3097 38.0815 71.2814C37.265 73.2531 36.0681 75.0447 34.5591 76.5539C31.5117 79.6017 27.3783 81.3142 23.0683 81.3145C18.7582 81.3148 14.6246 79.6029 11.5767 76.5555C8.52887 73.5081 6.81643 69.3747 6.81613 65.0647L6.71731 16.4806C6.73795 13.9086 7.77408 11.4489 9.60001 9.63733C11.4259 7.82578 13.8937 6.80913 16.4658 6.80883C19.0379 6.80853 21.506 7.8246 23.3323 9.63571C25.1587 11.4468 26.1954 13.9063 26.2167 16.4783L26.3155 65.0624C26.2971 65.9184 25.9489 66.7343 25.3434 67.3398C24.7379 67.9453 23.922 68.2935 23.066 68.3119C22.2042 68.3117 21.3777 67.9693 20.7684 67.36C20.159 66.7506 19.8166 65.9241 19.8165 65.0624L19.7176 21.7961C19.7028 20.944 19.354 20.1319 18.7462 19.5346C18.1384 18.9373 17.3203 18.6026 16.4681 18.6026C15.616 18.6026 14.7979 18.9373 14.1901 19.5346C13.5823 20.1319 13.2334 20.944 13.2186 21.7961L13.3174 65.0624C13.3173 66.3429 13.5695 67.6109 14.0595 68.794C14.5494 69.977 15.2677 71.052 16.1731 71.9575C17.0786 72.8629 18.1536 73.5812 19.3367 74.0712C20.5197 74.5612 21.7877 74.8133 23.0683 74.8132C25.6355 74.7531 28.0809 73.7065 29.8966 71.8907C31.7124 70.0749 32.759 67.6295 32.8191 65.0624L32.7157 16.4783C32.6612 12.2045 30.9252 8.12431 27.8836 5.12149C24.8421 2.11867 20.7399 0.435062 16.4658 0.435364C12.1917 0.435666 8.08985 2.11986 5.04873 5.12311C2.00761 8.12636 0.272146 12.2068 0.218286 16.4806L0.317106 65.0647C0.317106 71.0986 2.7141 76.8855 6.98077 81.1522C11.2474 85.4188 17.0343 87.8158 23.0683 87.8158C29.1023 87.8158 34.8891 85.4188 39.1558 81.1522C43.4224 76.8855 45.8194 71.0986 45.8194 65.0647L45.7183 14.9018C45.7195 14.4735 45.636 14.0493 45.4726 13.6534C45.3092 13.2575 45.0692 12.8978 44.7664 12.595C44.4636 12.2922 44.1039 12.0522 43.708 11.8888C43.3121 11.7254 42.8879 11.6419 42.4596 11.6431Z" fill="#215988"/>
</svg>
