<svg width="369" height="284" viewBox="0 0 369 284" fill="none" xmlns="http://www.w3.org/2000/svg">
<path d="M368.432 246.674V270.342H175.91V248.547L0.078125 247.802V226.367C0.078125 190.882 12.963 156.582 36.5966 131.959C39.2228 129.225 41.6253 126.332 43.8051 123.346C53.9489 109.382 59.6905 93.3206 65.2298 77.4478C70.7692 61.5742 76.3308 45.4843 86.1722 31.3539C96.0154 17.2225 110.829 5.04445 129.002 1.14644C147.182 -2.75157 168.644 3.39516 177.636 17.9597C182.974 26.6084 183.492 36.8779 186.442 46.3869C189.392 55.8968 196.427 65.7969 207.421 67.1637C226.601 69.5424 254.817 24.649 273.897 27.5928C283.617 29.0974 290.164 37.6013 292.487 46.1199C293.002 48.013 293.365 49.9267 293.632 51.8533C295.151 62.8144 293.356 73.94 289.111 84.1501C280.941 103.799 285.079 121.211 309.272 134.982C345.826 158.412 368.432 200.739 368.432 246.674Z" fill="#F5F5F5"/>
<path d="M11.9201 268.903C-38.0007 279.504 84.9117 286.079 117.372 283.403C149.833 280.727 181.456 282.349 213.981 281.433C257.712 280.2 301.453 281.296 345.129 282.955C353.951 283.29 365.083 281.708 367.893 272.987C369.708 267.352 366.72 261.079 362.204 257.533C357.689 253.987 351.955 252.59 346.379 251.411C294.601 240.46 241.125 240.942 188.116 241.466C127.057 242.44 65.39 242.892 4.35014 245.276C-11.4076 245.891 21.4368 266.883 11.921 268.903H11.9201Z" fill="#3473BA"/>
<path d="M244.068 261.49C228.915 265.329 79.4793 268.494 81.8022 261.279C82.4671 259.218 86.4264 257.671 91.1287 256.911C88.6447 256.96 84.4755 256.018 86.1608 253.254C89.3722 247.987 198.662 246.405 218.769 250.906C232.272 253.936 201.068 260.02 242.207 256.693C250.21 256.053 248.867 260.266 244.068 261.49H244.068Z" fill="#B8D5E7"/>
<path d="M259.768 67.7744H52.6248C49.6639 67.7744 47.2637 70.1871 47.2637 73.1632V219.568C47.2637 222.544 49.6639 224.956 52.6248 224.956H259.768C262.729 224.956 265.129 222.544 265.129 219.568V73.1632C265.129 70.1871 262.729 67.7744 259.768 67.7744Z" fill="#215988"/>
<path d="M173.678 224.956L178.871 245.858H133.522L138.716 224.956H173.678Z" fill="#215988"/>
<path d="M160.2 216.905C160.2 219.13 158.409 220.93 156.196 220.93C153.983 220.93 152.192 219.13 152.192 216.905C152.192 214.681 153.987 212.881 156.196 212.881C158.405 212.881 160.2 214.685 160.2 216.905Z" fill="white"/>
<path d="M260.525 75.5108V205.704C260.525 207.306 259.23 208.608 257.629 208.608H54.7564C53.1558 208.608 51.8672 207.306 51.8672 205.704V75.5108C51.8672 73.9089 53.155 72.6067 54.7564 72.6067H257.629C259.23 72.6067 260.525 73.9089 260.525 75.5108Z" fill="#EBEBFF"/>
<path d="M248.787 58.5977H63.6104V197.991H248.787V58.5977Z" fill="white"/>
<path d="M248.787 58.5977V47.8717C248.787 44.1744 245.805 41.1772 242.127 41.1772H70.2705C66.5922 41.1772 63.6113 44.1744 63.6113 47.8717V58.5977H248.787Z" fill="#F26639"/>
<path d="M104.321 49.9284C104.321 51.7577 102.848 53.2382 101.028 53.2382C99.2082 53.2382 97.7354 51.7577 97.7354 49.9284C97.7354 48.0991 99.2082 46.6187 101.028 46.6187C102.848 46.6187 104.321 48.0991 104.321 49.9284Z" fill="white"/>
<path d="M79.6617 49.9284C79.6617 51.7577 78.1888 53.2382 76.3689 53.2382C74.549 53.2382 73.0762 51.7577 73.0762 49.9284C73.0839 48.0991 74.5568 46.6187 76.3689 46.6187C78.1811 46.6187 79.6617 48.0991 79.6617 49.9284Z" fill="white"/>
<path d="M91.988 49.9284C91.988 51.7577 90.5151 53.2382 88.6952 53.2382C86.8753 53.2382 85.4102 51.7577 85.4102 49.9284C85.4102 48.0991 86.883 46.6187 88.7029 46.6187C90.5228 46.6187 91.9888 48.0991 91.9888 49.9284H91.988Z" fill="white"/>
<path d="M241.962 49.9285C241.962 50.683 241.66 51.353 241.17 51.8456C240.68 52.3374 240.003 52.6414 239.263 52.6414H169.763C168.272 52.6414 167.064 51.4262 167.064 49.9285C167.064 49.1741 167.367 48.504 167.857 48.0114C168.347 47.5187 169.025 47.2156 169.764 47.2156H239.264C240.754 47.2156 241.963 48.4308 241.962 49.9285Z" fill="white"/>
<path d="M122.172 245.86H190.222C191.187 245.86 191.971 246.648 191.971 247.619V253.038C191.971 254.008 191.187 254.796 190.222 254.796H122.172C121.206 254.796 120.422 254.008 120.422 253.038V247.619C120.422 246.648 121.206 245.86 122.172 245.86Z" fill="#215988"/>
<path d="M14.8361 111.88C12.6606 111.88 10.9238 113.65 10.9238 115.837C10.9238 118.024 12.6606 119.769 14.8361 119.769C17.0115 119.769 18.7483 118 18.7483 115.837C18.7483 113.674 16.9875 111.88 14.8361 111.88ZM14.8361 118.565C13.3238 118.565 12.1199 117.334 12.1199 115.83C12.1199 114.326 13.3229 113.084 14.8361 113.084C16.3492 113.084 17.5522 114.315 17.5522 115.83C17.5522 117.345 16.3269 118.565 14.8361 118.565Z" fill="#F79C37"/>
<path d="M27.0968 126.265C27.0968 126.473 26.9126 126.653 26.7027 126.653C25.4423 126.653 24.3918 127.663 24.3918 128.906C24.3918 129.112 24.2342 129.294 24.0242 129.294C23.7878 129.294 23.5778 129.113 23.5778 128.906C23.5778 127.663 22.5539 126.653 21.2936 126.653C21.0836 126.653 20.8994 126.473 20.8994 126.265C20.8994 126.032 21.0836 125.877 21.2936 125.877C22.5539 125.877 23.5778 124.841 23.5778 123.599C23.5778 123.391 23.7612 123.21 23.972 123.21C24.2085 123.21 24.3918 123.391 24.3918 123.599C24.3918 124.841 25.4423 125.877 26.7027 125.877C26.9126 125.877 27.0968 126.032 27.0968 126.265Z" fill="#F26639"/>
<path d="M29.7856 115.162C29.7856 116.171 28.9639 116.997 27.9597 116.997C26.9555 116.997 26.1338 116.171 26.1338 115.162C26.1338 114.152 26.9452 113.316 27.9597 113.316C28.9741 113.316 29.7856 114.142 29.7856 115.162Z" fill="#F26639"/>
<path d="M144.274 17.0485C142.933 17.964 142.582 19.8157 143.493 21.1627C144.413 22.5235 146.245 22.8628 147.585 21.9465C148.939 21.0215 149.3 19.1836 148.379 17.8228C147.469 16.4758 145.627 16.1227 144.274 17.0477V17.0485Z" fill="#F79C37"/>
<path d="M142.612 8.73999C141.853 9.25846 141.654 10.3075 142.17 11.0697C142.691 11.8405 143.728 12.0325 144.487 11.5141C145.254 10.9904 145.458 9.94918 144.937 9.17836C144.421 8.4153 143.379 8.21549 142.612 8.73913V8.73999Z" fill="#F26639"/>
<g opacity="0.8">
<path d="M134.197 13.3467C134.008 13.4759 133.958 13.7593 134.089 13.9531C134.876 15.1175 134.609 16.7177 133.473 17.4937C133.283 17.6228 133.216 17.8812 133.347 18.0759C133.495 18.2938 133.792 18.3747 133.981 18.2455C135.117 17.4695 136.679 17.7848 137.466 18.9483C137.597 19.1421 137.877 19.1989 138.067 19.0697C138.28 18.9242 138.307 18.6572 138.176 18.4634C137.389 17.2999 137.696 15.7074 138.832 14.9306C139.021 14.8014 139.073 14.518 138.941 14.3243C138.793 14.1064 138.512 14.0495 138.323 14.1787C137.187 14.9547 135.585 14.6317 134.798 13.4682C134.667 13.2744 134.41 13.2012 134.197 13.3467Z" fill="#F26639"/>
</g>
<path d="M292.023 96.57C290.635 97.0179 289.058 96.4796 288.227 95.2764C286.821 93.2396 287.91 90.4371 290.398 89.9384C291.541 89.7093 292.762 90.1158 293.537 90.9917C295.222 92.8942 294.379 95.8087 292.023 96.57H292.023Z" fill="#F79C37"/>
<path d="M281.59 97.0273C280.753 97.265 279.816 96.9455 279.295 96.2453C278.3 94.9069 279.052 92.9993 280.756 92.7469C281.407 92.6505 282.088 92.8778 282.55 93.3472C283.761 94.5788 283.196 96.5717 281.59 97.0273Z" fill="#F26639"/>
<g style="mix-blend-mode:multiply">
<path d="M225.288 155.164C224.62 154.172 223.805 153.313 222.881 152.608L223.569 149.816L221.774 149.009L219.979 148.202L218.341 150.566C217.2 150.343 216.015 150.302 214.83 150.459L213.338 148L211.497 148.696L209.656 149.393L210.172 152.221C209.179 152.888 208.32 153.702 207.614 154.625L204.818 153.939L204.01 155.731L203.201 157.524L205.569 159.159C205.345 160.298 205.305 161.481 205.462 162.665L202.999 164.154L203.696 165.993L204.394 167.831L207.227 167.316C207.895 168.307 208.71 169.165 209.633 169.871L208.946 172.663L210.741 173.47L212.536 174.278L214.174 171.913C215.314 172.136 216.5 172.177 217.685 172.02L219.177 174.479L221.018 173.783L222.859 173.087L222.342 170.258C223.335 169.591 224.194 168.777 224.9 167.854L227.696 168.54L228.505 166.748L229.314 164.955L226.945 163.32C227.169 162.181 227.21 160.998 227.052 159.813L229.516 158.324L228.818 156.485L228.121 154.647L225.288 155.162V155.164ZM218.874 168.137C215.06 169.581 210.796 167.663 209.35 163.854C207.904 160.044 209.825 155.787 213.639 154.343C217.453 152.899 221.717 154.817 223.163 158.627C224.609 162.435 222.688 166.693 218.874 168.137Z" fill="#EBEBFF"/>
</g>
<g style="mix-blend-mode:multiply">
<path d="M115.81 85.4031C115.307 84.6552 114.692 84.0075 113.995 83.4758L114.514 81.3701L113.16 80.7611L111.806 80.152L110.57 81.9355C109.71 81.7671 108.816 81.7366 107.922 81.855L106.797 80L105.409 80.5252L104.02 81.0504L104.409 83.184C103.66 83.687 103.013 84.3009 102.48 84.9971L100.371 84.4793L99.7612 85.8313L99.1513 87.1833L100.937 88.417C100.769 89.2758 100.738 90.1684 100.857 91.061L98.999 92.1845L99.525 93.571L100.051 94.9575L102.188 94.5688C102.692 95.3167 103.306 95.9635 104.003 96.4961L103.484 98.6018L104.838 99.2108L106.192 99.8198L107.428 98.0363C108.288 98.2048 109.182 98.2352 110.076 98.1169L111.201 99.9719L112.589 99.4467L113.978 98.9215L113.589 96.7879C114.338 96.2849 114.986 95.6709 115.518 94.9748L117.627 95.4926L118.237 94.1406L118.847 92.7886L117.061 91.5549C117.229 90.696 117.26 89.8035 117.141 88.9101L118.999 87.7866L118.473 86.4L117.947 85.0135L115.81 85.4023V85.4031ZM110.973 95.1885C108.096 96.2775 104.88 94.831 103.79 91.9576C102.699 89.0843 104.148 85.8732 107.024 84.7842C109.901 83.6952 113.117 85.1417 114.208 88.0151C115.298 90.8875 113.85 94.0995 110.973 95.1885Z" fill="#EBEBFF"/>
</g>
<path d="M106.305 94.939L108.999 93.3076L108.236 91.2943L107.474 89.2822L104.374 89.8467C103.644 88.7595 102.751 87.8203 101.742 87.0482L102.494 83.9906L100.531 83.1075L98.5673 82.222L96.7769 84.8117C95.5285 84.567 94.2323 84.5229 92.9373 84.6959L91.3056 82L89.2921 82.7638L87.2798 83.5264L87.8443 86.6257C86.757 87.3561 85.8176 88.2487 85.0454 89.2572L81.9875 88.5053L80.2198 92.4328L82.8087 94.2254C82.5664 95.4737 82.5198 96.7673 82.6929 98.0646L79.999 99.6948L80.7629 101.708L81.5256 103.721L84.6229 103.157C85.3545 104.242 86.2461 105.183 87.2559 105.955L86.5039 109.013L88.4673 109.896L90.4296 110.779L92.2223 108.191C93.4708 108.435 94.7646 108.48 96.062 108.306L97.6936 111L99.7059 110.237L101.719 109.474L101.155 106.377C102.24 105.646 103.182 104.754 103.953 103.744L107.011 104.496L107.894 102.533L108.779 100.571L106.189 98.7782C106.434 97.5299 106.478 96.2339 106.305 94.939ZM97.3606 104.054C93.1903 105.636 88.5246 103.535 86.9456 99.363C85.3641 95.1908 87.4648 90.5282 91.6351 88.9493C95.8078 87.368 100.471 89.4672 102.052 93.6382C103.633 97.8104 101.533 102.474 97.3606 104.054Z" fill="#3473BA"/>
<path d="M218.305 169.939L220.999 168.308L220.236 166.294L219.474 164.282L216.374 164.847C215.644 163.76 214.751 162.82 213.742 162.048L214.494 158.991L212.531 158.107L210.567 157.222L208.777 159.812C207.528 159.567 206.232 159.523 204.937 159.696L203.306 157L201.292 157.764L199.28 158.526L199.844 161.626C198.757 162.356 197.818 163.249 197.045 164.257L193.988 163.505L192.22 167.433L194.809 169.225C194.566 170.474 194.52 171.767 194.693 173.065L191.999 174.695L192.763 176.708L193.526 178.721L196.623 178.157C197.355 179.242 198.246 180.183 199.256 180.955L198.504 184.013L200.467 184.896L202.43 185.779L204.222 183.191C205.471 183.435 206.765 183.48 208.062 183.306L209.694 186L211.706 185.237L213.719 184.474L213.155 181.377C214.24 180.646 215.182 179.754 215.953 178.744L219.011 179.496L219.894 177.533L220.779 175.571L218.189 173.778C218.434 172.53 218.478 171.234 218.305 169.939ZM209.361 179.054C205.19 180.636 200.525 178.535 198.946 174.363C197.364 170.191 199.465 165.528 203.635 163.949C207.808 162.368 212.471 164.467 214.052 168.638C215.633 172.81 213.533 177.474 209.361 179.054Z" fill="#FFB800"/>
<g opacity="0.35">
<path d="M187.405 80.5076H217.33C218.658 80.5076 219.735 81.5826 219.735 82.9085V98.4191C219.735 99.745 218.658 100.82 217.33 100.82H195.35C195.342 100.82 195.335 100.827 195.334 100.834C194.905 104.532 191.76 107.4 187.942 107.4C187.67 107.4 187.401 107.386 187.135 107.357C187.702 106.955 188.404 106.301 188.865 105.303C189.012 104.982 189.354 104.156 189.328 103.062C189.317 102.594 189.241 102.161 189.126 101.77C188.961 101.205 188.441 100.82 187.851 100.82H187.404C186.076 100.82 184.999 99.745 184.999 98.4191V82.9096C184.999 81.5826 186.076 80.5076 187.405 80.5076Z" fill="#215988"/>
</g>
<path d="M188.669 79H218.595C219.923 79 221 80.075 221 81.401V96.9115C221 98.2375 219.923 99.3125 218.595 99.3125H196.615C196.607 99.3125 196.599 99.3191 196.598 99.3268C196.169 103.024 193.024 105.893 189.207 105.893C188.935 105.893 188.666 105.878 188.399 105.85C188.967 105.447 189.669 104.793 190.129 103.795C190.277 103.474 190.619 102.649 190.592 101.554C190.581 101.086 190.505 100.654 190.391 100.262C190.225 99.6976 189.705 99.3125 189.116 99.3125H188.668C187.34 99.3125 186.264 98.2375 186.264 96.9115V81.4021C186.264 80.075 187.34 79 188.669 79Z" fill="#215988"/>
<path d="M217.668 82.8193H189.592V84.0242H217.668V82.8193Z" fill="#EBEBFF"/>
<path d="M217.668 85.7266H189.592V86.9315H217.668V85.7266Z" fill="#EBEBFF"/>
<path d="M210.717 88.6345H189.592V89.8394H210.717V88.6345Z" fill="#EBEBFF"/>
<path d="M207.639 91.5417H189.592V92.7466H207.639V91.5417Z" fill="#EBEBFF"/>
<path d="M121.748 113.008H126.991V126.513H132.617V113.008H137.86V146.18H132.617V131.252H126.991V146.18H121.748V113.008Z" fill="#215988"/>
<path d="M141.765 113.008H156.066V117.747H147.009V126.513H154.207V131.252H147.009V141.441H156.066V146.179H141.765V113.008Z" fill="#215988"/>
<path d="M159.063 113.008H164.307V141.441H172.935V146.18H159.063V113.008Z" fill="#215988"/>
<path d="M175.458 113.008H183.181C185.787 113.008 187.74 113.703 189.044 115.093C190.347 116.483 190.999 118.521 190.999 121.206V124.476C190.999 127.162 190.347 129.199 189.044 130.589C187.741 131.979 185.787 132.674 183.181 132.674H180.702V146.18H175.459V113.008H175.458ZM183.181 127.936C184.039 127.936 184.682 127.699 185.111 127.225C185.54 126.751 185.755 125.945 185.755 124.808V120.874C185.755 119.737 185.54 118.932 185.111 118.458C184.682 117.984 184.039 117.747 183.181 117.747H180.702V127.936H183.181Z" fill="#215988"/>
<path d="M119.999 113.008H125.242V126.513H130.868V113.008H136.111V146.18H130.868V131.252H125.242V146.18H119.999V113.008Z" fill="#3473BA"/>
<path d="M140.016 113.008H154.317V117.747H145.26V126.513H152.458V131.252H145.26V141.441H154.317V146.179H140.016V113.008Z" fill="#3473BA"/>
<path d="M157.314 113.008H162.558V141.441H171.186V146.18H157.314V113.008Z" fill="#3473BA"/>
<path d="M173.709 113.008H181.432C184.038 113.008 185.991 113.703 187.295 115.093C188.598 116.483 189.25 118.521 189.25 121.206V124.476C189.25 127.162 188.598 129.199 187.295 130.589C185.992 131.979 184.038 132.674 181.432 132.674H178.953V146.18H173.71V113.008H173.709ZM181.432 127.936C182.29 127.936 182.933 127.699 183.362 127.225C183.791 126.751 184.006 125.945 184.006 124.808V120.874C184.006 119.737 183.791 118.932 183.362 118.458C182.933 117.984 182.29 117.747 181.432 117.747H178.953V127.936H181.432Z" fill="#3473BA"/>
<g opacity="0.35">
<path d="M130.371 142.395H82.8269C80.7173 142.395 79.0068 144.103 79.0068 146.209V170.851C79.0068 172.957 80.7173 174.665 82.8269 174.665H117.747C117.759 174.665 117.771 174.676 117.773 174.688C118.454 180.562 123.451 185.119 129.515 185.119C129.948 185.119 130.375 185.096 130.798 185.051C129.897 184.411 128.782 183.373 128.05 181.787C127.815 181.277 127.272 179.966 127.314 178.226C127.332 177.483 127.453 176.796 127.635 176.174C127.897 175.277 128.724 174.665 129.66 174.665H130.371C132.481 174.665 134.191 172.957 134.191 170.851V146.211C134.191 144.103 132.481 142.395 130.369 142.395H130.371Z" fill="#215988"/>
</g>
<path d="M128.363 140H80.8191C78.7095 140 76.999 141.708 76.999 143.814V168.456C76.999 170.562 78.7095 172.27 80.8191 172.27H115.739C115.751 172.27 115.763 172.281 115.765 172.293C116.446 178.167 121.443 182.724 127.507 182.724C127.94 182.724 128.367 182.701 128.791 182.656C127.889 182.016 126.774 180.978 126.042 179.392C125.807 178.882 125.265 177.57 125.307 175.831C125.324 175.088 125.445 174.401 125.627 173.779C125.89 172.882 126.716 172.27 127.653 172.27H128.363C130.473 172.27 132.184 170.562 132.184 168.456V143.816C132.184 141.708 130.473 140 128.362 140H128.363Z" fill="#EBEBFF"/>
<path d="M82.2897 147.982H126.895V146.068H82.2897V147.982Z" fill="#215988"/>
<path d="M82.2897 152.6H126.895V150.686H82.2897V152.6Z" fill="#215988"/>
<path d="M93.3332 157.219H126.895V155.305H93.3332V157.219Z" fill="#215988"/>
<path d="M98.223 161.839H126.895V159.925H98.223V161.839Z" fill="#215988"/>
<path d="M284.494 151.438C284.494 151.438 279.394 152.479 277.924 151.918C276.455 151.358 275.193 150.737 275.078 149.734C274.966 148.731 275.267 146.527 275.818 145.644C276.371 144.762 279.121 145.85 279.544 145.141L279.638 144.076C279.638 144.076 282.225 144.437 283.411 146.572C283.411 146.572 284.228 147.468 285.106 148.056L284.494 151.438Z" fill="#F8A383"/>
<path d="M311.374 155.806L316.331 128.298C313.843 113.745 306.993 117.881 306.993 117.881C303.575 134.614 302.671 148.079 302.671 148.079L283.563 146.015C283.563 146.015 281.313 151.01 284.027 154.007C284.027 154.007 309.05 160.256 311.374 155.806Z" fill="#252C39"/>
<path d="M289.178 158.092L287.966 159.041L273.269 157.76L266.729 137.119L267.94 136.17L283.85 136.501L289.178 158.092Z" fill="#2D4D92"/>
<path d="M287.966 159.042L272.058 158.71L266.729 137.12L282.638 137.451L287.966 159.042Z" fill="#3160AD"/>
<path d="M320.957 273.927C320.957 273.927 316.969 273.633 316.452 273.824L315.935 276.125C315.935 276.125 316.142 276.674 304.255 280.483V281.811L321.991 281.813C321.991 281.813 322.73 281.786 320.957 273.927Z" fill="#110F1A"/>
<path d="M336.363 275.137C336.363 275.137 332.375 274.841 331.859 275.031L331.341 277.335C331.341 277.335 320.185 281.037 318.425 281.767V283.096L337.396 283.021C337.396 283.021 338.135 282.999 336.363 275.137Z" fill="#17172A"/>
<path d="M321.276 254.405C321.288 261.595 320.506 274.689 320.506 274.689C319.398 275.32 316.704 274.689 316.704 274.689C316.35 271.124 315.437 258.642 315.07 254.405H321.276Z" fill="#FAB485"/>
<path d="M310.345 125.038C310.54 123.246 310.796 116.86 311.119 116.411C311.119 116.411 316.808 115.182 317.282 114.167C318.009 112.61 319.047 107.928 319.325 103.337C319.392 102.195 327.623 97.176 327.623 97.176C327.623 97.176 327.452 108.161 329.957 113.127C329.957 113.127 338.414 114.362 340.315 116.264C340.81 116.758 341.205 117.713 341.463 118.974L310.345 125.038Z" fill="#E49479"/>
<path d="M317.616 113.285C318.261 111.341 319.002 107.663 319.281 103.943L326.164 99.283H327.641C327.675 100.588 327.754 102.375 327.939 104.288C326.435 107.599 322.286 115.444 317.616 113.285Z" fill="#D37A64"/>
<path d="M339.708 165.581L339.01 275.88C339.01 275.88 335.319 276.761 329.328 275.862L325.807 234.322L321.477 195.554L322.451 274.925C322.451 274.925 318.018 275.878 314.422 274.912L311.126 233.892L306.727 166.81C306.727 166.81 318.438 167.745 339.708 165.581Z" fill="#293140"/>
<path d="M330.169 113.137C330.169 113.137 321.267 117.554 320.404 117.432C319.615 117.32 318.026 115.793 316.879 114.123L314.526 115.029L306.378 168.889H306.862C306.862 168.889 317.247 177.133 336.851 168.889L330.169 113.137Z" fill="#C6D8EF"/>
<path d="M319.092 122.348C319.092 122.348 316.192 133.849 315.998 135.685L316.869 144.433L319.091 143.515L320.395 135.685L321.073 123.218L319.092 122.348Z" fill="#C32D32"/>
<path d="M318.412 118.904C318.412 118.904 318.364 122.202 318.895 122.976C318.895 122.976 320.49 123.361 321.071 123.216L322.374 119.367L320.401 117.431L319.765 117.224L318.412 118.904Z" fill="#E7363E"/>
<path d="M320.404 117.432L316.445 123.641L315.72 115.041L316.396 114.169L320.404 117.432Z" fill="#8DB1C3"/>
<path d="M320.403 117.432L324.031 124.511L327.938 114.226C327.938 114.226 323.976 115.665 320.403 117.432Z" fill="#8DB1C3"/>
<path d="M341.38 178.777C341.38 178.777 330.069 180.965 319.099 180.882C318.423 180.878 316.21 176.02 315.664 175.809C315.666 175.849 313.976 179.935 313.976 179.935C311.604 179.825 308.226 176.434 305.858 173.975L306.723 122.023C306.723 122.023 305.615 114.583 311.573 113.66L316.823 112.438C315.719 122.609 316.504 134.431 317.068 148.008C321.516 125.614 329.767 112.573 329.767 112.573C331.605 112.66 342.088 115.112 343.393 117.032C343.393 117.032 342.575 133.121 336.292 150.616C336.292 150.617 341.83 173.691 341.38 178.777Z" fill="#343E4F"/>
<path d="M311.836 90.3178C311.836 90.3178 311.118 95.4746 312.087 100.491C312.66 103.457 315.749 107.76 317.628 108.58C317.628 108.58 318.141 108.873 319.982 108.569C322.247 108.195 326.322 104.8 327.436 100.344C327.436 100.344 329.107 100.623 329.804 98.5354C330.501 96.4436 329.468 93.3676 327.28 95.3172C327.28 95.3172 327.994 86.2768 323.955 85.7174C319.916 85.1627 312.193 83.7852 311.836 90.3178Z" fill="#F8A383"/>
<path d="M328.572 82.651C333.162 86.1559 331.613 95.7866 329.804 100.798C328.909 103.28 328.317 105.547 328.079 105.506C327.879 103.808 327.412 101.99 327.354 100.639C327.382 100.54 327.411 100.443 327.436 100.345C327.436 100.345 328.354 100.844 329.352 98.3638C330.058 96.6059 329.225 93.4349 327.502 95.3898C327.316 95.6532 327.105 95.9125 326.915 96.0272C326.462 96.3064 325.099 93.9902 325.601 92.0382C325.601 92.0382 325.821 89.9009 324.887 87.809C324.887 87.809 320.527 90.1543 316.685 90.2988C316.685 90.2988 313.605 90.3513 312.064 88.8765L311.692 91.7497C311.692 91.7497 308.555 90.2726 309.319 87.8556C309.319 87.8556 309.529 86.8942 312.434 85.2073C314.77 83.8479 321.614 77.3363 328.572 82.651Z" fill="#3D1F0F"/>
<path d="M329.057 110.751C329.057 110.751 317.618 130.237 317.071 151.613L327.94 133.217L325.973 130.152L332.489 128.787C332.489 128.787 331.967 115.162 331.474 113.202L330.001 110.972L329.057 110.751Z" fill="#3D4F5D"/>
<path d="M317.963 112.11C317.963 112.11 315.794 134.611 317.618 148.816L317.425 151.01C317.425 151.01 315.021 145.819 313.558 134.899L314.803 131.182L311.583 127.941C311.583 127.941 314.431 117.185 315.39 114.348L316.826 112.438L317.963 112.11Z" fill="#3D4F5D"/>
<path d="M293.05 150.669C293.05 150.669 288.584 153.343 287.011 153.301C285.439 153.261 284.041 153.092 283.602 152.184C283.164 151.275 282.716 149.095 282.945 148.081C283.175 147.064 286.129 147.178 286.292 146.369L286.029 145.335C286.029 145.335 288.589 144.816 290.415 146.439C290.415 146.439 291.484 147.014 292.506 147.278L293.05 150.669Z" fill="#F8A383"/>
<path d="M323.501 152.331L342.285 130.904C348.954 116.112 340.545 115.363 340.545 115.363C329.033 127.977 316.899 144.077 316.899 144.077L291.885 145.219C291.885 145.219 289.888 148.633 292.555 152.463C292.555 152.463 320.047 155.731 323.501 152.331Z" fill="#384958"/>
</svg>
