<svg width="369" height="284" viewBox="0 0 369 284" fill="none" xmlns="http://www.w3.org/2000/svg">
<path d="M368.432 246.674V270.343H175.91V248.547L0.078125 247.802V226.367C0.078125 190.882 12.963 156.582 36.5966 131.959C39.2228 129.225 41.6253 126.333 43.8051 123.347C53.9489 109.382 59.6905 93.3209 65.2298 77.4481C70.7692 61.5744 76.3308 45.4846 86.1722 31.3541C96.0154 17.2227 110.829 5.04469 129.002 1.14668C147.182 -2.75132 168.644 3.3954 177.636 17.96C182.974 26.6086 183.492 36.8781 186.442 46.3872C189.392 55.8971 196.427 65.7971 207.421 67.1639C226.601 69.5427 254.817 24.6493 273.897 27.593C283.617 29.0976 290.164 37.6016 292.487 46.1202C293.002 48.0132 293.365 49.9269 293.632 51.8535C295.151 62.8146 293.356 73.9402 289.111 84.1503C280.941 103.799 285.079 121.212 309.272 134.982C345.826 158.412 368.432 200.739 368.432 246.674Z" fill="#F5F5F5"/>
<path d="M11.9201 268.903C-38.0007 279.504 84.9117 286.079 117.372 283.403C149.833 280.727 181.456 282.349 213.981 281.433C257.712 280.2 301.453 281.296 345.129 282.955C353.951 283.29 365.083 281.708 367.893 272.987C369.708 267.352 366.72 261.079 362.204 257.533C357.689 253.987 351.955 252.59 346.379 251.411C294.601 240.46 241.125 240.942 188.116 241.466C127.057 242.44 65.39 242.892 4.35014 245.276C-11.4076 245.891 21.4368 266.883 11.921 268.903H11.9201Z" fill="#3473BA"/>
<path d="M244.068 261.49C228.915 265.33 79.4793 268.495 81.8022 261.279C82.4671 259.218 86.4264 257.671 91.1287 256.912C88.6447 256.961 84.4755 256.019 86.1608 253.255C89.3722 247.987 198.662 246.405 218.769 250.906C232.272 253.937 201.068 260.021 242.207 256.694C250.21 256.054 248.867 260.266 244.068 261.49H244.068Z" fill="#B8D5E7"/>
<path d="M259.768 67.7747H52.6248C49.6639 67.7747 47.2637 70.1873 47.2637 73.1635V219.568C47.2637 222.544 49.6639 224.957 52.6248 224.957H259.768C262.729 224.957 265.129 222.544 265.129 219.568V73.1635C265.129 70.1873 262.729 67.7747 259.768 67.7747Z" fill="#215988"/>
<path d="M173.678 224.956L178.871 245.858H133.522L138.716 224.956H173.678Z" fill="#215988"/>
<path d="M160.2 216.905C160.2 219.13 158.409 220.93 156.196 220.93C153.983 220.93 152.192 219.13 152.192 216.905C152.192 214.681 153.987 212.881 156.196 212.881C158.405 212.881 160.2 214.685 160.2 216.905Z" fill="white"/>
<path d="M260.525 75.5111V205.704C260.525 207.306 259.23 208.608 257.629 208.608H54.7564C53.1558 208.608 51.8672 207.306 51.8672 205.704V75.5111C51.8672 73.9091 53.155 72.6069 54.7564 72.6069H257.629C259.23 72.6069 260.525 73.9091 260.525 75.5111Z" fill="#EBEBFF"/>
<path d="M248.787 58.5979H63.6104V197.991H248.787V58.5979Z" fill="white"/>
<path d="M248.787 58.598V47.872C248.787 44.1746 245.805 41.1775 242.127 41.1775H70.2705C66.5922 41.1775 63.6113 44.1746 63.6113 47.872V58.598H248.787Z" fill="#F26639"/>
<path d="M104.321 49.9287C104.321 51.758 102.848 53.2385 101.028 53.2385C99.2082 53.2385 97.7354 51.758 97.7354 49.9287C97.7354 48.0994 99.2082 46.6189 101.028 46.6189C102.848 46.6189 104.321 48.0994 104.321 49.9287Z" fill="white"/>
<path d="M79.6617 49.9287C79.6617 51.758 78.1888 53.2385 76.3689 53.2385C74.549 53.2385 73.0762 51.758 73.0762 49.9287C73.0839 48.0994 74.5568 46.6189 76.3689 46.6189C78.1811 46.6189 79.6617 48.0994 79.6617 49.9287Z" fill="white"/>
<path d="M91.988 49.9287C91.988 51.758 90.5151 53.2385 88.6952 53.2385C86.8753 53.2385 85.4102 51.758 85.4102 49.9287C85.4102 48.0994 86.883 46.6189 88.7029 46.6189C90.5228 46.6189 91.9888 48.0994 91.9888 49.9287H91.988Z" fill="white"/>
<path d="M241.962 49.9288C241.962 50.6832 241.66 51.3533 241.17 51.8459C240.68 52.3377 240.003 52.6417 239.263 52.6417H169.763C168.272 52.6417 167.064 51.4265 167.064 49.9288C167.064 49.1743 167.367 48.5043 167.857 48.0116C168.347 47.519 169.025 47.2158 169.764 47.2158H239.264C240.754 47.2158 241.963 48.431 241.962 49.9288Z" fill="white"/>
<path d="M122.172 245.86H190.222C191.187 245.86 191.971 246.648 191.971 247.619V253.038C191.971 254.008 191.187 254.796 190.222 254.796H122.172C121.206 254.796 120.422 254.008 120.422 253.038V247.619C120.422 246.648 121.206 245.86 122.172 245.86Z" fill="#215988"/>
<path d="M14.8361 111.881C12.6606 111.881 10.9238 113.651 10.9238 115.837C10.9238 118.024 12.6606 119.77 14.8361 119.77C17.0115 119.77 18.7483 118 18.7483 115.837C18.7483 113.675 16.9875 111.881 14.8361 111.881ZM14.8361 118.566C13.3238 118.566 12.1199 117.334 12.1199 115.831C12.1199 114.327 13.3229 113.084 14.8361 113.084C16.3492 113.084 17.5522 114.316 17.5522 115.831C17.5522 117.345 16.3269 118.566 14.8361 118.566Z" fill="#F79C37"/>
<path d="M27.0968 126.265C27.0968 126.473 26.9126 126.654 26.7027 126.654C25.4423 126.654 24.3918 127.663 24.3918 128.906C24.3918 129.113 24.2342 129.294 24.0242 129.294C23.7878 129.294 23.5778 129.113 23.5778 128.906C23.5778 127.663 22.5539 126.654 21.2936 126.654C21.0836 126.654 20.8994 126.473 20.8994 126.265C20.8994 126.032 21.0836 125.877 21.2936 125.877C22.5539 125.877 23.5778 124.842 23.5778 123.599C23.5778 123.391 23.7612 123.21 23.972 123.21C24.2085 123.21 24.3918 123.391 24.3918 123.599C24.3918 124.842 25.4423 125.877 26.7027 125.877C26.9126 125.877 27.0968 126.032 27.0968 126.265Z" fill="#F26639"/>
<path d="M29.7856 115.162C29.7856 116.171 28.9639 116.997 27.9597 116.997C26.9555 116.997 26.1338 116.171 26.1338 115.162C26.1338 114.153 26.9452 113.316 27.9597 113.316C28.9741 113.316 29.7856 114.142 29.7856 115.162Z" fill="#F26639"/>
<path d="M144.274 17.0488C142.933 17.9643 142.582 19.816 143.493 21.163C144.413 22.5237 146.245 22.8631 147.585 21.9467C148.939 21.0217 149.3 19.1838 148.379 17.823C147.469 16.476 145.627 16.1229 144.274 17.0479V17.0488Z" fill="#F79C37"/>
<path d="M142.612 8.74023C141.853 9.25871 141.654 10.3077 142.17 11.0699C142.691 11.8407 143.728 12.0328 144.487 11.5143C145.254 10.9907 145.458 9.94943 144.937 9.17861C144.421 8.41554 143.379 8.21573 142.612 8.73937V8.74023Z" fill="#F26639"/>
<g opacity="0.8">
<path d="M134.197 13.347C134.008 13.4762 133.958 13.7595 134.089 13.9533C134.876 15.1177 134.609 16.7179 133.473 17.4939C133.283 17.6231 133.216 17.8815 133.347 18.0761C133.495 18.294 133.792 18.375 133.981 18.2458C135.117 17.4698 136.679 17.785 137.466 18.9485C137.597 19.1423 137.877 19.1992 138.067 19.07C138.28 18.9244 138.307 18.6574 138.176 18.4637C137.389 17.3001 137.696 15.7077 138.832 14.9308C139.021 14.8016 139.073 14.5183 138.941 14.3245C138.793 14.1066 138.512 14.0498 138.323 14.179C137.187 14.9549 135.585 14.632 134.798 13.4684C134.667 13.2746 134.41 13.2014 134.197 13.347Z" fill="#F26639"/>
</g>
<path d="M292.023 96.5703C290.635 97.0181 289.058 96.4798 288.227 95.2767C286.821 93.2398 287.91 90.4373 290.398 89.9387C291.541 89.7096 292.762 90.1161 293.537 90.992C295.222 92.8945 294.379 95.8089 292.023 96.5703H292.023Z" fill="#F79C37"/>
<path d="M281.59 97.0276C280.753 97.2653 279.816 96.9458 279.295 96.2456C278.3 94.9072 279.052 92.9995 280.756 92.7472C281.407 92.6507 282.088 92.8781 282.55 93.3475C283.761 94.579 283.196 96.572 281.59 97.0276Z" fill="#F26639"/>
<g style="mix-blend-mode:multiply">
<path d="M225.288 155.164C224.62 154.172 223.805 153.313 222.881 152.608L223.569 149.816L221.774 149.009L219.979 148.202L218.341 150.566C217.2 150.343 216.015 150.302 214.83 150.459L213.338 148L211.497 148.696L209.656 149.393L210.172 152.221C209.179 152.888 208.32 153.702 207.614 154.625L204.818 153.939L204.01 155.731L203.201 157.524L205.569 159.159C205.345 160.298 205.305 161.481 205.462 162.665L202.999 164.154L203.696 165.993L204.394 167.831L207.227 167.316C207.895 168.307 208.71 169.165 209.633 169.871L208.946 172.663L210.741 173.47L212.536 174.278L214.174 171.913C215.314 172.136 216.5 172.177 217.685 172.02L219.177 174.479L221.018 173.783L222.859 173.087L222.342 170.258C223.335 169.591 224.194 168.777 224.9 167.854L227.696 168.54L228.505 166.748L229.314 164.955L226.945 163.32C227.169 162.181 227.21 160.998 227.052 159.813L229.516 158.324L228.818 156.485L228.121 154.647L225.288 155.162V155.164ZM218.874 168.137C215.06 169.581 210.796 167.663 209.35 163.854C207.904 160.044 209.825 155.787 213.639 154.343C217.453 152.899 221.717 154.817 223.163 158.627C224.609 162.435 222.688 166.693 218.874 168.137Z" fill="#EBEBFF"/>
</g>
<g style="mix-blend-mode:multiply">
<path d="M115.81 85.4033C115.307 84.6554 114.692 84.0078 113.995 83.476L114.514 81.3703L113.16 80.7613L111.806 80.1523L110.57 81.9358C109.71 81.7673 108.816 81.7369 107.922 81.8552L106.797 80.0002L105.409 80.5254L104.02 81.0506L104.409 83.1842C103.66 83.6872 103.013 84.3012 102.48 84.9973L100.371 84.4795L99.7612 85.8315L99.1513 87.1835L100.937 88.4172C100.769 89.2761 100.738 90.1686 100.857 91.0612L98.999 92.1847L99.525 93.5713L100.051 94.9578L102.188 94.569C102.692 95.3169 103.306 95.9638 104.003 96.4963L103.484 98.602L104.838 99.211L106.192 99.8201L107.428 98.0366C108.288 98.2051 109.182 98.2355 110.076 98.1171L111.201 99.9721L112.589 99.4469L113.978 98.9217L113.589 96.7881C114.338 96.2851 114.986 95.6712 115.518 94.975L117.627 95.4928L118.237 94.1408L118.847 92.7888L117.061 91.5552C117.229 90.6963 117.26 89.8037 117.141 88.9103L118.999 87.7868L118.473 86.4003L117.947 85.0138L115.81 85.4025V85.4033ZM110.973 95.1887C108.096 96.2777 104.88 94.8312 103.79 91.9579C102.699 89.0846 104.148 85.8735 107.024 84.7844C109.901 83.6954 113.117 85.142 114.208 88.0153C115.298 90.8878 113.85 94.0997 110.973 95.1887Z" fill="#EBEBFF"/>
</g>
<path d="M106.305 94.9393L108.999 93.3079L108.236 91.2946L107.474 89.2825L104.374 89.847C103.644 88.7598 102.751 87.8205 101.742 87.0484L102.494 83.9909L100.531 83.1077L98.5673 82.2222L96.7769 84.8119C95.5285 84.5673 94.2323 84.5231 92.9373 84.6962L91.3056 82.0002L89.2921 82.764L87.2798 83.5266L87.8443 86.6259C86.757 87.3563 85.8176 88.249 85.0454 89.2574L81.9875 88.5056L80.2198 92.4331L82.8087 94.2256C82.5664 95.4739 82.5198 96.7676 82.6929 98.0648L79.999 99.695L80.7629 101.708L81.5256 103.722L84.6229 103.157C85.3545 104.242 86.2461 105.184 87.2559 105.956L86.5039 109.013L88.4673 109.896L90.4296 110.779L92.2223 108.191C93.4708 108.436 94.7646 108.48 96.062 108.307L97.6936 111L99.7059 110.238L101.719 109.474L101.155 106.377C102.24 105.647 103.182 104.754 103.953 103.744L107.011 104.496L107.894 102.533L108.779 100.571L106.189 98.7785C106.434 97.5302 106.478 96.2341 106.305 94.9393ZM97.3606 104.055C93.1903 105.636 88.5246 103.535 86.9456 99.3633C85.3641 95.1911 87.4648 90.5284 91.6351 88.9495C95.8078 87.3682 100.471 89.4674 102.052 93.6384C103.633 97.8106 101.533 102.474 97.3606 104.055Z" fill="#3473BA"/>
<path d="M218.305 169.939L220.999 168.308L220.236 166.294L219.474 164.282L216.374 164.847C215.644 163.76 214.751 162.82 213.742 162.048L214.494 158.991L212.531 158.107L210.567 157.222L208.777 159.812C207.528 159.567 206.232 159.523 204.937 159.696L203.306 157L201.292 157.764L199.28 158.526L199.844 161.626C198.757 162.356 197.818 163.249 197.045 164.257L193.988 163.505L192.22 167.433L194.809 169.225C194.566 170.474 194.52 171.767 194.693 173.065L191.999 174.695L192.763 176.708L193.526 178.721L196.623 178.157C197.355 179.242 198.246 180.183 199.256 180.955L198.504 184.013L200.467 184.896L202.43 185.779L204.222 183.191C205.471 183.435 206.765 183.48 208.062 183.306L209.694 186L211.706 185.237L213.719 184.474L213.155 181.377C214.24 180.646 215.182 179.754 215.953 178.744L219.011 179.496L219.894 177.533L220.779 175.571L218.189 173.778C218.434 172.53 218.478 171.234 218.305 169.939ZM209.361 179.054C205.19 180.636 200.525 178.535 198.946 174.363C197.364 170.191 199.465 165.528 203.635 163.949C207.808 162.368 212.471 164.467 214.052 168.638C215.633 172.81 213.533 177.474 209.361 179.054Z" fill="#FFB800"/>
<g opacity="0.35">
<path d="M187.405 80.5078H217.33C218.658 80.5078 219.735 81.5829 219.735 82.9088V98.4194C219.735 99.7453 218.658 100.82 217.33 100.82H195.35C195.342 100.82 195.335 100.827 195.334 100.835C194.905 104.532 191.76 107.4 187.942 107.4C187.67 107.4 187.401 107.386 187.135 107.358C187.702 106.955 188.404 106.301 188.865 105.303C189.012 104.982 189.354 104.157 189.328 103.062C189.317 102.594 189.241 102.162 189.126 101.77C188.961 101.205 188.441 100.82 187.851 100.82H187.404C186.076 100.82 184.999 99.7453 184.999 98.4194V82.9099C184.999 81.5829 186.076 80.5078 187.405 80.5078Z" fill="#215988"/>
</g>
<path d="M188.669 79.0002H218.595C219.923 79.0002 221 80.0753 221 81.4012V96.9118C221 98.2377 219.923 99.3128 218.595 99.3128H196.615C196.607 99.3128 196.599 99.3194 196.598 99.3271C196.169 103.024 193.024 105.893 189.207 105.893C188.935 105.893 188.666 105.879 188.399 105.85C188.967 105.447 189.669 104.794 190.129 103.796C190.277 103.474 190.619 102.649 190.592 101.554C190.581 101.087 190.505 100.654 190.391 100.262C190.225 99.6979 189.705 99.3128 189.116 99.3128H188.668C187.34 99.3128 186.264 98.2377 186.264 96.9118V81.4023C186.264 80.0753 187.34 79.0002 188.669 79.0002Z" fill="#215988"/>
<path d="M217.668 82.8196H189.592V84.0245H217.668V82.8196Z" fill="#EBEBFF"/>
<path d="M217.668 85.7268H189.592V86.9317H217.668V85.7268Z" fill="#EBEBFF"/>
<path d="M210.717 88.6348H189.592V89.8397H210.717V88.6348Z" fill="#EBEBFF"/>
<path d="M207.639 91.542H189.592V92.7469H207.639V91.542Z" fill="#EBEBFF"/>
<path d="M121.748 113.008H126.991V126.514H132.617V113.008H137.86V146.18H132.617V131.252H126.991V146.18H121.748V113.008Z" fill="#215988"/>
<path d="M141.765 113.008H156.066V117.747H147.009V126.514H154.207V131.252H147.009V141.441H156.066V146.179H141.765V113.008Z" fill="#215988"/>
<path d="M159.063 113.008H164.307V141.441H172.935V146.18H159.063V113.008Z" fill="#215988"/>
<path d="M175.458 113.008H183.181C185.787 113.008 187.74 113.703 189.044 115.093C190.347 116.484 190.999 118.521 190.999 121.206V124.476C190.999 127.162 190.347 129.199 189.044 130.589C187.741 131.98 185.787 132.675 183.181 132.675H180.702V146.18H175.459V113.008H175.458ZM183.181 127.936C184.039 127.936 184.682 127.699 185.111 127.225C185.54 126.751 185.755 125.945 185.755 124.808V120.875C185.755 119.738 185.54 118.932 185.111 118.458C184.682 117.984 184.039 117.747 183.181 117.747H180.702V127.936H183.181Z" fill="#215988"/>
<path d="M119.999 113.008H125.242V126.514H130.868V113.008H136.111V146.18H130.868V131.252H125.242V146.18H119.999V113.008Z" fill="#3473BA"/>
<path d="M140.016 113.008H154.317V117.747H145.26V126.514H152.458V131.252H145.26V141.441H154.317V146.179H140.016V113.008Z" fill="#3473BA"/>
<path d="M157.314 113.008H162.558V141.441H171.186V146.18H157.314V113.008Z" fill="#3473BA"/>
<path d="M173.709 113.008H181.432C184.038 113.008 185.991 113.703 187.295 115.093C188.598 116.484 189.25 118.521 189.25 121.206V124.476C189.25 127.162 188.598 129.199 187.295 130.589C185.992 131.98 184.038 132.675 181.432 132.675H178.953V146.18H173.71V113.008H173.709ZM181.432 127.936C182.29 127.936 182.933 127.699 183.362 127.225C183.791 126.751 184.006 125.945 184.006 124.808V120.875C184.006 119.738 183.791 118.932 183.362 118.458C182.933 117.984 182.29 117.747 181.432 117.747H178.953V127.936H181.432Z" fill="#3473BA"/>
<g opacity="0.35">
<path d="M130.371 142.395H82.8269C80.7173 142.395 79.0068 144.103 79.0068 146.209V170.851C79.0068 172.957 80.7173 174.665 82.8269 174.665H117.747C117.759 174.665 117.771 174.676 117.773 174.688C118.454 180.562 123.451 185.119 129.515 185.119C129.948 185.119 130.375 185.096 130.798 185.051C129.897 184.411 128.782 183.373 128.05 181.787C127.815 181.277 127.272 179.966 127.314 178.226C127.332 177.483 127.453 176.796 127.635 176.174C127.897 175.277 128.724 174.665 129.66 174.665H130.371C132.481 174.665 134.191 172.957 134.191 170.851V146.211C134.191 144.103 132.481 142.395 130.369 142.395H130.371Z" fill="#215988"/>
</g>
<path d="M128.363 140H80.8191C78.7095 140 76.999 141.708 76.999 143.814V168.456C76.999 170.562 78.7095 172.27 80.8191 172.27H115.739C115.751 172.27 115.763 172.281 115.765 172.293C116.446 178.167 121.443 182.724 127.507 182.724C127.94 182.724 128.367 182.701 128.791 182.656C127.889 182.016 126.774 180.978 126.042 179.392C125.807 178.882 125.265 177.57 125.307 175.831C125.324 175.088 125.445 174.401 125.627 173.779C125.89 172.882 126.716 172.27 127.653 172.27H128.363C130.473 172.27 132.184 170.562 132.184 168.456V143.816C132.184 141.708 130.473 140 128.362 140H128.363Z" fill="#EBEBFF"/>
<path d="M82.2897 147.982H126.895V146.068H82.2897V147.982Z" fill="#215988"/>
<path d="M82.2897 152.601H126.895V150.686H82.2897V152.601Z" fill="#215988"/>
<path d="M93.3332 157.219H126.895V155.305H93.3332V157.219Z" fill="#215988"/>
<path d="M98.223 161.839H126.895V159.925H98.223V161.839Z" fill="#215988"/>
</svg>
