<svg width="46" height="46" viewBox="0 0 46 46" fill="none" xmlns="http://www.w3.org/2000/svg">
<rect width="46" height="46" rx="5" fill="#FDEDE9"/>
<path d="M11 17V19.13C11.0044 19.5775 11.1636 20.011 11.4524 20.3623C11.7412 20.7136 12.1434 20.9629 12.5958 21.071C13.0363 21.1868 13.4249 21.4383 13.7019 21.7868C13.9789 22.1353 14.129 22.5616 14.129 23C14.129 23.4384 13.9789 23.8647 13.7019 24.2132C13.4249 24.5617 13.0363 24.8132 12.5958 24.929C12.1434 25.0371 11.7412 25.2864 11.4524 25.6377C11.1636 25.989 11.0044 26.4225 11 26.87V29C11 29.7956 11.3292 30.5587 11.9153 31.1213C12.5013 31.6839 13.2962 32 14.125 32H18.2917V28C18.2917 27.7348 18.4014 27.4804 18.5968 27.2929C18.7921 27.1054 19.0571 27 19.3333 27C19.6096 27 19.8746 27.1054 20.0699 27.2929C20.2653 27.4804 20.375 27.7348 20.375 28V32H30.7917C32.1725 31.9984 33.4963 31.4711 34.4727 30.5338C35.4491 29.5964 35.9983 28.3256 36 27V26.87C35.9956 26.4225 35.8364 25.989 35.5476 25.6377C35.2588 25.2864 34.8566 25.0371 34.4042 24.929C33.9637 24.8132 33.5751 24.5617 33.2981 24.2132C33.0211 23.8647 32.871 23.4384 32.871 23C32.871 22.5616 33.0211 22.1353 33.2981 21.7868C33.5751 21.4383 33.9637 21.1868 34.4042 21.071C34.8566 20.9629 35.2588 20.7136 35.5476 20.3623C35.8364 20.011 35.9956 19.5775 36 19.13V19C35.9983 17.6744 35.4491 16.4036 34.4727 15.4662C33.4963 14.5289 32.1725 14.0016 30.7917 14H20.375V18C20.375 18.2652 20.2653 18.5196 20.0699 18.7071C19.8746 18.8946 19.6096 19 19.3333 19C19.0571 19 18.7921 18.8946 18.5968 18.7071C18.4014 18.5196 18.2917 18.2652 18.2917 18V14H14.125C13.2962 14 12.5013 14.3161 11.9153 14.8787C11.3292 15.4413 11 16.2044 11 17ZM20.375 22V24C20.375 24.2652 20.2653 24.5196 20.0699 24.7071C19.8746 24.8946 19.6096 25 19.3333 25C19.0571 25 18.7921 24.8946 18.5968 24.7071C18.4014 24.5196 18.2917 24.2652 18.2917 24V22C18.2917 21.7348 18.4014 21.4804 18.5968 21.2929C18.7921 21.1054 19.0571 21 19.3333 21C19.6096 21 19.8746 21.1054 20.0699 21.2929C20.2653 21.4804 20.375 21.7348 20.375 22Z" fill="#ED4C28"/>
</svg>
