<svg width="40" height="40" viewBox="0 0 40 40" fill="none" xmlns="http://www.w3.org/2000/svg">
<circle cx="20" cy="20" r="20" fill="#12B749"/>
<path fill-rule="evenodd" clip-rule="evenodd" d="M19.0078 31.1109C13.8721 31.1109 9.23481 27.297 8.22717 22.248C7.14369 16.8739 10.0366 11.5865 15.1073 9.66878C16.4833 9.14871 17.8593 8.88867 19.2028 8.88867C21.4673 8.88867 23.656 9.63627 25.7146 11.1098V10.1889C25.7254 9.46292 26.2563 8.91034 26.9497 8.91034C27.0473 8.91034 27.1448 8.91034 27.2314 8.94285C27.7949 9.05119 28.2174 9.5496 28.2174 10.113V14.1327C28.2174 14.7937 27.6757 15.3354 27.0147 15.3354H24.9995H22.9842C22.3124 15.3354 21.7707 14.772 21.7707 14.0894C21.7707 13.4068 22.3016 12.8759 22.9734 12.8434H23.2551H23.8401C22.4425 11.9116 20.8389 11.4132 19.1378 11.4132C15.0748 11.4132 11.6076 14.1219 10.7192 18.0008C10.1991 20.2869 10.5783 22.6272 11.8027 24.5775C13.0162 26.5169 14.9448 27.8604 17.2201 28.3697C17.7618 28.4889 18.3577 28.5322 18.932 28.5647H19.1162C19.7446 28.6297 20.243 29.0631 20.3188 29.6374C20.4163 30.2549 20.0805 30.8292 19.4954 31.0242C19.3329 31.0784 19.1812 31.1001 19.0187 31.1001L18.997 30.8292V31.1001L19.0078 31.1109ZM15.8007 24.1333C15.9199 24.1658 16.0499 24.1874 16.2016 24.1874L16.1908 24.2199H20.0263C20.7847 24.2199 21.3048 23.7107 21.3156 22.9414V17.1123C21.3048 16.5056 20.9473 16.0288 20.3838 15.8771C20.2863 15.8446 20.178 15.8338 20.0696 15.8338C19.5929 15.8338 19.1812 16.083 18.9753 16.4839C18.8778 16.6897 18.8236 16.9498 18.8236 17.1881V20.1677V21.6954H16.9167H16.1041C15.4865 21.7063 14.9989 22.1613 14.9123 22.8114C14.8472 23.4073 15.2265 23.9707 15.8007 24.1333ZM25.7036 25.2328C25.8661 25.7745 26.3645 26.1537 26.9279 26.1537V26.1646C26.955 26.1646 26.9821 26.1619 27.0092 26.1592C27.0363 26.1565 27.0633 26.1537 27.0904 26.1537C27.7188 26.0779 28.1847 25.5578 28.1956 24.9294V23.5534V23.1417V20.953V20.823C28.1956 20.7038 28.1847 20.5846 28.1522 20.4763C27.9897 19.9346 27.4913 19.5553 26.9279 19.5553C26.9008 19.5553 26.8737 19.558 26.8466 19.5608L26.8466 19.5608C26.8195 19.5635 26.7925 19.5662 26.7654 19.5662C26.1261 19.6529 25.6602 20.1838 25.6602 20.823V24.8752C25.6602 24.9944 25.6711 25.1136 25.7036 25.2328ZM25.6387 28.4239C25.6387 29.139 26.213 29.724 26.9172 29.724H26.9389C27.654 29.724 28.2391 29.139 28.2391 28.4347C28.2499 28.088 28.1199 27.7629 27.8707 27.5137C27.6215 27.2645 27.2965 27.1237 26.9389 27.1237C26.213 27.1237 25.6387 27.7088 25.6387 28.4239Z" fill="white"/>
</svg>
