<svg width="45" height="45" viewBox="0 0 45 45" fill="none" xmlns="http://www.w3.org/2000/svg">
<rect width="45" height="45" rx="11.522" fill="#FFF8E5"/>
<path fill-rule="evenodd" clip-rule="evenodd" d="M19.0525 16.0945C18.2707 16.3645 17.4937 16.6346 16.7167 16.9047C16.7214 16.9236 16.7214 16.9615 16.7214 16.9615H17.0104H32.4939C32.8208 16.9615 33.1288 16.9615 33.3893 16.7199C33.4531 16.6596 33.5407 16.6259 33.6265 16.5929C33.6554 16.5818 33.684 16.5707 33.7115 16.5588C34.1758 16.3693 34.2848 16.1419 34.119 15.6728C33.9626 15.2273 33.805 14.7806 33.6474 14.3339C33.4899 13.8875 33.3324 13.4411 33.1761 12.9959C32.8303 12.0152 32.0201 11.6219 31.0346 11.963C27.0406 13.3418 23.0465 14.7205 19.0525 16.0945ZM29.0868 18.0369H30.475H33.0809C34.1137 18.0416 34.7296 18.6528 34.7344 19.6857C34.7375 20.3112 34.7365 20.9389 34.7354 21.5659V21.5664C34.7349 21.8795 34.7344 22.1923 34.7344 22.5047C34.7344 22.9738 34.5638 23.1538 34.0948 23.2012C33.114 23.3007 32.4128 23.9355 32.2233 24.8926C32.0006 26.0202 32.8724 27.181 34.019 27.2758C34.09 27.2805 34.1611 27.29 34.2322 27.2994C34.5591 27.3516 34.7249 27.5127 34.7249 27.8443C34.7259 28.052 34.7272 28.2596 34.7285 28.4672V28.4674C34.7338 29.2972 34.7391 30.1263 34.7202 30.9524C34.6965 31.8147 34.1185 32.4116 33.2609 32.4353C32.2976 32.4587 31.3319 32.4538 30.3672 32.4489H30.3671C29.9653 32.4468 29.5638 32.4448 29.1626 32.4448C29.146 32.4448 29.1316 32.4401 29.1131 32.434C29.1107 32.4333 29.1083 32.4325 29.1058 32.4317C29.1 32.4298 29.0937 32.4278 29.0868 32.4258V18.0369ZM28.0402 18.0417V32.4401C28.0058 32.4419 27.9726 32.4442 27.9402 32.4465L27.9401 32.4465C27.8834 32.4505 27.8291 32.4544 27.7749 32.4544H12.7226C11.8698 32.4544 11.287 32.0374 11.107 31.2936C11.0645 31.1188 11.0596 30.9299 11.0549 30.7457L11.0548 30.744C11.0517 30.1438 11.0527 29.5437 11.0538 28.9436C11.0543 28.6435 11.0548 28.3434 11.0548 28.0434C11.0548 27.4369 11.1496 27.3327 11.756 27.2853C12.7178 27.2095 13.5138 26.4799 13.6323 25.5702C13.7649 24.5326 13.2153 23.6182 12.2535 23.3055C12.0804 23.249 11.8953 23.2284 11.7125 23.2081L11.7125 23.2081C11.6652 23.2029 11.618 23.1976 11.5713 23.1918C11.2254 23.1491 11.0691 23.007 11.0643 22.6706L11.0617 22.3812C11.0526 21.4164 11.0436 20.4515 11.0738 19.4867C11.0975 18.6671 11.6897 18.108 12.5094 18.0512C12.6136 18.0417 12.7178 18.0417 12.8221 18.0417H27.7275H28.0402ZM20.578 25.755H23.7382C24.2167 25.755 24.4347 25.5986 24.4394 25.2528C24.4441 24.8974 24.2215 24.7363 23.7287 24.7363H17.432C17.4062 24.7363 17.3792 24.7349 17.352 24.7334L17.352 24.7334C17.2694 24.7289 17.1847 24.7244 17.1241 24.76C16.9867 24.8358 16.8256 24.9353 16.7687 25.068C16.6029 25.447 16.8588 25.755 17.3231 25.755C18.0464 25.7581 18.7697 25.7571 19.493 25.756C19.8547 25.7555 20.2164 25.755 20.578 25.755ZM20.5922 27.3137H17.2899C17.0435 27.3137 16.8493 27.3848 16.7593 27.6359C16.6219 28.0244 16.8682 28.3324 17.3231 28.3324H23.1839H23.9088C24.122 28.3276 24.302 28.2471 24.392 28.0386C24.5484 27.6643 24.3162 27.3185 23.8993 27.3185H20.597L20.5922 27.3137ZM18.7729 23.1776H20.289C20.6301 23.1776 20.8149 23.0023 20.8244 22.6943C20.8339 22.3721 20.6491 22.1636 20.308 22.1636C19.2893 22.1542 18.2707 22.1542 17.252 22.1636C16.9204 22.1636 16.7119 22.3863 16.7214 22.6896C16.7308 22.9928 16.9298 23.1776 17.2567 23.1776H18.7729Z" fill="#FFB800"/>
</svg>
