<svg width="41" height="40" viewBox="0 0 41 40" fill="none" xmlns="http://www.w3.org/2000/svg">
<path d="M3.51128 6.79143e-10H36.4887C37.42 6.79144e-10 38.3131 0.369938 38.9716 1.02843C39.6301 1.68692 40 2.58003 40 3.51128V36.4887C40 37.42 39.6301 38.3131 38.9716 38.9716C38.3131 39.6301 37.42 40 36.4887 40H8.97083C6.5896 39.9942 4.30788 39.0441 2.62616 37.3583C0.944428 35.6724 -7.1349e-06 33.3884 0 31.0072L0 3.48927C0.00581472 2.56184 0.378318 1.67437 1.03618 1.02064C1.69405 0.366896 2.58384 -1.82275e-05 3.51128 6.79143e-10Z" fill="url(#paint0_linear_2505_692)"/>
<path d="M34.8321 6.70255H40.0275V6.15219H34.8816C34.852 5.9171 34.7553 5.69551 34.603 5.51397C34.4508 5.33242 34.2494 5.1986 34.0231 5.12852V0.0267107H33.4727V5.12852C33.2476 5.20586 33.0493 5.34588 32.9011 5.5321C32.7529 5.71833 32.661 5.94301 32.6362 6.17971H28.3874C28.365 5.94302 28.2746 5.71785 28.1272 5.53135C27.9797 5.34484 27.7815 5.20495 27.5564 5.12852V0.0267107H27.006V5.12852C26.7809 5.20495 26.5827 5.34484 26.4352 5.53135C26.2878 5.71785 26.1974 5.94302 26.175 6.17971H21.552C21.5313 5.94871 21.4467 5.72803 21.3077 5.54238C21.1687 5.35672 20.9808 5.21342 20.765 5.12852V0.0212059H20.2146V5.11752C19.9843 5.19113 19.7804 5.33028 19.6279 5.51796C19.4754 5.70563 19.3809 5.93368 19.356 6.17421H13.137V6.72456H19.3781C19.4227 6.93913 19.5238 7.1379 19.6708 7.30042C19.8179 7.46294 20.0056 7.58332 20.2146 7.64916V11.6172C19.9927 11.6872 19.7949 11.8182 19.644 11.9954C19.4932 12.1726 19.3953 12.3886 19.3616 12.6189H13.115V13.1693H19.3395C19.3763 13.4017 19.4779 13.619 19.6327 13.7962C19.7875 13.9734 19.9892 14.1033 20.2146 14.1709V18.4362C19.9886 18.5026 19.7862 18.6321 19.6312 18.8095C19.4762 18.987 19.375 19.2049 19.3395 19.4378H13.115V19.9882H19.3395C19.3772 20.2196 19.4793 20.4358 19.634 20.6119C19.7888 20.7881 19.99 20.9171 20.2146 20.9843V26.8842H20.765V20.9678C20.97 20.8878 21.1502 20.7551 21.2874 20.5831C21.4247 20.4111 21.514 20.2058 21.5465 19.9882H26.1805C26.2132 20.2134 26.3077 20.4252 26.4534 20.6C26.5991 20.7749 26.7904 20.906 27.006 20.9788V26.8897H27.5564V20.9733C27.772 20.9005 27.9633 20.7694 28.109 20.5945C28.2547 20.4197 28.3492 20.2079 28.3819 19.9827H32.6417C32.6755 20.2083 32.771 20.4203 32.9176 20.5951C33.0643 20.7699 33.2564 20.9008 33.4727 20.9733V26.8842H34.0231V20.9733C34.2387 20.9005 34.43 20.7694 34.5757 20.5945C34.7214 20.4197 34.8159 20.2079 34.8486 19.9827H40.0275V19.4323H34.8761C34.8434 19.2071 34.7489 18.9953 34.6032 18.8205C34.4575 18.6456 34.2663 18.5145 34.0506 18.4417V14.1599C34.2659 14.0865 34.4569 13.9553 34.6025 13.7805C34.7481 13.6058 34.8428 13.3943 34.8761 13.1693H40.0275V12.6189H34.8761C34.8438 12.3929 34.7495 12.1802 34.6038 12.0044C34.4581 11.8286 34.2667 11.6965 34.0506 11.6227V7.63815C34.2523 7.56575 34.431 7.44089 34.5684 7.27644C34.7057 7.11199 34.7968 6.91389 34.8321 6.70255ZM20.765 7.63265C20.9658 7.55955 21.144 7.43529 21.282 7.27216C21.4201 7.10903 21.5131 6.91268 21.552 6.70255H26.219C26.2568 6.91704 26.3519 7.1173 26.4944 7.28204C26.6368 7.44678 26.8212 7.56985 27.028 7.63815V11.6227C26.812 11.6965 26.6205 11.8286 26.4748 12.0044C26.3291 12.1802 26.2349 12.3929 26.2025 12.6189H21.5685C21.5348 12.3972 21.4425 12.1886 21.3013 12.0144C21.16 11.8403 20.9749 11.707 20.765 11.6282V7.63265ZM26.1805 19.4378H21.5465C21.5159 19.2182 21.4273 19.0107 21.29 18.8366C21.1526 18.6625 20.9714 18.5281 20.765 18.4472V14.1544C20.9742 14.0761 21.1588 13.9437 21.3 13.7706C21.4412 13.5975 21.5339 13.3899 21.5685 13.1693H26.2025C26.2358 13.3943 26.3305 13.6058 26.4761 13.7805C26.6218 13.9553 26.8127 14.0865 27.028 14.1599V18.4417C26.8075 18.5115 26.6111 18.6419 26.4613 18.8181C26.3114 18.9942 26.2141 19.209 26.1805 19.4378ZM33.4727 18.4472C33.2564 18.5197 33.0643 18.6506 32.9176 18.8254C32.771 19.0002 32.6755 19.2122 32.6417 19.4378H28.3819C28.3492 19.2126 28.2547 19.0008 28.109 18.826C27.9633 18.6511 27.772 18.52 27.5564 18.4472V14.1654C27.7717 14.092 27.9627 13.9608 28.1083 13.786C28.2539 13.6113 28.3486 13.3998 28.3819 13.1748H32.6417C32.6761 13.4002 32.7718 13.6118 32.9184 13.7866C33.0649 13.9613 33.2567 14.0923 33.4727 14.1654V18.4472ZM33.4727 11.6282C33.256 11.7017 33.0637 11.8336 32.9171 12.0094C32.7704 12.1852 32.6751 12.398 32.6417 12.6244H28.3819C28.3495 12.3984 28.2553 12.1857 28.1096 12.0099C27.9639 11.8341 27.7724 11.702 27.5564 11.6282V7.64366C27.7632 7.57535 27.9476 7.45229 28.0901 7.28755C28.2325 7.12281 28.3277 6.92255 28.3654 6.70805H32.6582C32.6981 6.92252 32.7946 7.12239 32.9379 7.28692C33.0811 7.45144 33.2658 7.57462 33.4727 7.64366V11.6282Z" fill="url(#paint1_linear_2505_692)"/>
<path d="M5.00842 31.2491V26.1693H7.06676V31.1225C7.06676 32.3993 7.80975 33.3239 8.84442 33.3239C9.87909 33.3239 10.6331 32.4158 10.6331 31.1225V26.1693H12.6804V31.2491C12.6804 33.6652 11.1009 35.3603 8.82791 35.3603C6.55493 35.3603 5.00842 33.6652 5.00842 31.2491ZM22.5648 23.7092V35.2062H20.0112V34.1054C19.7186 34.5067 19.3352 34.8331 18.8923 35.0579C18.4494 35.2827 17.9597 35.3995 17.463 35.3988C15.3772 35.3988 13.9022 33.5551 13.9022 30.9409C13.9022 28.3267 15.3772 26.4995 17.463 26.4995C17.9578 26.4984 18.4459 26.6139 18.8876 26.8367C19.3294 27.0595 19.7124 27.3833 20.0057 27.7818V23.7037L22.5648 23.7092ZM20.0112 30.9464C20.0112 29.7136 19.2847 28.8275 18.2335 28.8275C17.1823 28.8275 16.3623 29.7136 16.3623 30.9464C16.3623 32.1792 17.1438 33.0818 18.239 33.0818C19.3342 33.0818 20.0112 32.1957 20.0112 30.9464ZM23.6876 34.122L24.7112 32.3278C25.4663 32.9236 26.3917 33.2629 27.353 33.2964C27.9033 33.2964 28.2225 33.0983 28.2225 32.7736C28.2225 32.3608 27.7162 32.1957 26.9457 31.9976C25.4432 31.6178 24.0508 31.1941 24.0343 29.3504C24.0343 27.6993 25.2506 26.505 27.1713 26.505C28.3139 26.5304 29.4194 26.9156 30.3304 27.6057L29.3948 29.4274C28.7558 28.9443 27.9919 28.654 27.1933 28.5909C26.731 28.5909 26.4008 28.822 26.4008 29.0807C26.4008 29.4604 26.7311 29.543 27.6446 29.8072C29.026 30.1704 30.578 30.6602 30.578 32.603C30.578 34.3146 29.3122 35.4153 27.3144 35.4153C25.9925 35.4155 24.7111 34.9586 23.6876 34.122Z" fill="white"/>
<defs>
<linearGradient id="paint0_linear_2505_692" x1="0" y1="20" x2="40" y2="20" gradientUnits="userSpaceOnUse">
<stop stop-color="#EF4D39"/>
<stop offset="1" stop-color="#F79C37"/>
</linearGradient>
<linearGradient id="paint1_linear_2505_692" x1="24.4303" y1="15.5963" x2="43.3957" y2="-6.97935" gradientUnits="userSpaceOnUse">
<stop stop-color="white" stop-opacity="0"/>
<stop offset="0.13" stop-color="white" stop-opacity="0.18"/>
<stop offset="0.37" stop-color="white" stop-opacity="0.46"/>
<stop offset="0.59" stop-color="white" stop-opacity="0.69"/>
<stop offset="0.77" stop-color="white" stop-opacity="0.86"/>
<stop offset="0.91" stop-color="white" stop-opacity="0.96"/>
<stop offset="1" stop-color="white"/>
</linearGradient>
</defs>
</svg>
