<svg width="15" height="15" viewBox="0 0 15 15" fill="none" xmlns="http://www.w3.org/2000/svg">
<path d="M0.625 15C0.45924 15 0.300269 14.9342 0.183058 14.8169C0.065848 14.6997 0 14.5408 0 14.375V2.5C0 1.83696 0.263392 1.20107 0.732233 0.732233C1.20107 0.263392 1.83696 0 2.5 0L6.875 0C7.53804 0 8.17393 0.263392 8.64277 0.732233C9.11161 1.20107 9.375 1.83696 9.375 2.5V5.625C9.375 6.28804 9.11161 6.92393 8.64277 7.39277C8.17393 7.86161 7.53804 8.125 6.875 8.125H1.25V14.375C1.25 14.5408 1.18415 14.6997 1.06694 14.8169C0.949732 14.9342 0.79076 15 0.625 15ZM12.5 2.5H10.625V5.625C10.624 6.61926 10.2286 7.57251 9.52555 8.27555C8.82251 8.9786 7.86926 9.37401 6.875 9.375H6.5975C6.81522 9.75376 7.1287 10.0686 7.50649 10.288C7.88429 10.5074 8.31312 10.6236 8.75 10.625H12.5C13.163 10.625 13.7989 10.3616 14.2678 9.89277C14.7366 9.42393 15 8.78804 15 8.125V5C15 4.33696 14.7366 3.70107 14.2678 3.23223C13.7989 2.76339 13.163 2.5 12.5 2.5Z" fill="#12B749"/>
</svg>
