<svg width="35" height="35" viewBox="0 0 35 35" fill="none" xmlns="http://www.w3.org/2000/svg">
<rect width="35" height="35" rx="5" fill="#F26639"/>
<path fill-rule="evenodd" clip-rule="evenodd" d="M11.944 16.341C11.9306 16.3548 11.9147 16.372 11.897 16.3911L11.8969 16.3912C11.8649 16.4257 11.8269 16.4667 11.7871 16.5065L11.3219 16.9725L11.3218 16.9726C10.5461 17.7499 9.77041 18.5273 8.98971 19.2996C8.86595 19.4233 8.85156 19.5068 8.93359 19.668C9.51063 20.7904 9.49768 21.9171 8.89473 23.0266C8.82134 23.1619 8.81127 23.2381 8.92783 23.3547C9.8416 24.2584 10.7496 25.1678 11.6533 26.0802C11.7497 26.1766 11.8145 26.1938 11.9411 26.1248C13.0736 25.5031 14.2191 25.4916 15.3659 26.083C15.5027 26.1536 15.5732 26.1334 15.6753 26.0312C18.6224 23.0784 21.5724 20.127 24.5223 17.177C24.5437 17.1557 24.5638 17.1326 24.5885 17.1043C24.6021 17.0886 24.6172 17.0713 24.6346 17.0518L24.6203 17.0377L24.6196 17.0369L24.6188 17.0362L24.6188 17.0362C24.3063 16.7265 24.0006 16.4236 23.6978 16.1194C23.3294 15.7481 23.3021 15.2804 23.6258 14.9523C23.9511 14.6228 24.4245 14.6444 24.7929 15.0099C25.0445 15.2604 25.2933 15.5127 25.5515 15.7746L25.5516 15.7747L25.7354 15.9611L25.9197 15.7776C26.2775 15.4213 26.6255 15.0748 26.9672 14.7221C26.9989 14.689 26.996 14.5854 26.9687 14.535C26.3513 13.355 26.3571 12.1851 27.0089 11.0195C27.0363 10.9706 27.019 10.8584 26.9802 10.8195C26.0477 9.87695 25.1109 8.94016 24.1684 8.00768C24.1295 7.97027 24.0173 7.9602 23.9669 7.98898C22.807 8.62214 21.6443 8.63509 20.4701 8.03215C20.414 8.00337 20.3017 8.00193 20.2643 8.0379C19.959 8.33252 19.66 8.63276 19.3507 8.94343L19.3506 8.94349L19.349 8.94516L19.3482 8.94592C19.2444 9.05021 19.1394 9.15567 19.0325 9.2625C19.1372 9.36547 19.2417 9.46674 19.3454 9.5673L19.3454 9.5673L19.3454 9.56731L19.3454 9.56731C19.5852 9.79978 19.821 10.0284 20.047 10.2655C20.4787 10.7188 20.2701 11.434 19.6729 11.5735C19.3793 11.6426 19.1275 11.552 18.9174 11.339C18.7382 11.1573 18.5589 10.9761 18.3746 10.7897L18.3742 10.7893L17.9303 10.3403C17.6998 10.5839 17.4827 10.8142 17.2655 11.0445L17.2652 11.0449L17.205 11.1087C17.185 10.9494 17.1689 10.7921 17.153 10.6367C17.1164 10.2786 17.081 9.93114 17.0007 9.59491C16.9215 9.26537 16.9935 9.07255 17.228 8.84662C17.8138 8.28239 18.3864 7.70568 18.9595 7.12855L18.9595 7.12854C19.1888 6.8976 19.4181 6.66659 19.6484 6.43629C20.0514 6.03481 20.4456 6.02185 20.8701 6.39456C21.5666 7.00613 22.479 7.07952 23.2589 6.58451C23.3411 6.53273 23.4219 6.47813 23.5028 6.4234C23.5636 6.38231 23.6246 6.34114 23.6863 6.30102C24.0921 6.03768 24.4418 6.06934 24.7842 6.41039C25.2445 6.86802 25.7031 7.32722 26.1618 7.78641L26.1618 7.78643C26.4676 8.0925 26.7733 8.39856 27.0795 8.70416L27.3762 9.00079L27.3766 9.00117C27.7725 9.39681 28.168 9.79209 28.5616 10.1892C28.9271 10.5576 28.9602 10.8943 28.6796 11.326C28.6413 11.3849 28.6024 11.4431 28.5635 11.5013C28.4986 11.5983 28.4337 11.6953 28.3717 11.7951C27.917 12.5334 27.9918 13.4299 28.5573 14.0832C28.9847 14.5753 28.9732 14.9322 28.5113 15.3941L16.2466 27.6631C15.8106 28.0991 15.4365 28.1106 14.9717 27.7034C14.3155 27.1292 13.3772 27.0544 12.6405 27.5206C12.5635 27.5694 12.4882 27.6201 12.413 27.6709L12.4129 27.6709C12.3194 27.7339 12.2261 27.7969 12.1296 27.8559C11.7756 28.0746 11.4202 28.0444 11.1281 27.7537C9.83728 26.4687 8.54937 25.1793 7.26434 23.8886C6.95351 23.5763 6.92185 23.2209 7.15641 22.8467C7.20677 22.7668 7.25994 22.6882 7.31316 22.6095L7.3132 22.6094C7.37403 22.5195 7.43491 22.4294 7.4917 22.3373C7.95362 21.5905 7.87735 20.6896 7.30175 20.0291C6.88588 19.5514 6.89883 19.1888 7.34924 18.7369C7.59221 18.4935 7.83541 18.2504 8.07861 18.0073C8.68668 17.3993 9.29476 16.7914 9.89916 16.1798C10.01 16.0676 10.1035 16.0517 10.2575 16.0805C10.6604 16.1534 11.0657 16.212 11.4737 16.271L11.4738 16.271C11.6296 16.2935 11.7859 16.3161 11.9425 16.3395L11.944 16.341ZM17.9693 12.326C18.0239 12.3553 18.0816 12.3814 18.1392 12.4074C18.2655 12.4645 18.3916 12.5214 18.4845 12.6123C19.7925 13.9031 21.0919 15.204 22.3856 16.5092C22.7238 16.8488 22.6993 17.2992 22.3424 17.6575C21.5222 18.482 20.6991 19.3037 19.876 20.1254C19.143 20.8583 18.4101 21.5916 17.6772 22.3249C16.9438 23.0587 16.2103 23.7924 15.4769 24.5259C15.015 24.9878 14.6092 24.9892 14.153 24.5331L14.1506 24.5306L14.1432 24.5232L14.1334 24.5134C12.9038 23.2838 11.6728 22.0529 10.4447 20.8233C10.0188 20.3974 10.0159 19.9743 10.4375 19.5512L12.1552 17.8326L12.1574 17.8304L12.1587 17.8292L12.1589 17.829C13.8735 16.1135 15.5884 14.3979 17.3016 12.6814C17.4815 12.5015 17.6772 12.372 17.9678 12.3245L17.9693 12.326ZM20.6645 17.0689L17.9276 14.3319L15.9817 16.2775L15.9775 16.2817C14.6761 17.5828 13.3706 18.8879 12.0722 20.1873C12.9794 21.0958 13.9008 22.0173 14.808 22.9244L14.8107 22.9271C15.7853 21.9525 16.7632 20.9743 17.7401 19.9969L17.7452 19.9919L17.7479 19.9892C18.7229 19.0138 19.6969 18.0394 20.666 17.0704L20.6645 17.0689ZM7.00693 10.8093C7.0055 13.3908 9.10645 15.4975 11.6866 15.499V15.5004C14.2667 15.5019 16.372 13.3995 16.3734 10.8179C16.3749 8.23488 14.2739 6.12961 11.6938 6.12817C9.1122 6.12673 7.00837 8.22768 7.00693 10.8093ZM8.56826 10.7977C8.57257 9.08389 9.9828 7.68662 11.6995 7.6895H11.701C13.4148 7.69381 14.815 9.09972 14.8135 10.8165C14.8107 12.5433 13.399 13.9463 11.6693 13.9377C9.95834 13.929 8.5625 12.5159 8.56826 10.7977ZM22.4171 14.6788L22.4171 14.6788C22.3099 14.6328 22.1695 14.5725 22.0661 14.4744C21.5351 13.9722 21.0214 13.4498 20.5106 12.926C20.1969 12.6051 20.2026 12.136 20.5034 11.8295C20.8099 11.5158 21.2876 11.5101 21.6172 11.8324C22.1395 12.3447 22.6561 12.8627 23.1699 13.3851C23.4087 13.6283 23.4692 13.9247 23.3368 14.2399C23.2087 14.5464 22.9612 14.6975 22.5223 14.7262H22.5209C22.4936 14.7116 22.4578 14.6962 22.4171 14.6788ZM12.7339 10.0315C12.6482 10.0319 12.5609 10.0322 12.4708 10.0322L12.4665 10.0308V9.33284C12.4636 8.82055 12.1384 8.46512 11.6779 8.46944C11.2261 8.47375 10.9095 8.82343 10.9066 9.32421V10.0308C10.8166 10.0308 10.7307 10.0306 10.6476 10.0304C10.4892 10.0301 10.3406 10.0298 10.1915 10.0308C9.69644 10.0351 9.34676 10.3589 9.34676 10.8121C9.3482 11.264 9.69931 11.5878 10.1943 11.5921C10.3486 11.593 10.5022 11.5927 10.6605 11.5924C10.7416 11.5922 10.8238 11.5921 10.9081 11.5921C10.9081 11.6827 10.9077 11.7698 10.9074 11.8545C10.9068 12.0174 10.9062 12.1717 10.9081 12.326C10.9138 12.8023 11.2419 13.1505 11.6837 13.1534C12.1269 13.1563 12.4622 12.8095 12.4694 12.336C12.4713 12.1764 12.4707 12.0173 12.4701 11.8522C12.4697 11.7674 12.4694 11.681 12.4694 11.5921C12.5612 11.5921 12.6499 11.5926 12.7364 11.5931C12.9035 11.594 13.0627 11.5949 13.222 11.5921C13.6825 11.5849 14.025 11.2554 14.0307 10.8222C14.0365 10.379 13.6897 10.0394 13.2191 10.0322C13.0596 10.0303 12.9 10.0309 12.7339 10.0315Z" fill="white"/>
</svg>
