<svg width="13" height="15" viewBox="0 0 13 15" fill="none" xmlns="http://www.w3.org/2000/svg">
<path d="M10.625 5.265V4.375C10.625 3.21468 10.1641 2.10188 9.34359 1.28141C8.52312 0.460936 7.41032 0 6.25 0C5.08968 0 3.97688 0.460936 3.15641 1.28141C2.33594 2.10188 1.875 3.21468 1.875 4.375V5.265C1.31835 5.50794 0.844558 5.90783 0.511562 6.41576C0.178566 6.92369 0.000798985 7.51765 0 8.125V11.875C0.000992411 12.7035 0.330551 13.4978 0.916387 14.0836C1.50222 14.6694 2.2965 14.999 3.125 15H9.375C10.2035 14.999 10.9978 14.6694 11.5836 14.0836C12.1695 13.4978 12.499 12.7035 12.5 11.875V8.125C12.4992 7.51765 12.3214 6.92369 11.9884 6.41576C11.6554 5.90783 11.1817 5.50794 10.625 5.265ZM3.125 4.375C3.125 3.5462 3.45424 2.75134 4.04029 2.16529C4.62634 1.57924 5.4212 1.25 6.25 1.25C7.0788 1.25 7.87366 1.57924 8.45971 2.16529C9.04576 2.75134 9.375 3.5462 9.375 4.375V5H3.125V4.375ZM11.25 11.875C11.25 12.3723 11.0525 12.8492 10.7008 13.2008C10.3492 13.5525 9.87228 13.75 9.375 13.75H3.125C2.62772 13.75 2.15081 13.5525 1.79918 13.2008C1.44754 12.8492 1.25 12.3723 1.25 11.875V8.125C1.25 7.62772 1.44754 7.15081 1.79918 6.79917C2.15081 6.44754 2.62772 6.25 3.125 6.25H9.375C9.87228 6.25 10.3492 6.44754 10.7008 6.79917C11.0525 7.15081 11.25 7.62772 11.25 8.125V11.875Z" fill="#F26639"/>
<path d="M6.25 8.75C6.08424 8.75 5.92527 8.81585 5.80806 8.93306C5.69085 9.05027 5.625 9.20924 5.625 9.375V10.625C5.625 10.7908 5.69085 10.9497 5.80806 11.0669C5.92527 11.1842 6.08424 11.25 6.25 11.25C6.41576 11.25 6.57473 11.1842 6.69194 11.0669C6.80915 10.9497 6.875 10.7908 6.875 10.625V9.375C6.875 9.20924 6.80915 9.05027 6.69194 8.93306C6.57473 8.81585 6.41576 8.75 6.25 8.75Z" fill="#F26639"/>
</svg>
