<svg width="30" height="30" viewBox="0 0 30 30" fill="none" xmlns="http://www.w3.org/2000/svg">
<rect width="30" height="30" rx="2.5" fill="#ED4C28"/>
<path d="M21.8868 23C21.5911 23 21.3131 22.8847 21.1002 22.6747L15.5 17.0716L9.89976 22.6718C9.68983 22.8817 9.41189 22.997 9.11325 22.997C8.81461 22.997 8.53666 22.8817 8.32377 22.6688C7.89208 22.2371 7.89208 21.5305 8.32377 21.0958L13.927 15.4985L8.32673 9.89829C7.89503 9.46363 7.89503 8.75695 8.32673 8.32525C8.53666 8.11532 8.81756 8 9.11325 8C9.40893 8 9.68983 8.11532 9.89976 8.32525L15.5 13.9284L21.1032 8.32525C21.3131 8.11532 21.5911 8 21.8897 8C22.1884 8 22.4663 8.11532 22.6762 8.32525C23.1079 8.75695 23.1079 9.46363 22.6762 9.89829L17.0701 15.4985L22.6703 21.0988C23.102 21.5334 23.102 22.2401 22.6703 22.6718C22.4604 22.8817 22.1795 22.997 21.8838 22.997L21.8868 23Z" fill="white"/>
</svg>
