<svg width="15" height="20" viewBox="0 0 15 20" fill="none" xmlns="http://www.w3.org/2000/svg">
<path d="M10.8333 0H10.725C10.3521 0.00354318 9.99084 0.130844 9.69808 0.361916C9.40532 0.592988 9.19759 0.914744 9.1075 1.27667C9.01102 1.62903 8.80144 1.93994 8.51099 2.16155C8.22055 2.38316 7.86533 2.5032 7.5 2.5032C7.13467 2.5032 6.77945 2.38316 6.48901 2.16155C6.19856 1.93994 5.98898 1.62903 5.8925 1.27667C5.80241 0.914744 5.59468 0.592988 5.30192 0.361916C5.00916 0.130844 4.64795 0.00354318 4.275 0L4.16667 0C3.062 0.00132321 2.00296 0.440735 1.22185 1.22185C0.440735 2.00296 0.00132321 3.062 0 4.16667V17.5C0 18.163 0.263392 18.7989 0.732233 19.2678C1.20107 19.7366 1.83696 20 2.5 20H4.275C4.64795 19.9965 5.00916 19.8692 5.30192 19.6381C5.59468 19.407 5.80241 19.0853 5.8925 18.7233C5.98898 18.371 6.19856 18.0601 6.48901 17.8385C6.77945 17.6168 7.13467 17.4968 7.5 17.4968C7.86533 17.4968 8.22055 17.6168 8.51099 17.8385C8.80144 18.0601 9.01102 18.371 9.1075 18.7233C9.19759 19.0853 9.40532 19.407 9.69808 19.6381C9.99084 19.8692 10.3521 19.9965 10.725 20H12.5C13.163 20 13.7989 19.7366 14.2678 19.2678C14.7366 18.7989 15 18.163 15 17.5V4.16667C14.9987 3.062 14.5593 2.00296 13.7782 1.22185C12.997 0.440735 11.938 0.00132321 10.8333 0ZM12.5 18.3333L10.7142 18.2808C10.5184 17.5737 10.0949 16.9509 9.5091 16.509C8.92335 16.0671 8.20816 15.8308 7.47444 15.8368C6.74073 15.8428 6.02949 16.0907 5.45102 16.5421C4.87255 16.9934 4.45917 17.6231 4.275 18.3333H2.5C2.27899 18.3333 2.06702 18.2455 1.91074 18.0893C1.75446 17.933 1.66667 17.721 1.66667 17.5V14.1667H3.33333C3.55435 14.1667 3.76631 14.0789 3.92259 13.9226C4.07887 13.7663 4.16667 13.5543 4.16667 13.3333C4.16667 13.1123 4.07887 12.9004 3.92259 12.7441C3.76631 12.5878 3.55435 12.5 3.33333 12.5H1.66667V4.16667C1.66667 3.50363 1.93006 2.86774 2.3989 2.3989C2.86774 1.93006 3.50363 1.66667 4.16667 1.66667L4.28583 1.71917C4.48102 2.42202 4.90083 3.0417 5.48118 3.48363C6.06153 3.92555 6.77055 4.16543 7.5 4.16667C8.2393 4.16038 8.9563 3.91275 9.54192 3.46147C10.1275 3.01019 10.5497 2.37995 10.7442 1.66667H10.8333C11.4964 1.66667 12.1323 1.93006 12.6011 2.3989C13.0699 2.86774 13.3333 3.50363 13.3333 4.16667V12.5H11.6667C11.4457 12.5 11.2337 12.5878 11.0774 12.7441C10.9211 12.9004 10.8333 13.1123 10.8333 13.3333C10.8333 13.5543 10.9211 13.7663 11.0774 13.9226C11.2337 14.0789 11.4457 14.1667 11.6667 14.1667H13.3333V17.5C13.3333 17.721 13.2455 17.933 13.0893 18.0893C12.933 18.2455 12.721 18.3333 12.5 18.3333Z" fill="white"/>
<path d="M8.33325 12.5H6.66659C6.44557 12.5 6.23361 12.5878 6.07733 12.7441C5.92105 12.9004 5.83325 13.1123 5.83325 13.3333C5.83325 13.5543 5.92105 13.7663 6.07733 13.9226C6.23361 14.0789 6.44557 14.1667 6.66659 14.1667H8.33325C8.55427 14.1667 8.76623 14.0789 8.92251 13.9226C9.07879 13.7663 9.16659 13.5543 9.16659 13.3333C9.16659 13.1123 9.07879 12.9004 8.92251 12.7441C8.76623 12.5878 8.55427 12.5 8.33325 12.5Z" fill="white"/>
</svg>
