<svg width="27" height="22" viewBox="0 0 27 22" fill="none" xmlns="http://www.w3.org/2000/svg">
<path d="M26.07 3.37C25.65 1.36 23.98 0.01 21.93 0H4.3C1.82 0 0 1.81 0 4.3C0 8.67 0 13.04 0 17.42C0 19.86 1.85 21.7 4.29 21.7H21.87C24.31 21.7 26.15 19.86 26.15 17.42V4.3C26.15 3.94 26.13 3.65 26.07 3.37ZM24.45 17.42C24.45 18.94 23.39 20 21.87 20H4.29C2.77 20 1.71 18.94 1.71 17.42C1.7 13.04 1.7 8.67 1.71 4.3C1.71 2.77 2.78 1.7 4.3 1.7H21.93C23.16 1.7 24.15 2.51 24.4 3.72C24.44 3.88 24.45 4.06 24.45 4.3V17.42Z" fill="#F1EFE3"/>
<path d="M9.7402 10.9502C9.7502 11.6602 9.7402 12.3702 9.7402 13.0802V15.2102C9.7402 15.9002 9.2802 16.4002 8.6402 16.4102C8.0102 16.4102 7.5202 15.9102 7.5202 15.2302C7.5102 13.7902 7.5102 12.3602 7.5202 10.9302C7.5202 10.2202 7.99019 9.74015 8.6502 9.75015C9.29019 9.75015 9.7402 10.2502 9.7402 10.9502Z" fill="#F1EFE3"/>
<path d="M13.9602 7.96012C14.1302 8.18012 14.1902 8.44012 14.1802 8.72012V11.9401C14.1802 13.0701 14.1902 14.2001 14.1802 15.3201C14.1802 15.7801 13.9402 16.1201 13.5302 16.3101C13.1302 16.4901 12.7302 16.4301 12.3802 16.1601C12.0902 15.9301 11.9702 15.6201 11.9702 15.2501V8.59012C11.9802 8.11012 12.2902 7.71012 12.7302 7.57012C13.1902 7.43012 13.6702 7.58012 13.9602 7.96012Z" fill="#F1EFE3"/>
<path d="M18.6302 6.56992V10.8399C18.6302 12.2999 18.6402 13.7599 18.6302 15.2199C18.6302 16.0099 18.0002 16.5399 17.2602 16.3699C16.7602 16.2599 16.4102 15.8099 16.4102 15.2699C16.4102 14.0499 16.4102 12.8399 16.4102 11.6199V6.41992C16.4102 5.83992 16.7902 5.40992 17.3502 5.30992C17.8702 5.21992 18.3802 5.52992 18.5602 6.03992C18.6302 6.20992 18.6302 6.38992 18.6302 6.56992Z" fill="#F1EFE3"/>
</svg>
