<svg width="40" height="40" viewBox="0 0 40 40" fill="none" xmlns="http://www.w3.org/2000/svg">
<circle cx="20" cy="20" r="20" fill="#3473BA"/>
<path d="M29.1325 19.1656C28.9115 19.1656 28.6996 19.0779 28.5433 18.9216C28.3871 18.7654 28.2993 18.5535 28.2993 18.3325C28.2976 16.5653 27.5948 14.871 26.3452 13.6214C25.0956 12.3718 23.4013 11.669 21.6341 11.6673C21.4131 11.6673 21.2012 11.5795 21.045 11.4233C20.8887 11.267 20.801 11.0551 20.801 10.8341C20.801 10.6132 20.8887 10.4012 21.045 10.245C21.2012 10.0888 21.4131 10.001 21.6341 10.001C23.843 10.0034 25.9608 10.882 27.5227 12.4439C29.0846 14.0058 29.9632 16.1236 29.9656 18.3325C29.9656 18.5535 29.8778 18.7654 29.7216 18.9216C29.5653 19.0779 29.3534 19.1656 29.1325 19.1656ZM26.633 18.3325C26.633 17.0067 26.1063 15.7352 25.1689 14.7977C24.2314 13.8603 22.9599 13.3336 21.6341 13.3336C21.4131 13.3336 21.2012 13.4214 21.045 13.5776C20.8887 13.7339 20.801 13.9458 20.801 14.1667C20.801 14.3877 20.8887 14.5996 21.045 14.7559C21.2012 14.9121 21.4131 14.9999 21.6341 14.9999C22.518 14.9999 23.3656 15.351 23.9906 15.976C24.6156 16.601 24.9667 17.4486 24.9667 18.3325C24.9667 18.5535 25.0545 18.7654 25.2107 18.9216C25.367 19.0779 25.5789 19.1656 25.7999 19.1656C26.0208 19.1656 26.2327 19.0779 26.389 18.9216C26.5452 18.7654 26.633 18.5535 26.633 18.3325ZM28.4518 28.467L29.21 27.593C29.6925 27.1089 29.9635 26.4532 29.9635 25.7696C29.9635 25.0861 29.6925 24.4304 29.21 23.9463C29.1841 23.9204 27.1796 22.3783 27.1796 22.3783C26.6985 21.9203 26.0594 21.6653 25.3952 21.6662C24.731 21.6672 24.0927 21.924 23.6128 22.3833L22.0249 23.7213C20.7286 23.1848 19.5511 22.3976 18.56 21.4048C17.5689 20.4119 16.7837 19.2331 16.2494 17.9359L17.5825 16.3529C18.0421 15.8732 18.2992 15.2347 18.3003 14.5703C18.3014 13.9059 18.0464 13.2666 17.5883 12.7854C17.5883 12.7854 16.0445 10.7833 16.0187 10.7575C15.5433 10.279 14.8988 10.0068 14.2244 9.99966C13.55 9.99249 12.8999 10.2509 12.4144 10.7192L11.4563 11.5523C5.79589 18.1192 17.9849 30.2141 24.7684 29.9966C25.4534 30.0006 26.1323 29.8673 26.7649 29.6046C27.3975 29.3418 27.9711 28.955 28.4518 28.467Z" fill="white"/>
</svg>
