<svg width="45" height="45" viewBox="0 0 45 45" fill="none" xmlns="http://www.w3.org/2000/svg">
<rect width="45" height="45" rx="11.522" fill="#1AB69D" fill-opacity="0.1"/>
<path fill-rule="evenodd" clip-rule="evenodd" d="M19.0521 16.0944C18.2704 16.3644 17.4933 16.6345 16.7163 16.9045C16.7211 16.9235 16.7211 16.9614 16.7211 16.9614H17.0101H32.4935C32.8204 16.9614 33.1284 16.9614 33.389 16.7198C33.4528 16.6595 33.5404 16.6258 33.6261 16.5928C33.655 16.5817 33.6837 16.5706 33.7112 16.5587C34.1755 16.3692 34.2844 16.1417 34.1186 15.6727C33.9623 15.2273 33.8047 14.7808 33.6472 14.3342C33.4897 13.8877 33.3321 13.4411 33.1758 12.9958C32.8299 12.015 32.0197 11.6218 31.0343 11.9629L31.033 11.9633C27.0394 13.3419 23.0458 14.7205 19.0521 16.0944ZM28.0402 18.0416V32.4401C28.0058 32.4418 27.9726 32.4442 27.9402 32.4465L27.9401 32.4465C27.8834 32.4505 27.8291 32.4543 27.7749 32.4543H12.7226C11.8698 32.4543 11.287 32.0374 11.107 31.2935C11.0645 31.1188 11.0596 30.9299 11.0549 30.7457L11.0548 30.7439C11.0517 30.1438 11.0527 29.5437 11.0538 28.9435C11.0543 28.6435 11.0548 28.3434 11.0548 28.0433C11.0548 27.4369 11.1496 27.3326 11.756 27.2853C12.7178 27.2095 13.5138 26.4798 13.6323 25.5701C13.7649 24.5325 13.2153 23.6181 12.2535 23.3054C12.0804 23.249 11.8953 23.2284 11.7125 23.2081L11.7125 23.2081C11.6652 23.2028 11.618 23.1976 11.5713 23.1917C11.2254 23.1491 11.0691 23.0069 11.0643 22.6706L11.0617 22.3811C11.0526 21.4163 11.0436 20.4515 11.0738 19.4867C11.0975 18.667 11.6897 18.108 12.5094 18.0511C12.6136 18.0416 12.7178 18.0416 12.8221 18.0416H27.7275H28.0402ZM20.578 25.7549H23.7382C24.2167 25.7549 24.4347 25.5986 24.4394 25.2527C24.4441 24.8974 24.2215 24.7363 23.7287 24.7363H17.432C17.4062 24.7363 17.3792 24.7348 17.352 24.7334L17.352 24.7334C17.2694 24.7289 17.1847 24.7243 17.1241 24.76C16.9867 24.8358 16.8256 24.9353 16.7687 25.0679C16.6029 25.447 16.8588 25.7549 17.3231 25.7549C18.0464 25.7581 18.7697 25.757 19.493 25.756C19.8547 25.7554 20.2164 25.7549 20.578 25.7549ZM20.5922 27.3137H17.2899C17.0435 27.3137 16.8493 27.3848 16.7593 27.6359C16.6219 28.0244 16.8682 28.3323 17.3231 28.3323H23.1839H23.9088C24.122 28.3276 24.302 28.2471 24.392 28.0386C24.5484 27.6643 24.3162 27.3184 23.8993 27.3184H20.597L20.5922 27.3137ZM18.7729 23.1775H20.289C20.6301 23.1775 20.8149 23.0022 20.8244 22.6942C20.8339 22.3721 20.6491 22.1636 20.308 22.1636C19.2893 22.1541 18.2707 22.1541 17.252 22.1636C16.9204 22.1636 16.7119 22.3863 16.7214 22.6895C16.7308 22.9927 16.9298 23.1775 17.2567 23.1775H18.7729ZM29.0872 18.0369H30.4754H33.0813C34.1141 18.0416 34.7301 18.6528 34.7348 19.6857C34.738 20.3113 34.7369 20.9389 34.7359 21.5659V21.5665C34.7353 21.8795 34.7348 22.1924 34.7348 22.5047C34.7348 22.9738 34.5642 23.1538 34.0952 23.2012C33.1144 23.3007 32.4132 23.9356 32.2237 24.8926C32.001 26.0202 32.8728 27.181 34.0194 27.2758C34.0905 27.2805 34.1615 27.29 34.2326 27.2995C34.5595 27.3516 34.7253 27.5127 34.7253 27.8443C34.7263 28.052 34.7276 28.2596 34.7289 28.4673V28.4675C34.7342 29.2972 34.7395 30.1263 34.7206 30.9524C34.6969 31.8147 34.1189 32.4117 33.2613 32.4354C32.298 32.4588 31.3323 32.4538 30.3676 32.4489H30.3675C29.9658 32.4469 29.5642 32.4448 29.163 32.4448C29.1464 32.4448 29.1321 32.4401 29.1135 32.4341C29.1057 32.4315 29.0971 32.4287 29.0872 32.4259V18.0369Z" fill="#1AB69D"/>
</svg>
