<svg width="308" height="429" viewBox="0 0 308 429" fill="none" xmlns="http://www.w3.org/2000/svg">
<g clip-path="url(#clip0_320_494)">
<path d="M237.411 393.752C247.139 368.963 257.013 341.995 249.863 316.348C246.263 303.434 238.608 292.092 232.554 280.123C223.173 261.575 217.26 240.806 203.459 225.242C191.918 212.226 175.193 203.857 157.81 202.625C140.428 201.393 122.604 207.368 109.644 218.98C101.709 226.09 95.6627 235.076 87.8544 242.325C79.7042 249.891 69.8308 255.385 61.4347 262.679C42.589 279.051 32.3019 304.115 31.9139 329.031C31.5266 353.947 40.5179 378.537 55.0005 398.849L237.411 393.752Z" fill="#E4F9FF"/>
<path d="M234.22 343.486C239.235 342.081 244.66 344.948 247.819 349.089C248.537 350.029 249.159 351.027 249.713 352.062C247.398 343.478 246.412 334.534 246.834 325.653C247.049 321.14 247.997 316.021 251.844 313.653C256.451 310.817 262.846 313.841 265.534 318.533C268.222 323.227 268.22 328.932 268.145 334.34C270.869 320.566 277.283 307.539 286.541 296.983C289.818 293.248 294.782 289.535 299.318 291.562C304.517 293.885 304.234 301.311 302.734 306.803C298.908 320.817 292.668 334.169 284.371 346.093C288.267 343.738 292.381 341.315 296.93 341.127C301.478 340.941 306.501 343.857 306.973 348.385C307.322 351.736 305.193 354.813 302.955 357.332C295.256 365.999 284.927 372.299 273.697 375.176C278.536 374.478 284.777 374.717 286.637 379.238C287.845 382.176 286.095 385.409 283.912 387.716C269.611 402.828 247.638 397.326 233.59 398.49C229.323 387.576 225.666 375.836 224.951 364.139C224.701 360.053 224.689 355.856 226.027 351.987C227.365 348.118 230.28 344.589 234.222 343.485L234.22 343.486Z" fill="#7FE4FF"/>
<path d="M244.774 383.453C236.909 376.951 230.176 369.191 224.821 360.568C224.817 359.808 224.834 359.048 224.875 358.291C230.308 367.438 237.292 375.652 245.524 382.485C246.182 381.636 246.838 380.784 247.49 379.93C240.132 369.193 234.824 357.15 231.775 344.552C232.14 344.334 232.515 344.136 232.905 343.963C234.106 348.983 235.665 353.916 237.578 358.713C238.65 353.632 239.049 348.454 238.776 343.297C239.193 343.371 239.606 343.467 240.015 343.585C240.283 349.277 239.753 354.991 238.42 360.575C238.411 360.613 238.398 360.646 238.384 360.678C241.071 367.043 244.379 373.153 248.272 378.899C254.691 370.432 260.795 361.726 266.566 352.805C266.385 352.794 266.206 352.709 266.084 352.514C263.731 348.784 261.614 344.92 259.737 340.947C259.719 340.937 259.702 340.931 259.683 340.92C254.931 337.902 250.589 334.311 246.744 330.256C246.74 329.656 246.742 329.055 246.751 328.455C250.32 332.37 254.353 335.868 258.776 338.852C255.254 330.967 252.671 322.679 251.087 314.184C251.326 313.995 251.578 313.816 251.844 313.652C251.958 313.582 252.076 313.517 252.192 313.454C254.664 327.072 259.748 340.161 267.15 351.904C273.626 341.838 279.68 331.499 285.288 320.92C285.239 320.859 285.198 320.785 285.172 320.696C283.416 314.752 282.407 308.639 282.134 302.489C282.517 301.964 282.905 301.443 283.301 300.929C283.462 307.164 284.394 313.374 286.088 319.408C286.471 318.679 286.848 317.947 287.226 317.217C286.899 309.9 287.202 302.582 288.113 295.332C288.561 294.9 289.028 294.481 289.512 294.085C288.566 301.003 288.187 307.989 288.378 314.981C292.293 307.305 295.97 299.508 299.413 291.609C299.797 291.788 300.151 291.996 300.476 292.229C295.162 304.405 289.288 316.333 282.871 327.963C288.736 325.403 294.203 322.04 299.109 317.989C298.826 318.745 298.536 319.498 298.238 320.249C294.895 322.848 291.318 325.146 287.542 327.099C287.561 327.11 287.579 327.12 287.597 327.135C289.453 328.619 291.568 329.644 293.804 330.169C293.616 330.548 293.424 330.924 293.231 331.3C290.976 330.735 288.841 329.692 286.962 328.19C286.736 328.009 286.681 327.749 286.731 327.518C285.314 328.228 283.872 328.892 282.403 329.504C282.26 329.564 282.122 329.568 281.998 329.537C279.211 334.537 276.327 339.483 273.339 344.368C269.483 350.672 265.459 356.874 261.281 362.97C268.603 362.128 275.817 360.54 282.802 358.262C282.809 358.25 282.813 358.238 282.821 358.226C286.941 352.17 291.535 346.464 296.554 341.155C296.678 341.146 296.802 341.133 296.927 341.127C297.365 341.109 297.807 341.121 298.25 341.159C293.329 346.275 288.812 351.771 284.744 357.609C292.423 354.946 299.804 351.439 306.725 347.163C306.843 347.556 306.928 347.964 306.971 348.385C306.974 348.404 306.973 348.423 306.975 348.443C293.078 356.943 277.401 362.365 261.15 364.216C260.876 364.247 260.702 364.117 260.623 363.931C259.872 365.02 259.117 366.105 258.357 367.186C275.409 366.229 292.036 360.907 306.493 351.882C306.239 352.582 305.905 353.263 305.514 353.923C291.148 362.537 274.751 367.558 257.983 368.44C257.806 368.449 257.671 368.392 257.574 368.301C253.245 374.419 248.753 380.421 244.109 386.304C258.543 389.14 273.833 386.273 286.293 378.546C286.419 378.765 286.534 378.995 286.634 379.239C286.694 379.383 286.74 379.528 286.785 379.672C273.942 387.569 258.277 390.441 243.422 387.423C243.364 387.411 243.315 387.392 243.269 387.371C240.687 390.621 238.059 393.834 235.384 397.009C234.977 397.491 234.564 397.968 234.156 398.449C233.966 398.463 233.775 398.476 233.588 398.492C233.473 398.198 233.36 397.901 233.246 397.605C237.187 392.97 241.033 388.252 244.773 383.454L244.774 383.453Z" fill="#C3EFFF"/>
<path d="M2.6743 330.298C2.656 330.322 2.63769 330.345 2.62012 330.369C1.65086 331.684 2.06814 333.535 2.61134 335.075C7.17434 348.019 17.9438 358.599 31.0304 362.526C24.3385 356.24 18.807 348.702 14.7776 340.413C13.1539 337.072 11.6993 333.507 8.98842 330.99C8.10188 330.167 7.05721 329.459 5.87125 329.243C4.71458 329.032 3.40783 329.373 2.67503 330.298L2.6743 330.298Z" fill="#7FE4FF"/>
<path d="M20.782 310.453C20.0455 311.521 19.7051 312.843 19.4313 314.128C16.7139 326.906 18.5045 340.605 24.4226 352.201C26.2754 339.391 27.0749 326.432 26.8186 313.499C26.7857 311.833 26.5778 309.883 25.1634 309.033C23.8808 308.263 22.1319 308.858 21.14 309.99C21.0104 310.138 20.8911 310.292 20.7813 310.452L20.782 310.453Z" fill="#7FE4FF"/>
<path d="M34.394 336.999C33.5668 338.052 33.1722 339.381 32.886 340.692C30.7615 350.435 33.7044 360.532 37.3765 369.772C38.2154 371.882 39.2228 374.118 40.9131 375.525C40.9387 364.338 40.9644 353.152 40.99 341.966C40.9929 340.656 40.9907 339.316 40.5573 338.083C40.1239 336.851 39.1664 335.725 37.8963 335.471C36.5902 335.21 35.2337 335.934 34.4013 336.989C34.3984 336.992 34.3962 336.996 34.3933 336.999H34.394Z" fill="#7FE4FF"/>
<path d="M18.3221 375.934C18.4136 377.096 19.2746 378.229 20.1318 379.109C28.8186 388.025 41.9183 392.386 54.1717 390.102C44.6137 383.905 35.0954 376.747 24.0477 373.561C23.0308 373.268 21.973 373.007 20.9232 373.147C19.8734 373.287 18.8229 373.91 18.4576 374.916C18.3346 375.254 18.2965 375.596 18.3229 375.934H18.3221Z" fill="#7FE4FF"/>
<path d="M5.48839 358.694C4.18384 357.57 3.06157 356.084 3.57915 354.516C4.00741 353.22 5.48107 352.518 6.83101 352.564C8.18022 352.61 9.43426 353.238 10.6297 353.87C21.7148 359.723 32.0501 367.019 41.2955 375.529C28.7119 372.529 16.7301 366.989 6.27317 359.316C6.01182 359.124 5.74681 358.916 5.48839 358.693V358.694Z" fill="#7FE4FF"/>
<path d="M40.619 375.36C28.4688 368.095 16.3186 360.83 4.16916 353.565C3.92392 353.816 3.72919 354.112 3.60547 354.45C9.01182 357.683 14.4189 360.916 19.8252 364.148C18.1847 364.419 16.5448 364.69 14.9043 364.961C15.383 365.239 15.8625 365.516 16.3457 365.786C17.9702 365.518 19.5946 365.25 21.2191 364.981C26.4571 368.113 31.6943 371.245 36.9323 374.377C38.1541 374.729 39.384 375.055 40.619 375.359V375.36Z" fill="#00C2FF"/>
<path d="M23.2066 308.762C22.3808 319.473 22.293 330.228 22.9526 340.946C21.6356 339.669 20.3947 338.327 19.2234 336.926C19.3581 337.634 19.506 338.339 19.6663 339.041C20.6656 340.154 21.7073 341.231 22.8025 342.26C22.8786 342.332 22.9613 342.371 23.0441 342.39C23.2366 345.226 23.4804 348.058 23.7761 350.887C23.9862 351.327 24.2 351.765 24.4218 352.2C24.5272 351.471 24.6283 350.741 24.7271 350.01C24.2037 344.826 23.8552 339.627 23.6795 334.421C24.6246 332.359 25.6144 330.32 26.6488 328.304C26.6832 327.499 26.7132 326.694 26.7388 325.889C25.6488 327.94 24.6034 330.016 23.607 332.117C23.5792 330.941 23.5594 329.766 23.5492 328.589C23.5917 328.537 23.6268 328.473 23.6488 328.396C24.5565 325.283 25.6297 322.232 26.8582 319.246C26.8618 318.369 26.8611 317.492 26.8552 316.615C25.6114 319.43 24.5053 322.303 23.5463 325.232C23.5792 319.721 23.8164 314.211 24.2432 308.714C23.9021 308.667 23.5507 308.685 23.2037 308.76L23.2066 308.762Z" fill="#00C2FF"/>
<path d="M47.305 346.344C46.3438 347.291 45.7025 348.84 45.3833 350.215C42.1732 364.051 45.2625 379.224 53.5701 390.644C53.5913 377.434 53.2875 364.227 52.6623 351.036C52.5532 348.728 51.89 345.783 49.6257 345.479C48.7128 345.357 47.939 345.72 47.305 346.344Z" fill="#7FE4FF"/>
<path d="M50.6797 375.019C48.9499 365.29 48.3781 355.361 48.9857 345.474C48.6051 345.518 48.2544 345.654 47.9301 345.853C47.5985 351.608 47.66 357.376 48.1124 363.109C46.7837 361.077 45.5216 359.004 44.3268 356.892C44.2719 357.517 44.2324 358.142 44.2016 358.768C45.4462 360.904 46.7588 363.002 48.1453 365.056C48.1892 365.121 48.2405 365.169 48.2961 365.207C48.392 366.209 48.4996 367.21 48.6197 368.21C47.0304 366.412 45.5428 364.535 44.1606 362.583C44.1775 363.213 44.2053 363.843 44.2463 364.472C45.5735 366.258 46.9806 367.986 48.4821 369.639C48.586 369.754 48.7046 369.8 48.8195 369.8C49.7412 376.733 51.2464 383.586 53.3137 390.281C53.4001 390.402 53.4828 390.525 53.5707 390.645C53.5722 389.597 53.5685 388.55 53.5663 387.503C52.5121 383.815 51.6292 380.082 50.9184 376.317C51.7844 375.382 52.6124 374.418 53.4111 373.431C53.4001 372.882 53.3906 372.333 53.3782 371.785C52.5202 372.894 51.6227 373.975 50.6797 375.02V375.019Z" fill="#00C2FF"/>
<path d="M13.6179 332.595C26.0126 358.51 43.1606 381.923 63.9068 401.376C69.7239 406.83 40.8334 377.415 25.9248 353.064C21.7783 346.291 17.9884 339.294 14.5528 332.11C14.2585 331.495 13.3243 331.98 13.6179 332.595Z" fill="#00C2FF"/>
<path d="M0.246643 295.4C0.245911 295.409 0.244447 295.419 0.243715 295.429C-1.32511 310.921 4.75986 327.002 16.1956 337.407C15.3544 323.244 12.3419 309.225 7.31846 295.991C6.84554 294.744 6.3243 293.459 5.35138 292.557C4.37846 291.655 2.82061 291.254 1.71518 291.991C0.655871 292.699 0.377684 294.122 0.246643 295.4Z" fill="#7FE4FF"/>
<path d="M2.54534 291.656C3.55999 298.973 5.07026 306.206 7.06515 313.302C4.93336 312.148 2.86819 310.89 0.871826 309.532C0.963335 310.021 1.06216 310.509 1.16832 310.995C3.1903 312.328 5.2789 313.563 7.43265 314.691C7.44437 314.697 7.45608 314.7 7.46779 314.705C7.71889 315.568 7.97585 316.429 8.24086 317.288C6.08491 316.014 3.92896 314.741 1.77374 313.468C1.90624 313.959 2.0468 314.448 2.19395 314.935C4.31037 316.185 6.42679 317.435 8.54394 318.685C8.59665 318.717 8.64862 318.734 8.69914 318.745C10.6867 324.968 13.0535 331.071 15.7819 337.018C15.9203 337.146 16.0557 337.279 16.1963 337.406C16.1502 336.629 16.0945 335.852 16.0352 335.075C11.5586 325.063 8.123 314.603 5.7789 303.889C5.81477 303.843 5.84625 303.792 5.86822 303.73C6.571 301.743 7.27379 299.758 7.97658 297.772C7.7921 297.266 7.60762 296.759 7.41728 296.256C6.73792 298.175 6.05929 300.093 5.37992 302.012C4.67274 298.585 4.0805 295.131 3.5966 291.661C3.24447 291.595 2.88795 291.59 2.54607 291.655L2.54534 291.656Z" fill="#00C2FF"/>
<path d="M143.445 428.996C208.14 428.996 260.586 421.7 260.586 412.7C260.586 403.7 208.14 396.404 143.445 396.404C78.7497 396.404 26.304 403.7 26.304 412.7C26.304 421.7 78.7497 428.996 143.445 428.996Z" fill="#AEE4FF"/>
<path d="M60.7978 313.503L146.24 312.843L231.682 313.503L241.961 405.23H146.24H50.5188L60.7978 313.503Z" fill="#0065BE"/>
<path d="M146.239 322.781C193.428 322.781 231.682 318.627 231.682 313.503C231.682 308.378 193.428 304.224 146.239 304.224C99.0498 304.224 60.7957 308.378 60.7957 313.503C60.7957 318.627 99.0498 322.781 146.239 322.781Z" fill="#009ADB"/>
<path d="M146.24 420.048C199.105 420.048 241.961 413.414 241.961 405.23C241.961 397.047 199.105 390.413 146.24 390.413C93.3747 390.413 50.5188 397.047 50.5188 405.23C50.5188 413.414 93.3747 420.048 146.24 420.048Z" fill="#0065BE"/>
<path d="M122.611 152.13C122.611 152.13 124.688 143.831 125.867 143.421C127.047 143.01 126.014 149.39 125.628 151.859C125.241 154.327 122.61 152.13 122.61 152.13L122.611 152.13Z" fill="#FFC98E"/>
<path d="M122.542 151.364C122.542 151.364 123.156 148.765 123.361 147.898C124.408 146.956 126.113 147.651 126.113 147.651L125.523 153.074L122.543 151.364H122.542Z" fill="#D9F6FD"/>
<path d="M141.485 189.842C141.485 189.842 127.674 177.151 127.547 175.286C126.761 163.703 126.406 149.827 126.406 149.827C126.406 149.827 124.049 147.791 121.978 151.204C121.485 156.334 118.754 168.945 119.891 178.453C120.609 184.445 137.776 200.02 138.479 205.417C142.443 198.264 141.485 189.842 141.485 189.842V189.842Z" fill="#19355A"/>
<path d="M172.675 152.13C172.675 152.13 171.415 144.218 170.236 143.808C169.056 143.398 169.272 149.39 169.658 151.858C170.045 154.327 172.676 152.13 172.676 152.13H172.675Z" fill="#FFC98E"/>
<path d="M172.744 151.364C172.744 151.364 172.13 148.765 171.925 147.898C170.879 146.956 169.174 147.651 169.174 147.651L169.763 153.074L172.743 151.364H172.744Z" fill="#D9F6FD"/>
<path d="M153.802 189.842C153.802 189.842 167.612 177.151 167.739 175.286C168.525 163.703 168.88 149.827 168.88 149.827C168.88 149.827 171.237 147.791 173.309 151.204C173.801 156.334 176.533 168.945 175.395 178.453C174.678 184.445 157.51 200.02 156.808 205.417C152.843 198.264 153.802 189.842 153.802 189.842V189.842Z" fill="#19355A"/>
<path d="M165.251 309.734C165.251 309.734 165.391 315.851 165.219 316.023C165.047 316.195 163.353 315.271 163.353 315.271L163.15 310.054L165.251 309.734Z" fill="#00203E"/>
<path d="M169.378 317.801C169.378 317.922 163.594 318.042 163.353 317.801C163.185 317.633 163.252 316.458 163.309 315.77C163.331 315.475 163.353 315.271 163.353 315.271C163.353 315.271 163.715 315.03 164.558 315.271C166.101 315.464 167.369 316.136 168.216 316.741C168.959 317.269 169.378 317.745 169.378 317.802V317.801Z" fill="#00203E"/>
<path d="M163.309 315.769H164.731L165.083 315.163C165.083 315.163 169.552 316.711 169.639 316.883C169.725 317.055 169.639 317.94 169.639 317.94H163.246C163.246 317.94 162.862 316.492 163.309 315.769Z" fill="#19355A"/>
<path d="M169.672 317.458C169.661 317.708 169.639 317.941 169.639 317.941H163.246C163.246 317.941 163.194 317.743 163.15 317.458H169.672H169.672Z" fill="#00203E"/>
<path d="M148.501 229.42C148.489 231.622 148.721 234.465 149.113 237.634C149.129 237.772 149.147 237.911 149.166 238.051C149.25 238.727 149.342 239.42 149.441 240.122C149.508 240.609 149.579 241.1 149.654 241.596C149.741 242.188 149.833 242.788 149.927 243.391C151.98 256.47 161.724 314.381 161.724 314.381C162.203 314.978 165.266 314.924 166.336 314.683C166.327 280.004 160.416 229.977 159.135 227.628C156.617 227.796 152.961 228.442 151.366 228.753C150.547 228.914 149.88 229.065 149.398 229.183C149.263 229.216 149.141 229.247 149.035 229.274C148.688 229.365 148.502 229.42 148.502 229.42H148.501Z" fill="#19355A"/>
<path d="M137.201 309.734C137.201 309.734 137.061 315.851 137.234 316.023C137.406 316.195 139.1 315.271 139.1 315.271L139.302 310.054L137.201 309.734Z" fill="#00203E"/>
<path d="M133.075 317.801C133.075 317.922 138.859 318.042 139.1 317.801C139.268 317.633 139.201 316.458 139.144 315.77C139.122 315.475 139.1 315.271 139.1 315.271C139.1 315.271 138.738 315.03 137.895 315.271C136.352 315.464 135.084 316.136 134.237 316.741C133.494 317.269 133.075 317.745 133.075 317.802V317.801Z" fill="#00203E"/>
<path d="M139.144 315.769H137.722L137.37 315.163C137.37 315.163 132.9 316.711 132.814 316.883C132.728 317.055 132.814 317.94 132.814 317.94H139.206C139.206 317.94 139.591 316.492 139.144 315.769Z" fill="#19355A"/>
<path d="M132.781 317.458C132.791 317.708 132.814 317.941 132.814 317.941H139.206C139.206 317.941 139.259 317.743 139.302 317.458H132.78H132.781Z" fill="#00203E"/>
<path d="M135.352 314.58C136.414 314.846 139.477 314.978 139.971 314.39C139.979 314.254 146.253 267.138 149.531 242.528C149.573 242.213 149.615 241.901 149.655 241.595C149.709 241.187 149.764 240.784 149.815 240.389C150.578 234.673 151.14 230.447 151.365 228.753C151.436 228.219 151.474 227.936 151.474 227.936C151.474 227.936 149.437 227.896 146.644 227.758C146.532 227.753 146.417 227.747 146.3 227.74C144.56 227.65 141.324 227.452 139.349 227.271C137.222 230.952 135.353 265.79 135.353 314.58H135.352Z" fill="#19355A"/>
<path d="M146.753 234.181C147.108 235.695 147.593 237.463 149.166 238.051C149.231 238.079 149.297 238.1 149.366 238.121C149.392 238.788 149.415 239.455 149.441 240.122C149.47 240.923 149.501 241.727 149.53 242.529C149.572 242.213 149.614 241.902 149.654 241.596C149.741 242.188 149.832 242.788 149.927 243.391C149.889 242.391 149.852 241.39 149.814 240.39C149.676 236.655 149.535 232.92 149.397 229.184C149.382 228.818 149.37 228.45 149.355 228.084C149.348 227.849 148.983 227.849 148.991 228.084C149.005 228.481 149.02 228.878 149.034 229.275C149.14 232.095 149.246 234.915 149.351 237.734C149.269 237.704 149.189 237.672 149.113 237.636C147.542 236.898 147.183 234.658 146.899 233.1C146.58 231.351 146.513 229.576 146.647 227.805C146.649 227.789 146.647 227.775 146.644 227.76C146.62 227.592 146.367 227.587 146.299 227.742C146.291 227.76 146.285 227.782 146.283 227.805C146.121 229.944 146.264 232.093 146.753 234.183V234.181Z" fill="#00203E"/>
<path d="M137.377 240.577C140.203 242.393 142.919 243.784 142.919 243.784C142.919 243.784 143.25 235.694 143.553 227.581C143.675 227.589 143.796 227.596 143.917 227.603C143.617 235.646 143.288 243.674 143.283 243.8L143.26 244.368L142.753 244.109C142.57 244.015 140.034 242.709 137.344 240.993C137.355 240.853 137.366 240.715 137.377 240.577Z" fill="#00203E"/>
<path d="M161.307 241.354C158.079 243.171 154.386 244.336 154.164 244.405L153.724 244.542L153.692 244.082C153.683 243.959 153.155 236.366 152.692 228.506C152.727 228.499 152.762 228.494 152.798 228.487C152.859 228.476 152.92 228.466 152.982 228.455C153.005 228.45 153.029 228.447 153.053 228.442C153.521 236.385 154.056 244.057 154.056 244.057C154.056 244.057 157.954 242.842 161.258 240.959C161.274 241.09 161.29 241.221 161.306 241.355L161.307 241.354Z" fill="#00203E"/>
<path d="M157.653 227.936C147.955 233.987 141.469 228.379 141.469 228.379C141.469 228.379 139.309 219.036 139.349 217.931C139.354 217.778 139.359 217.625 139.365 217.474C139.462 214.874 139.585 212.333 139.739 210.012C139.766 209.595 139.796 209.186 139.826 208.785C139.836 208.643 139.847 208.5 139.857 208.36C140.04 205.975 140.187 202.245 140.455 200.668C141.518 194.424 139.316 191.671 141.346 190.389C143.838 188.816 145.469 189.447 145.469 189.447L152.051 189.335C152.051 189.335 154.403 190.178 155.778 193.327C156.983 196.09 157.023 221.787 157.654 227.936H157.653Z" fill="#D9F6FD"/>
<path d="M148.578 230.743C148.494 220.008 148.409 209.271 148.324 198.535C148.3 195.49 148.276 192.444 148.253 189.4L148.617 189.394C148.71 201.153 148.802 212.913 148.895 224.672C148.912 226.697 148.928 228.721 148.943 230.745C148.82 230.746 148.699 230.746 148.578 230.745V230.743Z" fill="white"/>
<path d="M143.325 174.659C143.325 174.659 142.238 179.127 143.386 182.195C144.278 184.581 145.594 186.484 147.978 186.216C151.69 185.799 154.133 179.874 152.785 175.162C151.436 170.45 144.143 171.62 143.326 174.659H143.325Z" fill="#FFC98E"/>
<path d="M152.532 180.351C152.532 180.351 151.125 176.128 151.125 173.876C148.31 173.031 144.931 173.876 144.931 173.876C144.931 173.876 144.368 179.506 142.679 180.913C142.116 176.409 141.553 171.905 142.679 170.779C143.524 170.216 145.494 170.498 146.339 171.342C145.494 169.654 147.184 169.654 149.436 171.061C151.406 169.935 154.221 170.779 153.94 174.157C153.658 177.535 153.095 180.632 153.095 180.632L152.532 180.35V180.351Z" fill="#0065BE"/>
<path d="M145.051 184.378L147.742 184.972L150.432 184.378C150.432 184.378 150.652 185.848 151.016 189.569C149.779 191.443 145.704 191.443 144.467 189.569C144.832 185.848 145.051 184.378 145.051 184.378Z" fill="#FFC98E"/>
<path d="M143.552 180.492C143.597 180.121 143.64 179.738 143.552 179.378C143.463 179.017 143.206 178.684 142.88 178.662C142.534 178.637 142.228 178.982 142.151 179.37C142.074 179.758 142.183 180.166 142.349 180.514C142.938 181.751 144.315 182.413 145.496 182.027L143.553 180.49L143.552 180.492Z" fill="#FFC98E"/>
<path d="M152.223 180.492C152.18 180.121 152.136 179.738 152.224 179.378C152.313 179.017 152.57 178.684 152.896 178.662C153.242 178.637 153.548 178.982 153.625 179.37C153.702 179.758 153.593 180.166 153.427 180.514C152.838 181.751 151.461 182.413 150.281 182.027L152.223 180.49V180.492Z" fill="#FFC98E"/>
<path d="M147.537 186.605C146.43 186.605 145.575 186.159 144.904 185.504C144.926 185.324 144.946 185.167 144.963 185.032C145.636 185.778 146.471 186.241 147.537 186.241C147.68 186.241 147.826 186.233 147.977 186.216C148.917 186.111 149.774 185.652 150.509 184.95C150.525 185.075 150.543 185.221 150.564 185.39C149.789 186.065 148.919 186.477 148.018 186.578C147.855 186.597 147.693 186.606 147.537 186.606V186.605Z" fill="#FFB769"/>
<path d="M148.034 191.96C148.855 196.578 150.335 208.553 150.623 213.235C150.623 213.235 149.328 215.903 148.014 219.794L145.381 213.6C145.558 209.255 147.209 195.825 147.386 191.48L148.034 191.961V191.96Z" fill="#FF4049"/>
<path d="M147.269 191.063C147.545 190.995 147.832 190.927 148.104 191.021C148.375 191.115 148.627 191.423 148.623 191.794C148.62 192.094 148.449 192.359 148.244 192.484C148.037 192.609 147.801 192.617 147.576 192.591C147.377 192.568 147.167 192.512 147.021 192.331C146.853 192.121 146.81 191.755 146.923 191.487L147.269 191.063Z" fill="#FF4049"/>
<path d="M150.824 187.676L152.051 189.334C152.051 189.334 152.125 191.479 149.266 193.038C148.755 192.326 147.733 190.974 147.733 190.974C147.733 190.974 150.461 189.397 150.824 187.676Z" fill="#C3EFFF"/>
<path d="M144.641 187.676L143.414 189.334C143.414 189.334 143.01 191.875 146.581 193.038C147.092 192.326 147.732 190.974 147.732 190.974C147.732 190.974 145.004 189.397 144.641 187.676Z" fill="#C3EFFF"/>
<path d="M152.051 189.334C152.051 189.334 152.157 206.278 152.4 215.024C152.643 223.77 154.057 244.057 154.057 244.057C154.057 244.057 161.756 241.658 164.686 238.377C163.121 228.173 159.25 189.282 159.25 189.282L152.052 189.334H152.051Z" fill="#19355A"/>
<path d="M155.087 208.416C155.342 207.685 155.512 206.949 155.641 206.185C155.692 205.89 155.736 205.594 155.778 205.297C155.79 205.217 155.801 205.174 155.81 205.149C155.802 205.143 155.792 205.131 155.779 205.108C155.346 204.357 154.515 203.686 153.936 203.035C153.84 202.928 153.885 202.779 154.017 202.731C154.877 202.414 155.738 202.097 156.599 201.78C155.311 197.697 154.295 193.537 153.557 189.322L153.925 189.319C154.671 193.557 155.697 197.738 156.999 201.842C157.031 201.941 156.961 202.033 156.872 202.066C156.041 202.372 155.209 202.678 154.378 202.984C154.598 203.231 154.818 203.478 155.037 203.725C155.348 204.074 155.874 204.481 156.082 204.901C156.193 205.125 156.149 205.267 156.111 205.533C156 206.298 155.88 207.073 155.669 207.819C155.005 210.166 154.1 212.453 153.419 214.799C153.099 215.898 152.799 217.003 152.512 218.111C152.495 217.691 152.478 217.283 152.463 216.89C153.236 214.035 154.113 211.211 155.088 208.415L155.087 208.416Z" fill="#00203E"/>
<path d="M143.414 189.334C143.414 189.334 144.213 206.582 143.97 215.328C143.727 224.074 142.919 243.784 142.919 243.784C142.919 243.784 135.151 239.806 132.222 236.525C133.787 226.321 137.053 190.357 137.053 190.357L143.414 189.334Z" fill="#19355A"/>
<path d="M143.763 221.777C142.515 215.729 141.05 209.729 139.365 203.788C139.337 203.69 139.399 203.596 139.492 203.564C140.356 203.271 141.084 202.798 141.704 202.146C140.98 201.722 140.255 201.3 139.531 200.877C139.48 200.847 139.435 200.782 139.441 200.72C139.803 196.998 140.42 193.311 141.284 189.677L141.668 189.615C141.251 191.342 140.89 193.081 140.589 194.832C140.353 196.205 140.153 197.585 139.991 198.968C139.952 199.307 139.879 199.679 139.875 200.019C139.868 200.551 139.89 200.591 140.308 200.908C140.838 201.312 141.508 201.61 142.085 201.946C142.192 202.008 142.198 202.145 142.122 202.232C141.466 202.977 140.683 203.509 139.761 203.851C141.295 209.272 142.646 214.741 143.816 220.25C143.799 220.749 143.782 221.259 143.764 221.777H143.763Z" fill="#00203E"/>
<path d="M125.935 126.537H169.53V153.652H125.935V126.537ZM125.397 126V154.19H170.068V126H125.397Z" fill="#009ADB"/>
<path d="M125.935 153.653H169.53V126.538H125.935V153.653Z" fill="#F8FDFF"/>
<path d="M171.279 146.844C171.279 146.844 171.65 141.261 170.747 141.216C168.86 141.122 167.587 142.704 167.486 143.825C167.385 144.947 169.348 145.123 170.189 145.199C170.189 145.199 170.455 147.751 171.278 146.843L171.279 146.844Z" fill="#FFC98E"/>
<path d="M124.008 146.844C124.008 146.844 123.636 141.261 124.539 141.216C126.427 141.122 127.699 142.704 127.8 143.825C127.901 144.947 125.938 145.123 125.097 145.199C125.097 145.199 124.832 147.751 124.009 146.843L124.008 146.844Z" fill="#FFC98E"/>
<path d="M199.883 197.524C199.883 197.524 201.763 207.659 203.027 209.621C203.292 210.032 203.658 210.605 204.085 211.248C205.694 213.68 208.156 217.112 209.246 216.641C210.447 216.121 210.641 214.618 209.204 211.27C208.992 210.771 208.743 210.233 208.454 209.649C204.843 202.346 200.328 197.95 199.915 197.553C199.894 197.531 199.883 197.523 199.883 197.523V197.524Z" fill="#FFC98E"/>
<path d="M204.789 305.791L206.8 312.516C206.587 312.71 204.636 311.523 204.636 311.523L204.354 310.722L204.789 305.791Z" fill="#FFC98E"/>
<path d="M204.495 314.516C204.766 314.814 211.612 314.994 211.619 314.852C211.621 314.803 211.993 314.393 211.431 313.983C211.232 313.84 210.919 313.695 210.432 313.568C209.239 313.254 206.859 311.802 206.061 311.591C205.077 311.259 204.637 311.524 204.637 311.524C204.637 311.524 204.619 311.638 204.594 311.821C204.583 311.904 204.57 312.001 204.556 312.11C204.451 312.921 204.305 314.306 204.496 314.515L204.495 314.516Z" fill="#FFC98E"/>
<path d="M204.495 314.516C204.766 314.814 211.612 314.994 211.619 314.852C211.621 314.803 211.993 314.393 211.431 313.983C210.034 314.262 208.543 314.068 207.273 313.423C206.364 312.961 205.575 312.286 204.654 311.848C204.634 311.838 204.613 311.829 204.594 311.821C204.583 311.904 204.57 312.001 204.556 312.11C204.451 312.921 204.305 314.305 204.496 314.515L204.495 314.516Z" fill="#19355A"/>
<path d="M196.325 238.39C196.328 238.632 196.33 238.876 196.335 239.125C196.338 239.374 196.343 239.628 196.348 239.88C196.503 247.305 199.611 270.484 199.611 270.484C199.746 284.108 202.653 299.266 203.721 306.499C204.033 308.622 204.251 310.038 204.326 310.528C204.344 310.655 204.355 310.721 204.355 310.721C204.355 310.721 205.251 311.636 206.269 310.743C206.264 310.687 206.259 310.628 206.256 310.571C206.163 309.426 206.099 307.856 206.068 305.974C205.914 297.748 206.219 283.517 205.97 272.334C205.932 270.733 204.215 222.818 204.215 222.818L203.791 222.762L200.528 222.352C200.528 222.352 198.794 220.769 197.55 224.518C196.811 226.758 196.244 230.891 196.326 238.39H196.325Z" fill="#FFC98E"/>
<path d="M186.101 314.035C186.101 314.035 183.909 316.313 183.294 316.591C182.616 316.895 181.313 317.514 180.988 317.037C180.695 316.613 180.957 316.393 181.54 316.017C181.612 315.971 181.687 315.923 181.767 315.872C182.508 315.404 184.754 312.618 184.754 312.618C184.754 312.618 186.03 311.232 186.122 313.471C186.132 313.669 186.123 313.855 186.101 314.035Z" fill="#FFC98E"/>
<path d="M186.101 314.035L185.962 315.459C185.169 316.443 183.709 317.214 183.284 317.419C181.868 318.099 180.846 317.799 180.52 317.323C180.227 316.898 181.246 315.899 182.534 315.18C181.768 315.873 181.138 316.623 182.177 316.484C182.64 316.421 183.071 316.232 183.458 315.954C184.337 315.313 185.219 314.673 186.1 314.035H186.101Z" fill="#19355A"/>
<path d="M197.822 237.711C197.878 243.569 198.233 248.616 194.343 269.389C191.805 282.947 188.424 302.461 186.617 311.11C186.437 311.97 186.272 312.759 186.122 313.472L184.755 312.619C184.755 312.619 184.773 311.93 184.81 310.691C185.05 302.69 189.197 241.666 189.797 237.883C190.555 233.099 191.776 228.664 192.723 225.639C193.5 223.155 194.093 221.62 194.093 221.62L197.287 224.647L197.44 224.791C197.44 224.791 197.75 230.077 197.822 237.711V237.711Z" fill="#FFC98E"/>
<path d="M193.209 178.755C194.832 178.183 196.696 178.31 198.265 178.987C199.167 178.981 200.076 178.984 200.953 179.181C206.429 180.408 204.129 186.812 203.593 187.665C201.139 191.572 198.492 189.039 197.011 188.93C196.327 188.88 196.841 193.889 196.598 193.304C196.339 192.679 196.878 191.925 196.541 191.332C196.314 190.935 195.773 190.779 195.283 190.777C194.793 190.774 194.306 190.888 193.817 190.863C193.068 190.824 192.373 190.458 191.844 189.973C191.314 189.488 190.929 188.889 190.571 188.288C189.934 187.217 189.358 186.089 189.194 184.881C188.847 182.338 190.589 179.68 193.209 178.756V178.755Z" fill="#FF4049"/>
<path d="M196.033 184.34C194.423 183.971 192.719 184.974 191.886 186.4C191.053 187.827 190.953 189.575 191.165 191.214C191.377 192.852 191.873 194.441 192.158 196.068C192.835 199.927 192.283 203.992 190.602 207.531C192.93 207.409 194.949 205.654 195.919 203.534C196.889 201.414 196.962 198.99 196.727 196.671C196.492 194.351 195.967 192.066 195.799 189.74L196.033 184.34Z" fill="#FF4049"/>
<path d="M200.256 203.433C200.709 205.883 201.041 207.718 204.084 211.249C204.431 211.652 204.813 212.078 205.237 212.529C206.83 211.527 208.365 211.308 209.203 211.27C208.99 210.772 208.741 210.234 208.452 209.65C204.842 202.346 200.327 197.951 199.913 197.553C199.892 197.532 199.881 197.524 199.881 197.524C199.881 197.524 199.749 200.7 200.255 203.433H200.256Z" fill="#7FE4FF"/>
<path d="M205.569 207.105C204.287 203.272 201.585 199.641 199.88 197.599C199.881 197.551 199.883 197.525 199.883 197.525C199.883 197.525 199.893 197.533 199.915 197.554C200.146 197.776 201.653 199.243 203.567 201.764C204.545 203.343 205.461 205.112 206.072 206.937C206.463 208.107 206.495 209.948 206.351 211.943C206.171 212.022 205.987 212.109 205.801 212.207C205.968 210.16 205.958 208.266 205.57 207.105H205.569Z" fill="#00BEFF"/>
<path d="M193.317 221.611C193.317 221.611 188.513 207.839 189.093 203.815C190.067 197.064 194.063 196.524 194.063 196.524L198.369 195.897C198.369 195.897 203.615 201.267 205.568 207.105C206.792 210.765 204.259 221.721 204.259 221.721C200.613 222.739 195.107 222.669 193.317 221.611Z" fill="#7FE4FF"/>
<path d="M198.277 218.976C198.513 214.616 200.161 212.69 200.161 212.69C200.161 212.69 198.874 209.242 197.548 204.086C197.721 204.045 197.894 204.007 198.066 203.971C199.367 209.027 200.644 212.469 200.657 212.504L200.766 212.797L200.563 213.034C200.55 213.05 199.028 214.909 198.807 219.005L198.756 219.942L197.979 219.414C194.583 217.109 191.787 213.748 190.108 209.949C189.866 209.403 189.655 208.858 189.47 208.321C189.429 208.094 189.39 207.87 189.354 207.651C189.479 207.564 189.604 207.478 189.732 207.394C190.831 211.113 193.545 215.764 198.277 218.977V218.976Z" fill="#00BEFF"/>
<path d="M209.252 212.226C209.252 212.226 211.117 216.108 209.245 216.641C207.373 217.173 203.727 214.144 200.16 212.69C199.045 211.885 199.247 211.021 199.247 211.021C199.247 211.021 205.17 209.272 209.251 212.226H209.252Z" fill="#FFC98E"/>
<path d="M194.979 201.24C195.263 201.521 195.546 201.824 195.824 202.149C197.617 204.247 198.836 209.896 200.161 212.69C200.733 212.63 200.964 212.161 206.15 209.919C207.757 209.224 208.326 211.07 207.725 212.063C207.286 212.787 199.857 220.932 197.755 218.538C189.832 210.125 189.817 204.323 189.803 204.278C188.853 201.227 192.709 198.991 194.979 201.24Z" fill="#FFC98E"/>
<path d="M207.724 212.063C207.834 211.882 207.902 211.673 207.935 211.456C208.099 211.533 208.263 211.615 208.425 211.704C208.375 211.929 208.295 212.146 208.178 212.338C208.01 212.616 206.855 213.962 205.342 215.412C205.18 215.324 205.016 215.232 204.85 215.139C206.371 213.698 207.558 212.34 207.724 212.064V212.063Z" fill="#FFB769"/>
<path d="M204.648 210.58C200.913 212.256 200.671 212.636 200.161 212.69C199.925 212.194 199.693 211.605 199.46 210.965C199.585 210.933 199.76 210.892 199.981 210.846C200.137 211.273 200.292 211.674 200.447 212.036C200.54 211.99 200.658 211.928 200.814 211.845C201.306 211.585 202.088 211.172 203.52 210.51C203.886 210.518 204.263 210.54 204.648 210.58H204.648Z" fill="#FFB769"/>
<path d="M200.161 212.69C200.161 212.69 198.513 214.617 198.277 218.976C190.721 213.846 188.301 205.042 189.402 202.233C190.502 199.422 196.127 198.476 197.446 203.689C198.806 209.064 200.161 212.69 200.161 212.69Z" fill="#7FE4FF"/>
<path d="M199.612 210.944C199.612 210.944 197.576 210.299 195.763 211.392C193.951 212.485 194.844 212.998 196.043 214.045C197.242 215.092 198.595 212.603 200.162 212.69L199.613 210.944H199.612Z" fill="#FFC98E"/>
<path d="M204.26 221.721C204.26 221.721 206.09 234.163 205.909 252.271C202.318 254.919 188.401 251.845 188.401 251.845C188.401 251.845 188.401 227.169 193.317 221.611C198.127 222.444 204.259 221.721 204.259 221.721H204.26Z" fill="#19355A"/>
<path d="M198.489 182.55C199.306 180.307 201.777 182.648 202.036 184.416C202.38 186.761 202.645 188.332 201 191.173C199.56 193.66 198.115 194.004 196.329 193.067C194.905 192.319 193.595 191.122 193.306 189.605C194.847 188.833 197.372 185.622 198.49 182.55H198.489Z" fill="#FFC98E"/>
<path d="M194.847 190.295L194.169 196.533C194.169 196.533 196.592 198.141 198.49 197.037C197.888 193.362 197.849 191.396 197.849 191.396L194.847 190.295Z" fill="#FFC98E"/>
<path d="M196.082 193.537C195.529 193.246 195.033 192.913 194.601 192.55L194.672 191.904C195.161 192.364 195.734 192.755 196.328 193.067C196.916 193.376 197.467 193.546 197.994 193.546C198 193.546 198.005 193.546 198.012 193.545C198.03 193.713 198.049 193.887 198.071 194.073C198.045 194.073 198.02 194.076 197.994 194.076C197.399 194.076 196.773 193.9 196.082 193.537Z" fill="#FFB769"/>
<path d="M194.063 196.524C194.063 196.524 197.288 199.398 200.181 200.36L198.369 195.897C198.369 195.897 196.469 194.354 196.208 194.556C195.948 194.758 194.117 194.51 194.063 196.524H194.063Z" fill="#FFC98E"/>
<path d="M200.182 200.36C200.182 200.36 195.148 195.748 194.43 194.126C193.115 196.175 192.103 196.773 192.103 196.773C192.103 196.773 195.446 201.299 199.733 203.177C200.006 201.554 200.181 200.36 200.181 200.36H200.182Z" fill="#00BEFF"/>
<path d="M200.182 200.36L202.056 201.981C202.056 201.981 200.318 198.181 198.37 195.897C199.012 197.478 200.182 200.36 200.182 200.36V200.36Z" fill="#00BEFF"/>
<path d="M100.393 310.183C100.393 310.183 100.322 315.567 100.475 315.717C100.628 315.867 102.111 315.039 102.111 315.039L102.245 310.446L100.392 310.183H100.393Z" fill="#00203E"/>
<path d="M96.8308 317.318C96.8315 317.424 101.923 317.481 102.133 317.267C102.28 317.117 102.211 316.084 102.155 315.478C102.132 315.22 102.112 315.04 102.112 315.04C102.112 315.04 101.792 314.831 101.051 315.05C99.6954 315.233 98.5856 315.836 97.844 316.375C97.1954 316.846 96.8301 317.268 96.8308 317.318Z" fill="#00203E"/>
<path d="M102.155 315.479L100.903 315.491L100.588 314.961C100.588 314.961 96.6684 316.361 96.5937 316.514C96.5198 316.666 96.6025 317.443 96.6025 317.443L102.228 317.388C102.228 317.388 102.554 316.111 102.155 315.479H102.155Z" fill="#19355A"/>
<path d="M96.5696 317.019C96.5806 317.238 96.6025 317.443 96.6025 317.443L102.228 317.388C102.228 317.388 102.273 317.214 102.309 316.962L96.5696 317.018V317.019Z" fill="#00203E"/>
<path d="M89.0513 310.183C89.0513 310.183 89.5703 315.482 89.7204 315.635C89.8704 315.788 91.3697 314.992 91.3697 314.992L91.585 310.462L89.0513 310.183Z" fill="#00203E"/>
<path d="M86.0432 317.16C86.0417 317.266 91.1311 317.429 91.3456 317.219C91.4957 317.072 91.4481 316.038 91.4049 315.432C91.3873 315.172 91.3705 314.992 91.3705 314.992C91.3705 314.992 91.055 314.776 90.3097 314.981C88.9503 315.135 87.828 315.714 87.0754 316.238C86.4173 316.695 86.0432 317.11 86.0425 317.16H86.0432Z" fill="#00203E"/>
<path d="M91.4048 315.432L90.153 315.418L89.8492 314.881C89.8492 314.881 85.9011 316.2 85.8235 316.35C85.7459 316.5 85.8132 317.279 85.8132 317.279L91.4392 317.342C91.4392 317.342 91.7921 316.071 91.4055 315.432H91.4048Z" fill="#19355A"/>
<path d="M85.7883 316.854C85.7949 317.074 85.8125 317.279 85.8125 317.279L91.4385 317.342C91.4385 317.342 91.4868 317.169 91.5278 316.918L85.7883 316.854Z" fill="#00203E"/>
<path d="M98.796 314.316C99.7469 314.474 103.164 314.604 103.554 314.056C103.549 313.883 105.11 259.383 105.019 239.972C104.931 221.35 102.194 220.492 102.194 220.492C102.194 220.492 96.5917 220.232 91.8713 220.187C90.2695 223.566 93.7205 279.994 98.796 314.317V314.316Z" fill="#19355A"/>
<path d="M88.2753 313.337C89.1208 313.8 90.3097 314.98 92.2995 312.959C92.5996 311.681 87.5403 277.216 87.5403 277.216C92.7768 252.745 98.9914 221.979 98.9914 221.979C98.3903 221.155 89.5923 222.986 86.6128 223.39C86.3741 221.321 81.9414 248.443 78.3806 276.117C78.3806 276.117 80.1464 287.274 88.276 313.337H88.2753Z" fill="#19355A"/>
<path d="M91.3953 238.166C89.2422 234.967 88.2657 231.149 88.6222 227.308C88.6463 227.045 89.0622 227.042 89.0373 227.308C88.6866 231.087 89.6354 234.808 91.754 237.956C91.9033 238.178 91.5439 238.387 91.3953 238.166V238.166Z" fill="#00203E"/>
<path d="M96.8038 244.344L96.7621 243.969C95.847 235.694 95.9956 227.488 96.5835 220.283C96.7211 220.288 96.8573 220.291 96.9927 220.296C96.3895 227.633 96.2702 235.747 97.175 243.923C99.0374 243.897 102.611 242.987 105.032 242.307C105.033 242.45 105.035 242.593 105.035 242.739C102.598 243.421 99.0703 244.311 97.1801 244.338L96.8031 244.343L96.8038 244.344Z" fill="#00203E"/>
<path d="M92.2314 254.932C91.4012 242.731 90.7043 228.634 91.0015 222.663C91.1823 222.633 91.3631 222.602 91.5461 222.571C91.295 227.464 91.7248 238.952 92.6465 252.932C92.5088 253.595 92.3705 254.261 92.2314 254.932Z" fill="#00203E"/>
<path d="M85.4612 240.753L84.817 240.475C84.3792 240.287 83.9546 240.084 83.5417 239.87C83.5718 239.679 83.6018 239.489 83.6318 239.3C84.0915 239.543 84.5593 239.768 85.0337 239.972C85.9481 234.366 86.8815 228.759 87.8346 223.202C88.0176 223.172 88.2072 223.141 88.4056 223.107C87.5176 228.277 86.585 233.863 85.574 240.06L85.4612 240.752V240.753Z" fill="#00203E"/>
<path d="M86.5513 223.43C94.4906 229.607 100.678 225.287 100.678 225.287C100.678 225.287 103.417 217.305 103.483 216.334C103.492 216.2 103.501 216.065 103.51 215.933C103.662 213.649 103.785 211.413 103.86 209.367C103.875 209 103.886 208.638 103.896 208.285C103.9 208.159 103.904 208.034 103.907 207.91C103.964 205.806 104.174 202.528 104.082 201.123C103.718 195.561 105.897 193.35 104.236 192.044C102.197 190.441 100.713 190.845 100.713 190.845L94.9606 190.148C94.9606 190.148 91.26 191.691 89.7709 194.323C88.4649 196.632 87.6618 218.105 86.5513 223.43Z" fill="#D9F6FD"/>
<path d="M96.3662 192.449C94.0134 203.51 92.1649 214.675 90.8259 225.904C90.9299 225.944 91.0331 225.982 91.1356 226.019C92.476 214.763 94.3274 203.57 96.6854 192.482C96.7286 192.28 96.4087 192.248 96.3662 192.449Z" fill="white"/>
<path d="M104.3 226.36C104.3 226.36 92.8955 228.588 85.3339 222.657C85.055 225.156 85.3837 226.503 85.3837 226.503C85.3837 226.503 93.558 231.594 104.327 228.439L104.3 226.361L104.3 226.36Z" fill="#00203E"/>
<path d="M92.4086 225.712C92.4562 226.922 92.271 228.084 91.8457 229.219C91.8054 229.327 91.708 229.392 91.5902 229.364C90.7944 229.176 89.9774 228.933 89.2285 228.603C88.8691 228.444 88.7746 228.409 88.7827 228.046C88.8054 226.989 89.1414 225.862 89.3127 224.817C89.3237 224.752 89.394 224.685 89.4577 224.672C89.801 224.604 90.2432 224.833 90.5565 224.937C91.1239 225.125 91.6846 225.335 92.2556 225.512C92.5097 225.591 92.4013 225.991 92.1451 225.912C91.3867 225.677 90.4445 225.489 89.7454 225.119C89.5653 225.023 89.7541 224.884 89.697 225.021C89.6539 225.126 89.6546 225.28 89.6363 225.39C89.5792 225.739 89.5213 226.089 89.4642 226.439C89.4028 226.813 89.3413 227.186 89.2805 227.56C89.2607 227.68 89.1004 228.165 89.1634 228.275C89.0023 227.995 89.4254 228.239 89.4833 228.262C89.7227 228.36 89.9694 228.444 90.2146 228.526C90.7036 228.692 91.1978 228.846 91.7007 228.964C91.6158 229.013 91.5309 229.061 91.4452 229.109C91.8581 228.008 92.0397 226.888 91.9936 225.712C91.9833 225.445 92.3984 225.446 92.4086 225.712V225.712Z" fill="white"/>
<path d="M90.2153 227.128C89.4855 226.782 88.7556 226.436 88.0257 226.09C87.7849 225.976 87.995 225.618 88.2351 225.731C88.965 226.078 89.6948 226.423 90.4247 226.769C90.6656 226.884 90.4555 227.242 90.2153 227.128Z" fill="white"/>
<path d="M101.417 185.309C103.791 185.309 105.111 180.692 106.374 178.942C106.626 178.593 106.888 178.214 106.897 177.784C106.905 177.388 106.696 177.025 106.483 176.691C104.878 174.179 102.649 172.068 100.053 170.603C99.6567 170.38 99.2401 170.167 98.7885 170.116C98.336 170.065 97.8368 170.209 97.5725 170.579C97.3075 170.948 97.3829 171.554 97.787 171.762C96.6193 171.749 95.287 171.809 94.5402 172.707C93.9546 173.41 93.9275 174.409 93.9282 175.325C93.9304 176.955 93.9326 178.59 94.1354 180.208C94.3074 181.582 94.6588 183.008 95.6054 184.018L101.418 185.309H101.417Z" fill="#19355A"/>
<path d="M100.892 186.328L101.418 190.727C101.418 190.727 99.1618 192.977 96.8279 192.34C96.0885 192.138 95.6896 191.527 94.9011 190.616C96.5593 186.459 97.5293 184.944 97.5293 184.944L100.892 186.328Z" fill="#FFC98E"/>
<path d="M104.083 178.176C104.083 178.176 102.791 184.04 102.089 185.605C101.387 187.17 98.0872 189.288 96.0242 188.201C93.9612 187.114 92.5718 180.71 95.0513 176.382C97.5316 172.054 104.094 174.975 104.083 178.177V178.176Z" fill="#FFC98E"/>
<path d="M97.315 188.82C98.5785 188.82 99.9804 188.172 101.013 187.347L100.968 186.97C99.9863 187.805 98.58 188.499 97.315 188.499C96.8574 188.499 96.4182 188.408 96.0243 188.2C95.9943 188.185 95.965 188.164 95.9357 188.146C95.8933 188.243 95.8493 188.342 95.8054 188.443C95.8288 188.457 95.8515 188.472 95.875 188.484C96.2974 188.707 96.782 188.82 97.315 188.82Z" fill="#FFB769"/>
<path d="M102.272 183.431C102.372 181.73 101.418 179.741 102.022 177.022C100.291 175.659 97.8772 175.391 96.4482 175.194C96.1985 175.159 94.6531 176.697 94.0272 179.033C93.6246 178.104 94.5067 174.474 95.3523 173.918C96.1978 173.361 97.2674 173.272 98.2769 173.333C100.36 173.458 102.494 174.224 103.832 175.827C105.17 177.429 105.486 179.957 104.208 181.607L102.271 183.432L102.272 183.431Z" fill="#19355A"/>
<path d="M102.138 182.612C102.21 182.279 102.289 181.932 102.504 181.667C102.72 181.401 103.115 181.249 103.413 181.417C103.649 181.55 103.753 181.838 103.782 182.108C103.841 182.673 103.636 183.261 103.237 183.667C102.839 184.072 102.256 184.289 101.689 184.24L102.138 182.612Z" fill="#FFC98E"/>
<path d="M96.093 191.783C96.093 191.783 95.4934 192.219 95.6816 193.222C95.8697 194.225 97.697 194.258 98.0535 193.173C98.4093 192.089 96.8499 191.873 96.8499 191.873L96.0937 191.782L96.093 191.783Z" fill="#0065BE"/>
<path d="M96.2227 193.373C94.8464 197.265 92.1765 208.099 91.2534 212.123C91.2534 212.123 91.0674 213.914 91.6494 217.481C94.659 214.073 94.7615 213.236 94.7615 213.236C95.2314 209.438 96.383 196.847 96.853 193.049L96.2219 193.373H96.2227Z" fill="#0065BE"/>
<path d="M81.1851 237.725C82.3783 238.655 83.6814 239.391 85.0328 239.972C86.1932 232.861 87.382 225.743 88.6061 218.735C88.762 217.841 88.9194 216.948 89.0768 216.058C90.6207 207.321 92.2225 198.778 93.8931 190.656C93.5878 190.818 93.2372 191.006 92.8697 191.227C92.6127 191.383 92.3448 191.553 92.0768 191.739C91.2013 192.349 89.0409 193.981 88.4641 196.427C87.855 199.009 82.2941 232.401 81.1843 237.726L81.1851 237.725Z" fill="#19355A"/>
<path d="M88.9281 201.72C88.9325 201.521 88.868 201.179 88.9676 200.99C89.1148 200.712 89.5547 200.455 89.972 200.232C90.0635 200.182 90.1543 200.135 90.2399 200.089C89.9457 199.991 89.6528 199.894 89.3578 199.794C89.2524 199.758 89.144 199.723 89.0379 199.687C88.9303 199.652 88.8636 199.546 88.8929 199.432C88.8929 199.43 88.8951 199.427 88.8951 199.426C89.6111 196.72 90.6777 194.143 92.0782 191.738C92.3461 191.551 92.6133 191.381 92.871 191.225C91.3066 193.751 90.1235 196.476 89.3453 199.354C89.8285 199.515 90.3146 199.677 90.8 199.837C90.8666 199.859 90.912 199.909 90.9325 199.966C90.9654 200.05 90.9383 200.157 90.8476 200.217C90.5262 200.43 90.2019 200.644 89.8805 200.858C89.7392 200.952 89.5899 201.067 89.4405 201.149C89.3885 201.176 89.3534 201.203 89.3307 201.221C89.2912 201.472 89.3432 201.796 89.3388 202.024C89.3058 203.809 89.2721 205.592 89.2414 207.374C89.1872 210.269 89.1352 213.164 89.0774 216.056C88.92 216.947 88.7619 217.839 88.606 218.734C88.6909 214.756 88.7634 210.778 88.8366 206.797C88.868 205.104 88.8988 203.413 88.9281 201.72V201.72Z" fill="#00203E"/>
<path d="M95.6949 188.699C95.6949 188.699 95.2835 190.168 96.8494 191.873C95.8384 192.869 95.0815 193.159 95.0815 193.159C95.0815 193.159 93.9328 191.624 93.8933 190.52L95.6949 188.698V188.699Z" fill="#C3EFFF"/>
<path d="M101.129 188.316C101.129 188.316 99.1312 191.559 96.8494 191.873C97.4153 193.989 98.1093 194.283 98.1093 194.283C98.1093 194.283 100.451 194.091 102.307 190.741C102.105 189.712 101.129 188.316 101.129 188.316Z" fill="#C3EFFF"/>
<path d="M97.175 243.924C100.157 243.882 107.526 241.574 107.526 241.574C105.845 229.893 112.628 196.466 112.628 196.466C110.106 193.944 102.802 191.046 102.802 191.046L102.306 190.741C102.306 190.741 99.3595 200.283 97.6699 213.756C97.6077 214.246 97.5498 214.742 97.4913 215.242C96.4993 223.807 96.055 233.819 97.1736 243.924H97.175Z" fill="#19355A"/>
<path d="M101.398 204.802C101.597 204.368 101.798 203.939 102.006 203.511C102.126 203.264 102.429 202.865 102.417 202.673C102.396 202.308 101.902 201.731 101.726 201.412C101.541 201.073 101.356 200.737 101.171 200.401C101.09 200.251 101.228 200.031 101.406 200.095C102.032 200.321 102.661 200.545 103.288 200.772C103.74 198.125 104.447 194.702 105.081 192.021C105.207 192.078 105.335 192.136 105.466 192.196C104.824 194.916 104.108 198.405 103.649 201.104C103.632 201.21 103.491 201.285 103.393 201.249C102.859 201.058 102.327 200.865 101.793 200.674C101.89 200.851 101.988 201.027 102.083 201.201C102.295 201.587 102.718 202.094 102.81 202.526C102.905 202.98 102.486 203.466 102.285 203.881C101.791 204.91 101.326 205.954 100.878 207.006C99.7138 209.735 98.6596 212.513 97.4912 215.243C97.549 214.743 97.6076 214.246 97.6698 213.756C98.5542 211.628 99.3902 209.475 100.285 207.352C100.644 206.497 101.011 205.644 101.397 204.802H101.398Z" fill="#00203E"/>
<path d="M110.728 206.737C110.69 206.952 110.654 207.17 110.616 207.389C109.009 205.864 107.506 204.346 106.086 202.897C106.196 202.748 106.305 202.598 106.411 202.447C107.753 203.816 109.192 205.27 110.727 206.736L110.728 206.737Z" fill="#00203E"/>
<path d="M106.743 226.709L106.506 226.45C106.433 226.369 104.699 224.456 103.867 221.893L103.739 221.497L104.085 221.267C105.904 220.057 107.542 218.893 108.982 217.818C108.946 218.07 108.911 218.324 108.876 218.577C107.517 219.581 106.013 220.643 104.389 221.723C105.194 224.202 106.911 226.079 106.911 226.079C106.911 226.079 107.307 225.951 107.992 225.685C107.97 225.888 107.949 226.091 107.928 226.293C107.403 226.494 107.095 226.595 107.078 226.6L106.743 226.707V226.709Z" fill="#00203E"/>
<path d="M107.983 220.844C107.983 220.844 105.229 223.221 104.246 222.556C103.264 221.891 102.624 220.206 101.099 220.431C100.324 220.545 99.9811 220.909 100.072 221.816C100.163 222.722 100.279 223.745 101.059 224.101C101.84 224.456 102.628 224.66 103.721 225.617C104.679 226.456 108.775 223.714 109.95 222.636C110.423 222.202 107.983 220.845 107.983 220.845L107.983 220.844Z" fill="#FFC98E"/>
<path d="M104.388 221.723C111.911 216.719 116.901 212.107 116.479 211.776C112.173 208.392 108.447 204.526 105.305 201.318C103.117 199.085 105.343 193.978 108.464 194.176C108.706 194.192 112.484 196.345 112.627 196.466C116.661 199.889 121.959 207.965 124.65 211.81C125.141 212.512 125.109 213.458 124.557 214.112C117.253 222.768 106.91 226.08 106.91 226.08C106.91 226.08 105.193 224.203 104.388 221.724V221.723Z" fill="#19355A"/>
</g>
<path d="M64.54 29.3C62.94 29.3 61.45 29.04 60.07 28.52C58.71 27.98 57.52 27.23 56.5 26.27C55.5 25.29 54.72 24.14 54.16 22.82C53.6 21.5 53.32 20.06 53.32 18.5C53.32 16.94 53.6 15.5 54.16 14.18C54.72 12.86 55.51 11.72 56.53 10.76C57.55 9.78 58.74 9.03 60.1 8.51C61.46 7.97 62.95 7.7 64.57 7.7C66.29 7.7 67.86 8 69.28 8.6C70.7 9.18 71.9 10.05 72.88 11.21L70.36 13.58C69.6 12.76 68.75 12.15 67.81 11.75C66.87 11.33 65.85 11.12 64.75 11.12C63.65 11.12 62.64 11.3 61.72 11.66C60.82 12.02 60.03 12.53 59.35 13.19C58.69 13.85 58.17 14.63 57.79 15.53C57.43 16.43 57.25 17.42 57.25 18.5C57.25 19.58 57.43 20.57 57.79 21.47C58.17 22.37 58.69 23.15 59.35 23.81C60.03 24.47 60.82 24.98 61.72 25.34C62.64 25.7 63.65 25.88 64.75 25.88C65.85 25.88 66.87 25.68 67.81 25.28C68.75 24.86 69.6 24.23 70.36 23.39L72.88 25.79C71.9 26.93 70.7 27.8 69.28 28.4C67.86 29 66.28 29.3 64.54 29.3ZM76.2569 29V12.98H79.8269V17.39L79.4069 16.1C79.8869 15.02 80.6369 14.2 81.6569 13.64C82.6969 13.08 83.9869 12.8 85.5269 12.8V16.37C85.3669 16.33 85.2169 16.31 85.0769 16.31C84.9369 16.29 84.7969 16.28 84.6569 16.28C83.2369 16.28 82.1069 16.7 81.2669 17.54C80.4269 18.36 80.0069 19.59 80.0069 21.23V29H76.2569ZM96.0916 29.21C94.3116 29.21 92.7516 28.86 91.4116 28.16C90.0916 27.44 89.0616 26.46 88.3216 25.22C87.6016 23.98 87.2416 22.57 87.2416 20.99C87.2416 19.39 87.5916 17.98 88.2916 16.76C89.0116 15.52 89.9916 14.55 91.2316 13.85C92.4916 13.15 93.9216 12.8 95.5216 12.8C97.0816 12.8 98.4716 13.14 99.6916 13.82C100.912 14.5 101.872 15.46 102.572 16.7C103.272 17.94 103.622 19.4 103.622 21.08C103.622 21.24 103.612 21.42 103.592 21.62C103.592 21.82 103.582 22.01 103.562 22.19H90.2116V19.7H101.582L100.112 20.48C100.132 19.56 99.9416 18.75 99.5416 18.05C99.1416 17.35 98.5916 16.8 97.8916 16.4C97.2116 16 96.4216 15.8 95.5216 15.8C94.6016 15.8 93.7916 16 93.0916 16.4C92.4116 16.8 91.8716 17.36 91.4716 18.08C91.0916 18.78 90.9016 19.61 90.9016 20.57V21.17C90.9016 22.13 91.1216 22.98 91.5616 23.72C92.0016 24.46 92.6216 25.03 93.4216 25.43C94.2216 25.83 95.1416 26.03 96.1816 26.03C97.0816 26.03 97.8916 25.89 98.6116 25.61C99.3316 25.33 99.9716 24.89 100.532 24.29L102.542 26.6C101.822 27.44 100.912 28.09 99.8116 28.55C98.7316 28.99 97.4916 29.21 96.0916 29.21ZM116.654 29V25.76L116.444 25.07V19.4C116.444 18.3 116.114 17.45 115.454 16.85C114.794 16.23 113.794 15.92 112.454 15.92C111.554 15.92 110.664 16.06 109.784 16.34C108.924 16.62 108.194 17.01 107.594 17.51L106.124 14.78C106.984 14.12 108.004 13.63 109.184 13.31C110.384 12.97 111.624 12.8 112.904 12.8C115.224 12.8 117.014 13.36 118.274 14.48C119.554 15.58 120.194 17.29 120.194 19.61V29H116.654ZM111.614 29.21C110.414 29.21 109.364 29.01 108.464 28.61C107.564 28.19 106.864 27.62 106.364 26.9C105.884 26.16 105.644 25.33 105.644 24.41C105.644 23.51 105.854 22.7 106.274 21.98C106.714 21.26 107.424 20.69 108.404 20.27C109.384 19.85 110.684 19.64 112.304 19.64H116.954V22.13H112.574C111.294 22.13 110.434 22.34 109.994 22.76C109.554 23.16 109.334 23.66 109.334 24.26C109.334 24.94 109.604 25.48 110.144 25.88C110.684 26.28 111.434 26.48 112.394 26.48C113.314 26.48 114.134 26.27 114.854 25.85C115.594 25.43 116.124 24.81 116.444 23.99L117.074 26.24C116.714 27.18 116.064 27.91 115.124 28.43C114.204 28.95 113.034 29.21 111.614 29.21ZM131.037 29.21C129.277 29.21 127.917 28.76 126.957 27.86C125.997 26.94 125.517 25.59 125.517 23.81V9.44H129.267V23.72C129.267 24.48 129.457 25.07 129.837 25.49C130.237 25.91 130.787 26.12 131.487 26.12C132.327 26.12 133.027 25.9 133.587 25.46L134.637 28.13C134.197 28.49 133.657 28.76 133.017 28.94C132.377 29.12 131.717 29.21 131.037 29.21ZM122.877 16.1V13.1H133.557V16.1H122.877ZM144.724 29.21C142.944 29.21 141.384 28.86 140.044 28.16C138.724 27.44 137.694 26.46 136.954 25.22C136.234 23.98 135.874 22.57 135.874 20.99C135.874 19.39 136.224 17.98 136.924 16.76C137.644 15.52 138.624 14.55 139.864 13.85C141.124 13.15 142.554 12.8 144.154 12.8C145.714 12.8 147.104 13.14 148.324 13.82C149.544 14.5 150.504 15.46 151.204 16.7C151.904 17.94 152.254 19.4 152.254 21.08C152.254 21.24 152.244 21.42 152.224 21.62C152.224 21.82 152.214 22.01 152.194 22.19H138.844V19.7H150.214L148.744 20.48C148.764 19.56 148.574 18.75 148.174 18.05C147.774 17.35 147.224 16.8 146.524 16.4C145.844 16 145.054 15.8 144.154 15.8C143.234 15.8 142.424 16 141.724 16.4C141.044 16.8 140.504 17.36 140.104 18.08C139.724 18.78 139.534 19.61 139.534 20.57V21.17C139.534 22.13 139.754 22.98 140.194 23.72C140.634 24.46 141.254 25.03 142.054 25.43C142.854 25.83 143.774 26.03 144.814 26.03C145.714 26.03 146.524 25.89 147.244 25.61C147.964 25.33 148.604 24.89 149.164 24.29L151.174 26.6C150.454 27.44 149.544 28.09 148.444 28.55C147.364 28.99 146.124 29.21 144.724 29.21ZM168.768 29V11.3H161.808V8H179.628V11.3H172.668V29H168.768ZM182.194 29V12.98H185.944V29H182.194ZM184.084 10.34C183.384 10.34 182.804 10.12 182.344 9.68C181.904 9.24 181.684 8.71 181.684 8.09C181.684 7.45 181.904 6.92 182.344 6.5C182.804 6.06 183.384 5.84 184.084 5.84C184.784 5.84 185.354 6.05 185.794 6.47C186.254 6.87 186.484 7.38 186.484 8C186.484 8.66 186.264 9.22 185.824 9.68C185.384 10.12 184.804 10.34 184.084 10.34ZM198.216 29.21C196.536 29.21 195.036 28.86 193.716 28.16C192.416 27.44 191.396 26.46 190.656 25.22C189.916 23.98 189.546 22.57 189.546 20.99C189.546 19.39 189.916 17.98 190.656 16.76C191.396 15.52 192.416 14.55 193.716 13.85C195.036 13.15 196.536 12.8 198.216 12.8C199.776 12.8 201.146 13.12 202.326 13.76C203.526 14.38 204.436 15.3 205.056 16.52L202.176 18.2C201.696 17.44 201.106 16.88 200.406 16.52C199.726 16.16 198.986 15.98 198.186 15.98C197.266 15.98 196.436 16.18 195.696 16.58C194.956 16.98 194.376 17.56 193.956 18.32C193.536 19.06 193.326 19.95 193.326 20.99C193.326 22.03 193.536 22.93 193.956 23.69C194.376 24.43 194.956 25 195.696 25.4C196.436 25.8 197.266 26 198.186 26C198.986 26 199.726 25.82 200.406 25.46C201.106 25.1 201.696 24.54 202.176 23.78L205.056 25.46C204.436 26.66 203.526 27.59 202.326 28.25C201.146 28.89 199.776 29.21 198.216 29.21ZM211.211 25.43L211.301 20.72L219.671 12.98H224.171L217.061 20.12L215.081 21.77L211.211 25.43ZM208.151 29V6.74H211.901V29H208.151ZM220.241 29L214.391 21.77L216.761 18.77L224.801 29H220.241ZM234.08 29.21C232.3 29.21 230.74 28.86 229.4 28.16C228.08 27.44 227.05 26.46 226.31 25.22C225.59 23.98 225.23 22.57 225.23 20.99C225.23 19.39 225.58 17.98 226.28 16.76C227 15.52 227.98 14.55 229.22 13.85C230.48 13.15 231.91 12.8 233.51 12.8C235.07 12.8 236.46 13.14 237.68 13.82C238.9 14.5 239.86 15.46 240.56 16.7C241.26 17.94 241.61 19.4 241.61 21.08C241.61 21.24 241.6 21.42 241.58 21.62C241.58 21.82 241.57 22.01 241.55 22.19H228.2V19.7H239.57L238.1 20.48C238.12 19.56 237.93 18.75 237.53 18.05C237.13 17.35 236.58 16.8 235.88 16.4C235.2 16 234.41 15.8 233.51 15.8C232.59 15.8 231.78 16 231.08 16.4C230.4 16.8 229.86 17.36 229.46 18.08C229.08 18.78 228.89 19.61 228.89 20.57V21.17C228.89 22.13 229.11 22.98 229.55 23.72C229.99 24.46 230.61 25.03 231.41 25.43C232.21 25.83 233.13 26.03 234.17 26.03C235.07 26.03 235.88 25.89 236.6 25.61C237.32 25.33 237.96 24.89 238.52 24.29L240.53 26.6C239.81 27.44 238.9 28.09 237.8 28.55C236.72 28.99 235.48 29.21 234.08 29.21ZM251.242 29.21C249.482 29.21 248.122 28.76 247.162 27.86C246.202 26.94 245.722 25.59 245.722 23.81V9.44H249.472V23.72C249.472 24.48 249.662 25.07 250.042 25.49C250.442 25.91 250.992 26.12 251.692 26.12C252.532 26.12 253.232 25.9 253.792 25.46L254.842 28.13C254.402 28.49 253.862 28.76 253.222 28.94C252.582 29.12 251.922 29.21 251.242 29.21ZM243.082 16.1V13.1H253.762V16.1H243.082Z" fill="#F26639"/>
<defs>
<clipPath id="clip0_320_494">
<rect width="307.01" height="302.995" fill="white" transform="translate(0 126)"/>
</clipPath>
</defs>
</svg>
