<svg width="270" height="180" viewBox="0 0 270 180" fill="none" xmlns="http://www.w3.org/2000/svg">
<g clip-path="url(#clip0_2164_229)">
<path d="M238.921 -0.000150003C238.921 0.05025 192.391 0.09345 135.003 0.09345C77.6158 0.09345 31.0786 0.06105 31.0786 -0.000150003C31.0786 -0.06135 77.6014 -0.09375 135.003 -0.09375C192.405 -0.09375 238.921 -0.05415 238.921 -0.000150003Z" fill="#263238"/>
<path d="M79.1604 44.0133L38.7681 71.0332L78.5543 130.51L118.947 103.49L79.1604 44.0133Z" fill="#F5F5F5"/>
<path d="M98.0712 100.678L97.614 103.514L77.5332 100.62L77.9904 97.7832L98.0712 100.678Z" fill="#E0E0E0"/>
<path d="M87.9585 90.5581L90.8385 90.9721L87.6453 110.743L84.7617 110.326L87.9585 90.5581Z" fill="#E0E0E0"/>
<path d="M69.4797 65.4302C69.5084 65.4698 65.462 68.231 60.4401 71.5862C55.418 74.9414 51.3249 77.6342 51.2961 77.591C51.2673 77.5478 55.3137 74.7902 60.3357 71.4314C65.3577 68.0726 69.4328 65.387 69.4797 65.4302Z" fill="#E0E0E0"/>
<path d="M84.3193 61.7005C84.3481 61.7437 77.6161 66.2941 69.2857 71.8669C60.9553 77.4397 54.1657 81.9217 54.1441 81.8821C54.1225 81.8425 60.8401 77.2849 69.1813 71.7121C77.5225 66.1393 84.2905 61.6573 84.3193 61.7005Z" fill="#E0E0E0"/>
<path d="M87.2964 66.1502C87.3251 66.1934 80.5931 70.7474 72.2627 76.3202C63.9323 81.893 57.1427 86.375 57.1211 86.3318C57.0995 86.2886 63.8243 81.7382 72.1583 76.1618C80.4923 70.5854 87.2675 66.107 87.2964 66.1502Z" fill="#E0E0E0"/>
<path d="M90.2732 70.6033C90.302 70.6465 83.57 75.2005 75.2396 80.7697C66.9092 86.3389 60.1196 90.8281 60.1196 90.7849C60.1196 90.7417 66.8192 86.1877 75.1532 80.6149C83.4872 75.0421 90.2444 70.5601 90.2732 70.6033Z" fill="#E0E0E0"/>
<path d="M93.24 75.0565C93.2688 75.0997 86.5368 79.6501 78.2064 85.2229C69.876 90.7957 63.0864 95.2777 63.0684 95.2345C63.0504 95.1913 69.7788 90.6409 78.12 85.0681C86.4612 79.4953 93.24 75.0133 93.24 75.0565Z" fill="#E0E0E0"/>
<path d="M214.224 83.8662L180.301 106.559L213.714 156.508L247.637 133.816L214.224 83.8662Z" fill="#F5F5F5"/>
<path d="M230.112 131.465L229.727 133.848L212.861 131.418L213.25 129.035L230.112 131.465Z" fill="#E0E0E0"/>
<path d="M221.62 122.965L224.039 123.315L221.357 139.918L218.934 139.569L221.62 122.965Z" fill="#E0E0E0"/>
<path d="M206.086 101.88C206.114 101.923 202.72 104.245 198.5 107.064C194.281 109.883 190.84 112.137 190.811 112.104C190.782 112.072 194.18 109.743 198.396 106.92C202.612 104.098 206.057 101.819 206.086 101.88Z" fill="#E0E0E0"/>
<path d="M218.559 98.7299C218.588 98.7731 212.94 102.603 205.959 107.28C198.979 111.956 193.266 115.722 193.237 115.679C193.208 115.635 198.857 111.805 205.837 107.125C212.817 102.445 218.52 98.6867 218.559 98.7299Z" fill="#E0E0E0"/>
<path d="M221.061 102.467C221.09 102.51 215.442 106.34 208.461 111.02C201.481 115.7 195.768 119.459 195.739 119.415C195.71 119.372 201.34 115.56 208.339 110.88C215.337 106.2 221.04 102.427 221.061 102.467Z" fill="#E0E0E0"/>
<path d="M223.56 106.2C223.589 106.243 217.937 110.074 210.96 114.754C203.983 119.434 198.266 123.192 198.237 123.149C198.209 123.106 203.857 119.279 210.837 114.595C217.818 109.912 223.535 106.164 223.56 106.2Z" fill="#E0E0E0"/>
<path d="M226.08 109.948C226.109 109.991 220.46 113.818 213.48 118.498C206.499 123.178 200.786 126.936 200.757 126.896C200.729 126.857 206.377 123.023 213.357 118.343C220.338 113.663 226.033 109.904 226.08 109.948Z" fill="#E0E0E0"/>
<path d="M123.542 26.4047L94.3911 80.9072L131.405 100.704L160.556 46.2017L123.542 26.4047Z" fill="#F5F5F5"/>
<path d="M125.071 83.6532L122.724 84.456L116.762 67.9788L119.113 67.1724L125.071 83.6532Z" fill="#E0E0E0"/>
<path d="M128.671 71.8306L129.528 74.1958L113.162 79.801L112.306 77.4358L128.671 71.8306Z" fill="#E0E0E0"/>
<path d="M140.299 47.52C140.27 47.574 136.519 45.6228 131.914 43.164C127.31 40.7052 123.606 38.664 123.634 38.61C123.663 38.556 127.418 40.5072 132.022 42.966C136.627 45.4248 140.328 47.4624 140.299 47.52Z" fill="#E0E0E0"/>
<path d="M149.184 57.3227C149.155 57.3767 142.941 54.1079 135.306 50.0255C127.67 45.9431 121.507 42.5879 121.536 42.5339C121.565 42.4799 127.775 45.7451 135.41 49.8311C143.046 53.9171 149.213 57.2687 149.184 57.3227Z" fill="#E0E0E0"/>
<path d="M147.002 61.4018C146.973 61.4558 140.76 58.1906 133.124 54.1046C125.489 50.0186 119.325 46.667 119.354 46.613C119.383 46.559 125.593 49.8278 133.228 53.9102C140.864 57.9926 147.031 61.3478 147.002 61.4018Z" fill="#E0E0E0"/>
<path d="M144.82 65.4805C144.792 65.5345 138.578 62.2693 130.942 58.1869C123.307 54.1045 117.144 50.7601 117.172 50.6953C117.201 50.6305 123.411 53.9065 131.047 57.9889C138.682 62.0713 144.849 65.4265 144.82 65.4805Z" fill="#E0E0E0"/>
<path d="M142.639 69.5593C142.61 69.6133 136.396 66.3481 128.761 62.2657C121.125 58.1833 114.958 54.8281 114.991 54.7741C115.023 54.7201 121.23 57.9853 128.865 62.0677C136.501 66.1501 142.668 69.5053 142.639 69.5593Z" fill="#E0E0E0"/>
<path opacity="0.2" d="M142.83 0H141.901V15.8328H142.83V0Z" fill="black"/>
<path d="M120.683 34.9882H164.048C164.048 34.9882 160.045 15.8398 142.038 15.8398C126.021 15.8398 120.683 34.9882 120.683 34.9882Z" fill="#215988"/>
<path d="M142.83 0H141.901V15.8328H142.83V0Z" fill="#215988"/>
<path d="M238.921 158.339C238.921 158.389 192.391 158.432 135.003 158.432C77.6158 158.432 31.0786 158.4 31.0786 158.339C31.0786 158.278 77.6014 158.245 135.003 158.245C192.405 158.245 238.921 158.285 238.921 158.339Z" fill="#263238"/>
<path d="M42.5844 135.792C43.8156 135.882 44.9568 136.465 45.7452 137.412C46.5228 138.355 47.0736 139.464 47.3544 140.652C47.9628 142.927 47.5884 145.617 46.9404 147.881C44.478 146.999 42.9552 144.371 42.2604 142.989C41.1804 140.807 40.536 136.199 42.5736 135.789" fill="#3473BA"/>
<path d="M50.4862 150.642C49.7338 149.476 49.6654 147.992 50.3062 146.761C50.9614 145.552 52.0774 144.655 53.4022 144.274C54.0034 144.086 54.7018 144.011 55.2238 144.36C55.7026 144.724 55.9474 145.318 55.861 145.912C55.7674 146.495 55.519 147.046 55.141 147.503C53.9422 149.126 52.4878 150.476 50.461 150.642" fill="#3473BA"/>
<path d="M50.7601 158.249C50.7061 158.098 50.6701 157.939 50.6485 157.777C50.5837 157.439 50.4973 157.003 50.3929 156.481C50.0689 155.052 49.9789 153.58 50.1265 152.122C50.2957 150.657 50.8537 149.263 51.7429 148.086C52.0129 147.733 52.3261 147.417 52.6753 147.139C52.7689 147.064 52.8697 146.995 52.9705 146.931C53.0029 146.905 53.0389 146.88 53.0785 146.866C52.6249 147.255 52.2073 147.687 51.8365 148.158C50.9941 149.335 50.4649 150.707 50.2957 152.147C50.0653 153.825 50.3497 155.362 50.5153 156.467C50.6017 157.018 50.6737 157.464 50.7133 157.774C50.7421 157.932 50.7565 158.091 50.7601 158.249Z" fill="#263238"/>
<path d="M43.3765 139.259C43.4161 139.316 43.4521 139.378 43.4773 139.442C43.5421 139.586 43.6285 139.766 43.7293 139.993C43.9489 140.472 44.2549 141.167 44.6257 142.027C45.3673 143.752 46.3609 146.149 47.3977 148.82C48.4345 151.492 49.3165 153.929 49.9177 155.704C50.2273 156.589 50.4685 157.309 50.6377 157.81C50.7133 158.047 50.7709 158.238 50.8177 158.386C50.8429 158.45 50.8609 158.519 50.8717 158.591C50.8357 158.53 50.8069 158.465 50.7853 158.396C50.7313 158.252 50.6629 158.065 50.5729 157.831L49.8133 155.743C49.1689 153.983 48.2689 151.549 47.2357 148.882C46.2025 146.214 45.2233 143.809 44.5105 142.074C44.1505 141.221 43.8733 140.526 43.6681 140.018C43.5745 139.788 43.4989 139.604 43.4413 139.457C43.4125 139.392 43.3909 139.327 43.3765 139.259Z" fill="#263238"/>
<path d="M47.8332 153.216C46.332 150.714 43.7148 149.091 40.806 148.849C40.086 148.799 39.2004 148.921 38.8764 149.569C38.5524 150.217 38.9844 151.009 39.4812 151.535C41.6412 153.792 44.9424 154.53 47.8584 153.407" fill="#3473BA"/>
<path d="M41.9146 150.801C42.0658 150.793 42.2206 150.801 42.3718 150.819C42.5482 150.829 42.7246 150.847 42.901 150.88C43.1062 150.919 43.3474 150.941 43.5994 151.013C43.8802 151.074 44.1574 151.15 44.431 151.243C44.7478 151.344 45.0538 151.467 45.3562 151.603C46.0474 151.913 46.7026 152.302 47.3074 152.759C47.905 153.227 48.445 153.763 48.9202 154.357C49.1254 154.617 49.3126 154.887 49.4854 155.167C49.6402 155.409 49.7842 155.661 49.9102 155.92C50.0182 156.129 50.1154 156.348 50.1982 156.568C50.2702 156.73 50.3314 156.899 50.3818 157.072C50.4358 157.216 50.4754 157.363 50.5006 157.515C50.461 157.515 50.2882 156.895 49.8022 155.974C49.669 155.725 49.525 155.484 49.3666 155.254C49.1902 154.98 49.003 154.717 48.7978 154.465C47.8546 153.303 46.6558 152.374 45.2914 151.758C44.9782 151.621 44.6794 151.492 44.3878 151.398C44.1214 151.301 43.8478 151.218 43.5706 151.15C42.5626 150.873 41.911 150.84 41.9146 150.801Z" fill="#263238"/>
<path d="M107.64 84.4344L94.8962 149.882L93.2402 158.45L178.2 158.04C182.016 158.022 185.4 154.634 186.621 149.602L201.69 87.8148C202.623 83.9952 200.578 80.0208 197.683 80.0244L111.672 80.1144C109.8 80.1144 108.123 81.882 107.64 84.4344Z" fill="#FF725E"/>
<g opacity="0.5">
<path d="M107.64 84.4344L94.8962 149.882L93.2402 158.45L178.2 158.04C182.016 158.022 185.4 154.634 186.621 149.602L201.69 87.8148C202.623 83.9952 200.578 80.0208 197.683 80.0244L111.672 80.1144C109.8 80.1144 108.123 81.882 107.64 84.4344Z" fill="black"/>
</g>
<path d="M170.06 145.44L161.06 72.9322C160.7 69.9622 158.328 67.7446 155.531 67.7554L135.803 67.8166C134.32 67.8346 132.912 68.4574 131.904 69.5446L122.544 79.5058L67.6801 79.801C64.3285 79.819 61.7509 82.9942 62.1937 86.5582L70.5493 153.572C70.9093 156.539 73.2817 158.753 76.0717 158.749L171.706 158.558C182.354 158.778 183.373 155.635 183.373 155.635C171.148 158.339 170.06 145.458 170.06 145.44Z" fill="#F26639"/>
</g>
<defs>
<clipPath id="clip0_2164_229">
<rect width="270" height="180" fill="white"/>
</clipPath>
</defs>
</svg>
