<?xml version="1.0" encoding="UTF-8"?>
<svg id="Layer_1" data-name="Layer 1" xmlns="http://www.w3.org/2000/svg" viewBox="0 0 60 60">
  <defs>
    <style>
      .cls-1 {
        fill: #fff;
      }
    </style>
  </defs>
  <path class="cls-1" d="M11.54,55c-1.19-.43-1.67-1.29-1.58-2.53,.05-.71,0-1.43,.02-2.15,.03-1.12,.83-1.92,1.95-1.97,.15,0,.29,0,.44,0,11.77,0,23.53,0,35.3,0,.34,0,.69,.01,1.01,.11,.81,.23,1.33,.92,1.36,1.77,.02,.75-.03,1.5,.02,2.24,.09,1.25-.39,2.1-1.58,2.53H11.54Z"/>
  <path class="cls-1" d="M26.68,33.26v-.57c0-8.43,0-16.86,0-25.29,0-1.66,.75-2.4,2.42-2.4,.68,0,1.37,0,2.05,0,1.37,0,2.18,.81,2.19,2.19,0,3.47,0,6.93,0,10.4,0,5.05,0,10.09,0,15.14v.65c.2-.19,.33-.3,.45-.41,2.11-2.11,4.21-4.22,6.31-6.32,1.15-1.15,2.23-1.15,3.38,0,.51,.51,1.02,1.01,1.52,1.52,.91,.94,.92,2.1,0,3.03-4.48,4.49-8.97,8.98-13.47,13.46-.94,.94-2.07,.94-3.02,0-4.5-4.48-8.99-8.97-13.48-13.46-.93-.93-.92-2.08,0-3.03,.53-.55,1.08-1.09,1.62-1.62,1.02-1.01,2.16-1.01,3.17,0,2.13,2.12,4.26,4.26,6.39,6.39,.13,.13,.22,.28,.33,.42,.05-.03,.1-.06,.15-.09Z"/>
</svg>