<svg width="50" height="50" viewBox="0 0 50 50" fill="none" xmlns="http://www.w3.org/2000/svg">
<path fill-rule="evenodd" clip-rule="evenodd" d="M40.704 12.0516V6.1226L40.7055 6.12114L40.8468 6.03376C40.9913 6.18558 41.1347 6.33856 41.2782 6.49159C41.6166 6.85236 41.9551 7.21339 42.308 7.56006C43.0627 8.30282 44.151 8.32467 44.843 7.63434C45.5393 6.93964 45.5233 5.86045 44.7745 5.10021C43.271 3.57391 41.7588 2.05343 40.2393 0.543151C39.4963 -0.193784 38.3876 -0.174851 37.6533 0.563541C37.4411 0.77695 37.2289 0.99033 37.0167 1.2037C35.743 2.48429 34.4697 3.76443 33.1997 5.04778C32.4101 5.84734 32.3577 6.89886 33.0613 7.62123C33.7737 8.35234 34.8605 8.3101 35.672 7.50617C36.0043 7.17696 36.3284 6.84088 36.6527 6.50453C36.8004 6.35134 36.9482 6.19809 37.0968 6.04541L37.2148 6.11095V6.68768C37.2148 7.53269 37.2146 8.37783 37.2144 9.22301C37.2138 11.3378 37.2132 13.4529 37.2163 15.5673C37.2178 16.6538 37.987 17.4679 38.9747 17.4563C39.9523 17.4446 40.6953 16.6509 40.7026 15.5921C40.7076 14.7753 40.7064 13.9579 40.7051 13.1407C40.7046 12.7776 40.704 12.4145 40.704 12.0516ZM4.18778 38.4735C5.84424 37.3637 7.45553 36.2831 9.06681 35.201C9.54823 34.8778 10.0289 34.5537 10.5096 34.2296L10.5111 34.2286C11.566 33.5174 12.6206 32.8063 13.6821 32.1061C16.4429 30.2856 19.8374 30.5026 22.2878 32.7164C23.3907 33.7125 24.5853 34.1888 26.0203 33.7155C26.5346 33.5451 27.0197 33.1999 27.4408 32.8416C29.5979 31.0112 31.7441 29.1684 33.8902 27.3255L33.8906 27.3251L33.8978 27.3189C34.7682 26.5715 35.6386 25.8241 36.5097 25.0776C39.3404 22.6512 43.0102 22.641 45.8467 25.047C45.9645 25.1474 46.0852 25.2444 46.2288 25.3598L46.2291 25.3601C46.3145 25.4287 46.4081 25.5039 46.514 25.5902V24.9086C46.514 24.4761 46.5129 24.0436 46.5118 23.611C46.5091 22.5537 46.5064 21.4963 46.5198 20.439C46.5315 19.4748 47.1273 18.7889 48.0218 18.6389C48.7998 18.5092 49.5909 18.9636 49.8808 19.7428C49.9667 19.9744 50.0003 20.238 50.0003 20.487C49.9996 21.5184 50.0001 22.5497 50.0006 23.5811V23.5909C50.0023 26.9706 50.004 30.3503 49.9638 33.73C49.9376 35.9321 49.5996 38.105 48.9455 40.2182C47.4988 44.8889 44.3724 47.8104 39.6828 49.1066C37.7291 49.6469 35.7332 49.9557 33.7125 49.9674C27.8953 50.0023 22.078 50.0212 16.2623 49.9601C13.5073 49.9309 10.8034 49.4649 8.24077 48.377C4.47187 46.7764 2.15401 43.9131 0.995801 40.0435C0.385376 38.0147 0.0473843 35.9306 0.0328157 33.8203C-0.0079764 27.9525 -0.0138038 22.0832 0.0328157 16.2154C0.0517549 13.9041 0.436366 11.6292 1.175 9.42133C2.6304 5.07254 5.60385 2.32287 9.96861 1.02085C12.0534 0.398968 14.1921 0.0829307 16.3599 0.0552592C19.3089 0.0162659 22.259 0.0184958 25.2084 0.0207252C25.8943 0.0212437 26.5801 0.0217621 27.2659 0.0217621C28.1488 0.0217621 28.8554 0.585387 29.0229 1.36893C29.1977 2.18596 28.7956 3.01465 28.0118 3.33069C27.703 3.45448 27.3417 3.49818 27.0037 3.49963C25.1369 3.50803 23.2702 3.50917 21.4035 3.5103C20.0345 3.51113 18.6656 3.51196 17.2966 3.51565C15.1813 3.52148 13.0892 3.72974 11.0467 4.31084C7.35646 5.3609 5.10852 7.79163 4.16739 11.4778C3.70265 13.2997 3.49432 15.1566 3.49286 17.0324C3.49186 17.9804 3.49031 18.9283 3.48876 19.8762C3.48125 24.4698 3.47373 29.0635 3.52928 33.6572C3.54144 34.6718 3.69795 35.6849 3.85439 36.6976C3.92297 37.1416 3.99154 37.5854 4.04793 38.0293C4.05962 38.1199 4.09217 38.2079 4.12989 38.3098C4.14856 38.3603 4.16849 38.4142 4.18778 38.4735ZM5.57909 41.778C6.20262 42.9548 7.46718 44.1243 8.92113 44.8656C11.2419 46.0497 13.755 46.4443 16.3118 46.4749C21.657 46.5375 27.0022 46.5448 32.3475 46.4924C34.1015 46.4749 35.8745 46.3249 37.6024 46.0234C42.1099 45.237 44.9362 42.6067 45.9429 38.089C46.5009 35.584 46.5402 33.0455 46.5023 30.4997C46.4994 30.3206 46.3494 30.1021 46.2037 29.9725C45.4731 29.3252 44.7316 28.6908 43.9898 28.0562L43.9894 28.0559C43.8335 27.9224 43.6775 27.789 43.5216 27.6554C42.0939 26.432 40.2903 26.4393 38.8655 27.6641L37.4545 28.8762L37.4541 28.8765C34.823 31.1369 32.1911 33.3978 29.5488 35.6452C29.0957 36.0311 28.596 36.3836 28.0672 36.653C25.4725 37.9783 22.467 37.5094 20.1317 35.4529C18.6136 34.116 17.1029 34.0213 15.4216 35.1529C14.3895 35.8476 13.3565 36.5416 12.3236 37.2355C11.2907 37.9295 10.2578 38.6235 9.22561 39.3182C8.54615 39.7748 7.86759 40.2323 7.18994 40.6893C6.65291 41.0514 6.11644 41.4131 5.58054 41.7737L5.57909 41.778ZM18.0061 22.0949C14.4849 22.0905 11.6207 19.2403 11.6076 15.7275C11.5945 12.2045 14.4878 9.30919 18.0221 9.3121C21.555 9.31502 24.4484 12.2234 24.4207 15.7421C24.3915 19.2651 21.5303 22.0978 18.0061 22.0934V22.0949ZM18.0061 18.6024C19.6189 18.6054 20.9228 17.3179 20.9286 15.7159C20.9344 14.1269 19.6174 12.806 18.0236 12.8016C16.4269 12.7973 15.1099 14.1036 15.1011 15.6984C15.0938 17.2961 16.3963 18.5995 18.0061 18.6024Z" fill="#F26639"/>
</svg>
