<svg width="20" height="20" viewBox="0 0 20 20" fill="none" xmlns="http://www.w3.org/2000/svg">
<path d="M18.7241 6.74413L12.9516 1.21168C12.1693 0.437586 11.1138 0.00234944 10.0132 9.48391e-06C8.91269 -0.00233047 7.85539 0.428414 7.0698 1.19918L1.2839 6.74413C0.879235 7.13389 0.557049 7.60101 0.33649 8.11775C0.115931 8.63449 0.00150085 9.19029 0 9.75213V15.8315C0.0013238 16.9366 0.44093 17.9961 1.22239 18.7776C2.00385 19.5591 3.06336 19.9987 4.16851 20H15.8403C16.9455 19.9987 18.005 19.5591 18.7865 18.7776C19.5679 17.9961 20.0075 16.9366 20.0089 15.8315V9.75213C20.0074 9.19021 19.8929 8.63433 19.6722 8.11757C19.4515 7.60081 19.1291 7.13373 18.7241 6.74413ZM8.23615 2.39054C8.70889 1.92199 9.34827 1.66023 10.0139 1.66273C10.6795 1.66523 11.3168 1.93179 11.7861 2.40388L17.411 7.79293L11.7727 13.4321C11.2961 13.8864 10.6629 14.1399 10.0044 14.1399C9.34596 14.1399 8.71276 13.8864 8.23615 13.4321L2.59698 7.79293L8.23615 2.39054ZM18.3415 15.8315C18.3415 16.4948 18.0779 17.131 17.6089 17.6C17.1398 18.0691 16.5037 18.3326 15.8403 18.3326H4.16851C3.50518 18.3326 2.86901 18.0691 2.39996 17.6C1.93091 17.131 1.66741 16.4948 1.66741 15.8315V9.75213C1.66824 9.59029 1.68472 9.42892 1.71659 9.27025L7.05729 14.6109C7.84158 15.3876 8.9007 15.8232 10.0044 15.8232C11.1082 15.8232 12.1673 15.3876 12.9516 14.6109L18.2923 9.27025C18.3241 9.42892 18.3406 9.59029 18.3415 9.75213V15.8315Z" fill="white"/>
</svg>
