<svg width="35" height="35" viewBox="0 0 35 35" fill="none" xmlns="http://www.w3.org/2000/svg">
<path d="M17.5 0C14.0388 0 10.6554 1.02636 7.77753 2.94928C4.89967 4.87221 2.65665 7.60533 1.33212 10.803C0.0075825 14.0007 -0.338976 17.5194 0.336265 20.9141C1.01151 24.3087 2.67822 27.4269 5.12564 29.8744C7.57306 32.3218 10.6913 33.9885 14.0859 34.6637C17.4806 35.339 20.9993 34.9924 24.197 33.6679C27.3947 32.3434 30.1278 30.1003 32.0507 27.2225C33.9736 24.3446 35 20.9612 35 17.5C34.995 12.8602 33.1496 8.41197 29.8688 5.13117C26.588 1.85037 22.1398 0.00501824 17.5 0ZM11.6667 11.6667C12.4402 11.6667 13.1821 11.974 13.7291 12.5209C14.276 13.0679 14.5833 13.8098 14.5833 14.5833C14.5833 16.0417 13.2781 16.0417 11.6667 16.0417C10.0552 16.0417 8.75001 16.0417 8.75001 14.5833C8.75001 13.8098 9.0573 13.0679 9.60428 12.5209C10.1513 11.974 10.8931 11.6667 11.6667 11.6667ZM25.7629 22.9629C23.4473 24.9412 20.5418 26.097 17.5 26.25C14.4582 26.097 11.5527 24.9412 9.23709 22.9629C8.94856 22.7053 8.77417 22.3437 8.75229 21.9575C8.74146 21.7663 8.76839 21.5748 8.83155 21.394C8.89472 21.2132 8.99288 21.0466 9.12042 20.9037C9.24797 20.7609 9.40241 20.6445 9.57492 20.5614C9.74743 20.4782 9.93463 20.4298 10.1258 20.4189C10.512 20.3971 10.8911 20.5295 11.1796 20.7871C12.962 22.2864 15.176 23.1783 17.5 23.3333C19.8254 23.1782 22.0406 22.2852 23.8233 20.7842C23.9664 20.6568 24.1331 20.5589 24.314 20.496C24.4949 20.4331 24.6865 20.4064 24.8777 20.4175C25.0689 20.4286 25.256 20.4773 25.4285 20.5607C25.6009 20.6441 25.7551 20.7607 25.8825 20.9037C26.0099 21.0468 26.1078 21.2135 26.1707 21.3945C26.2336 21.5754 26.2603 21.7669 26.2492 21.9581C26.2381 22.1493 26.1894 22.3365 26.106 22.5089C26.0226 22.6813 25.906 22.8356 25.7629 22.9629ZM23.3333 16.0417C21.7219 16.0417 20.4167 16.0417 20.4167 14.5833C20.4167 13.8098 20.724 13.0679 21.2709 12.5209C21.8179 11.974 22.5598 11.6667 23.3333 11.6667C24.1069 11.6667 24.8487 11.974 25.3957 12.5209C25.9427 13.0679 26.25 13.8098 26.25 14.5833C26.25 16.0417 24.9448 16.0417 23.3333 16.0417Z" fill="#F79C37"/>
</svg>
