<svg width="15" height="15" viewBox="0 0 15 15" fill="none" xmlns="http://www.w3.org/2000/svg">
<path fill-rule="evenodd" clip-rule="evenodd" d="M3.125 0H11.875C12.7035 0.000992411 13.4978 0.330551 14.0836 0.916387C14.6694 1.50222 14.999 2.2965 15 3.125V11.875C14.9999 12.4873 14.8187 13.086 14.4794 13.5956L7.835 6.95125C7.54481 6.66098 7.20027 6.43072 6.82108 6.27362C6.44188 6.11653 6.03545 6.03567 5.625 6.03567C5.21455 6.03567 4.80812 6.11653 4.42892 6.27362C4.04973 6.43072 3.70519 6.66098 3.415 6.95125L0 10.3663V3.125C0.000992411 2.2965 0.330551 1.50222 0.916387 0.916387C1.50222 0.330551 2.2965 0.000992411 3.125 0ZM9.86107 5.82867C10.2722 6.10338 10.7555 6.25 11.25 6.25C11.913 6.25 12.5489 5.98661 13.0178 5.51777C13.4866 5.04893 13.75 4.41304 13.75 3.75C13.75 3.25555 13.6034 2.7722 13.3287 2.36107C13.054 1.94995 12.6635 1.62952 12.2067 1.4403C11.7499 1.25108 11.2472 1.20157 10.7623 1.29804C10.2773 1.3945 9.83186 1.6326 9.48223 1.98223C9.1326 2.33186 8.8945 2.77732 8.79804 3.26227C8.70157 3.74723 8.75108 4.24989 8.9403 4.70671C9.12952 5.16352 9.44995 5.55397 9.86107 5.82867ZM11.25 5C11.9404 5 12.5 4.44036 12.5 3.75C12.5 3.05964 11.9404 2.5 11.25 2.5C10.5596 2.5 10 3.05964 10 3.75C10 4.44036 10.5596 5 11.25 5ZM6.95125 7.835C6.77712 7.66076 6.57037 7.52254 6.34281 7.42824C6.11525 7.33394 5.87133 7.2854 5.625 7.2854C5.37867 7.2854 5.13475 7.33394 4.90719 7.42824C4.67963 7.52254 4.47288 7.66076 4.29875 7.835L0.0237498 12.11C0.0815376 12.8938 0.433067 13.6269 1.00805 14.1627C1.58302 14.6985 2.33907 14.9976 3.125 15H11.875C12.4873 14.9999 13.0859 14.8187 13.5956 14.4794L6.95125 7.835Z" fill="#F26639"/>
</svg>
