<svg width="31" height="30" viewBox="0 0 31 30" fill="none" xmlns="http://www.w3.org/2000/svg">
<path d="M15.0487 0C11.0588 0.00431531 7.23366 1.59118 4.41242 4.41242C1.59118 7.23366 0.00431531 11.0588 0 15.0487C0.752434 34.9882 29.3449 34.9794 30.0973 15.0487C30.093 11.0588 28.5062 7.23366 25.6849 4.41242C22.8637 1.59118 19.0385 0.00431531 15.0487 0ZM15.0487 27.5892C11.7238 27.5856 8.53621 26.2632 6.18519 23.9122C3.83417 21.5611 2.51176 18.3735 2.50811 15.0487C3.13514 -1.56506 26.9622 -1.5613 27.5892 15.0487C27.5856 18.3735 26.2632 21.5611 23.9122 23.9122C21.5611 26.2632 18.3735 27.5856 15.0487 27.5892ZM22.3749 19.4905C21.638 20.7896 20.5742 21.8733 19.289 22.634C18.0038 23.3947 16.542 23.806 15.0487 23.8271C13.5543 23.8062 12.0914 23.395 10.805 22.6344C9.51853 21.8737 8.45331 20.7899 7.71495 19.4905C7.58163 19.2824 7.51277 19.0396 7.51703 18.7924C7.52128 18.5453 7.59847 18.305 7.73889 18.1016C7.87931 17.8982 8.0767 17.7408 8.30627 17.6492C8.53584 17.5577 8.78735 17.536 9.0292 17.5869C10.9575 18.3134 12.9897 18.7266 15.0487 18.8108C17.1042 18.7255 19.1329 18.3124 21.0581 17.5869C21.3002 17.5353 21.552 17.5566 21.782 17.6479C22.0121 17.7392 22.2099 17.8965 22.3507 18.1C22.4915 18.3036 22.5689 18.5442 22.5732 18.7916C22.5775 19.0391 22.5085 19.2822 22.3749 19.4905ZM7.19327 15.9942C7.03195 15.883 6.9115 15.722 6.85035 15.5358C6.7892 15.3497 6.79072 15.1486 6.85467 14.9634L7.50553 12.9494L5.79249 11.6953C5.63605 11.5807 5.51984 11.4195 5.46042 11.2349C5.40101 11.0503 5.40144 10.8516 5.46165 10.6672C5.52185 10.4828 5.63876 10.3222 5.79569 10.2082C5.95261 10.0942 6.14154 10.0327 6.33549 10.0324H8.44356L9.08438 8.03474C9.14588 7.85058 9.26374 7.69042 9.42128 7.57694C9.57882 7.46346 9.76806 7.40239 9.96222 7.40239C10.1564 7.40239 10.3456 7.46346 10.5032 7.57694C10.6607 7.69042 10.7786 7.85058 10.8401 8.03474L11.4796 10.0324H13.5877C13.782 10.0323 13.9713 10.0937 14.1286 10.2077C14.2859 10.3218 14.4031 10.4827 14.4633 10.6674C14.5236 10.8521 14.5239 11.0511 14.4641 11.236C14.4044 11.4209 14.2877 11.5821 14.1307 11.6966L12.4177 12.9506L13.0685 14.9647C13.1281 15.15 13.1275 15.3495 13.0668 15.5345C13.006 15.7195 12.8882 15.8805 12.7303 15.9944C12.5724 16.1083 12.3824 16.1693 12.1877 16.1686C11.993 16.1679 11.8035 16.1055 11.6464 15.9905L9.96222 14.7515L8.27677 15.9892C8.12037 16.1056 7.93081 16.1689 7.73584 16.1698C7.54087 16.1707 7.35073 16.1092 7.19327 15.9942ZM24.187 11.6966L22.4739 12.9506L23.1248 14.9647C23.1844 15.15 23.1838 15.3495 23.123 15.5345C23.0623 15.7195 22.9445 15.8805 22.7866 15.9944C22.6286 16.1083 22.4387 16.1693 22.244 16.1686C22.0493 16.1679 21.8598 16.1055 21.7027 15.9905L20.0185 14.7515L18.333 15.9905C18.1761 16.1062 17.9863 16.1686 17.7913 16.1686C17.5963 16.1686 17.4065 16.1062 17.2495 15.9905C17.0882 15.8792 16.9678 15.7182 16.9066 15.5321C16.8455 15.3459 16.847 15.1449 16.9109 14.9596L17.5631 12.9456L15.8488 11.6916C15.6939 11.5764 15.5791 11.4155 15.5207 11.2316C15.4623 11.0476 15.4632 10.85 15.5232 10.6666C15.5832 10.4832 15.6994 10.3233 15.8552 10.2095C16.0111 10.0957 16.1988 10.0338 16.3918 10.0324H18.5011L19.1419 8.03474C19.2028 7.84996 19.3204 7.68911 19.478 7.57508C19.6356 7.46105 19.8252 7.39966 20.0198 7.39966C20.2143 7.39966 20.4039 7.46105 20.5615 7.57508C20.7191 7.68911 20.8367 7.84996 20.8976 8.03474L21.5359 10.0324H23.644C23.8383 10.0323 24.0276 10.0937 24.1849 10.2077C24.3422 10.3218 24.4593 10.4827 24.5196 10.6674C24.5799 10.8521 24.5801 11.0511 24.5204 11.236C24.4607 11.4209 24.3439 11.5821 24.187 11.6966Z" fill="#D9D9D9"/>
</svg>
