<svg width="36" height="35" viewBox="0 0 36 35" fill="none" xmlns="http://www.w3.org/2000/svg">
<path d="M17.5568 0C12.902 0.00503453 8.43927 1.85638 5.14782 5.14782C1.85638 8.43927 0.00503453 12.902 0 17.5568C0.877839 40.8195 34.2357 40.8093 35.1136 17.5568C35.1085 12.902 33.2572 8.43927 29.9657 5.14782C26.6743 1.85638 22.2116 0.00503453 17.5568 0ZM7.99711 15.9942L8.75645 13.6445L6.7579 12.1815C6.57539 12.0477 6.43981 11.8597 6.37049 11.6443C6.30118 11.4289 6.30168 11.1971 6.37192 10.982C6.44216 10.7669 6.57855 10.5795 6.76163 10.4465C6.94471 10.3135 7.16512 10.2417 7.39141 10.2415H9.85082L10.5984 7.91079C10.6702 7.69594 10.8077 7.50909 10.9915 7.3767C11.1753 7.2443 11.3961 7.17306 11.6226 7.17306C11.8491 7.17306 12.0699 7.2443 12.2537 7.3767C12.4375 7.50909 12.575 7.69594 12.6467 7.91079L13.3929 10.2415H15.8523C16.079 10.2413 16.2999 10.3129 16.4834 10.446C16.6669 10.579 16.8036 10.7667 16.8739 10.9822C16.9442 11.1977 16.9445 11.4299 16.8748 11.6456C16.8051 11.8613 16.6689 12.0494 16.4858 12.1829L14.4873 13.646L15.2466 15.9957C15.3162 16.212 15.3154 16.4447 15.2445 16.6605C15.1737 16.8763 15.0362 17.0642 14.852 17.1971C14.6678 17.33 14.4462 17.4011 14.219 17.4003C13.9918 17.3995 13.7708 17.3267 13.5875 17.1925L11.6226 15.747L9.65623 17.191C9.47314 17.326 9.25165 17.3988 9.02419 17.3988C8.79672 17.3988 8.57523 17.326 8.39214 17.191C8.20516 17.0616 8.06545 16.8747 7.99417 16.6588C7.92289 16.4428 7.92393 16.2095 7.99711 15.9942ZM26.104 22.739C25.2444 24.2545 24.0032 25.5188 22.5038 26.4063C21.0044 27.2938 19.299 27.7737 17.5568 27.7982C15.8134 27.7739 14.1066 27.2942 12.6058 26.4067C11.1049 25.5193 9.8622 24.2549 9.00078 22.739C8.84523 22.4962 8.76489 22.2128 8.76986 21.9245C8.77483 21.6362 8.86488 21.3558 9.02871 21.1185C9.19253 20.8812 9.42282 20.6976 9.69065 20.5908C9.95848 20.4839 10.2519 20.4586 10.5341 20.518C12.7838 21.3656 15.1547 21.8477 17.5568 21.946C19.9549 21.8465 22.3218 21.3644 24.5678 20.518C24.8502 20.4579 25.144 20.4826 25.4124 20.5892C25.6807 20.6957 25.9116 20.8793 26.0758 21.1167C26.24 21.3542 26.3304 21.6349 26.3354 21.9236C26.3404 22.2122 26.2599 22.4959 26.104 22.739ZM28.2181 12.1829L26.2196 13.646L26.9789 15.9957C27.0485 16.212 27.0478 16.4447 26.9769 16.6605C26.906 16.8763 26.7686 17.0642 26.5843 17.1971C26.4001 17.33 26.1785 17.4011 25.9513 17.4003C25.7241 17.3995 25.5031 17.3267 25.3198 17.1925L23.3549 15.747L21.3886 17.1925C21.2055 17.3275 20.984 17.4003 20.7565 17.4003C20.529 17.4003 20.3076 17.3275 20.1245 17.1925C19.9363 17.0627 19.7957 16.8749 19.7244 16.6577C19.6531 16.4405 19.6548 16.2059 19.7294 15.9898L20.4902 13.6402L18.4902 12.1771C18.3095 12.0427 18.1757 11.855 18.1075 11.6404C18.0393 11.4258 18.0403 11.1953 18.1104 10.9813C18.1804 10.7673 18.3159 10.5808 18.4978 10.448C18.6796 10.3152 18.8986 10.243 19.1237 10.2415H21.5846L22.3322 7.91079C22.4032 7.69522 22.5405 7.50756 22.7243 7.37453C22.9082 7.24149 23.1294 7.16987 23.3564 7.16987C23.5833 7.16987 23.8045 7.24149 23.9884 7.37453C24.1723 7.50756 24.3095 7.69522 24.3805 7.91079L25.1252 10.2415H27.5846C27.8113 10.2413 28.0322 10.3129 28.2157 10.446C28.3992 10.579 28.5359 10.7667 28.6062 10.9822C28.6765 11.1977 28.6768 11.4299 28.6071 11.6456C28.5374 11.8613 28.4013 12.0494 28.2181 12.1829Z" fill="#F79C37"/>
</svg>
