<svg width="30" height="30" viewBox="0 0 30 30" fill="none" xmlns="http://www.w3.org/2000/svg">
<path d="M15 30C12.0333 30 9.13319 29.1203 6.66645 27.472C4.19971 25.8238 2.27713 23.4811 1.14181 20.7403C0.00649929 17.9994 -0.290551 14.9834 0.288227 12.0737C0.867006 9.16394 2.29562 6.49119 4.3934 4.3934C6.49119 2.29562 9.16394 0.867006 12.0737 0.288227C14.9834 -0.290551 17.9994 0.00649929 20.7403 1.14181C23.4811 2.27713 25.8238 4.19971 27.472 6.66645C29.1203 9.13319 30 12.0333 30 15C29.9957 18.9769 28.414 22.7897 25.6019 25.6019C22.7897 28.414 18.9769 29.9957 15 30ZM15 2.50001C12.5277 2.50001 10.111 3.23312 8.05538 4.60664C5.99976 5.98015 4.39761 7.93239 3.45151 10.2165C2.50542 12.5005 2.25788 15.0139 2.74019 17.4386C3.22251 19.8634 4.41301 22.0907 6.16117 23.8388C7.90933 25.587 10.1366 26.7775 12.5614 27.2598C14.9861 27.7421 17.4995 27.4946 19.7835 26.5485C22.0676 25.6024 24.0199 24.0002 25.3934 21.9446C26.7669 19.889 27.5 17.4723 27.5 15C27.4964 11.6859 26.1782 8.50861 23.8348 6.16519C21.4914 3.82177 18.3141 2.50365 15 2.50001ZM22.1825 22.0838C22.292 21.9613 22.3763 21.8184 22.4306 21.6633C22.4848 21.5082 22.508 21.3439 22.4987 21.1799C22.4894 21.0159 22.4479 20.8552 22.3764 20.7073C22.305 20.5593 22.2052 20.4268 22.0825 20.3175C20.0977 18.6218 17.6072 17.6311 15 17.5C12.3928 17.6311 9.90234 18.6218 7.91751 20.3175C7.66986 20.538 7.51993 20.8478 7.50071 21.1788C7.48149 21.5098 7.59454 21.8349 7.815 22.0825C8.03547 22.3301 8.34527 22.4801 8.67628 22.4993C9.00728 22.5185 9.33236 22.4055 9.58 22.185C11.1081 20.8984 13.0068 20.133 15 20C16.9931 20.1331 18.8918 20.8986 20.42 22.185C20.6673 22.4049 20.9918 22.5177 21.3222 22.4987C21.6526 22.4797 21.962 22.3305 22.1825 22.0838ZM7.50001 12.5C7.50001 13.75 8.61876 13.75 10 13.75C11.3813 13.75 12.5 13.75 12.5 12.5C12.5 11.837 12.2366 11.2011 11.7678 10.7322C11.2989 10.2634 10.663 10 10 10C9.33696 10 8.70108 10.2634 8.23224 10.7322C7.7634 11.2011 7.50001 11.837 7.50001 12.5ZM17.5 12.5C17.5 13.75 18.6188 13.75 20 13.75C21.3813 13.75 22.5 13.75 22.5 12.5C22.5 11.837 22.2366 11.2011 21.7678 10.7322C21.2989 10.2634 20.663 10 20 10C19.337 10 18.7011 10.2634 18.2322 10.7322C17.7634 11.2011 17.5 11.837 17.5 12.5Z" fill="#D9D9D9"/>
</svg>
