<svg width="24" height="21" viewBox="0 0 24 21" fill="none" xmlns="http://www.w3.org/2000/svg">
<path fill-rule="evenodd" clip-rule="evenodd" d="M7.99974 4.2522C7.21799 4.52226 6.44097 4.79232 5.66396 5.06238C5.66869 5.08133 5.66869 5.11923 5.66869 5.11923H5.95771H21.4411C21.7681 5.11923 22.076 5.11923 22.3366 4.8776C22.4004 4.81736 22.488 4.78363 22.5737 4.75063C22.6026 4.7395 22.6313 4.72846 22.6588 4.71651C23.1231 4.52699 23.2321 4.29957 23.0662 3.83052C22.9098 3.38502 22.7523 2.93834 22.5947 2.49165C22.4372 2.04524 22.2797 1.59884 22.1234 1.15361C21.7775 0.172869 20.9674 -0.220376 19.9819 0.120752C15.9878 1.49948 11.9938 2.87821 7.99974 4.2522ZM18.0341 6.19458H19.4223H22.0281C23.061 6.19932 23.6769 6.81051 23.6816 7.84337C23.6848 8.46894 23.6838 9.09663 23.6827 9.72361V9.72414C23.6822 10.0372 23.6816 10.3501 23.6816 10.6624C23.6816 11.1315 23.5111 11.3115 23.042 11.3589C22.0613 11.4584 21.3601 12.0933 21.1706 13.0503C20.9479 14.1779 21.8197 15.3387 22.9662 15.4335C23.0373 15.4382 23.1084 15.4477 23.1794 15.4572C23.5063 15.5093 23.6722 15.6704 23.6722 16.002C23.6731 16.2097 23.6744 16.4173 23.6758 16.6249V16.6251C23.6811 17.4549 23.6864 18.284 23.6674 19.1101C23.6437 19.9724 23.0657 20.5694 22.2082 20.593C21.2448 20.6165 20.2791 20.6115 19.3144 20.6066H19.3143C18.9126 20.6046 18.511 20.6025 18.1099 20.6025C18.0932 20.6025 18.0789 20.5978 18.0603 20.5918C18.058 20.591 18.0556 20.5902 18.053 20.5894C18.0472 20.5875 18.041 20.5855 18.0341 20.5836V6.19458ZM16.9875 6.19939V20.5979C16.953 20.5996 16.9199 20.6019 16.8875 20.6042L16.8874 20.6042C16.8307 20.6082 16.7764 20.6121 16.7221 20.6121H1.66984C0.817024 20.6121 0.234263 20.1951 0.0542226 19.4513C0.0117164 19.2765 0.00687398 19.0877 0.00215069 18.9034L0.00210573 18.9017C-0.00105287 18.3016 1.16415e-10 17.7014 0.00105287 17.1013C0.0015793 16.8012 0.00210573 16.5012 0.00210573 16.2011C0.00210573 15.5946 0.0968637 15.4904 0.703314 15.443C1.66511 15.3672 2.46107 14.6376 2.57952 13.7279C2.71218 12.6903 2.16259 11.7759 1.20079 11.4632C1.02768 11.4067 0.8426 11.3862 0.659815 11.3658L0.659794 11.3658C0.612472 11.3606 0.565304 11.3553 0.518536 11.3495C0.17267 11.3068 0.0163194 11.1647 0.0115815 10.8283L0.00891891 10.5389C-8.70107e-05 9.57407 -0.00909294 8.60926 0.0210573 7.64445C0.0447468 6.82479 0.636984 6.26572 1.45664 6.20887C1.56087 6.19939 1.66511 6.19939 1.76934 6.19939H16.6748H16.9875ZM9.52528 13.9127H12.6855C13.164 13.9127 13.3819 13.7563 13.3867 13.4105C13.3914 13.0551 13.1687 12.894 12.676 12.894H6.37931C6.35349 12.894 6.3265 12.8926 6.29928 12.8911L6.29924 12.8911C6.21662 12.8867 6.13193 12.8821 6.07135 12.9177C5.93395 12.9935 5.77286 13.093 5.71601 13.2257C5.55018 13.6047 5.80603 13.9127 6.27034 13.9127C6.99366 13.9158 7.71698 13.9148 8.4403 13.9137C8.80196 13.9132 9.16362 13.9127 9.52528 13.9127ZM9.53949 15.4715H6.23718C5.99081 15.4715 5.79655 15.5425 5.70653 15.7936C5.56913 16.1821 5.8155 16.4901 6.27034 16.4901H12.1311H12.856C13.0692 16.4854 13.2493 16.4048 13.3393 16.1963C13.4956 15.8221 13.2635 15.4762 12.8465 15.4762H9.54423L9.53949 15.4715ZM7.72014 11.3353H9.23626C9.57739 11.3353 9.76217 11.16 9.77165 10.852C9.78112 10.5298 9.59634 10.3214 9.25522 10.3214C8.23657 10.3119 7.21792 10.3119 6.19927 10.3214C5.86762 10.3214 5.65915 10.544 5.66863 10.8473C5.6781 11.1505 5.8771 11.3353 6.20401 11.3353H7.72014Z" fill="#F26639"/>
</svg>
