<svg width="21" height="20" viewBox="0 0 21 20" fill="none" xmlns="http://www.w3.org/2000/svg">
<path d="M0.000214314 9.57137C0.000214314 5.55335 3.26898 2.28459 7.28699 2.28459H16.2883V0.858948C16.2883 0.0951225 17.2116 -0.287219 17.7517 0.25286L20.3235 2.9644C20.6587 3.29959 20.6578 3.84224 20.3235 4.17658L17.7517 6.88812C17.2116 7.42819 16.2883 7.04585 16.2883 6.28203V4.85639H7.28699C4.6869 4.85639 2.57202 6.97213 2.57202 9.57137C2.57202 10.2812 1.99679 10.8573 1.28612 10.8573C0.575441 10.8573 0.000214314 10.2812 0.000214314 9.57137ZM19.2887 9.14273C18.5781 9.14273 18.0028 9.71882 18.0028 10.4286C18.0028 13.0279 15.888 15.1436 13.2879 15.1436H4.28656V13.718C4.28656 12.9541 3.36328 12.5718 2.8232 13.1119L0.251394 15.8234C-0.083798 16.1586 -0.083798 16.7013 0.251394 17.0356L2.8232 19.7471C3.36328 20.2872 4.28656 19.9049 4.28656 19.1411V17.7154H13.2879C17.3059 17.7154 20.5747 14.4466 20.5747 10.4286C20.5747 9.71882 19.9994 9.14273 19.2887 9.14273Z" fill="white"/>
</svg>
