<svg width="13" height="15" viewBox="0 0 13 15" fill="none" xmlns="http://www.w3.org/2000/svg">
<path fill-rule="evenodd" clip-rule="evenodd" d="M1.84111 1.84111C3.01826 0.663955 4.6143 0.0018282 6.27904 0C7.94378 0.0018282 9.53982 0.663955 10.717 1.84111C11.8941 3.01826 12.5563 4.6143 12.5581 6.27904C12.5581 9.59563 7.28369 14.1486 6.68467 14.6572L6.27904 15L5.87341 14.6572C5.27439 14.1486 0 9.59563 0 6.27904C0.0018282 4.6143 0.663955 3.01826 1.84111 1.84111ZM4.53482 8.88946C5.05111 9.23443 5.6581 9.41856 6.27904 9.41856C7.11139 9.41756 7.90936 9.08647 8.49792 8.49792C9.08647 7.90936 9.41756 7.11139 9.41856 6.27904C9.41856 5.6581 9.23443 5.05111 8.88946 4.53482C8.54448 4.01853 8.05416 3.61612 7.48048 3.3785C6.90681 3.14088 6.27556 3.07871 5.66655 3.19985C5.05754 3.32098 4.49813 3.61999 4.05906 4.05906C3.61999 4.49813 3.32098 5.05754 3.19985 5.66655C3.07871 6.27556 3.14088 6.90681 3.3785 7.48048C3.61612 8.05416 4.01853 8.54448 4.53482 8.88946ZM8.16276 6.27903C8.16276 7.31938 7.31939 8.16274 6.27905 8.16274C5.2387 8.16274 4.39533 7.31938 4.39533 6.27903C4.39533 5.23869 5.2387 4.39532 6.27905 4.39532C7.31939 4.39532 8.16276 5.23869 8.16276 6.27903Z" fill="#215988"/>
</svg>
