<svg width="10" height="10" viewBox="0 0 10 10" fill="none" xmlns="http://www.w3.org/2000/svg">
<path fill-rule="evenodd" clip-rule="evenodd" d="M6.33957 7.37502C5.60732 8.10725 4.42014 8.10725 3.68791 7.375L2.34959 6.03625C2.11566 5.79404 2.11566 5.41006 2.34959 5.16785C2.58939 4.91957 2.98506 4.9127 3.23334 5.1525L4.38375 6.30291L4.375 0.625C4.375 0.279824 4.65482 0 5 0C5.34518 0 5.625 0.279824 5.625 0.625L5.63459 6.31207L6.79418 5.15291C6.7992 5.14772 6.80432 5.14258 6.80953 5.13756C7.05781 4.89775 7.45348 4.90463 7.69328 5.15291C7.93308 5.40119 7.92621 5.79686 7.67793 6.03666L6.33959 7.375L6.33957 7.37502ZM8.75 6.66666C8.75 6.32148 9.02982 6.04166 9.375 6.04166C9.72018 6.04166 10 6.32148 9.99998 6.66668V8.57959C9.99906 9.36367 9.36367 9.99908 8.57957 10H1.42041C0.636328 9.99908 0.000917969 9.36367 0 8.57957V6.66666C0 6.32148 0.279824 6.04166 0.625 6.04166C0.970176 6.04166 1.25 6.32148 1.25 6.66666V8.57957C1.25021 8.67359 1.32639 8.74975 1.42041 8.74998H8.57959C8.67361 8.74977 8.74977 8.67359 8.75 8.57957V6.66666Z" fill="#215988"/>
</svg>
