<svg width="15" height="15" viewBox="0 0 15 15" fill="none" xmlns="http://www.w3.org/2000/svg">
<path fill-rule="evenodd" clip-rule="evenodd" d="M6.52459 10.2746C6.7004 10.0988 6.93886 10 7.1875 10C7.43614 10 7.6746 10.0988 7.85041 10.2746C8.02623 10.4504 8.125 10.6889 8.125 10.9375V11.4375C8.12401 12.382 7.74835 13.2876 7.08047 13.9555C6.41259 14.6234 5.50703 14.999 4.5625 15H3.5625C2.61797 14.999 1.71241 14.6234 1.04453 13.9555C0.376645 13.2876 0.000992674 12.382 0 11.4375V3.5625C0.000992674 2.61797 0.376645 1.71241 1.04453 1.04453C1.71241 0.376645 2.61797 0.000992674 3.5625 0H4.5625C5.50703 0.000992674 6.41259 0.376645 7.08047 1.04453C7.74835 1.71241 8.12401 2.61797 8.125 3.5625V4.0625C8.125 4.31114 8.02623 4.5496 7.85041 4.72541C7.6746 4.90123 7.43614 5 7.1875 5C6.93886 5 6.7004 4.90123 6.52459 4.72541C6.34877 4.5496 6.25 4.31114 6.25 4.0625V3.5625C6.25 3.11495 6.07221 2.68572 5.75574 2.36926C5.43928 2.05279 5.01005 1.875 4.5625 1.875H3.5625C3.11495 1.875 2.68572 2.05279 2.36926 2.36926C2.05279 2.68572 1.875 3.11495 1.875 3.5625V11.4375C1.875 11.8851 2.05279 12.3143 2.36926 12.6307C2.68572 12.9472 3.11495 13.125 3.5625 13.125H4.5625C5.01005 13.125 5.43928 12.9472 5.75574 12.6307C6.07221 12.3143 6.25 11.8851 6.25 11.4375V10.9375C6.25 10.6889 6.34877 10.4504 6.52459 10.2746ZM11.2344 3.08688L14.1006 5.95312C14.5099 6.36402 14.7395 6.92044 14.7392 7.50039C14.7388 8.08033 14.5085 8.63648 14.0988 9.04688L11.2325 11.9131C11.0566 12.0889 10.8181 12.1876 10.5695 12.1876C10.3208 12.1875 10.0824 12.0887 9.90656 11.9128C9.73077 11.7369 9.63205 11.4984 9.63211 11.2498C9.63217 11.0011 9.731 10.7627 9.90688 10.5869L12.0738 8.42L4.375 8.4375C4.12636 8.4375 3.8879 8.33873 3.71209 8.16291C3.53627 7.9871 3.4375 7.74864 3.4375 7.5C3.4375 7.25136 3.53627 7.0129 3.71209 6.83709C3.8879 6.66127 4.12636 6.5625 4.375 6.5625L12.0406 6.545L9.90875 4.41313C9.82167 4.32608 9.75258 4.22274 9.70544 4.109C9.65829 3.99526 9.63401 3.87335 9.63398 3.75022C9.63393 3.50156 9.73265 3.26306 9.90844 3.08719C9.99548 3.0001 10.0988 2.93102 10.2126 2.88387C10.3263 2.83673 10.4482 2.81245 10.5713 2.81242C10.6945 2.81239 10.8164 2.83661 10.9302 2.88371C11.0439 2.9308 11.1473 2.99983 11.2344 3.08688Z" fill="#FC0000"/>
</svg>
