<svg width="30" height="27" viewBox="0 0 30 27" fill="none" xmlns="http://www.w3.org/2000/svg">
<path fill-rule="evenodd" clip-rule="evenodd" d="M7.17496 6.4121L7.17426 6.41234C7.18026 6.43635 7.18026 6.48436 7.18026 6.48436H7.54634H27.1587C27.5728 6.48436 27.9629 6.48436 28.293 6.17829C28.3737 6.10199 28.4847 6.05926 28.5933 6.01746C28.6299 6.00337 28.6662 5.98938 28.701 5.97425C29.2892 5.73419 29.4272 5.44613 29.2172 4.852C29.0192 4.28801 28.8197 3.72253 28.6202 3.15705C28.4206 2.59128 28.221 2.02551 28.0229 1.46124C27.5848 0.218967 26.5586 -0.279143 25.3103 0.152953L25.3101 0.153031C20.251 1.89939 15.192 3.64575 10.1329 5.38611C9.14293 5.72811 8.15895 6.0701 7.17496 6.4121ZM21.5175 7.85266V26.0907C21.4738 26.0929 21.4318 26.0959 21.3908 26.0988C21.3189 26.1039 21.2501 26.1087 21.1814 26.1087H2.11514C1.0349 26.1087 0.296733 25.5806 0.0686819 24.6384C0.0148408 24.417 0.00870705 24.1778 0.00272422 23.9445L0.00266726 23.9422C-0.00133363 23.1821 1.16415e-10 22.4219 0.00133363 21.6617C0.00200044 21.2816 0.00266726 20.9016 0.00266726 20.5215C0.00266726 19.7533 0.122694 19.6213 0.890865 19.5613C2.10914 19.4652 3.11736 18.541 3.26739 17.3888C3.43543 16.0745 2.73928 14.9162 1.521 14.5201C1.30172 14.4486 1.0673 14.4226 0.835769 14.3968L0.835702 14.3968C0.775773 14.3902 0.716039 14.3835 0.656813 14.3761C0.218715 14.3221 0.0206713 14.1421 0.0146699 13.716L0.0112973 13.3493C-0.00011022 12.1272 -0.0115177 10.9052 0.0266726 9.68307C0.0566793 8.64484 0.806846 7.93668 1.84508 7.86467C1.97711 7.85266 2.10914 7.85266 2.24116 7.85266H21.1214H21.5175ZM12.0653 17.6228H16.0682C16.6744 17.6228 16.9504 17.4248 16.9564 16.9867C16.9624 16.5366 16.6804 16.3325 16.0562 16.3325H8.08046C8.04773 16.3325 8.01353 16.3307 7.97904 16.3288C7.87439 16.3232 7.76711 16.3174 7.69038 16.3626C7.51634 16.4586 7.31229 16.5846 7.24028 16.7526C7.03023 17.2327 7.3543 17.6228 7.94243 17.6228C8.85863 17.6268 9.77484 17.6255 10.691 17.6242L10.695 17.6242C11.1518 17.6235 11.6086 17.6228 12.0653 17.6228ZM12.0834 19.5973H7.90042C7.58835 19.5973 7.3423 19.6873 7.22827 20.0054C7.05423 20.4975 7.3663 20.8876 7.94243 20.8876H15.3661H16.2843C16.5543 20.8816 16.7824 20.7795 16.8964 20.5155C17.0945 20.0414 16.8004 19.6033 16.2723 19.6033H12.0894L12.0834 19.5973ZM9.77884 14.3581H11.6993C12.1314 14.3581 12.3654 14.1361 12.3774 13.746C12.3894 13.3379 12.1554 13.0738 11.7233 13.0738C10.433 13.0618 9.1427 13.0618 7.85241 13.0738C7.43232 13.0738 7.16826 13.3559 7.18026 13.74C7.19227 14.1241 7.44432 14.3581 7.85841 14.3581H9.77884ZM22.8437 7.84666H24.6021H27.9029C29.2112 7.85266 29.9913 8.62683 29.9973 9.93512C30.0013 10.7275 30 11.5226 29.9987 12.3168V12.3174C29.998 12.714 29.9973 13.1103 29.9973 13.5059C29.9973 14.1 29.7813 14.3281 29.1871 14.3881C27.9449 14.5141 27.0567 15.3183 26.8166 16.5306C26.5346 17.9589 27.6388 19.4292 29.0911 19.5493C29.1811 19.5553 29.2712 19.5673 29.3612 19.5793C29.7753 19.6453 29.9853 19.8493 29.9853 20.2694C29.9865 20.5316 29.9882 20.7937 29.9899 21.0559L29.9899 21.0585C29.9966 22.1095 30.0033 23.1598 29.9793 24.2063C29.9493 25.2985 29.2172 26.0547 28.1309 26.0847C26.9107 26.1144 25.6874 26.1081 24.4654 26.1019L24.4648 26.1019C23.9561 26.0993 23.4477 26.0967 22.9398 26.0967C22.9187 26.0967 22.9005 26.0908 22.877 26.0831C22.8671 26.0798 22.8562 26.0763 22.8437 26.0727V7.84666Z" fill="#4582FF"/>
</svg>
