<svg width="12" height="10" viewBox="0 0 12 10" fill="none" xmlns="http://www.w3.org/2000/svg">
<path fill-rule="evenodd" clip-rule="evenodd" d="M3.43765 3.80087C2.31436 2.93473 1.53929 2.12654 1.32767 1.89888V1.89992L0.55673 1.07465C0.590597 0.961765 0.614201 0.891637 0.621711 0.869324C0.622462 0.867093 0.623052 0.865339 0.623475 0.86407C0.680907 0.696947 0.819573 0.571217 0.991869 0.529825C1.08242 0.508094 3.23638 0 5.69096 0C8.19003 0 10.3036 0.508611 10.3926 0.530342C10.5623 0.571735 10.7 0.695912 10.7579 0.860965C10.7626 0.874418 10.7879 0.94789 10.8262 1.07362L10.0537 1.89992C9.84315 2.12706 9.06859 2.93525 7.94478 3.80139C7.09572 4.45694 6.13438 5.03282 5.69148 5.28893C5.24858 5.03333 4.2893 4.45798 3.43765 3.80087ZM8.57705 4.62096C9.73087 3.73102 10.5246 2.91404 10.8117 2.60463H10.8128L11.1201 2.27556C11.2583 2.98906 11.3835 3.93022 11.3835 4.9997C11.3835 7.32079 10.7848 9.06393 10.7595 9.13689C10.7015 9.30298 10.5639 9.42819 10.3932 9.46958C10.3042 9.49131 8.18538 9.99992 5.69199 9.99992C3.28191 9.99992 1.08707 9.49235 0.994973 9.47062C0.82216 9.43026 0.681942 9.30401 0.623993 9.13637C0.598122 9.0629 0 7.30682 0 5.00022C0 3.93954 0.126247 2.99579 0.26543 2.27814L0.570182 2.60411C0.857861 2.91404 1.65156 3.73102 2.80538 4.62096C4.01292 5.5523 5.37964 6.30335 5.44272 6.33802L5.44312 6.33823C5.52073 6.38066 5.6061 6.40188 5.69148 6.40188C5.77685 6.40188 5.86222 6.38066 5.93931 6.33823C5.99726 6.30667 7.36736 5.55436 8.57705 4.62096Z" fill="#215988"/>
</svg>
