<svg width="15" height="20" viewBox="0 0 15 20" fill="none" xmlns="http://www.w3.org/2000/svg">
<path d="M10.4152 0H4.58267C3.36768 0.00132328 2.20283 0.484564 1.34369 1.34369C0.484564 2.20283 0.00132334 3.36768 5.6023e-08 4.58267V18.7473C-6.3737e-05 18.9604 0.054354 19.1699 0.158084 19.3561C0.261813 19.5422 0.41141 19.6987 0.592663 19.8108C0.773915 19.9228 0.980803 19.9867 1.19367 19.9962C1.40654 20.0058 1.61833 19.9608 1.80891 19.8655L4.54351 18.4973L6.87651 19.8305C7.06531 19.9383 7.27898 19.995 7.49642 19.995C7.71385 19.995 7.92752 19.9383 8.11633 19.8305L10.4493 18.4973L13.1839 19.8655C13.3747 19.9619 13.587 20.0079 13.8006 19.9989C14.0142 19.9899 14.2219 19.9263 14.4039 19.8141C14.5858 19.7019 14.736 19.5449 14.84 19.3582C14.944 19.1714 14.9983 18.9611 14.9978 18.7473V4.58267C14.9965 3.36768 14.5133 2.20283 13.6541 1.34369C12.795 0.484564 11.6302 0.00132328 10.4152 0ZM12.4982 16.7251L10.9734 15.9627C10.7894 15.8706 10.5855 15.8255 10.3798 15.8311C10.1742 15.8368 9.97308 15.8931 9.79442 15.9952L7.49892 17.3075L5.20341 15.9977C5.02475 15.8956 4.82366 15.8393 4.61799 15.8336C4.41232 15.828 4.20843 15.8731 4.02442 15.9652L2.49964 16.7251V4.58267C2.49964 4.03022 2.7191 3.50039 3.10975 3.10975C3.50039 2.7191 4.03022 2.49964 4.58267 2.49964H10.4152C10.9676 2.49964 11.4974 2.7191 11.8881 3.10975C12.2787 3.50039 12.4982 4.03022 12.4982 4.58267V16.7251Z" fill="white"/>
</svg>
