<svg width="16" height="20" viewBox="0 0 16 20" fill="none" xmlns="http://www.w3.org/2000/svg">
<path d="M2.52252 20H4.31351C4.68982 19.9965 5.05429 19.8692 5.34969 19.6381C5.64508 19.407 5.85469 19.0853 5.94559 18.7233C6.04293 18.371 6.2544 18.0601 6.54747 17.8385C6.84053 17.6168 7.19894 17.4968 7.56757 17.4968C7.93619 17.4968 8.29461 17.6168 8.58767 17.8385C8.88073 18.0601 9.0922 18.371 9.18955 18.7233C9.28045 19.0853 9.49005 19.407 9.78545 19.6381C10.0808 19.8692 10.4453 19.9965 10.8216 20H12.6126C13.2816 20 13.9232 19.7366 14.3963 19.2678C14.8694 18.7989 15.1351 18.163 15.1351 17.5V14.1667H11.7718C11.5488 14.1667 11.3349 14.0789 11.1772 13.9226C11.0195 13.7663 10.9309 13.5543 10.9309 13.3333C10.9309 13.1123 11.0195 12.9004 11.1772 12.7441C11.3349 12.5878 11.5488 12.5 11.7718 12.5H15.1351V4.16667C15.1338 3.062 14.6904 2.00296 13.9023 1.22185C13.1141 0.440735 12.0455 0.00132321 10.9309 0L10.8216 0C10.4453 0.00354318 10.0808 0.130844 9.78545 0.361916C9.49005 0.592988 9.28045 0.914744 9.18955 1.27667C9.0922 1.62903 8.88073 1.93994 8.58767 2.16155C8.29461 2.38316 7.93619 2.5032 7.56757 2.5032C7.19894 2.5032 6.84053 2.38316 6.54747 2.16155C6.2544 1.93994 6.04293 1.62903 5.94559 1.27667C5.85469 0.914744 5.64508 0.592988 5.34969 0.361916C5.05429 0.130844 4.68982 0.00354318 4.31351 0L4.2042 0C3.08959 0.00132321 2.02101 0.440735 1.23286 1.22185C0.444706 2.00296 0.00133514 3.062 0 4.16667V12.5H3.36336C3.58637 12.5 3.80024 12.5878 3.95793 12.7441C4.11562 12.9004 4.2042 13.1123 4.2042 13.3333C4.2042 13.5543 4.11562 13.7663 3.95793 13.9226C3.80024 14.0789 3.58637 14.1667 3.36336 14.1667H0V17.5C0 18.163 0.265765 18.7989 0.73883 19.2678C1.21189 19.7366 1.85351 20 2.52252 20ZM6.72673 12.5H8.40841C8.63141 12.5 8.84528 12.5878 9.00297 12.7441C9.16066 12.9004 9.24925 13.1123 9.24925 13.3333C9.24925 13.5543 9.16066 13.7663 9.00297 13.9226C8.84528 14.0789 8.63141 14.1667 8.40841 14.1667H6.72673C6.50372 14.1667 6.28985 14.0789 6.13216 13.9226C5.97447 13.7663 5.88589 13.5543 5.88589 13.3333C5.88589 13.1123 5.97447 12.9004 6.13216 12.7441C6.28985 12.5878 6.50372 12.5 6.72673 12.5Z" fill="#F4F0E4"/>
</svg>
