<svg width="20" height="21" viewBox="0 0 20 21" fill="none" xmlns="http://www.w3.org/2000/svg">
<path d="M16.5321 6.93992C18.4472 6.93992 20 5.38291 20 3.47204C20 1.56117 18.443 0 16.5321 0C14.6213 0 13.0642 1.55701 13.0642 3.46788C13.0642 5.37875 14.6213 6.93575 16.5321 6.93575V6.93992ZM16.5321 1.73602C17.4896 1.73602 18.2681 2.51452 18.2681 3.47204C18.2681 4.42956 17.4896 5.20806 16.5321 5.20806C15.5746 5.20806 14.7961 4.42956 14.7961 3.47204C14.7961 2.51452 15.5746 1.73602 16.5321 1.73602ZM18.1516 8.93405C18.0433 8.46778 17.5646 8.18053 17.1108 8.28877C16.6445 8.39701 16.3573 8.86744 16.4655 9.32955L17.3814 13.2221C17.5396 13.7924 17.4272 14.3919 17.065 14.8623C16.7028 15.3369 16.1491 15.6075 15.5496 15.6075H3.63895C3.05611 15.6075 2.5149 15.3494 2.15271 14.8998C1.79052 14.4502 1.6573 13.8757 1.77387 13.3511L3.58899 6.61103C4.23011 3.73848 6.74879 1.73602 9.70877 1.73602C10.0835 1.73602 10.454 1.76933 10.8162 1.83593C11.2949 1.9192 11.7404 1.60696 11.8236 1.13653C11.9111 0.666099 11.5947 0.212319 11.1242 0.129057C10.6621 0.0457943 10.1834 0.00416312 9.70877 0.00416312C5.92866 0 2.71473 2.56448 1.90293 6.19472L0.087806 12.939C-0.153655 14.0172 0.108622 15.1288 0.803862 15.9947C1.49494 16.8523 2.53156 17.3477 3.63895 17.3477H5.34582C5.74965 19.3252 7.49816 20.8156 9.59637 20.8156C11.6946 20.8156 13.4431 19.321 13.8469 17.3477H15.5496C16.6945 17.3477 17.7519 16.8273 18.443 15.9198C19.1382 15.0122 19.3589 13.859 19.0633 12.7933L18.1557 8.93405H18.1516ZM9.59221 19.0796C8.464 19.0796 7.51065 18.351 7.14845 17.3435H12.0318C11.6738 18.351 10.7204 19.0796 9.58804 19.0796H9.59221Z" fill="#ED4C28"/>
</svg>
