<svg width="14" height="8" viewBox="0 0 14 8" fill="none" xmlns="http://www.w3.org/2000/svg">
<path d="M1.05018 0H12.8406C13.0492 0.000874509 13.2528 0.0635758 13.4258 0.180176C13.5987 0.296775 13.7332 0.462038 13.8122 0.655064C13.8912 0.848091 13.9112 1.06021 13.8697 1.26461C13.8282 1.469 13.7269 1.65649 13.5789 1.80337L7.69418 7.68805C7.59614 7.7869 7.4795 7.86535 7.35098 7.91889C7.22247 7.97244 7.08463 8 6.94541 8C6.80619 8 6.66835 7.97244 6.53983 7.91889C6.41132 7.86535 6.29468 7.7869 6.19664 7.68805L0.311959 1.80337C0.16387 1.65649 0.0626592 1.469 0.0211235 1.26461C-0.0204122 1.06021 -0.000407202 0.848091 0.0786095 0.655064C0.157626 0.462038 0.292106 0.296775 0.465043 0.180176C0.637981 0.0635758 0.841609 0.000874509 1.05018 0Z" fill="#ED4C28"/>
</svg>
