<svg width="15" height="9" viewBox="0 0 15 9" fill="none" xmlns="http://www.w3.org/2000/svg">
<path d="M7.7203 8.38323C7.91533 8.23621 8.13136 8.11319 8.30238 7.94217C10.4237 5.83287 12.536 3.71456 14.6513 1.60226C14.8583 1.39523 15.0113 1.1732 14.9993 0.864156C14.9873 0.510105 14.8193 0.255069 14.5133 0.0990466C14.2042 -0.0569757 13.8952 -0.0269714 13.6101 0.177058C13.5141 0.246068 13.4331 0.33308 13.3491 0.417092C11.4768 2.28636 9.60757 4.15563 7.7383 6.02789C7.66629 6.09991 7.60928 6.18092 7.52827 6.28293C7.42326 6.18092 7.34524 6.11191 7.27023 6.0369C5.36796 4.13162 3.46569 2.22935 1.56342 0.327079C1.03534 -0.197996 0.261233 -0.0479744 0.0482027 0.621121C-0.0598127 0.954169 0.015198 1.25421 0.258233 1.50325C0.555275 1.81229 0.861319 2.11233 1.16436 2.41538C3.00363 4.25464 4.83689 6.0939 6.68215 7.92717C6.85918 8.10419 7.08121 8.23321 7.28224 8.38623H7.7203V8.38323Z" fill="white"/>
</svg>
