<svg width="35" height="35" viewBox="0 0 35 35" fill="none" xmlns="http://www.w3.org/2000/svg">
<path d="M17.5 0C14.0388 0 10.6554 1.02636 7.77753 2.94928C4.89967 4.87221 2.65665 7.60533 1.33212 10.803C0.0075825 14.0007 -0.338976 17.5194 0.336265 20.9141C1.01151 24.3087 2.67822 27.4269 5.12564 29.8744C7.57306 32.3218 10.6913 33.9885 14.0859 34.6637C17.4806 35.339 20.9993 34.9924 24.197 33.6679C27.3947 32.3434 30.1278 30.1003 32.0507 27.2225C33.9736 24.3446 35 20.9612 35 17.5C34.995 12.8602 33.1496 8.41197 29.8688 5.13117C26.588 1.85037 22.1398 0.00501824 17.5 0ZM11.6667 11.6667C12.4402 11.6667 13.1821 11.974 13.7291 12.5209C14.276 13.0679 14.5833 13.8098 14.5833 14.5833C14.5833 16.0417 13.2781 16.0417 11.6667 16.0417C10.0552 16.0417 8.75001 16.0417 8.75001 14.5833C8.75001 13.8098 9.0573 13.0679 9.60428 12.5209C10.1513 11.974 10.8931 11.6667 11.6667 11.6667ZM25.8796 25.7644C25.6223 26.0522 25.2613 26.2264 24.8759 26.2485C24.4904 26.2706 24.1119 26.139 23.8233 25.8825C22.0405 24.3816 19.8253 23.4886 17.5 23.3333C15.1746 23.4884 12.9594 24.3815 11.1767 25.8825C10.8878 26.1397 10.5085 26.2716 10.1223 26.2492C9.73615 26.2267 9.37471 26.0518 9.11751 25.7629C8.8603 25.474 8.7284 25.0947 8.75083 24.7086C8.77326 24.3224 8.94817 23.961 9.23709 23.7037C11.5527 21.7255 14.4582 20.5696 17.5 20.4167C20.5418 20.5696 23.4473 21.7255 25.7629 23.7037C25.906 23.8313 26.0225 23.9858 26.1059 24.1585C26.1892 24.3311 26.2376 24.5185 26.2485 24.7099C26.2593 24.9013 26.2323 25.0929 26.169 25.2738C26.1057 25.4548 26.0074 25.6215 25.8796 25.7644ZM23.3333 16.0417C21.7219 16.0417 20.4167 16.0417 20.4167 14.5833C20.4167 13.8098 20.724 13.0679 21.2709 12.5209C21.8179 11.974 22.5598 11.6667 23.3333 11.6667C24.1069 11.6667 24.8487 11.974 25.3957 12.5209C25.9427 13.0679 26.25 13.8098 26.25 14.5833C26.25 16.0417 24.9448 16.0417 23.3333 16.0417Z" fill="#F79C37"/>
</svg>
