<svg width="25" height="20" viewBox="0 0 25 20" fill="none" xmlns="http://www.w3.org/2000/svg">
<path d="M24.4493 3.44547C24.4493 3.19349 24.4333 2.94152 24.3813 2.69554C24.0454 1.09168 22.7175 0.00577726 21.0776 0.00177762C18.1359 -0.00222202 15.1941 0.00177762 12.2504 0.00177762C9.30667 0.00177762 6.38493 0.00177762 3.45119 0.00177762C1.45137 0.00177762 0.00349969 1.44565 0.00149987 3.44547C-0.000499956 7.81908 -0.000499956 12.1947 0.00149987 16.5683C0.00149987 18.5481 1.45937 19.998 3.43719 20C9.29667 20 15.1542 20 21.0116 20C22.9895 20 24.4453 18.5481 24.4473 16.5683C24.4513 12.1947 24.4473 7.82108 24.4473 3.44547H24.4493ZM8.89271 14.3625C8.89071 15.0524 8.42675 15.5524 7.78881 15.5584C7.15886 15.5644 6.67091 15.0564 6.66691 14.3765C6.66291 12.9446 6.66291 11.5148 6.66691 10.0829C6.66891 9.37494 7.14087 8.88699 7.80081 8.89699C8.44275 8.90499 8.89071 9.39694 8.89271 10.0969C8.89471 10.8088 8.89271 11.5188 8.89271 12.2307C8.89271 12.9426 8.89271 13.6526 8.89271 14.3645V14.3625ZM13.3323 11.0928H13.3303C13.3303 12.2207 13.3343 13.3486 13.3283 14.4745C13.3263 14.9345 13.0923 15.2684 12.6784 15.4564C12.2744 15.6404 11.8804 15.5824 11.5305 15.3084C11.2385 15.0784 11.1165 14.7665 11.1185 14.3965C11.1225 13.3046 11.1185 12.2107 11.1185 11.1188C11.1185 9.99089 11.1145 8.86299 11.1225 7.73709C11.1265 7.26313 11.4405 6.86517 11.8804 6.72318C12.3364 6.57719 12.8184 6.72918 13.1103 7.11115C13.2823 7.33513 13.3343 7.5911 13.3323 7.86708C13.3283 8.94298 13.3323 10.0169 13.3323 11.0928ZM17.7819 14.3685C17.7779 15.1644 17.146 15.6884 16.41 15.5224C15.9101 15.4084 15.5601 14.9644 15.5581 14.4185C15.5541 13.2046 15.5581 11.9887 15.5581 10.7748C15.5581 9.03897 15.5561 7.30313 15.5581 5.56728C15.5581 4.99333 15.9401 4.55937 16.5 4.46338C17.02 4.37539 17.5279 4.67936 17.7119 5.18732C17.7759 5.3613 17.7839 5.54129 17.7839 5.72527C17.7839 7.14914 17.7839 8.57302 17.7839 9.99489C17.7839 11.4528 17.7879 12.9106 17.7819 14.3685Z" fill="#F4F0E4"/>
</svg>
