<svg width="35" height="35" viewBox="0 0 35 35" fill="none" xmlns="http://www.w3.org/2000/svg">
<path d="M17.5 0C14.0388 0 10.6554 1.02636 7.77753 2.94928C4.89967 4.87221 2.65665 7.60533 1.33212 10.803C0.0075825 14.0007 -0.338976 17.5194 0.336265 20.9141C1.01151 24.3087 2.67822 27.4269 5.12564 29.8744C7.57306 32.3218 10.6913 33.9885 14.0859 34.6637C17.4806 35.339 20.9993 34.9924 24.197 33.6679C27.3947 32.3434 30.1278 30.1003 32.0507 27.2225C33.9736 24.3446 35 20.9612 35 17.5C34.995 12.8602 33.1496 8.41197 29.8688 5.13117C26.588 1.85037 22.1398 0.00501824 17.5 0ZM8.75001 14.5833C8.75001 13.8098 9.0573 13.0679 9.60428 12.5209C10.1513 11.974 10.8931 11.6667 11.6667 11.6667C12.4402 11.6667 13.1821 11.974 13.7291 12.5209C14.276 13.0679 14.5833 13.8098 14.5833 14.5833C14.5833 16.0417 13.2781 16.0417 11.6667 16.0417C10.0552 16.0417 8.75001 16.0417 8.75001 14.5833ZM23.3333 24.7917H11.6667C11.2799 24.7917 10.909 24.638 10.6355 24.3645C10.362 24.091 10.2083 23.7201 10.2083 23.3333C10.2083 22.9466 10.362 22.5756 10.6355 22.3021C10.909 22.0286 11.2799 21.875 11.6667 21.875H23.3333C23.7201 21.875 24.091 22.0286 24.3645 22.3021C24.638 22.5756 24.7917 22.9466 24.7917 23.3333C24.7917 23.7201 24.638 24.091 24.3645 24.3645C24.091 24.638 23.7201 24.7917 23.3333 24.7917ZM23.3333 16.0417C21.7219 16.0417 20.4167 16.0417 20.4167 14.5833C20.4167 13.8098 20.724 13.0679 21.2709 12.5209C21.8179 11.974 22.5598 11.6667 23.3333 11.6667C24.1069 11.6667 24.8487 11.974 25.3957 12.5209C25.9427 13.0679 26.25 13.8098 26.25 14.5833C26.25 16.0417 24.9448 16.0417 23.3333 16.0417Z" fill="#F79C37"/>
</svg>
