<svg width="12" height="9" viewBox="0 0 12 9" fill="none" xmlns="http://www.w3.org/2000/svg">
<path d="M0 1.45455V2.48727C0.00212669 2.70426 0.0785074 2.91442 0.21715 3.08475C0.355793 3.25509 0.548847 3.37595 0.766001 3.42836C0.97742 3.4845 1.16396 3.60644 1.29693 3.77542C1.42989 3.94441 1.50192 4.15108 1.50192 4.36364C1.50192 4.57619 1.42989 4.78286 1.29693 4.95185C1.16396 5.12084 0.97742 5.24278 0.766001 5.29891C0.548847 5.35132 0.355793 5.47218 0.21715 5.64252C0.0785074 5.81285 0.00212669 6.02301 0 6.24V7.27273C0 7.6585 0.158036 8.02847 0.439341 8.30125C0.720645 8.57403 1.10218 8.72727 1.5 8.72727H3.5V6.78788C3.5 6.65929 3.55268 6.53597 3.64645 6.44504C3.74022 6.35411 3.86739 6.30303 4 6.30303C4.13261 6.30303 4.25979 6.35411 4.35355 6.44504C4.44732 6.53597 4.5 6.65929 4.5 6.78788V8.72727H9.5C10.1628 8.7265 10.7982 8.47085 11.2669 8.01638C11.7356 7.56191 11.9992 6.94574 12 6.30303V6.24C11.9979 6.02301 11.9215 5.81285 11.7829 5.64252C11.6442 5.47218 11.4512 5.35132 11.234 5.29891C11.0226 5.24278 10.836 5.12084 10.7031 4.95185C10.5701 4.78286 10.4981 4.57619 10.4981 4.36364C10.4981 4.15108 10.5701 3.94441 10.7031 3.77542C10.836 3.60644 11.0226 3.4845 11.234 3.42836C11.4512 3.37595 11.6442 3.25509 11.7829 3.08475C11.9215 2.91442 11.9979 2.70426 12 2.48727V2.42424C11.9992 1.78153 11.7356 1.16536 11.2669 0.710894C10.7982 0.256428 10.1628 0.00076987 9.5 0H4.5V1.93939C4.5 2.06798 4.44732 2.19131 4.35355 2.28223C4.25979 2.37316 4.13261 2.42424 4 2.42424C3.86739 2.42424 3.74022 2.37316 3.64645 2.28223C3.55268 2.19131 3.5 2.06798 3.5 1.93939V0H1.5C1.10218 0 0.720645 0.153246 0.439341 0.426027C0.158036 0.698807 0 1.06878 0 1.45455ZM4.5 3.87879V4.84848C4.5 4.97707 4.44732 5.1004 4.35355 5.19132C4.25979 5.28225 4.13261 5.33333 4 5.33333C3.86739 5.33333 3.74022 5.28225 3.64645 5.19132C3.55268 5.1004 3.5 4.97707 3.5 4.84848V3.87879C3.5 3.7502 3.55268 3.62687 3.64645 3.53595C3.74022 3.44502 3.86739 3.39394 4 3.39394C4.13261 3.39394 4.25979 3.44502 4.35355 3.53595C4.44732 3.62687 4.5 3.7502 4.5 3.87879Z" fill="#215988"/>
</svg>
