<svg width="30" height="30" viewBox="0 0 30 30" fill="none" xmlns="http://www.w3.org/2000/svg">
<path d="M12.5 28.125C12.5 29.1612 11.6613 30 10.625 30H6.875C3.08375 30 0 26.9163 0 23.125V6.875C0 3.08375 3.08375 0 6.875 0H14.8038C16.64 0 18.3663 0.715 19.665 2.01375L22.9862 5.335C24.005 6.35375 24.67 7.645 24.9062 9.06625C25.0762 10.0875 24.375 11.24 23.125 11.24C21.875 11.24 16.25 11.25 16.25 11.25C14.8687 11.25 13.75 10.1313 13.75 8.75V3.75H6.875C5.1525 3.75 3.75 5.1525 3.75 6.875V23.125C3.75 24.8475 5.1525 26.25 6.875 26.25H10.625C11.6613 26.25 12.5 27.0888 12.5 28.125ZM30 21.875C30 26.3625 26.3625 30 21.875 30C17.3875 30 13.75 26.3625 13.75 21.875C13.75 17.3875 17.3875 13.75 21.875 13.75C26.3625 13.75 30 17.3875 30 21.875ZM26.56 20.4325L22.7312 16.6038C22.2587 16.1313 21.4925 16.1313 21.02 16.6038L17.1912 20.4325C16.4288 21.195 16.9688 22.4988 18.0475 22.4988H20.0012V25.625C20.0012 26.66 20.84 27.5 21.8762 27.5C22.9125 27.5 23.7512 26.66 23.7512 25.625V22.4988H25.705C26.7837 22.4988 27.3238 21.195 26.5613 20.4325H26.56Z" fill="#ED4C28"/>
</svg>
