<svg width="15" height="12" viewBox="0 0 15 12" fill="none" xmlns="http://www.w3.org/2000/svg">
<path d="M14.5418 4.22593C13.5727 2.64777 11.3686 0 7.5 0C3.63143 0 1.42725 2.64777 0.458234 4.22593C0.158675 4.71045 0 5.26882 0 5.83846C0 6.4081 0.158675 6.96648 0.458234 7.45099C1.42725 9.02915 3.63143 11.6769 7.5 11.6769C11.3686 11.6769 13.5727 9.02915 14.5418 7.45099C14.8413 6.96648 15 6.4081 15 5.83846C15 5.26882 14.8413 4.71045 14.5418 4.22593ZM13.4765 6.79686C12.6443 8.15011 10.7607 10.4274 7.5 10.4274C4.23933 10.4274 2.35566 8.15011 1.52346 6.79686C1.34549 6.50887 1.25122 6.17701 1.25122 5.83846C1.25122 5.49992 1.34549 5.16806 1.52346 4.88007C2.35566 3.52682 4.23933 1.24954 7.5 1.24954C10.7607 1.24954 12.6443 3.52432 13.4765 4.88007C13.6545 5.16806 13.7488 5.49992 13.7488 5.83846C13.7488 6.17701 13.6545 6.50887 13.4765 6.79686Z" fill="#215988"/>
<path d="M7.49982 2.71466C6.88198 2.71466 6.27802 2.89787 5.76431 3.24112C5.25059 3.58438 4.8502 4.07225 4.61377 4.64306C4.37733 5.21387 4.31547 5.84197 4.436 6.44793C4.55654 7.0539 4.85405 7.61052 5.29093 8.04739C5.72781 8.48427 6.28442 8.78179 6.89039 8.90232C7.49636 9.02286 8.12446 8.96099 8.69526 8.72456C9.26607 8.48812 9.75395 8.08773 10.0972 7.57402C10.4405 7.0603 10.6237 6.45634 10.6237 5.8385C10.6227 5.01031 10.2932 4.21633 9.70761 3.63071C9.122 3.04509 8.32801 2.71565 7.49982 2.71466ZM7.49982 7.71281C7.12912 7.71281 6.76674 7.60288 6.45851 7.39693C6.15028 7.19098 5.91005 6.89825 5.76819 6.55577C5.62633 6.21328 5.58921 5.83642 5.66153 5.47284C5.73385 5.10926 5.91236 4.7753 6.17449 4.51317C6.43661 4.25104 6.77058 4.07253 7.13416 4.00021C7.49774 3.92789 7.8746 3.96501 8.21709 4.10687C8.55957 4.24873 8.8523 4.48897 9.05825 4.79719C9.2642 5.10542 9.37413 5.4678 9.37413 5.8385C9.37413 6.3356 9.17666 6.81234 8.82515 7.16384C8.47365 7.51534 7.99692 7.71281 7.49982 7.71281Z" fill="#215988"/>
</svg>
