<svg width="61" height="60" viewBox="0 0 61 60" fill="none" xmlns="http://www.w3.org/2000/svg">
<path d="M5.26693 1.01872e-09H54.7331C56.13 1.01872e-09 57.4696 0.554906 58.4574 1.54265C59.4451 2.53039 60 3.87005 60 5.26692V54.7331C60 56.13 59.4451 57.4696 58.4574 58.4574C57.4696 59.4451 56.13 60 54.7331 60H13.4563C9.8844 59.9913 6.46183 58.5662 3.93923 56.0374C1.41664 53.5086 -1.07023e-05 50.0826 0 46.5107L0 5.2339C0.00872209 3.84276 0.567477 2.51156 1.55427 1.53095C2.54107 0.550344 3.87575 -2.73412e-05 5.26693 1.01872e-09Z" fill="url(#paint0_linear_111_259)"/>
<path d="M52.2483 10.0545H60.0414V9.22901H52.3226C52.2782 8.87637 52.1331 8.54399 51.9047 8.27167C51.6763 7.99935 51.3743 7.79862 51.0347 7.69351V0.0407889H50.2092V7.69351C49.8716 7.80951 49.5741 8.01954 49.3518 8.29888C49.1295 8.57821 48.9916 8.91524 48.9544 9.27029H42.5813C42.5476 8.91525 42.4121 8.5775 42.1909 8.29774C41.9697 8.01798 41.6724 7.80814 41.3347 7.69351V0.0407889H40.5092V7.69351C40.1715 7.80814 39.8741 8.01798 39.6529 8.29774C39.4318 8.5775 39.2962 8.91525 39.2626 9.27029H32.3281C32.2971 8.92379 32.1702 8.59277 31.9617 8.31429C31.7532 8.03581 31.4713 7.82086 31.1476 7.69351V0.0325317H30.322V7.677C29.9765 7.78742 29.6707 7.99615 29.442 8.27766C29.2132 8.55917 29.0715 8.90124 29.0342 9.26203H19.7056V10.0876H29.0672C29.1342 10.4094 29.2858 10.7076 29.5064 10.9514C29.7269 11.1951 30.0085 11.3757 30.322 11.4745V17.4266C29.9891 17.5315 29.6925 17.7281 29.4662 17.9938C29.2399 18.2596 29.093 18.5837 29.0425 18.9291H19.6726V19.7546H29.0094C29.0645 20.1032 29.2169 20.4292 29.4492 20.695C29.6814 20.9608 29.9839 21.1557 30.322 21.2571V27.655C29.983 27.7546 29.6794 27.9489 29.4469 28.215C29.2144 28.4812 29.0626 28.8081 29.0094 29.1575H19.6726V29.983H29.0094C29.066 30.3301 29.219 30.6544 29.4511 30.9186C29.6833 31.1829 29.9851 31.3764 30.322 31.4772V40.327H31.1476V31.4525C31.4551 31.3325 31.7254 31.1334 31.9313 30.8753C32.1371 30.6173 32.2712 30.3095 32.3198 29.983H39.2708C39.32 30.3209 39.4616 30.6385 39.6802 30.9008C39.8988 31.1631 40.1857 31.3597 40.5092 31.469V40.3352H41.3347V31.4607C41.6582 31.3515 41.9451 31.1548 42.1636 30.8925C42.3822 30.6303 42.5239 30.3126 42.573 29.9747H48.9626C49.0133 30.3132 49.1566 30.6311 49.3766 30.8934C49.5965 31.1556 49.8847 31.3519 50.2092 31.4607V40.327H51.0347V31.4607C51.3582 31.3515 51.6451 31.1548 51.8637 30.8925C52.0823 30.6303 52.2239 30.3126 52.2731 29.9747H60.0414V29.1492H52.3143C52.2652 28.8113 52.1235 28.4937 51.905 28.2314C51.6864 27.9691 51.3995 27.7725 51.076 27.6632V21.2406C51.399 21.1305 51.6854 20.9336 51.9039 20.6715C52.1223 20.4094 52.2643 20.0921 52.3143 19.7546H60.0414V18.9291H52.3143C52.2658 18.5901 52.1244 18.2711 51.9058 18.0074C51.6873 17.7437 51.4001 17.5455 51.076 17.4348V11.458C51.3785 11.3493 51.6466 11.1621 51.8527 10.9154C52.0587 10.6687 52.1953 10.3716 52.2483 10.0545ZM31.1476 11.4497C31.4488 11.3401 31.7161 11.1537 31.9232 10.909C32.1302 10.6643 32.2698 10.3697 32.3281 10.0545H39.3286C39.3853 10.3763 39.528 10.6767 39.7417 10.9238C39.9553 11.1709 40.232 11.3555 40.5422 11.458V17.4348C40.2181 17.5455 39.9309 17.7437 39.7124 18.0074C39.4938 18.2711 39.3525 18.5901 39.3039 18.9291H32.3528C32.3023 18.5966 32.1639 18.2836 31.9521 18.0223C31.7402 17.7611 31.4625 17.5612 31.1476 17.4431V11.4497ZM39.2708 29.1575H32.3198C32.2739 28.828 32.1411 28.5168 31.9351 28.2556C31.7291 27.9945 31.4573 27.7929 31.1476 27.6715V21.2323C31.4614 21.1149 31.7384 20.9162 31.9502 20.6566C32.162 20.3969 32.3009 20.0856 32.3528 19.7546H39.3039C39.3539 20.0921 39.4959 20.4094 39.7143 20.6715C39.9328 20.9336 40.2192 21.1305 40.5422 21.2406V27.6632C40.2114 27.768 39.9168 27.9636 39.692 28.2279C39.4672 28.4921 39.3213 28.8142 39.2708 29.1575ZM50.2092 27.6715C49.8847 27.7803 49.5965 27.9766 49.3766 28.2388C49.1566 28.5011 49.0133 28.819 48.9626 29.1575H42.573C42.5239 28.8196 42.3822 28.5019 42.1636 28.2397C41.9451 27.9774 41.6582 27.7807 41.3347 27.6715V21.2488C41.6577 21.1388 41.9441 20.9419 42.1625 20.6797C42.381 20.4176 42.523 20.1004 42.573 19.7629H48.9626C49.0142 20.101 49.1578 20.4185 49.3777 20.6806C49.5975 20.9426 49.8852 21.1392 50.2092 21.2488V27.6715ZM50.2092 17.4431C49.8841 17.5533 49.5957 17.7512 49.3757 18.0148C49.1558 18.2785 49.0128 18.5977 48.9626 18.9373H42.573C42.5244 18.5983 42.383 18.2793 42.1645 18.0156C41.946 17.7519 41.6588 17.5538 41.3347 17.4431V11.4662C41.6449 11.3638 41.9215 11.1792 42.1352 10.932C42.3489 10.6849 42.4916 10.3845 42.5482 10.0628H48.9874C49.0472 10.3845 49.1921 10.6843 49.407 10.9311C49.6218 11.1779 49.8988 11.3627 50.2092 11.4662V17.4431Z" fill="url(#paint1_linear_111_259)"/>
<path d="M7.51245 46.8736V39.2539H10.6V46.6838C10.6 48.599 11.7144 49.9859 13.2664 49.9859C14.8185 49.9859 15.9494 48.6238 15.9494 46.6838V39.2539H19.0204V46.8736C19.0204 50.4978 16.6511 53.0404 13.2417 53.0404C9.83221 53.0404 7.51245 50.4978 7.51245 46.8736ZM33.8471 35.5638V52.8093H30.0166V51.1582C29.5777 51.7601 29.0026 52.2497 28.3383 52.5869C27.674 52.924 26.9393 53.0993 26.1944 53.0982C23.0656 53.0982 20.8531 50.3326 20.8531 46.4113C20.8531 42.49 23.0656 39.7493 26.1944 39.7493C26.9365 39.7476 27.6686 39.9209 28.3313 40.2551C28.9939 40.5893 29.5685 41.075 30.0083 41.6728V35.5555L33.8471 35.5638ZM30.0166 46.4196C30.0166 44.5704 28.9269 43.2413 27.3501 43.2413C25.7733 43.2413 24.5433 44.5704 24.5433 46.4196C24.5433 48.2688 25.7155 49.6227 27.3584 49.6227C29.0012 49.6227 30.0166 48.2936 30.0166 46.4196ZM35.5312 51.183L37.0667 48.4917C38.1992 49.3854 39.5874 49.8944 41.0293 49.9446C41.8548 49.9446 42.3336 49.6475 42.3336 49.1604C42.3336 48.5412 41.5741 48.2936 40.4184 47.9964C38.1646 47.4268 36.076 46.7911 36.0513 44.0255C36.0513 41.5489 37.8757 39.7575 40.7568 39.7575C42.4707 39.7957 44.1289 40.3735 45.4954 41.4086L44.092 44.1411C43.1335 43.4164 41.9877 42.981 40.7898 42.8863C40.0964 42.8863 39.6011 43.233 39.6011 43.621C39.6011 44.1907 40.0964 44.3145 41.4668 44.7107C43.5389 45.2556 45.8669 45.9903 45.8669 48.9045C45.8669 51.4719 43.9682 53.123 40.9715 53.123C38.9885 53.1233 37.0665 52.4379 35.5312 51.183Z" fill="white"/>
<defs>
<linearGradient id="paint0_linear_111_259" x1="0" y1="30" x2="60" y2="30" gradientUnits="userSpaceOnUse">
<stop stop-color="#EF4D39"/>
<stop offset="1" stop-color="#F79C37"/>
</linearGradient>
<linearGradient id="paint1_linear_111_259" x1="36.6456" y1="23.3952" x2="65.0936" y2="-10.4683" gradientUnits="userSpaceOnUse">
<stop stop-color="white" stop-opacity="0"/>
<stop offset="0.13" stop-color="white" stop-opacity="0.18"/>
<stop offset="0.37" stop-color="white" stop-opacity="0.46"/>
<stop offset="0.59" stop-color="white" stop-opacity="0.69"/>
<stop offset="0.77" stop-color="white" stop-opacity="0.86"/>
<stop offset="0.91" stop-color="white" stop-opacity="0.96"/>
<stop offset="1" stop-color="white"/>
</linearGradient>
</defs>
</svg>
