<svg width="15" height="14" viewBox="0 0 15 14" fill="none" xmlns="http://www.w3.org/2000/svg">
<path d="M14.5418 5.01495C13.9778 4.13278 13.2663 3.34478 12.4357 2.68224L14.185 1.01133C14.2988 0.898777 14.3618 0.748035 14.3604 0.591568C14.359 0.435101 14.2932 0.285428 14.1774 0.174785C14.0616 0.0641422 13.9049 0.00138221 13.7411 2.25588e-05C13.5773 -0.0013371 13.4194 0.0588124 13.3016 0.167516L11.3992 1.98702C10.2199 1.31795 8.87163 0.969233 7.5 0.978504C3.63206 0.978504 1.42787 3.50755 0.458234 5.01495C0.158675 5.47773 0 6.01107 0 6.55517C0 7.09926 0.158675 7.6326 0.458234 8.09539C1.02225 8.97755 1.73369 9.76555 2.56433 10.4281L0.814977 12.099C0.755305 12.1541 0.707709 12.2199 0.674965 12.2927C0.642222 12.3655 0.624987 12.4438 0.624266 12.5231C0.623545 12.6023 0.639353 12.6809 0.670767 12.7542C0.70218 12.8276 0.748571 12.8942 0.807233 12.9502C0.865894 13.0062 0.93565 13.0506 1.01243 13.0806C1.08921 13.1106 1.17148 13.1257 1.25444 13.125C1.3374 13.1243 1.41938 13.1078 1.4956 13.0766C1.57183 13.0453 1.64077 12.9998 1.6984 12.9428L3.60519 11.1215C4.78305 11.7905 6.12968 12.1398 7.5 12.1318C11.3679 12.1318 13.5721 9.60279 14.5418 8.09539C14.8413 7.6326 15 7.09926 15 6.55517C15 6.01107 14.8413 5.47773 14.5418 5.01495ZM1.52284 7.47059C1.34486 7.19551 1.2506 6.87853 1.2506 6.55517C1.2506 6.2318 1.34486 5.91482 1.52284 5.63975C2.35628 4.34718 4.23996 2.17201 7.5 2.17201C8.53729 2.16646 9.56001 2.40525 10.4776 2.86723L9.21999 4.06849C8.62017 3.68813 7.90104 3.51769 7.18464 3.58611C6.46823 3.65452 5.79867 3.95758 5.28957 4.44385C4.78047 4.93013 4.46318 5.56966 4.39155 6.25394C4.31993 6.93823 4.49836 7.62511 4.89659 8.19803L3.45337 9.57653C2.6881 8.98558 2.03505 8.27319 1.52284 7.47059ZM9.3743 6.55517C9.3743 7.02997 9.17683 7.48533 8.82533 7.82107C8.47383 8.15681 7.9971 8.34543 7.5 8.34543C7.22167 8.3444 6.9472 8.28319 6.69717 8.1664L9.18687 5.78834C9.30915 6.02716 9.37323 6.28932 9.3743 6.55517ZM5.62569 6.55517C5.62569 6.08036 5.82316 5.625 6.17467 5.28926C6.52617 4.95352 7.0029 4.76491 7.5 4.76491C7.77833 4.76594 8.0528 4.82714 8.30283 4.94393L5.81312 7.322C5.69085 7.08318 5.62677 6.82101 5.62569 6.55517ZM13.4772 7.47059C12.6437 8.76316 10.76 10.9383 7.5 10.9383C6.46271 10.9439 5.43999 10.7051 4.52235 10.2431L5.78001 9.04184C6.37983 9.42221 7.09896 9.59264 7.81536 9.52423C8.53177 9.45581 9.20133 9.15275 9.71043 8.66648C10.2195 8.18021 10.5368 7.54067 10.6084 6.85639C10.6801 6.17211 10.5016 5.48523 10.1034 4.9123L11.5466 3.5338C12.3119 4.12476 12.965 4.83714 13.4772 5.63975C13.6551 5.91482 13.7494 6.2318 13.7494 6.55517C13.7494 6.87853 13.6551 7.19551 13.4772 7.47059Z" fill="#215988"/>
</svg>
