<svg width="538" height="620" viewBox="0 0 538 620" fill="none" xmlns="http://www.w3.org/2000/svg">
<g opacity="0.9" filter="url(#filter0_d_113_3)">
<rect x="25" y="24" width="488" height="570" rx="25" fill="#215988"/>
</g>
<path d="M127.594 126.24C124.874 126.24 122.554 125.792 120.634 124.896C118.746 123.968 117.21 122.704 116.026 121.104C114.874 119.504 114.026 117.696 113.482 115.68C112.938 113.632 112.666 111.504 112.666 109.296V91.92H119.29V109.296C119.29 110.704 119.418 112.08 119.674 113.424C119.962 114.736 120.426 115.92 121.066 116.976C121.706 118.032 122.554 118.864 123.61 119.472C124.666 120.08 125.978 120.384 127.546 120.384C129.146 120.384 130.474 120.08 131.53 119.472C132.618 118.832 133.466 117.984 134.074 116.928C134.714 115.872 135.178 114.688 135.466 113.376C135.754 112.032 135.898 110.672 135.898 109.296V91.92H142.474V109.296C142.474 111.632 142.186 113.824 141.61 115.872C141.066 117.92 140.186 119.728 138.97 121.296C137.786 122.832 136.25 124.048 134.362 124.944C132.474 125.808 130.218 126.24 127.594 126.24ZM149.146 126V91.92H161.53C165.242 91.92 168.346 92.688 170.842 94.224C173.338 95.728 175.21 97.776 176.458 100.368C177.706 102.928 178.33 105.776 178.33 108.912C178.33 112.368 177.642 115.376 176.266 117.936C174.89 120.496 172.938 122.48 170.41 123.888C167.914 125.296 164.954 126 161.53 126H149.146ZM171.658 108.912C171.658 106.704 171.258 104.768 170.458 103.104C169.658 101.408 168.506 100.096 167.002 99.168C165.498 98.208 163.674 97.728 161.53 97.728H155.77V120.192H161.53C163.706 120.192 165.546 119.712 167.05 118.752C168.554 117.76 169.69 116.416 170.458 114.72C171.258 112.992 171.658 111.056 171.658 108.912ZM203.669 100.848C203.445 100.624 203.029 100.32 202.421 99.936C201.845 99.552 201.125 99.184 200.261 98.832C199.429 98.48 198.517 98.176 197.525 97.92C196.533 97.632 195.525 97.488 194.501 97.488C192.709 97.488 191.349 97.824 190.421 98.496C189.525 99.168 189.077 100.112 189.077 101.328C189.077 102.256 189.365 102.992 189.941 103.536C190.517 104.08 191.381 104.544 192.533 104.928C193.685 105.312 195.125 105.728 196.853 106.176C199.093 106.72 201.029 107.392 202.661 108.192C204.325 108.96 205.589 109.984 206.453 111.264C207.349 112.512 207.797 114.176 207.797 116.256C207.797 118.08 207.461 119.648 206.789 120.96C206.117 122.24 205.189 123.28 204.005 124.08C202.821 124.88 201.477 125.472 199.973 125.856C198.469 126.208 196.869 126.384 195.173 126.384C193.477 126.384 191.781 126.208 190.085 125.856C188.389 125.504 186.757 125.008 185.189 124.368C183.621 123.696 182.181 122.896 180.869 121.968L183.797 116.256C184.085 116.544 184.597 116.928 185.333 117.408C186.069 117.856 186.965 118.32 188.021 118.8C189.077 119.248 190.229 119.632 191.477 119.952C192.725 120.272 193.989 120.432 195.269 120.432C197.061 120.432 198.421 120.128 199.349 119.52C200.277 118.912 200.741 118.048 200.741 116.928C200.741 115.904 200.373 115.104 199.637 114.528C198.901 113.952 197.877 113.456 196.565 113.04C195.253 112.592 193.701 112.112 191.909 111.6C189.765 110.992 187.973 110.32 186.533 109.584C185.093 108.816 184.021 107.856 183.317 106.704C182.613 105.552 182.261 104.112 182.261 102.384C182.261 100.048 182.805 98.096 183.893 96.528C185.013 94.928 186.517 93.728 188.405 92.928C190.293 92.096 192.389 91.68 194.693 91.68C196.293 91.68 197.797 91.856 199.205 92.208C200.645 92.56 201.989 93.024 203.237 93.6C204.485 94.176 205.605 94.8 206.597 95.472L203.669 100.848Z" fill="#FF5245"/>
<path d="M76.488 178.72C76.488 176.64 76.856 174.608 77.592 172.624C78.36 170.608 79.464 168.784 80.904 167.152C82.344 165.488 84.104 164.176 86.184 163.216C88.264 162.224 90.632 161.728 93.288 161.728C96.424 161.728 99.128 162.416 101.4 163.792C103.704 165.168 105.416 166.96 106.536 169.168L101.448 172.672C100.872 171.392 100.12 170.384 99.192 169.648C98.264 168.88 97.272 168.352 96.216 168.064C95.16 167.744 94.12 167.584 93.096 167.584C91.432 167.584 89.976 167.92 88.728 168.592C87.512 169.264 86.488 170.144 85.656 171.232C84.824 172.32 84.2 173.536 83.784 174.88C83.4 176.224 83.208 177.568 83.208 178.912C83.208 180.416 83.448 181.872 83.928 183.28C84.408 184.656 85.08 185.888 85.944 186.976C86.84 188.032 87.896 188.88 89.112 189.52C90.36 190.128 91.72 190.432 93.192 190.432C94.248 190.432 95.32 190.256 96.408 189.904C97.496 189.552 98.504 188.992 99.432 188.224C100.36 187.456 101.08 186.464 101.592 185.248L107.016 188.368C106.344 190.064 105.24 191.504 103.704 192.688C102.2 193.872 100.504 194.768 98.616 195.376C96.728 195.984 94.856 196.288 93 196.288C90.568 196.288 88.344 195.792 86.328 194.8C84.312 193.776 82.568 192.432 81.096 190.768C79.656 189.072 78.52 187.184 77.688 185.104C76.888 182.992 76.488 180.864 76.488 178.72ZM125.906 196.24C123.186 196.24 120.866 195.792 118.946 194.896C117.058 193.968 115.522 192.704 114.338 191.104C113.186 189.504 112.338 187.696 111.794 185.68C111.25 183.632 110.978 181.504 110.978 179.296V161.92H117.602V179.296C117.602 180.704 117.73 182.08 117.986 183.424C118.274 184.736 118.738 185.92 119.378 186.976C120.018 188.032 120.866 188.864 121.922 189.472C122.978 190.08 124.29 190.384 125.858 190.384C127.458 190.384 128.786 190.08 129.842 189.472C130.93 188.832 131.778 187.984 132.386 186.928C133.026 185.872 133.49 184.688 133.778 183.376C134.066 182.032 134.21 180.672 134.21 179.296V161.92H140.786V179.296C140.786 181.632 140.498 183.824 139.922 185.872C139.378 187.92 138.498 189.728 137.282 191.296C136.098 192.832 134.562 194.048 132.674 194.944C130.786 195.808 128.53 196.24 125.906 196.24ZM167.762 170.848C167.538 170.624 167.122 170.32 166.514 169.936C165.938 169.552 165.218 169.184 164.354 168.832C163.522 168.48 162.61 168.176 161.618 167.92C160.626 167.632 159.618 167.488 158.594 167.488C156.802 167.488 155.442 167.824 154.514 168.496C153.618 169.168 153.17 170.112 153.17 171.328C153.17 172.256 153.458 172.992 154.034 173.536C154.61 174.08 155.474 174.544 156.626 174.928C157.778 175.312 159.218 175.728 160.946 176.176C163.186 176.72 165.122 177.392 166.754 178.192C168.418 178.96 169.682 179.984 170.546 181.264C171.442 182.512 171.89 184.176 171.89 186.256C171.89 188.08 171.554 189.648 170.882 190.96C170.21 192.24 169.282 193.28 168.098 194.08C166.914 194.88 165.57 195.472 164.066 195.856C162.562 196.208 160.962 196.384 159.266 196.384C157.57 196.384 155.874 196.208 154.178 195.856C152.482 195.504 150.85 195.008 149.282 194.368C147.714 193.696 146.274 192.896 144.962 191.968L147.89 186.256C148.178 186.544 148.69 186.928 149.426 187.408C150.162 187.856 151.058 188.32 152.114 188.8C153.17 189.248 154.322 189.632 155.57 189.952C156.818 190.272 158.082 190.432 159.362 190.432C161.154 190.432 162.514 190.128 163.442 189.52C164.37 188.912 164.834 188.048 164.834 186.928C164.834 185.904 164.466 185.104 163.73 184.528C162.994 183.952 161.97 183.456 160.658 183.04C159.346 182.592 157.794 182.112 156.002 181.6C153.858 180.992 152.066 180.32 150.626 179.584C149.186 178.816 148.114 177.856 147.41 176.704C146.706 175.552 146.354 174.112 146.354 172.384C146.354 170.048 146.898 168.096 147.986 166.528C149.106 164.928 150.61 163.728 152.498 162.928C154.386 162.096 156.482 161.68 158.786 161.68C160.386 161.68 161.89 161.856 163.298 162.208C164.738 162.56 166.082 163.024 167.33 163.6C168.578 164.176 169.698 164.8 170.69 165.472L167.762 170.848ZM202.384 167.728H191.488V196H184.912V167.728H174.016V161.92H202.384V167.728ZM220.409 196.24C217.913 196.24 215.641 195.76 213.593 194.8C211.577 193.84 209.833 192.544 208.361 190.912C206.921 189.248 205.801 187.392 205.001 185.344C204.201 183.264 203.801 181.136 203.801 178.96C203.801 176.688 204.217 174.528 205.049 172.48C205.913 170.4 207.081 168.56 208.553 166.96C210.057 165.328 211.817 164.048 213.833 163.12C215.881 162.16 218.121 161.68 220.553 161.68C223.017 161.68 225.257 162.176 227.273 163.168C229.321 164.16 231.065 165.488 232.505 167.152C233.945 168.816 235.065 170.672 235.865 172.72C236.665 174.768 237.065 176.88 237.065 179.056C237.065 181.296 236.649 183.456 235.817 185.536C234.985 187.584 233.817 189.424 232.312 191.056C230.841 192.656 229.081 193.92 227.033 194.848C225.017 195.776 222.809 196.24 220.409 196.24ZM210.521 178.96C210.521 180.432 210.745 181.856 211.193 183.232C211.641 184.608 212.281 185.84 213.113 186.928C213.977 187.984 215.017 188.832 216.233 189.472C217.481 190.08 218.889 190.384 220.457 190.384C222.057 190.384 223.481 190.064 224.729 189.424C225.977 188.752 227.017 187.872 227.849 186.784C228.681 185.664 229.305 184.432 229.721 183.088C230.169 181.712 230.393 180.336 230.393 178.96C230.393 177.488 230.153 176.08 229.673 174.736C229.225 173.36 228.569 172.144 227.705 171.088C226.873 170 225.833 169.152 224.585 168.544C223.369 167.904 221.993 167.584 220.457 167.584C218.825 167.584 217.385 167.92 216.137 168.592C214.921 169.232 213.897 170.096 213.065 171.184C212.233 172.272 211.593 173.488 211.145 174.832C210.729 176.176 210.521 177.552 210.521 178.96ZM269.938 196V173.632L261.202 190.288H257.506L248.77 173.632V196H242.146V161.92H249.25L259.33 181.312L269.506 161.92H276.562V196H269.938ZM307.341 190.192V196H283.677V161.92H306.909V167.728H290.301V175.936H304.653V181.312H290.301V190.192H307.341ZM312.505 196V161.92H327.577C329.145 161.92 330.585 162.24 331.897 162.88C333.241 163.52 334.393 164.384 335.353 165.472C336.345 166.56 337.097 167.776 337.609 169.12C338.153 170.464 338.425 171.84 338.425 173.248C338.425 174.688 338.169 176.08 337.657 177.424C337.177 178.736 336.473 179.888 335.545 180.88C334.617 181.872 333.529 182.64 332.281 183.184L340.057 196H332.761L325.753 184.576H319.129V196H312.505ZM319.129 178.768H327.433C328.265 178.768 329.001 178.528 329.641 178.048C330.281 177.536 330.793 176.864 331.177 176.032C331.561 175.2 331.753 174.272 331.753 173.248C331.753 172.16 331.529 171.216 331.081 170.416C330.633 169.584 330.057 168.928 329.353 168.448C328.681 167.968 327.945 167.728 327.145 167.728H319.129V178.768ZM98.856 240.848C98.632 240.624 98.216 240.32 97.608 239.936C97.032 239.552 96.312 239.184 95.448 238.832C94.616 238.48 93.704 238.176 92.712 237.92C91.72 237.632 90.712 237.488 89.688 237.488C87.896 237.488 86.536 237.824 85.608 238.496C84.712 239.168 84.264 240.112 84.264 241.328C84.264 242.256 84.552 242.992 85.128 243.536C85.704 244.08 86.568 244.544 87.72 244.928C88.872 245.312 90.312 245.728 92.04 246.176C94.28 246.72 96.216 247.392 97.848 248.192C99.512 248.96 100.776 249.984 101.64 251.264C102.536 252.512 102.984 254.176 102.984 256.256C102.984 258.08 102.648 259.648 101.976 260.96C101.304 262.24 100.376 263.28 99.192 264.08C98.008 264.88 96.664 265.472 95.16 265.856C93.656 266.208 92.056 266.384 90.36 266.384C88.664 266.384 86.968 266.208 85.272 265.856C83.576 265.504 81.944 265.008 80.376 264.368C78.808 263.696 77.368 262.896 76.056 261.968L78.984 256.256C79.272 256.544 79.784 256.928 80.52 257.408C81.256 257.856 82.152 258.32 83.208 258.8C84.264 259.248 85.416 259.632 86.664 259.952C87.912 260.272 89.176 260.432 90.456 260.432C92.248 260.432 93.608 260.128 94.536 259.52C95.464 258.912 95.928 258.048 95.928 256.928C95.928 255.904 95.56 255.104 94.824 254.528C94.088 253.952 93.064 253.456 91.752 253.04C90.44 252.592 88.888 252.112 87.096 251.6C84.952 250.992 83.16 250.32 81.72 249.584C80.28 248.816 79.208 247.856 78.504 246.704C77.8 245.552 77.448 244.112 77.448 242.384C77.448 240.048 77.992 238.096 79.08 236.528C80.2 234.928 81.704 233.728 83.592 232.928C85.48 232.096 87.576 231.68 89.88 231.68C91.48 231.68 92.984 231.856 94.392 232.208C95.832 232.56 97.176 233.024 98.424 233.6C99.672 234.176 100.792 234.8 101.784 235.472L98.856 240.848ZM122.438 266.24C119.718 266.24 117.398 265.792 115.478 264.896C113.59 263.968 112.054 262.704 110.87 261.104C109.718 259.504 108.87 257.696 108.326 255.68C107.782 253.632 107.51 251.504 107.51 249.296V231.92H114.134V249.296C114.134 250.704 114.262 252.08 114.518 253.424C114.806 254.736 115.27 255.92 115.91 256.976C116.55 258.032 117.398 258.864 118.454 259.472C119.51 260.08 120.822 260.384 122.39 260.384C123.99 260.384 125.318 260.08 126.374 259.472C127.462 258.832 128.31 257.984 128.918 256.928C129.558 255.872 130.022 254.688 130.31 253.376C130.598 252.032 130.742 250.672 130.742 249.296V231.92H137.318V249.296C137.318 251.632 137.03 253.824 136.454 255.872C135.91 257.92 135.03 259.728 133.814 261.296C132.63 262.832 131.094 264.048 129.206 264.944C127.318 265.808 125.062 266.24 122.438 266.24ZM143.99 266V231.92H158.438C160.006 231.92 161.446 232.24 162.758 232.88C164.07 233.52 165.206 234.384 166.166 235.472C167.158 236.56 167.926 237.776 168.47 239.12C169.014 240.464 169.286 241.84 169.286 243.248C169.286 245.168 168.838 246.992 167.942 248.72C167.046 250.448 165.814 251.856 164.246 252.944C162.678 254.032 160.822 254.576 158.678 254.576H150.614V266H143.99ZM150.614 248.768H158.294C159.094 248.768 159.814 248.544 160.454 248.096C161.094 247.648 161.606 247.008 161.99 246.176C162.374 245.312 162.566 244.336 162.566 243.248C162.566 242.064 162.342 241.056 161.894 240.224C161.478 239.392 160.918 238.768 160.214 238.352C159.542 237.936 158.806 237.728 158.006 237.728H150.614V248.768ZM173.896 266V231.92H188.344C189.912 231.92 191.352 232.24 192.664 232.88C193.976 233.52 195.112 234.384 196.072 235.472C197.064 236.56 197.832 237.776 198.376 239.12C198.92 240.464 199.192 241.84 199.192 243.248C199.192 245.168 198.744 246.992 197.848 248.72C196.952 250.448 195.72 251.856 194.152 252.944C192.584 254.032 190.728 254.576 188.584 254.576H180.52V266H173.896ZM180.52 248.768H188.2C189 248.768 189.72 248.544 190.36 248.096C191 247.648 191.512 247.008 191.896 246.176C192.28 245.312 192.472 244.336 192.472 243.248C192.472 242.064 192.248 241.056 191.8 240.224C191.384 239.392 190.824 238.768 190.12 238.352C189.448 237.936 188.712 237.728 187.912 237.728H180.52V248.768ZM218.346 266.24C215.85 266.24 213.578 265.76 211.53 264.8C209.514 263.84 207.77 262.544 206.298 260.912C204.858 259.248 203.738 257.392 202.938 255.344C202.138 253.264 201.738 251.136 201.738 248.96C201.738 246.688 202.154 244.528 202.986 242.48C203.85 240.4 205.018 238.56 206.49 236.96C207.994 235.328 209.754 234.048 211.77 233.12C213.818 232.16 216.058 231.68 218.49 231.68C220.954 231.68 223.194 232.176 225.21 233.168C227.258 234.16 229.002 235.488 230.442 237.152C231.882 238.816 233.002 240.672 233.802 242.72C234.602 244.768 235.002 246.88 235.002 249.056C235.002 251.296 234.586 253.456 233.754 255.536C232.922 257.584 231.754 259.424 230.25 261.056C228.778 262.656 227.018 263.92 224.97 264.848C222.954 265.776 220.746 266.24 218.346 266.24ZM208.458 248.96C208.458 250.432 208.682 251.856 209.13 253.232C209.578 254.608 210.218 255.84 211.05 256.928C211.914 257.984 212.954 258.832 214.17 259.472C215.418 260.08 216.826 260.384 218.394 260.384C219.994 260.384 221.418 260.064 222.666 259.424C223.914 258.752 224.954 257.872 225.786 256.784C226.618 255.664 227.242 254.432 227.658 253.088C228.106 251.712 228.33 250.336 228.33 248.96C228.33 247.488 228.09 246.08 227.61 244.736C227.162 243.36 226.506 242.144 225.642 241.088C224.81 240 223.77 239.152 222.522 238.544C221.306 237.904 219.93 237.584 218.394 237.584C216.762 237.584 215.322 237.92 214.074 238.592C212.858 239.232 211.834 240.096 211.002 241.184C210.17 242.272 209.53 243.488 209.082 244.832C208.666 246.176 208.458 247.552 208.458 248.96ZM240.083 266V231.92H255.155C256.723 231.92 258.163 232.24 259.475 232.88C260.819 233.52 261.971 234.384 262.931 235.472C263.923 236.56 264.675 237.776 265.187 239.12C265.731 240.464 266.003 241.84 266.003 243.248C266.003 244.688 265.747 246.08 265.235 247.424C264.755 248.736 264.051 249.888 263.123 250.88C262.195 251.872 261.107 252.64 259.859 253.184L267.635 266H260.339L253.331 254.576H246.707V266H240.083ZM246.707 248.768H255.011C255.843 248.768 256.579 248.528 257.219 248.048C257.859 247.536 258.371 246.864 258.755 246.032C259.139 245.2 259.331 244.272 259.331 243.248C259.331 242.16 259.107 241.216 258.659 240.416C258.211 239.584 257.635 238.928 256.931 238.448C256.259 237.968 255.523 237.728 254.723 237.728H246.707V248.768ZM297.118 237.728H286.222V266H279.646V237.728H268.75V231.92H297.118V237.728Z" fill="white"/>
<path d="M99 110.5L75.75 123.923L75.75 97.0766L99 110.5Z" fill="#FF5245"/>
<defs>
<filter id="filter0_d_113_3" x="0" y="0" width="538" height="620" filterUnits="userSpaceOnUse" color-interpolation-filters="sRGB">
<feFlood flood-opacity="0" result="BackgroundImageFix"/>
<feColorMatrix in="SourceAlpha" type="matrix" values="0 0 0 0 0 0 0 0 0 0 0 0 0 0 0 0 0 0 127 0" result="hardAlpha"/>
<feOffset dy="1"/>
<feGaussianBlur stdDeviation="12.5"/>
<feComposite in2="hardAlpha" operator="out"/>
<feColorMatrix type="matrix" values="0 0 0 0 0 0 0 0 0 0 0 0 0 0 0 0 0 0 0.1 0"/>
<feBlend mode="normal" in2="BackgroundImageFix" result="effect1_dropShadow_113_3"/>
<feBlend mode="normal" in="SourceGraphic" in2="effect1_dropShadow_113_3" result="shape"/>
</filter>
</defs>
</svg>
