<svg width="369" height="284" viewBox="0 0 369 284" fill="none" xmlns="http://www.w3.org/2000/svg">
<g clip-path="url(#clip0_447_1918)">
<path d="M368.432 246.673V270.342H175.91V248.547L0.0786133 247.802V226.367C0.0786133 190.882 12.9635 156.582 36.5971 131.959C39.2233 129.225 41.6258 126.332 43.8055 123.346C53.9494 109.382 59.691 93.3204 65.2303 77.4476C70.7697 61.5739 76.3313 45.4841 86.1727 31.3536C96.0158 17.2222 110.829 5.0442 129.003 1.1462C147.183 -2.75181 168.644 3.39491 177.636 17.9595C182.974 26.6081 183.493 36.8777 186.442 46.3867C189.392 55.8966 196.427 65.7966 207.421 67.1634C226.601 69.5422 254.818 24.6488 273.898 27.5925C283.617 29.0971 290.164 37.6011 292.488 46.1197C293.003 48.0127 293.365 49.9264 293.633 51.853C295.152 62.8141 293.357 73.9397 289.111 84.1498C280.941 103.798 285.08 121.211 309.272 134.982C345.827 158.412 368.432 200.739 368.432 246.673Z" fill="#F5F5F5"/>
<path d="M11.9211 268.903C-37.9998 279.504 84.9127 286.079 117.373 283.403C149.834 280.727 181.457 282.349 213.982 281.433C257.713 280.2 301.454 281.296 345.13 282.955C353.952 283.29 365.084 281.708 367.894 272.987C369.709 267.352 366.721 261.079 362.205 257.533C357.69 253.987 351.956 252.59 346.38 251.411C294.602 240.46 241.126 240.942 188.117 241.466C127.058 242.44 65.3909 242.892 4.35112 245.276C-11.4066 245.891 21.4378 266.883 11.922 268.903H11.9211Z" fill="#3473BA"/>
<path d="M244.069 261.49C228.916 265.329 79.4803 268.494 81.8032 261.279C82.4681 259.218 86.4274 257.671 91.1296 256.911C88.6457 256.96 84.4764 256.018 86.1618 253.254C89.3732 247.987 198.663 246.405 218.77 250.906C232.273 253.936 201.069 260.02 242.208 256.693C250.211 256.053 248.868 260.266 244.069 261.49H244.069Z" fill="#B8D5E7"/>
<path d="M259.769 67.7744H52.6258C49.6649 67.7744 47.2646 70.1871 47.2646 73.1632V219.568C47.2646 222.544 49.6649 224.956 52.6258 224.956H259.769C262.73 224.956 265.13 222.544 265.13 219.568V73.1632C265.13 70.1871 262.73 67.7744 259.769 67.7744Z" fill="#215988"/>
<path d="M173.679 224.956L178.872 245.858H133.523L138.717 224.956H173.679Z" fill="#215988"/>
<path d="M160.201 216.905C160.201 219.13 158.41 220.93 156.197 220.93C153.984 220.93 152.193 219.13 152.193 216.905C152.193 214.681 153.988 212.881 156.197 212.881C158.406 212.881 160.201 214.685 160.201 216.905Z" fill="white"/>
<path d="M260.526 75.5111V205.704C260.526 207.306 259.231 208.608 257.63 208.608H54.7574C53.1568 208.608 51.8682 207.306 51.8682 205.704V75.5111C51.8682 73.9091 53.156 72.6069 54.7574 72.6069H257.63C259.231 72.6069 260.526 73.9091 260.526 75.5111Z" fill="#EBEBFF"/>
<path d="M248.788 58.5977H63.6108V197.991H248.788V58.5977Z" fill="white"/>
<path d="M248.787 58.5977V47.8717C248.787 44.1744 245.805 41.1772 242.127 41.1772H70.2705C66.5922 41.1772 63.6113 44.1744 63.6113 47.8717V58.5977H248.787Z" fill="#F26639"/>
<path d="M104.322 49.9284C104.322 51.7577 102.849 53.2382 101.029 53.2382C99.2092 53.2382 97.7363 51.7577 97.7363 49.9284C97.7363 48.0991 99.2092 46.6187 101.029 46.6187C102.849 46.6187 104.322 48.0991 104.322 49.9284Z" fill="white"/>
<path d="M79.6627 49.9284C79.6627 51.7577 78.1898 53.2382 76.3699 53.2382C74.55 53.2382 73.0771 51.7577 73.0771 49.9284C73.0849 48.0991 74.5577 46.6187 76.3699 46.6187C78.1821 46.6187 79.6627 48.0991 79.6627 49.9284Z" fill="white"/>
<path d="M91.9889 49.9284C91.9889 51.7577 90.5161 53.2382 88.6962 53.2382C86.8763 53.2382 85.4111 51.7577 85.4111 49.9284C85.4111 48.0991 86.884 46.6187 88.7039 46.6187C90.5238 46.6187 91.9898 48.0991 91.9898 49.9284H91.9889Z" fill="white"/>
<path d="M241.963 49.9283C241.963 50.6827 241.66 51.3528 241.17 51.8454C240.68 52.3372 240.003 52.6412 239.263 52.6412H169.763C168.272 52.6412 167.064 51.426 167.065 49.9283C167.065 49.1738 167.367 48.5038 167.857 48.0111C168.348 47.5185 169.025 47.2153 169.765 47.2153H239.265C240.755 47.2153 241.964 48.4306 241.963 49.9283Z" fill="white"/>
<path d="M122.173 245.86H190.223C191.189 245.86 191.973 246.648 191.973 247.619V253.038C191.973 254.008 191.189 254.796 190.223 254.796H122.173C121.207 254.796 120.423 254.008 120.423 253.038V247.619C120.423 246.648 121.207 245.86 122.173 245.86Z" fill="#215988"/>
<path d="M14.8366 111.88C12.6611 111.88 10.9243 113.65 10.9243 115.837C10.9243 118.024 12.6611 119.769 14.8366 119.769C17.012 119.769 18.7488 118 18.7488 115.837C18.7488 113.674 16.988 111.88 14.8366 111.88ZM14.8366 118.565C13.3243 118.565 12.1204 117.334 12.1204 115.83C12.1204 114.326 13.3234 113.084 14.8366 113.084C16.3497 113.084 17.5527 114.315 17.5527 115.83C17.5527 117.345 16.3274 118.565 14.8366 118.565Z" fill="#F79C37"/>
<path d="M27.0978 126.265C27.0978 126.472 26.9136 126.653 26.7036 126.653C25.4432 126.653 24.3928 127.663 24.3928 128.905C24.3928 129.112 24.2351 129.294 24.0252 129.294C23.7887 129.294 23.5788 129.113 23.5788 128.905C23.5788 127.663 22.5549 126.653 21.2945 126.653C21.0846 126.653 20.9004 126.472 20.9004 126.265C20.9004 126.031 21.0846 125.876 21.2945 125.876C22.5549 125.876 23.5788 124.841 23.5788 123.598C23.5788 123.391 23.7622 123.21 23.9729 123.21C24.2094 123.21 24.3928 123.391 24.3928 123.598C24.3928 124.841 25.4432 125.876 26.7036 125.876C26.9136 125.876 27.0978 126.031 27.0978 126.265Z" fill="#F26639"/>
<path d="M29.7865 115.162C29.7865 116.171 28.9648 116.997 27.9606 116.997C26.9565 116.997 26.1348 116.171 26.1348 115.162C26.1348 114.152 26.9462 113.316 27.9606 113.316C28.9751 113.316 29.7865 114.142 29.7865 115.162Z" fill="#F26639"/>
<path d="M144.274 17.0485C142.934 17.964 142.583 19.8157 143.494 21.1627C144.414 22.5235 146.246 22.8628 147.586 21.9465C148.94 21.0215 149.301 19.1836 148.38 17.8228C147.47 16.4758 145.628 16.1227 144.274 17.0477V17.0485Z" fill="#F79C37"/>
<path d="M142.613 8.73999C141.854 9.25846 141.655 10.3075 142.171 11.0697C142.692 11.8405 143.73 12.0325 144.489 11.5141C145.256 10.9904 145.46 9.94918 144.939 9.17836C144.423 8.4153 143.38 8.21549 142.613 8.73913V8.73999Z" fill="#F26639"/>
<g opacity="0.8">
<path d="M134.198 13.3467C134.009 13.4759 133.958 13.7593 134.09 13.9531C134.877 15.1175 134.61 16.7177 133.474 17.4937C133.284 17.6228 133.217 17.8812 133.348 18.0759C133.496 18.2938 133.793 18.3747 133.982 18.2455C135.118 17.4695 136.68 17.7848 137.467 18.9483C137.598 19.1421 137.878 19.1989 138.068 19.0697C138.281 18.9242 138.308 18.6572 138.177 18.4634C137.39 17.2999 137.697 15.7074 138.833 14.9306C139.022 14.8014 139.074 14.518 138.942 14.3243C138.794 14.1064 138.513 14.0495 138.324 14.1787C137.188 14.9547 135.586 14.6317 134.799 13.4682C134.668 13.2744 134.411 13.2012 134.198 13.3467Z" fill="#F26639"/>
</g>
<path d="M292.024 96.57C290.636 97.0179 289.059 96.4796 288.228 95.2764C286.822 93.2396 287.911 90.4371 290.399 89.9384C291.542 89.7093 292.763 90.1158 293.538 90.9917C295.223 92.8942 294.38 95.8087 292.024 96.57H292.024Z" fill="#F79C37"/>
<path d="M281.591 97.0273C280.754 97.265 279.817 96.9455 279.296 96.2453C278.301 94.9069 279.053 92.9993 280.757 92.7469C281.408 92.6505 282.089 92.8778 282.551 93.3472C283.762 94.5788 283.197 96.5717 281.591 97.0273Z" fill="#F26639"/>
<path d="M183.438 70.5648L183.207 134.917L82.3148 134.58C79.6432 134.57 77.4721 132.371 77.4815 129.687L77.5466 111.526C82.5616 111.544 86.6529 107.484 86.6717 102.42C86.6897 97.3789 82.6275 93.2656 77.6126 93.2475L77.6777 75.1096C77.6871 72.401 79.8746 70.2186 82.5461 70.2281L183.438 70.5657V70.5648Z" fill="#F5F5F5"/>
<path d="M177.277 133.095H177.275L82.3236 132.769C81.5079 132.765 80.7428 132.442 80.1704 131.86C79.598 131.279 79.2853 130.509 79.2896 129.693L79.347 113.647C79.3479 113.39 79.5278 113.17 79.778 113.117C84.7981 112.081 88.4567 107.584 88.4764 102.423C88.497 97.2659 84.8701 92.746 79.8534 91.6747C79.6032 91.6213 79.425 91.3991 79.4258 91.1424L79.4832 75.1172C79.4832 74.2895 79.8054 73.5109 80.3897 72.927C80.963 72.3543 81.7187 72.0391 82.5207 72.0391H82.5369L177.488 72.3715C177.631 72.3715 177.768 72.4301 177.869 72.5317C177.97 72.6333 178.026 72.772 178.026 72.9158L177.817 132.555C177.816 132.854 177.575 133.095 177.277 133.095ZM80.4249 114.083L80.3683 129.698C80.3658 130.226 80.5671 130.723 80.9373 131.097C81.3074 131.473 81.8018 131.681 82.3287 131.684L176.74 132.008L176.945 73.4541L82.5327 73.1234C82.0374 73.1406 81.5233 73.324 81.1515 73.6961C80.7719 74.0751 80.5628 74.5806 80.5628 75.1197L80.5063 90.7144C85.7971 92.0519 89.5774 96.9085 89.5551 102.428C89.5337 107.951 85.72 112.783 80.424 114.083H80.4249Z" fill="#3473BA"/>
<path d="M234.794 81.3089C234.794 83.0857 236.218 84.5274 237.985 84.5377H238.068L238.048 88.8534H238.017C236.239 88.8431 234.805 90.2745 234.794 92.0616C234.794 93.8383 236.218 95.2801 237.986 95.2904H238.028L238.018 99.6061C236.24 99.5958 234.806 101.027 234.795 102.814C234.795 104.591 236.219 106.033 237.987 106.043L237.977 110.359C236.22 110.369 234.806 111.801 234.795 113.567C234.795 115.333 236.199 116.765 237.955 116.796L237.935 121.111C236.199 121.142 234.806 122.564 234.795 124.32C234.795 126.075 236.178 127.496 237.914 127.548L237.894 133.996C237.883 134.592 237.405 135.072 236.812 135.072L183.214 134.926L183.443 70.5786L237.041 70.725C237.634 70.725 238.112 71.2159 238.112 71.8119L238.091 78.1025H238.019C236.241 78.0921 234.806 79.5235 234.796 81.3106L234.794 81.3089Z" fill="#F5F5F5"/>
<path d="M186.646 70.6602C186.64 72.4378 185.197 73.8753 183.429 73.8692C181.66 73.8632 180.23 72.4198 180.236 70.6421C180.242 68.8585 181.678 67.4271 183.454 67.4331C185.222 67.4392 186.652 68.8826 186.646 70.6602Z" fill="white"/>
<path d="M186.646 81.4136C186.64 83.1913 185.197 84.6287 183.429 84.6226C181.66 84.6166 180.23 83.1732 180.236 81.3956C180.242 79.6119 181.678 78.1805 183.454 78.1865C185.222 78.1926 186.652 79.636 186.646 81.4136Z" fill="white"/>
<path d="M186.646 92.1676C186.64 93.9452 185.197 95.3826 183.429 95.3766C181.66 95.3705 180.23 93.9271 180.236 92.1495C180.242 90.3658 181.678 88.9344 183.454 88.9404C185.222 88.9465 186.652 90.3899 186.646 92.1676Z" fill="white"/>
<path d="M186.646 102.921C186.64 104.699 185.197 106.136 183.429 106.13C181.66 106.124 180.23 104.68 180.236 102.903C180.242 101.119 181.678 99.6878 183.454 99.6939C185.222 99.6999 186.652 101.143 186.646 102.921Z" fill="white"/>
<path d="M186.646 113.673C186.64 115.451 185.197 116.888 183.429 116.882C181.66 116.876 180.23 115.433 180.236 113.655C180.242 111.872 181.678 110.44 183.454 110.446C185.222 110.452 186.652 111.896 186.646 113.673Z" fill="white"/>
<path d="M186.646 124.427C186.64 126.205 185.197 127.642 183.429 127.636C181.66 127.63 180.23 126.187 180.236 124.409C180.242 122.626 181.678 121.194 183.454 121.2C185.222 121.206 186.652 122.65 186.646 124.427Z" fill="white"/>
<path d="M186.646 135.181C186.64 136.958 185.197 138.396 183.429 138.39C181.66 138.384 180.23 136.94 180.236 135.163C180.242 133.379 181.678 131.948 183.454 131.954C185.222 131.96 186.652 133.403 186.646 135.181Z" fill="white"/>
<path d="M225.196 116.447H196.126C195.728 116.447 195.406 116.123 195.406 115.723C195.406 115.324 195.728 115 196.126 115H225.196C225.594 115 225.916 115.324 225.916 115.723C225.916 116.123 225.594 116.447 225.196 116.447Z" fill="#215988"/>
<path d="M225.196 108.447H196.126C195.728 108.447 195.406 108.123 195.406 107.723C195.406 107.324 195.728 107 196.126 107H225.196C225.594 107 225.916 107.324 225.916 107.723C225.916 108.123 225.594 108.447 225.196 108.447Z" fill="#215988"/>
<path d="M212.752 124.662H196.126C195.728 124.662 195.406 124.338 195.406 123.939C195.406 123.539 195.728 123.215 196.126 123.215H212.752C213.149 123.215 213.471 123.539 213.471 123.939C213.471 124.338 213.149 124.662 212.752 124.662Z" fill="#215988"/>
<path d="M212.752 101.447H196.126C195.728 101.447 195.406 101.123 195.406 100.723C195.406 100.324 195.728 100 196.126 100H212.752C213.149 100 213.471 100.324 213.471 100.723C213.471 101.123 213.149 101.447 212.752 101.447Z" fill="#215988"/>
<path d="M168.541 101.514H96.5354C96.2372 101.514 95.9956 101.272 95.9956 100.972C95.9956 100.672 96.2372 100.429 96.5354 100.429H168.541C168.839 100.429 169.081 100.672 169.081 100.972C169.081 101.272 168.839 101.514 168.541 101.514Z" fill="#215988"/>
<path d="M168.541 109.03H96.5354C96.2372 109.03 95.9956 108.787 95.9956 108.487C95.9956 108.187 96.2372 107.944 96.5354 107.944H168.541C168.839 107.944 169.081 108.187 169.081 108.487C169.081 108.787 168.839 109.03 168.541 109.03Z" fill="#215988"/>
<path d="M168.541 116.545H96.5354C96.2372 116.545 95.9956 116.302 95.9956 116.003C95.9956 115.703 96.2372 115.46 96.5354 115.46H168.541C168.839 115.46 169.081 115.703 169.081 116.003C169.081 116.302 168.839 116.545 168.541 116.545Z" fill="#215988"/>
<path d="M150.314 124.059H96.5344C96.2363 124.059 95.9946 123.816 95.9946 123.517C95.9946 123.217 96.2363 122.974 96.5344 122.974H150.314C150.613 122.974 150.854 123.217 150.854 123.517C150.854 123.816 150.613 124.059 150.314 124.059Z" fill="#215988"/>
<path d="M110.998 92.1483C110.884 92.0337 110.827 91.8934 110.827 91.7254V84.1568H108.146C107.988 84.1568 107.857 84.1042 107.752 83.9983C107.647 83.8924 107.594 83.7606 107.594 83.6021C107.594 83.4436 107.647 83.3093 107.752 83.1991C107.857 83.0888 107.988 83.0337 108.146 83.0337H114.69C114.848 83.0337 114.981 83.0888 115.091 83.1991C115.201 83.3093 115.255 83.4436 115.255 83.6021C115.255 83.7606 115.2 83.8924 115.091 83.9983C114.982 84.1042 114.848 84.1568 114.69 84.1568H112.023V91.7254C112.023 91.8925 111.964 92.0337 111.846 92.1483C111.728 92.2628 111.584 92.3197 111.418 92.3197C111.252 92.3197 111.111 92.2628 110.998 92.1483Z" fill="#F95D5D"/>
<path d="M111.418 92.3921C111.233 92.3921 111.074 92.3275 110.947 92.1992C110.82 92.0717 110.755 91.9115 110.755 91.7255V84.2292H108.146C107.97 84.2292 107.82 84.1689 107.702 84.0492C107.583 83.9295 107.522 83.7796 107.522 83.6022C107.522 83.4248 107.582 83.2732 107.7 83.1492C107.819 83.0252 107.969 82.9614 108.146 82.9614H114.691C114.867 82.9614 115.019 83.0243 115.142 83.1475C115.265 83.2715 115.327 83.4239 115.327 83.6013C115.327 83.7787 115.265 83.9303 115.141 84.05C115.018 84.1689 114.866 84.2283 114.691 84.2283H112.095V91.7246C112.095 91.9115 112.028 92.0708 111.896 92.1992C111.764 92.3266 111.603 92.3912 111.418 92.3912V92.3921ZM108.146 83.1061C108.007 83.1061 107.896 83.1526 107.804 83.2491C107.712 83.3464 107.666 83.4618 107.666 83.6022C107.666 83.7426 107.711 83.8545 107.803 83.9476C107.894 84.0397 108.007 84.0845 108.146 84.0845H110.899V91.7255C110.899 91.8745 110.948 91.9959 111.049 92.0967C111.149 92.1983 111.271 92.2474 111.418 92.2474C111.566 92.2474 111.69 92.1983 111.795 92.0958C111.9 91.9951 111.95 91.8736 111.95 91.7255V84.0845H114.691C114.829 84.0845 114.944 84.0397 115.042 83.9458C115.137 83.8537 115.183 83.7409 115.183 83.6022C115.183 83.4635 115.136 83.3473 115.04 83.2508C114.943 83.1535 114.829 83.107 114.691 83.107H108.146V83.1061Z" fill="#F95D5D"/>
<path d="M116.871 92.1482C116.757 92.0336 116.701 91.8933 116.701 91.7253V83.5753C116.701 83.4082 116.757 83.2653 116.871 83.1456C116.985 83.0267 117.125 82.9673 117.292 82.9673C117.459 82.9673 117.6 83.0267 117.719 83.1456C117.838 83.2644 117.897 83.4074 117.897 83.5753V91.7253C117.897 91.8924 117.838 92.0336 117.719 92.1482C117.601 92.2627 117.458 92.3196 117.292 92.3196C117.126 92.3196 116.985 92.2627 116.871 92.1482Z" fill="#F95D5D"/>
<path d="M117.292 92.392C117.107 92.392 116.948 92.3274 116.821 92.1991C116.694 92.0716 116.629 91.9123 116.629 91.7254V83.5754C116.629 83.3894 116.693 83.2283 116.82 83.0957C116.948 82.9622 117.106 82.895 117.292 82.895C117.478 82.895 117.638 82.9622 117.77 83.0948C117.902 83.2275 117.969 83.3894 117.969 83.5754V91.7254C117.969 91.9123 117.902 92.0716 117.769 92.1999C117.637 92.3274 117.477 92.392 117.292 92.392ZM117.292 83.0397C117.145 83.0397 117.024 83.0905 116.924 83.1956C116.823 83.3015 116.774 83.4247 116.774 83.5745V91.7245C116.774 91.8735 116.823 91.995 116.924 92.0957C117.024 92.1974 117.146 92.2464 117.293 92.2464C117.44 92.2464 117.565 92.1974 117.67 92.0949C117.774 91.9941 117.825 91.8727 117.825 91.7245V83.5745C117.825 83.4264 117.774 83.3024 117.669 83.1965C117.564 83.0905 117.44 83.0397 117.293 83.0397H117.292Z" fill="#F95D5D"/>
<path d="M122.135 91.8115C121.438 91.4282 120.891 90.8779 120.492 90.1605C120.093 89.443 119.894 88.6042 119.894 87.6439C119.894 86.6836 120.093 85.8456 120.492 85.1273C120.891 84.4099 121.438 83.8596 122.135 83.4763C122.831 83.0939 123.617 82.9019 124.493 82.9019C125.089 82.9019 125.621 82.9725 126.09 83.1137C126.558 83.255 127.024 83.4574 127.489 83.7209C127.682 83.8268 127.778 83.9939 127.778 84.223C127.778 84.3548 127.73 84.4719 127.633 84.5727C127.536 84.6743 127.409 84.7243 127.252 84.7243C127.163 84.7243 127.085 84.707 127.015 84.6717C126.629 84.4693 126.252 84.3152 125.885 84.2092C125.517 84.1033 125.092 84.0508 124.611 84.0508C123.858 84.0508 123.216 84.2075 122.686 84.5193C122.155 84.8319 121.757 85.2591 121.489 85.8C121.222 86.3417 121.088 86.9557 121.088 87.643C121.088 88.3303 121.221 88.9435 121.489 89.4852C121.757 90.027 122.155 90.4541 122.686 90.7668C123.215 91.0794 123.857 91.2353 124.611 91.2353C125.092 91.2353 125.517 91.1828 125.885 91.0768C126.253 90.9709 126.629 90.8167 127.015 90.6143C127.085 90.579 127.163 90.5618 127.252 90.5618C127.409 90.5618 127.536 90.61 127.633 90.7073C127.729 90.8047 127.778 90.9235 127.778 91.0639C127.778 91.293 127.682 91.4601 127.489 91.566C127.024 91.8304 126.558 92.0328 126.09 92.174C125.621 92.3144 125.089 92.3851 124.493 92.3851C123.617 92.3851 122.831 92.1939 122.135 91.8106V91.8115Z" fill="#F95D5D"/>
<path d="M124.493 92.4583C123.608 92.4583 122.803 92.262 122.1 91.8753C121.394 91.4869 120.831 90.9219 120.429 90.1958C120.026 89.4715 119.821 88.6129 119.821 87.644C119.821 86.6751 120.026 85.8173 120.429 85.0921C120.832 84.3661 121.394 83.8011 122.1 83.4127C122.804 83.026 123.608 82.8296 124.493 82.8296C125.092 82.8296 125.637 82.9019 126.11 83.044C126.582 83.1861 127.058 83.392 127.525 83.6581C127.741 83.7761 127.851 83.9664 127.851 84.2231C127.851 84.3738 127.795 84.509 127.686 84.6236C127.576 84.739 127.431 84.7975 127.252 84.7975C127.153 84.7975 127.063 84.7769 126.983 84.7373C126.603 84.5374 126.227 84.3841 125.865 84.2799C125.506 84.1766 125.084 84.124 124.611 84.124C123.874 84.124 123.238 84.2782 122.722 84.5831C122.207 84.8871 121.814 85.3074 121.555 85.8336C121.293 86.3616 121.161 86.9713 121.161 87.644C121.161 88.3166 121.293 88.9264 121.555 89.4543C121.814 89.9814 122.208 90.4017 122.722 90.7057C123.238 91.0106 123.874 91.1648 124.611 91.1648C125.083 91.1648 125.505 91.1122 125.865 91.0089C126.228 90.9046 126.603 90.7505 126.982 90.5515C127.063 90.5111 127.153 90.4904 127.252 90.4904C127.428 90.4904 127.574 90.5464 127.683 90.6566C127.793 90.7677 127.849 90.9047 127.849 91.0648C127.849 91.3215 127.739 91.5118 127.522 91.6307C127.056 91.896 126.58 92.1027 126.109 92.2439C125.636 92.386 125.092 92.4583 124.492 92.4583H124.493ZM124.493 82.9743C123.633 82.9743 122.852 83.1646 122.169 83.5401C121.488 83.9148 120.945 84.4608 120.555 85.1627C120.164 85.8655 119.965 86.7009 119.965 87.644C119.965 88.587 120.163 89.4224 120.555 90.1252C120.945 90.8271 121.488 91.3732 122.169 91.7478C122.851 92.1233 123.633 92.3137 124.493 92.3137C125.078 92.3137 125.608 92.2439 126.068 92.1061C126.529 91.9674 126.995 91.765 127.453 91.5049C127.623 91.4119 127.706 91.2681 127.706 91.0657C127.706 90.9443 127.665 90.8444 127.582 90.76C127.499 90.6764 127.391 90.6359 127.252 90.6359C127.176 90.6359 127.108 90.6514 127.048 90.6807C126.661 90.884 126.277 91.0416 125.905 91.1484C125.532 91.2552 125.097 91.3094 124.611 91.3094C123.847 91.3094 123.189 91.1484 122.65 90.8306C122.11 90.5128 121.698 90.071 121.426 89.5189C121.155 88.9703 121.018 88.3399 121.018 87.644C121.018 86.9481 121.155 86.3176 121.427 85.769C121.699 85.217 122.111 84.776 122.651 84.4574C123.189 84.1396 123.849 83.9785 124.612 83.9785C125.099 83.9785 125.535 84.0328 125.906 84.1396C126.277 84.2455 126.661 84.4031 127.049 84.6072C127.108 84.6374 127.175 84.652 127.252 84.652C127.391 84.652 127.498 84.6098 127.582 84.5228C127.665 84.435 127.706 84.3368 127.706 84.2231C127.706 84.0207 127.623 83.8777 127.454 83.7847C126.995 83.5238 126.53 83.3214 126.068 83.1827C125.608 83.044 125.078 82.9743 124.493 82.9743Z" fill="#F95D5D"/>
<path d="M129.749 92.1482C129.635 92.0336 129.579 91.8933 129.579 91.7253V83.5753C129.579 83.4082 129.635 83.2653 129.749 83.1456C129.863 83.0267 130.003 82.9673 130.17 82.9673C130.337 82.9673 130.478 83.0267 130.597 83.1456C130.716 83.2644 130.775 83.4074 130.775 83.5753V87.7756L135.269 83.1791C135.391 83.0379 135.54 82.9673 135.716 82.9673C135.865 82.9673 135.994 83.0181 136.104 83.1189C136.214 83.2205 136.268 83.3462 136.268 83.4952C136.268 83.6718 136.22 83.8079 136.123 83.9052L133.087 86.9437L136.569 91.355C136.665 91.4781 136.714 91.6065 136.714 91.7382C136.723 91.8967 136.671 92.0336 136.557 92.1482C136.443 92.2627 136.303 92.3196 136.136 92.3196C135.935 92.3196 135.777 92.2403 135.663 92.0819L132.272 87.736L130.775 89.2553V91.7253C130.775 91.8924 130.716 92.0336 130.597 92.1482C130.479 92.2627 130.336 92.3196 130.17 92.3196C130.004 92.3196 129.863 92.2627 129.749 92.1482Z" fill="#F95D5D"/>
<path d="M136.136 92.392C135.911 92.392 135.732 92.3016 135.605 92.1242L132.267 87.8446L130.847 89.2846V91.7254C130.847 91.9123 130.78 92.0716 130.647 92.1999C130.515 92.3274 130.355 92.392 130.17 92.392C129.985 92.392 129.826 92.3274 129.699 92.1991C129.572 92.0716 129.507 91.9123 129.507 91.7254V83.5754C129.507 83.3894 129.571 83.2283 129.698 83.0957C129.826 82.9622 129.984 82.895 130.17 82.895C130.356 82.895 130.516 82.9622 130.648 83.0948C130.78 83.2275 130.847 83.3894 130.847 83.5754V87.5992L135.218 83.1284C135.351 82.9751 135.52 82.895 135.715 82.895C135.882 82.895 136.029 82.9527 136.151 83.0655C136.276 83.181 136.339 83.3256 136.339 83.4953C136.339 83.6908 136.283 83.8458 136.174 83.9561L133.183 86.9489L136.626 91.3103C136.732 91.4463 136.786 91.591 136.786 91.7383C136.796 91.9132 136.736 92.0699 136.607 92.1991C136.48 92.3265 136.321 92.392 136.136 92.392ZM132.279 87.6267L132.329 87.6913L135.72 92.0372C135.822 92.1793 135.958 92.2473 136.136 92.2473C136.284 92.2473 136.405 92.1982 136.505 92.0966C136.605 91.9967 136.65 91.8804 136.642 91.7418C136.642 91.622 136.6 91.5109 136.513 91.399L132.991 86.9369L133.036 86.8912L136.072 83.8527C136.155 83.7692 136.195 83.6521 136.195 83.4944C136.195 83.3653 136.149 83.2593 136.055 83.1715C135.958 83.0819 135.847 83.0388 135.715 83.0388C135.56 83.0388 135.433 83.1 135.323 83.2257L130.703 87.9514V83.5737C130.703 83.4255 130.652 83.3015 130.547 83.1956C130.442 83.0897 130.318 83.0388 130.171 83.0388C130.023 83.0388 129.903 83.0897 129.802 83.1947C129.701 83.3007 129.653 83.4238 129.653 83.5737V91.7237C129.653 91.8727 129.701 91.9941 129.802 92.0949C129.903 92.1965 130.024 92.2456 130.172 92.2456C130.319 92.2456 130.443 92.1965 130.549 92.094C130.653 91.9932 130.704 91.8718 130.704 91.7237V89.2235L130.725 89.2019L132.28 87.625L132.279 87.6267Z" fill="#F95D5D"/>
<path d="M138.554 92.0819C138.44 91.9673 138.383 91.8269 138.383 91.659V83.6408C138.383 83.4737 138.44 83.3307 138.554 83.211C138.668 83.0921 138.807 83.0327 138.975 83.0327H144.244C144.402 83.0327 144.534 83.0878 144.644 83.1981C144.754 83.3083 144.809 83.4427 144.809 83.6011C144.809 83.7596 144.754 83.8914 144.644 83.9973C144.534 84.1032 144.401 84.1558 144.244 84.1558H139.579V87.0746H143.77C143.928 87.0746 144.061 87.1297 144.171 87.2399C144.28 87.3502 144.335 87.4845 144.335 87.643C144.335 87.8014 144.28 87.9332 144.171 88.0392C144.061 88.1451 143.928 88.1976 143.77 88.1976H139.579V91.1302H144.244C144.402 91.1302 144.534 91.1853 144.644 91.2955C144.754 91.4058 144.809 91.5401 144.809 91.6986C144.809 91.8571 144.754 91.9888 144.644 92.0948C144.534 92.2007 144.401 92.2532 144.244 92.2532H138.975C138.808 92.2532 138.668 92.1964 138.554 92.0819Z" fill="#F95D5D"/>
<path d="M144.244 92.3257H138.975C138.79 92.3257 138.63 92.2611 138.503 92.1327C138.377 92.0053 138.312 91.8459 138.312 91.6591V83.6408C138.312 83.4548 138.376 83.2938 138.503 83.1611C138.63 83.0276 138.789 82.9604 138.975 82.9604H144.244C144.421 82.9604 144.572 83.0233 144.696 83.1465C144.819 83.2705 144.881 83.4229 144.881 83.6004C144.881 83.7778 144.818 83.9294 144.694 84.0491C144.571 84.1679 144.419 84.2273 144.243 84.2273H139.65V87.0014H143.769C143.946 87.0014 144.098 87.0643 144.221 87.1875C144.344 87.3115 144.406 87.4639 144.406 87.6413C144.406 87.8187 144.344 87.9703 144.22 88.09C144.097 88.2089 143.945 88.2683 143.769 88.2683H139.65V91.0553H144.243C144.42 91.0553 144.571 91.1182 144.695 91.2414C144.818 91.3654 144.88 91.5178 144.88 91.6952C144.88 91.8726 144.817 92.0242 144.693 92.1439C144.57 92.2628 144.418 92.3222 144.242 92.3222L144.244 92.3257ZM138.975 83.106C138.827 83.106 138.707 83.1568 138.606 83.2619C138.505 83.3678 138.456 83.491 138.456 83.6408V91.6591C138.456 91.8081 138.505 91.9295 138.606 92.0302C138.707 92.1319 138.828 92.181 138.976 92.181H144.245C144.384 92.181 144.499 92.1362 144.595 92.0423C144.691 91.9502 144.738 91.8373 144.738 91.6987C144.738 91.56 144.691 91.4437 144.595 91.3473C144.499 91.25 144.384 91.2035 144.245 91.2035H139.508V88.1262H143.771C143.911 88.1262 144.026 88.0814 144.122 87.9876C144.218 87.8954 144.265 87.7826 144.265 87.6439C144.265 87.5053 144.218 87.389 144.122 87.2925C144.026 87.1952 143.911 87.1487 143.772 87.1487H139.508V84.0852H144.246C144.385 84.0852 144.499 84.0405 144.596 83.9466C144.692 83.8544 144.739 83.7416 144.739 83.6029C144.739 83.4643 144.691 83.348 144.595 83.2516C144.499 83.1542 144.385 83.1077 144.246 83.1077H138.976L138.975 83.106Z" fill="#F95D5D"/>
<path d="M149.066 92.1483C148.952 92.0337 148.895 91.8934 148.895 91.7254V84.1568H146.214C146.057 84.1568 145.926 84.1042 145.82 83.9983C145.715 83.8924 145.663 83.7606 145.663 83.6021C145.663 83.4436 145.715 83.3093 145.82 83.1991C145.926 83.0888 146.057 83.0337 146.214 83.0337H152.759C152.916 83.0337 153.049 83.0888 153.16 83.1991C153.269 83.3093 153.323 83.4436 153.323 83.6021C153.323 83.7606 153.269 83.8924 153.16 83.9983C153.05 84.1042 152.916 84.1568 152.759 84.1568H150.091V91.7254C150.091 91.8925 150.032 92.0337 149.914 92.1483C149.796 92.2628 149.653 92.3197 149.487 92.3197C149.32 92.3197 149.18 92.2628 149.066 92.1483Z" fill="#F95D5D"/>
<path d="M149.487 92.3921C149.302 92.3921 149.142 92.3275 149.016 92.1992C148.889 92.0717 148.824 91.9115 148.824 91.7255V84.2292H146.215C146.038 84.2292 145.888 84.1689 145.77 84.0492C145.651 83.9295 145.591 83.7796 145.591 83.6022C145.591 83.4248 145.651 83.2732 145.768 83.1492C145.887 83.0252 146.037 82.9614 146.215 82.9614H152.759C152.935 82.9614 153.087 83.0243 153.211 83.1475C153.333 83.2715 153.396 83.4239 153.396 83.6013C153.396 83.7787 153.333 83.9303 153.21 84.05C153.086 84.1689 152.935 84.2283 152.759 84.2283H150.164V91.7246C150.164 91.9115 150.097 92.0708 149.964 92.1992C149.832 92.3266 149.672 92.3912 149.487 92.3912V92.3921ZM146.215 83.1061C146.076 83.1061 145.964 83.1526 145.873 83.2491C145.78 83.3464 145.735 83.4618 145.735 83.6022C145.735 83.7426 145.779 83.8545 145.871 83.9476C145.963 84.0406 146.075 84.0845 146.215 84.0845H148.968V91.7255C148.968 91.8745 149.016 91.9959 149.117 92.0967C149.218 92.1983 149.339 92.2474 149.487 92.2474C149.634 92.2474 149.758 92.1983 149.864 92.0958C149.968 91.9951 150.019 91.8736 150.019 91.7255V84.0845H152.759C152.898 84.0845 153.013 84.0397 153.11 83.9458C153.205 83.8537 153.252 83.7409 153.252 83.6022C153.252 83.4635 153.205 83.3473 153.109 83.2508C153.012 83.1535 152.898 83.107 152.759 83.107H146.215V83.1061Z" fill="#F95D5D"/>
<path d="M97.7108 155.32C97.7108 155.886 97.2566 156.342 96.6937 156.342H77.7212C77.1582 156.342 76.7041 155.885 76.7041 155.32C76.7041 154.755 77.1582 154.299 77.7212 154.299H96.6937C97.2566 154.299 97.7108 154.757 97.7108 155.32Z" fill="#3473BA"/>
<path d="M137.845 155.32C137.845 155.886 137.391 156.342 136.828 156.342H102.288C101.725 156.342 101.271 155.885 101.271 155.32C101.271 154.755 101.725 154.299 102.288 154.299H136.828C137.391 154.299 137.845 154.757 137.845 155.32Z" fill="#3473BA"/>
<path d="M171.119 155.32C171.119 155.886 170.665 156.342 170.102 156.342H142.421C141.858 156.342 141.404 155.885 141.404 155.32C141.404 154.755 141.858 154.299 142.421 154.299H170.102C170.665 154.299 171.119 154.757 171.119 155.32Z" fill="#3473BA"/>
<path d="M89.8263 161.96C89.8263 162.526 89.3722 162.982 88.8092 162.982H77.7212C77.1582 162.982 76.7041 162.525 76.7041 161.96C76.7041 161.395 77.1582 160.939 77.7212 160.939H88.8092C89.3722 160.939 89.8263 161.397 89.8263 161.96Z" fill="#3473BA"/>
<path d="M148.46 161.96C148.46 162.526 148.006 162.982 147.443 162.982H92.4213C91.8584 162.982 91.4043 162.525 91.4043 161.96C91.4043 161.395 91.8584 160.939 92.4213 160.939H147.443C148.006 160.939 148.46 161.397 148.46 161.96Z" fill="#3473BA"/>
<path d="M162.682 162.683C162.499 162.868 162.244 162.982 161.963 162.982H153.037C152.474 162.982 152.02 162.525 152.02 161.96C152.02 161.395 152.474 160.939 153.037 160.939H161.963C162.871 160.939 163.317 162.045 162.682 162.683Z" fill="#3473BA"/>
<path d="M107.604 168.6C107.604 169.166 107.15 169.622 106.587 169.622H77.7202C77.1572 169.622 76.7031 169.165 76.7031 168.6C76.7031 168.035 77.1572 167.58 77.7202 167.58H106.587C107.15 167.58 107.604 168.037 107.604 168.6Z" fill="#3473BA"/>
<path d="M133.268 168.6C133.268 169.166 132.814 169.622 132.251 169.622H112.181C111.273 169.622 110.827 168.517 111.462 167.878C111.645 167.694 111.9 167.58 112.181 167.58H132.251C132.814 167.58 133.268 168.037 133.268 168.6Z" fill="#3473BA"/>
<path d="M174.455 168.6C174.455 169.166 174.001 169.622 173.438 169.622H137.845C137.282 169.622 136.828 169.165 136.828 168.6C136.828 168.035 137.282 167.58 137.845 167.58H173.438C174.001 167.58 174.455 168.037 174.455 168.6Z" fill="#3473BA"/>
<path d="M195.563 155.32C195.563 155.886 195.109 156.342 194.546 156.342H175.573C175.01 156.342 174.556 155.885 174.556 155.32C174.556 154.755 175.01 154.299 175.573 154.299H194.546C195.109 154.299 195.563 154.757 195.563 155.32Z" fill="#3473BA"/>
<path d="M235.696 155.32C235.696 155.886 235.242 156.342 234.679 156.342H200.139C199.576 156.342 199.122 155.885 199.122 155.32C199.122 154.755 199.576 154.299 200.139 154.299H234.679C235.242 154.299 235.696 154.757 235.696 155.32Z" fill="#3473BA"/>
<path d="M204.667 161.96C204.667 162.526 204.213 162.982 203.65 162.982H166.416C165.854 162.982 165.399 162.525 165.399 161.96C165.399 161.395 165.854 160.939 166.416 160.939H203.65C204.213 160.939 204.667 161.397 204.667 161.96Z" fill="#3473BA"/>
<path d="M235.696 161.96C235.696 162.526 235.242 162.982 234.679 162.982H207.263C206.7 162.982 206.246 162.525 206.246 161.96C206.246 161.395 206.7 160.939 207.263 160.939H234.679C235.242 160.939 235.696 161.397 235.696 161.96Z" fill="#3473BA"/>
<path d="M205.456 168.6C205.456 169.166 205.002 169.622 204.439 169.622H178.91C178.347 169.622 177.893 169.165 177.893 168.6C177.893 168.035 178.347 167.58 178.91 167.58H204.439C205.002 167.58 205.456 168.037 205.456 168.6Z" fill="#3473BA"/>
<path d="M235.696 168.6C235.696 169.166 235.242 169.622 234.679 169.622H210.033C209.47 169.622 209.016 169.165 209.016 168.6C209.016 168.035 209.47 167.58 210.033 167.58H234.679C235.242 167.58 235.696 168.037 235.696 168.6Z" fill="#3473BA"/>
</g>
<path d="M284.495 151.438C284.495 151.438 279.395 152.479 277.925 151.918C276.456 151.358 275.194 150.737 275.079 149.734C274.967 148.731 275.268 146.527 275.819 145.644C276.372 144.761 279.122 145.85 279.545 145.141L279.639 144.076C279.639 144.076 282.226 144.436 283.412 146.572C283.412 146.572 284.229 147.468 285.107 148.055L284.495 151.438Z" fill="#F8A383"/>
<path d="M311.375 155.806L316.332 128.298C313.844 113.745 306.994 117.881 306.994 117.881C303.577 134.614 302.673 148.078 302.673 148.078L283.565 146.014C283.565 146.014 281.314 151.01 284.028 154.007C284.028 154.007 309.052 160.256 311.375 155.806Z" fill="#252C39"/>
<path d="M289.179 158.092L287.967 159.041L273.27 157.76L266.729 137.119L267.941 136.17L283.851 136.501L289.179 158.092Z" fill="#2D4D92"/>
<path d="M287.967 159.042L272.059 158.71L266.729 137.12L282.639 137.451L287.967 159.042Z" fill="#3160AD"/>
<path d="M320.959 273.927C320.959 273.927 316.97 273.632 316.453 273.824L315.936 276.125C315.936 276.125 316.143 276.674 304.256 280.483V281.811L321.993 281.813C321.993 281.813 322.732 281.786 320.959 273.927Z" fill="#110F1A"/>
<path d="M336.363 275.137C336.363 275.137 332.375 274.841 331.86 275.031L331.342 277.335C331.342 277.335 320.186 281.037 318.425 281.766V283.096L337.396 283.021C337.396 283.021 338.136 282.998 336.363 275.137Z" fill="#17172A"/>
<path d="M321.277 254.405C321.29 261.595 320.508 274.689 320.508 274.689C319.399 275.32 316.705 274.689 316.705 274.689C316.352 271.124 315.439 258.642 315.072 254.405H321.277Z" fill="#FAB485"/>
<path d="M310.346 125.038C310.541 123.246 310.797 116.86 311.121 116.41C311.121 116.41 316.809 115.181 317.283 114.166C318.01 112.609 319.048 107.928 319.326 103.337C319.394 102.194 327.625 97.1758 327.625 97.1758C327.625 97.1758 327.454 108.161 329.959 113.127C329.959 113.127 338.415 114.362 340.316 116.264C340.811 116.758 341.206 117.713 341.465 118.974L310.346 125.038Z" fill="#E49479"/>
<path d="M317.618 113.285C318.263 111.341 319.004 107.663 319.282 103.943L326.166 99.2827H327.643C327.676 100.587 327.756 102.375 327.94 104.287C326.436 107.599 322.288 115.444 317.618 113.285Z" fill="#D37A64"/>
<path d="M339.71 165.581L339.012 275.879C339.012 275.879 335.321 276.761 329.33 275.862L325.808 234.322L321.478 195.554L322.452 274.925C322.452 274.925 318.02 275.878 314.423 274.912L311.128 233.892L306.728 166.809C306.728 166.809 318.439 167.745 339.71 165.581Z" fill="#293140"/>
<path d="M330.171 113.137C330.171 113.137 321.268 117.554 320.405 117.432C319.617 117.319 318.028 115.792 316.88 114.122L314.528 115.029L306.379 168.888H306.864C306.864 168.888 317.248 177.132 336.853 168.888L330.171 113.137Z" fill="#C6D8EF"/>
<path d="M319.093 122.348C319.093 122.348 316.193 133.849 315.999 135.685L316.87 144.433L319.092 143.515L320.396 135.685L321.074 123.218L319.093 122.348Z" fill="#C32D32"/>
<path d="M318.414 118.904C318.414 118.904 318.365 122.201 318.897 122.976C318.897 122.976 320.491 123.361 321.072 123.216L322.375 119.367L320.402 117.431L319.766 117.224L318.414 118.904Z" fill="#E7363E"/>
<path d="M320.405 117.432L316.446 123.641L315.721 115.041L316.398 114.169L320.405 117.432Z" fill="#8DB1C3"/>
<path d="M320.404 117.432L324.032 124.511L327.939 114.226C327.939 114.226 323.977 115.665 320.404 117.432Z" fill="#8DB1C3"/>
<path d="M341.382 178.777C341.382 178.777 330.071 180.965 319.101 180.881C318.424 180.878 316.211 176.019 315.665 175.809C315.667 175.849 313.978 179.934 313.978 179.934C311.605 179.824 308.227 176.434 305.86 173.975L306.725 122.023C306.725 122.023 305.617 114.583 311.574 113.66L316.824 112.438C315.721 122.608 316.505 134.431 317.07 148.008C321.518 125.614 329.768 112.573 329.768 112.573C331.607 112.66 342.09 115.111 343.394 117.032C343.394 117.032 342.576 133.121 336.294 150.616C336.294 150.617 341.831 173.69 341.382 178.777Z" fill="#343E4F"/>
<path d="M311.837 90.3175C311.837 90.3175 311.12 95.4743 312.089 100.491C312.661 103.457 315.751 107.76 317.629 108.58C317.629 108.58 318.142 108.873 319.983 108.568C322.249 108.194 326.324 104.8 327.438 100.344C327.438 100.344 329.109 100.623 329.805 98.5352C330.503 96.4433 329.47 93.3673 327.282 95.317C327.282 95.317 327.995 86.2766 323.956 85.7172C319.917 85.1625 312.194 83.785 311.837 90.3175Z" fill="#F8A383"/>
<path d="M328.574 82.6508C333.164 86.1557 331.615 95.7864 329.805 100.797C328.91 103.28 328.319 105.546 328.081 105.506C327.881 103.808 327.414 101.99 327.356 100.638C327.384 100.54 327.413 100.443 327.438 100.345C327.438 100.345 328.356 100.844 329.354 98.3636C330.06 96.6056 329.227 93.4346 327.504 95.3895C327.318 95.6529 327.106 95.9122 326.917 96.027C326.464 96.3061 325.101 93.9899 325.603 92.0379C325.603 92.0379 325.823 89.9006 324.889 87.8088C324.889 87.8088 320.528 90.1541 316.687 90.2986C316.687 90.2986 313.607 90.351 312.066 88.8762L311.694 91.7495C311.694 91.7495 308.557 90.2724 309.321 87.8554C309.321 87.8554 309.531 86.8939 312.436 85.2071C314.772 83.8476 321.616 77.3361 328.574 82.6508Z" fill="#3D1F0F"/>
<path d="M329.058 110.75C329.058 110.75 317.619 130.237 317.072 151.613L327.941 133.217L325.974 130.152L332.49 128.786C332.49 128.786 331.968 115.161 331.475 113.202L330.002 110.971L329.058 110.75Z" fill="#3D4F5D"/>
<path d="M317.964 112.11C317.964 112.11 315.795 134.61 317.619 148.816L317.426 151.01C317.426 151.01 315.022 145.819 313.559 134.899L314.804 131.182L311.584 127.94C311.584 127.94 314.432 117.185 315.391 114.348L316.827 112.437L317.964 112.11Z" fill="#3D4F5D"/>
<path d="M293.051 150.669C293.051 150.669 288.585 153.343 287.012 153.301C285.44 153.261 284.042 153.092 283.603 152.184C283.165 151.275 282.717 149.095 282.946 148.081C283.176 147.064 286.13 147.178 286.293 146.369L286.03 145.335C286.03 145.335 288.59 144.816 290.416 146.439C290.416 146.439 291.485 147.014 292.507 147.278L293.051 150.669Z" fill="#F8A383"/>
<path d="M323.502 152.331L342.286 130.904C348.955 116.112 340.546 115.363 340.546 115.363C329.034 127.977 316.9 144.077 316.9 144.077L291.886 145.219C291.886 145.219 289.889 148.633 292.556 152.463C292.556 152.463 320.048 155.731 323.502 152.331Z" fill="#384958"/>
<defs>
<clipPath id="clip0_447_1918">
<rect width="368.432" height="284" fill="white"/>
</clipPath>
</defs>
</svg>
