<svg width="500" height="373" viewBox="0 0 500 373" fill="none" xmlns="http://www.w3.org/2000/svg">
<path d="M449.9 343.49H416.78V343.74H449.9V343.49Z" fill="#EBEBEB"/>
<path d="M331.22 346.21H322.53V346.46H331.22V346.21Z" fill="#EBEBEB"/>
<path d="M415.78 334.21H396.59V334.46H415.78V334.21Z" fill="#EBEBEB"/>
<path d="M95.65 335.89H52.46V336.14H95.65V335.89Z" fill="#EBEBEB"/>
<path d="M110.89 335.89H104.56V336.14H110.89V335.89Z" fill="#EBEBEB"/>
<path d="M225.15 340.11H131.47V340.36H225.15V340.11Z" fill="#EBEBEB"/>
<path d="M238.4 282.8H45.2998C43.7855 282.8 42.3331 282.198 41.2623 281.128C40.1914 280.057 39.5898 278.604 39.5898 277.09V5.66C39.603 4.15429 40.2104 2.71475 41.2798 1.65471C42.3492 0.594662 43.7941 -5.77259e-05 45.2998 4.20255e-09H238.4C239.15 4.20255e-09 239.892 0.147692 240.585 0.434647C241.278 0.721601 241.907 1.1422 242.437 1.67242C242.968 2.20264 243.388 2.83211 243.675 3.52488C243.962 4.21765 244.11 4.96015 244.11 5.71V277.09C244.11 277.84 243.962 278.582 243.675 279.275C243.388 279.968 242.968 280.597 242.437 281.128C241.907 281.658 241.278 282.078 240.585 282.365C239.892 282.652 239.15 282.8 238.4 282.8ZM45.2998 0.200001C43.8526 0.202644 42.4653 0.77874 41.442 1.80212C40.4186 2.82549 39.8425 4.21273 39.8398 5.66V277.09C39.8425 278.537 40.4186 279.924 41.442 280.948C42.4653 281.971 43.8526 282.547 45.2998 282.55H238.4C239.847 282.547 241.234 281.971 242.258 280.948C243.281 279.924 243.857 278.537 243.86 277.09V5.66C243.857 4.21273 243.281 2.82549 242.258 1.80212C241.234 0.77874 239.847 0.202644 238.4 0.200001H45.2998Z" fill="#EBEBEB"/>
<path d="M454.7 282.8H261.6C260.086 282.8 258.633 282.198 257.563 281.128C256.492 280.057 255.89 278.604 255.89 277.09V5.66C255.903 4.15429 256.511 2.71475 257.58 1.65471C258.65 0.594662 260.094 -5.77259e-05 261.6 4.20255e-09H454.7C456.215 4.20256e-09 457.667 0.601588 458.738 1.67242C459.809 2.74325 460.41 4.19561 460.41 5.71V277.09C460.41 278.604 459.809 280.057 458.738 281.128C457.667 282.198 456.215 282.8 454.7 282.8ZM261.6 0.200001C260.153 0.202644 258.766 0.77874 257.742 1.80212C256.719 2.82549 256.143 4.21273 256.14 5.66V277.09C256.143 278.537 256.719 279.924 257.742 280.948C258.766 281.971 260.153 282.547 261.6 282.55H454.7C456.147 282.547 457.535 281.971 458.558 280.948C459.581 279.924 460.158 278.537 460.16 277.09V5.66C460.158 4.21273 459.581 2.82549 458.558 1.80212C457.535 0.77874 456.147 0.202644 454.7 0.200001H261.6Z" fill="#EBEBEB"/>
<path d="M500 327.4H0V327.65H500V327.4Z" fill="#EBEBEB"/>
<path d="M103.33 212.15L83.0601 205.88L105.7 207.08C100.7 198.44 98.5101 194.19 94.5801 185.9C100.24 192.35 103.2 195.63 109.38 202.27C110.995 192.678 113.356 183.226 116.44 174C114.94 182.215 114.29 190.562 114.5 198.91L114.92 198.99C121.638 191.337 128.929 184.206 136.73 177.66C129.299 185.649 122.683 194.359 116.98 203.66C125.42 200.48 133.92 197.45 142.48 194.57C133.9 199.27 125.48 204.09 117.16 209.17L138.16 215.85L116.48 214.54C121.05 219.88 123.42 222.54 128.34 228C122.24 224 119.23 222 113.28 218C113.946 223.575 114.948 229.105 116.28 234.56C113.28 227.8 112.01 224.44 109.72 217.8C105.47 238.16 106.57 257.9 110.72 278.14L105.62 277.21C102.619 257.329 103.43 237.058 108.01 217.48C102.87 222.78 100.47 225.48 96.0101 230.89C98.583 225.899 101.458 221.07 104.62 216.43C97.3201 218.03 93.7001 218.84 86.5501 220.43C93.0001 217.08 96.4101 215.42 103.33 212.15Z" fill="#EBEBEB"/>
<path d="M96.1399 219.18L114.89 209.24L92.8899 214.64C96.1499 205.23 97.5399 200.64 99.8899 191.76C95.5399 199.16 93.2399 202.93 88.3999 210.61C85.0288 201.477 80.9463 192.624 76.1899 184.13C79.1926 191.921 81.3874 200 82.7399 208.24L82.3399 208.39C74.3081 202.135 65.8175 196.492 56.9399 191.51C65.733 197.968 73.857 205.292 81.1899 213.37C72.2766 211.79 63.3466 210.4 54.3999 209.2C63.7099 212.2 72.8299 215.39 81.9899 218.82L62.6399 229.29L83.6399 223.96C80.1599 230.06 78.3299 233.15 74.5099 239.4C79.7499 234.31 82.3299 231.78 87.4299 226.74C87.8244 232.341 87.8779 237.962 87.5899 243.57C89.2399 236.37 89.8999 232.82 90.9099 225.88C98.9099 245.09 101.49 264.68 101.22 285.33L106.06 283.48C105.302 263.385 100.72 243.619 92.5599 225.24C98.5599 229.49 101.46 231.68 106.85 236.18C103.39 231.753 99.6599 227.545 95.6799 223.58C103.16 223.79 106.86 223.91 114.19 224.17C107.17 222.11 103.55 221.11 96.1399 219.18Z" fill="#E6E6E6"/>
<path d="M114.48 230.34L100.81 223.09L116.81 227.03C114.43 220.17 113.42 216.82 111.73 210.35C114.9 215.74 116.58 218.49 120.11 224.09C122.564 217.433 125.54 210.979 129.01 204.79C126.816 210.466 125.214 216.354 124.23 222.36L124.52 222.48C130.375 217.917 136.566 213.802 143.04 210.17C136.631 214.878 130.708 220.214 125.36 226.1C131.84 224.973 138.34 223.973 144.86 223.1C138.07 225.29 131.42 227.6 124.74 230.1L138.85 237.73L123.5 233.84C126.04 238.29 127.37 240.55 130.16 245.1C126.34 241.39 124.46 239.54 120.74 235.87C120.454 239.954 120.414 244.051 120.62 248.14C119.42 242.89 118.94 240.31 118.21 235.24C112.39 249.24 110.49 263.53 110.69 278.58L107.16 277.23C107.716 262.584 111.055 248.177 117 234.78C113.397 237.269 109.923 239.939 106.59 242.78C109.11 239.554 111.825 236.485 114.72 233.59C109.28 233.75 106.58 233.83 101.23 234.03C106.44 232.47 109.08 231.74 114.48 230.34Z" fill="#E6E6E6"/>
<path d="M119.78 327.4H86.8301L83.6001 274.92H123L119.78 327.4Z" fill="#E0E0E0"/>
<path d="M125.55 277.62H80.7199L79.9199 270.64H126.36L125.55 277.62Z" fill="#F5F5F5"/>
<path d="M108.68 46.3899H71.6099V94.5399H108.68V46.3899Z" fill="#F5F5F5"/>
<path d="M105.82 50.0901H74.46V90.8401H105.82V50.0901Z" fill="#EBEBEB"/>
<path d="M103.87 52.6399H76.4302V88.2899H103.87V52.6399Z" fill="#FAFAFA"/>
<path d="M142.89 101.01H105.82V132.6H142.89V101.01Z" fill="#EBEBEB"/>
<path d="M140.04 103.44H108.68V130.17H140.04V103.44Z" fill="#F5F5F5"/>
<path d="M138.08 105.11H110.64V128.5H138.08V105.11Z" fill="#FAFAFA"/>
<path d="M148.18 91.8201V66.3301H115.06V91.8201H148.18Z" fill="#E6E6E6"/>
<path d="M145.64 89.86V68.29H117.62V89.86H145.64Z" fill="#F0F0F0"/>
<path d="M143.88 88.5099V69.6399H119.37V88.5099H143.88Z" fill="#EBEBEB"/>
<path d="M409.18 275.83H434.43C436.609 275.83 438.698 274.965 440.239 273.426C441.78 271.887 442.648 269.798 442.65 267.62V230.7C442.65 230.302 442.492 229.921 442.211 229.639C441.93 229.358 441.548 229.2 441.15 229.2C440.752 229.2 440.371 229.358 440.09 229.639C439.808 229.921 439.65 230.302 439.65 230.7V267.62C439.648 269.003 439.096 270.328 438.118 271.305C437.139 272.281 435.813 272.83 434.43 272.83H409.18V275.83Z" fill="#E0E0E0"/>
<path d="M402 311.21V276.83L400 276.2C398.895 275.851 397.929 275.159 397.244 274.224C396.559 273.289 396.19 272.159 396.19 271H415.24C415.238 272.16 414.867 273.29 414.18 274.225C413.494 275.16 412.527 275.852 411.42 276.2L409.42 276.83V311.21L425.26 318.33V321.33L405.73 314.5L386.2 321.33V318.33L402 311.21Z" fill="#E0E0E0"/>
<path d="M380.75 272.83H430.56C431.27 272.83 431.973 272.69 432.629 272.418C433.284 272.146 433.88 271.747 434.382 271.245C434.883 270.742 435.281 270.146 435.552 269.49C435.822 268.833 435.961 268.13 435.96 267.42C435.96 265.988 435.391 264.614 434.378 263.602C433.366 262.589 431.992 262.02 430.56 262.02H380.75C379.317 262.02 377.942 262.589 376.928 263.601C375.914 264.613 375.342 265.987 375.34 267.42C375.34 268.13 375.48 268.834 375.752 269.49C376.024 270.147 376.422 270.743 376.924 271.245C377.427 271.748 378.023 272.146 378.68 272.418C379.336 272.69 380.039 272.83 380.75 272.83Z" fill="#F0F0F0"/>
<path d="M439.35 243.69L442 205.25C442.096 203.824 441.624 202.418 440.688 201.339C439.751 200.26 438.425 199.595 437 199.49C435.572 199.388 434.162 199.858 433.08 200.795C431.998 201.733 431.332 203.062 431.23 204.49L428.55 242.93C428.448 244.358 428.918 245.768 429.855 246.85C430.793 247.932 432.122 248.598 433.55 248.7C434.26 248.753 434.973 248.666 435.65 248.442C436.326 248.219 436.951 247.865 437.49 247.399C438.029 246.934 438.47 246.366 438.79 245.73C439.109 245.093 439.299 244.4 439.35 243.69Z" fill="#EBEBEB"/>
<path d="M421.77 323.44C421.77 324.117 421.971 324.779 422.347 325.341C422.723 325.904 423.258 326.342 423.884 326.601C424.509 326.859 425.197 326.926 425.861 326.794C426.525 326.661 427.134 326.334 427.612 325.855C428.09 325.375 428.415 324.765 428.546 324.101C428.676 323.437 428.607 322.749 428.347 322.124C428.086 321.5 427.647 320.966 427.083 320.592C426.519 320.217 425.857 320.018 425.18 320.02C424.731 320.02 424.287 320.109 423.873 320.281C423.458 320.453 423.082 320.705 422.765 321.022C422.448 321.34 422.198 321.717 422.027 322.132C421.856 322.547 421.769 322.991 421.77 323.44Z" fill="#E0E0E0"/>
<path d="M382.71 323.44C382.71 324.117 382.911 324.779 383.287 325.341C383.663 325.904 384.198 326.342 384.824 326.601C385.449 326.859 386.137 326.926 386.801 326.794C387.465 326.661 388.074 326.334 388.552 325.855C389.03 325.375 389.355 324.765 389.485 324.101C389.616 323.437 389.547 322.749 389.287 322.124C389.026 321.5 388.586 320.966 388.023 320.592C387.459 320.217 386.797 320.018 386.12 320.02C385.671 320.02 385.227 320.109 384.813 320.281C384.398 320.453 384.022 320.705 383.705 321.022C383.388 321.34 383.137 321.717 382.967 322.132C382.796 322.547 382.709 322.991 382.71 323.44Z" fill="#E0E0E0"/>
<path d="M301.87 327.98H321.38L323.38 291H299.87L301.87 327.98Z" fill="#EBEBEB"/>
<path d="M316.88 327.98H324.88V326.33L316.88 325.33V327.98Z" fill="#E0E0E0"/>
<path d="M323.38 291H299.87C299.87 290.204 300.186 289.441 300.749 288.879C301.311 288.316 302.074 288 302.87 288H320.41C321.206 288 321.969 288.316 322.531 288.879C323.094 289.441 323.41 290.204 323.41 291H323.38Z" fill="#E0E0E0"/>
<path d="M341.88 232.07H373.09V228.33L341.88 226.33V232.07Z" fill="#E0E0E0"/>
<path d="M295.71 248.67H388.04V235.89H295.71V248.67Z" fill="#F0F0F0"/>
<path d="M276.57 239.7L406.85 239.7V232.08L276.57 232.08V239.7Z" fill="#FAFAFA"/>
<path d="M288.67 327.98H282.79L292.97 239.69H299.87L288.67 327.98Z" fill="#E6E6E6"/>
<path d="M383.55 239.69H390.45L400.64 327.98H394.75L383.55 239.69Z" fill="#E6E6E6"/>
<path d="M310.26 230.17C312.927 216.93 315.594 203.683 318.26 190.43C318.64 188.54 321.54 189.34 321.16 191.23L313.54 229.07H330C330.398 229.07 330.78 229.228 331.061 229.509C331.342 229.791 331.5 230.172 331.5 230.57C331.5 230.968 331.342 231.349 331.061 231.631C330.78 231.912 330.398 232.07 330 232.07H311.71C311.48 232.067 311.254 232.011 311.048 231.908C310.843 231.804 310.663 231.655 310.524 231.472C310.384 231.289 310.288 231.077 310.242 230.851C310.196 230.626 310.203 230.393 310.26 230.17Z" fill="#E0E0E0"/>
<path d="M328.94 219.51L323.8 146C321.902 147.355 320.383 149.174 319.39 151.284C318.398 153.394 317.964 155.724 318.13 158.05L321.64 208.33C321.795 210.663 322.547 212.918 323.826 214.876C325.104 216.834 326.866 218.43 328.94 219.51Z" fill="#FAFAFA"/>
<path d="M250 372.01C357.083 372.01 443.89 366.942 443.89 360.69C443.89 354.438 357.083 349.37 250 349.37C142.918 349.37 56.1104 354.438 56.1104 360.69C56.1104 366.942 142.918 372.01 250 372.01Z" fill="#F5F5F5"/>
<path d="M431.18 31.1899H227.95V251.57H431.18V31.1899Z" fill="white"/>
<path d="M429.06 35V251.36H229.83V35H429.06ZM431.06 33H227.83V253.36H431.06V33Z" fill="#F26639"/>
<path d="M271.69 259.37H281.35" stroke="#3473BA" stroke-linecap="round" stroke-linejoin="round"/>
<path d="M263.83 259.37H268.44" stroke="#3473BA" stroke-linecap="round" stroke-linejoin="round"/>
<path d="M227.83 259.37H259.51" stroke="#3473BA" stroke-linecap="round" stroke-linejoin="round"/>
<path d="M390.34 18.98H385.74" stroke="#3473BA" stroke-linecap="round" stroke-linejoin="round"/>
<path d="M426.34 18.98H394.66" stroke="#3473BA" stroke-linecap="round" stroke-linejoin="round"/>
<path d="M232.83 24.78H426.07C427.396 24.78 428.668 25.3068 429.606 26.2445C430.543 27.1822 431.07 28.4539 431.07 29.78V43.56H227.83V29.78C227.83 28.4539 228.357 27.1822 229.295 26.2445C230.232 25.3068 231.504 24.78 232.83 24.78Z" fill="#F26639"/>
<path d="M386.8 36.3201H380.22V37.3201H386.8V36.3201Z" fill="white"/>
<path d="M418.101 31.5297L417.394 32.2368L422.047 36.8896L422.754 36.1825L418.101 31.5297Z" fill="white"/>
<path d="M422.03 31.5025L417.377 36.1553L418.084 36.8624L422.737 32.2096L422.03 31.5025Z" fill="white"/>
<path d="M404.91 31.499L399.946 36.4629L400.653 37.17L405.617 32.2061L404.91 31.499Z" fill="white"/>
<path d="M401.71 37.6099H399.51V35.4099L401.71 37.6099Z" fill="white"/>
<path d="M403.68 31.24H405.88V33.44L403.68 31.24Z" fill="white"/>
<path d="M422.57 56.01H236.55V57.01H422.57V56.01Z" fill="#E0E0E0"/>
<path d="M422.57 69.22H236.55V70.22H422.57V69.22Z" fill="#E0E0E0"/>
<path d="M422.02 231.07H382.24C381.555 231.07 381 231.625 381 232.31V244.89C381 245.575 381.555 246.13 382.24 246.13H422.02C422.705 246.13 423.26 245.575 423.26 244.89V232.31C423.26 231.625 422.705 231.07 422.02 231.07Z" fill="#F26639"/>
<path d="M310.79 61.1299H236.34V65.1199H310.79V61.1299Z" fill="#263238"/>
<path d="M310.79 61.1299H236.34V65.1199H310.79V61.1299Z" fill="#E0E0E0"/>
<path d="M265.94 74.8999H236.34V78.8899H265.94V74.8999Z" fill="#E0E0E0"/>
<path d="M409 90.53H278.32V94.52H409V90.53Z" fill="#E0E0E0"/>
<path d="M409 97.23H248.44V101.22H409V97.23Z" fill="#E0E0E0"/>
<path d="M296.07 103.93H248.44V107.92H296.07V103.93Z" fill="#E0E0E0"/>
<path d="M256.51 48.05H236.34V52.04H256.51V48.05Z" fill="#263238"/>
<path d="M256.51 48.05H236.34V52.04H256.51V48.05Z" fill="#E0E0E0"/>
<path d="M290.15 237.88H283.44V244.59H290.15V237.88Z" fill="#263238"/>
<path d="M299.55 237.88H292.84V244.59H299.55V237.88Z" fill="#263238"/>
<path d="M308.95 237.88H302.24V244.59H308.95V237.88Z" fill="#263238"/>
<path d="M318.36 237.88H311.65V244.59H318.36V237.88Z" fill="#263238"/>
<path d="M327.76 237.88H321.05V244.59H327.76V237.88Z" fill="#263238"/>
<path d="M337.16 237.88H330.45V244.59H337.16V237.88Z" fill="#263238"/>
<path d="M346.56 237.88H339.85V244.59H346.56V237.88Z" fill="#263238"/>
<path d="M355.96 237.88H349.25V244.59H355.96V237.88Z" fill="#263238"/>
<path opacity="0.5" d="M290.15 237.88H283.44V244.59H290.15V237.88Z" fill="white"/>
<path opacity="0.5" d="M299.55 237.88H292.84V244.59H299.55V237.88Z" fill="white"/>
<path opacity="0.5" d="M308.95 237.88H302.24V244.59H308.95V237.88Z" fill="white"/>
<path opacity="0.5" d="M318.36 237.88H311.65V244.59H318.36V237.88Z" fill="white"/>
<path opacity="0.5" d="M327.76 237.88H321.05V244.59H327.76V237.88Z" fill="white"/>
<path opacity="0.5" d="M337.16 237.88H330.45V244.59H337.16V237.88Z" fill="white"/>
<path opacity="0.5" d="M346.56 237.88H339.85V244.59H346.56V237.88Z" fill="white"/>
<path opacity="0.5" d="M355.96 237.88H349.25V244.59H355.96V237.88Z" fill="white"/>
<path d="M239.56 169C239.56 169 222.12 170.9 214.21 169.3C206.3 167.7 198.79 154.57 198.79 154.57L207.32 149.08L217 161.59L239.17 163.59L245.17 158.68L251.48 160.2C251.48 160.2 251.62 168.05 248.93 168.47C246.24 168.89 239.56 169 239.56 169Z" fill="#FFC3BD"/>
<path d="M196.62 135.16C196.62 135.16 201.87 135.04 207.45 143.87C208.729 145.823 209.785 147.913 210.6 150.1C211.35 152.1 207.54 154.47 204.8 156.24C202.67 157.61 200.41 159.08 199.08 158.87C197.999 157.472 197.105 155.939 196.42 154.31C194.11 148.81 191.69 134.93 196.62 135.16Z" fill="#3473BA"/>
<path opacity="0.2" d="M195.43 151.8L197.84 145.88L199.6 144.45C199.6 144.45 203.4 151.75 203.12 157.37C200.12 159.18 198.37 158.98 196.42 154.31C196.12 153.6 195.78 152.75 195.43 151.8Z" fill="black"/>
<path d="M200 136.25C200 136.25 199.82 144.34 199.32 148.46C198.7 153.63 197.27 158.06 193.14 165.46C188.21 174.31 182.7 184.31 182.7 184.31L151.05 171.2C154.36 163.204 157.195 155.02 159.54 146.69C160.589 142.979 161.321 139.185 161.73 135.35C161.86 133.404 162.261 131.486 162.92 129.65C165.43 123.21 171.1 123.37 176.76 125.17C176.75 125.293 176.75 125.417 176.76 125.54C176.88 130.17 182.24 138.06 183.76 138.65C185.65 139.4 191.55 136.16 191.62 131.76C191.625 131.67 191.625 131.58 191.62 131.49C195.1 133.18 200 136.25 200 136.25Z" fill="#3473BA"/>
<path opacity="0.9" d="M180.47 124.36L174.02 124.6L169.92 131.71L175.88 132.65L183.06 140.34L192.63 138.36L196.91 139.4L195.46 132.75L188.63 127.61L180.47 124.36Z" fill="white"/>
<path d="M191.63 131.77C191.56 136.17 185.63 139.41 183.77 138.66C182.26 138.07 176.9 130.18 176.77 125.55C177.361 125.63 177.963 125.567 178.525 125.367C179.086 125.167 179.592 124.836 180 124.4C182.66 121.24 184.31 115.55 185.05 111.97L190.25 122.42C189.579 123.304 189.118 124.328 188.902 125.416C188.685 126.504 188.719 127.627 189 128.7C189.06 128.78 189.26 130.28 191.63 131.77Z" fill="#FFC3BD"/>
<path opacity="0.1" d="M189 119.86L190.27 122.42C189.497 123.495 189.005 124.746 188.84 126.06C185.64 122.76 184.92 117.12 184.92 117.12L189 119.86Z" fill="black"/>
<path opacity="0.2" d="M168.94 132.67C166.412 137.711 163.261 142.415 159.56 146.67C160.608 142.959 161.341 139.165 161.75 135.33C161.88 133.384 162.281 131.466 162.94 129.63L166.2 128.86L168.94 132.67Z" fill="black"/>
<path d="M152 131.38C152 131.38 141.71 139.49 138.61 142.56C133.99 147.13 121.72 162.31 121.72 162.31L113.92 167.31L114.26 172.43L118.26 174.82C118.554 174.996 118.881 175.111 119.22 175.159C119.559 175.208 119.904 175.188 120.235 175.101C120.567 175.015 120.878 174.863 121.15 174.655C121.422 174.447 121.65 174.187 121.82 173.89L126.24 166.22C126.24 166.22 137.62 154.31 141.87 150.85C145.46 147.92 157.26 140.53 157.26 140.53L152 131.38Z" fill="#FFC3BD"/>
<path d="M171 124.11C171 124.11 164.36 120.97 158.64 124.5C152.92 128.03 149.64 128.71 151.27 133.66C152.44 137.29 156.93 144.53 156.93 144.53C160.71 143 173.7 129.18 171 124.11Z" fill="#3473BA"/>
<path d="M154.67 336.36C154.85 343.16 155.01 348.54 155.01 348.54L162.6 348.89C162.6 348.89 163.01 344.26 163.6 337.16L154.67 336.36Z" fill="#FFC3BD"/>
<path d="M164.69 347.81C164.648 347.803 164.609 347.784 164.577 347.755C164.546 347.727 164.522 347.691 164.51 347.65C164.506 347.608 164.515 347.566 164.534 347.529C164.554 347.492 164.584 347.461 164.62 347.44C164.76 347.37 167.93 345.69 169.44 346.06C169.716 346.117 169.959 346.278 170.12 346.51C170.215 346.631 170.267 346.781 170.267 346.935C170.267 347.089 170.215 347.239 170.12 347.36C169.331 347.878 168.389 348.111 167.45 348.02C166.526 348.02 165.603 347.95 164.69 347.81ZM165.38 347.54C167.07 347.71 169.38 347.68 169.78 347.14C169.84 347.07 169.9 346.95 169.78 346.71C169.736 346.636 169.675 346.572 169.602 346.526C169.529 346.479 169.446 346.449 169.36 346.44C169.227 346.404 169.088 346.387 168.95 346.39C167.702 346.563 166.494 346.952 165.38 347.54Z" fill="#3473BA"/>
<path d="M164.57 347.8C164.54 347.782 164.515 347.755 164.5 347.723C164.484 347.691 164.477 347.655 164.48 347.62C164.48 347.52 164.74 345.28 165.89 344.4C166.233 344.14 166.662 344.018 167.09 344.06C167.68 344.11 167.87 344.38 167.89 344.6C168.08 345.53 165.89 347.35 164.81 347.8H164.72C164.671 347.815 164.619 347.815 164.57 347.8ZM166.95 344.43C166.68 344.429 166.416 344.516 166.2 344.68C165.534 345.382 165.11 346.279 164.99 347.24C166.12 346.62 167.55 345.24 167.5 344.64C167.5 344.59 167.5 344.45 167.07 344.42L166.95 344.43Z" fill="#3473BA"/>
<path d="M163.76 346.66L154.76 346.59C154.584 346.586 154.412 346.641 154.27 346.746C154.129 346.851 154.027 347 153.98 347.17L152.17 354.54C152.134 354.701 152.132 354.867 152.163 355.029C152.195 355.191 152.26 355.344 152.354 355.48C152.448 355.615 152.569 355.73 152.709 355.816C152.85 355.902 153.007 355.958 153.17 355.98C153.263 355.99 153.357 355.99 153.45 355.98C157.02 355.89 159.33 355.84 163.77 355.81C169.02 355.81 167.68 356.34 173.85 356.37C177.57 356.37 178.25 352.51 176.68 352.37C169.43 351.61 164.54 346.62 163.76 346.66Z" fill="#263238"/>
<path d="M148.44 176.13L150.44 171.13C150.57 170.49 150.86 170.13 151.44 170.34L183.07 183.7C183.65 183.94 183.73 184.24 183.41 184.78L181.69 190.58C181.69 190.58 177.4 245.37 175.31 263.58C173.18 282.19 164.82 337.99 164.82 337.99C164.795 338.187 164.695 338.367 164.54 338.492C164.386 338.617 164.188 338.677 163.99 338.66L154.54 337.77C154.362 337.756 154.194 337.679 154.068 337.553C153.941 337.426 153.864 337.258 153.85 337.08C153.42 332.4 151.49 302.77 153.06 281.61C153.62 274.05 155.74 267.88 156.31 263.7C156.95 259.08 155.31 256.13 153.96 245.21C151.47 224.71 148 192.27 148.44 176.13Z" fill="#3473BA"/>
<path opacity="0.7" d="M148.44 176.13L150.44 171.13C150.57 170.49 150.86 170.13 151.44 170.34L183.07 183.7C183.65 183.94 183.73 184.24 183.41 184.78L181.69 190.58C181.69 190.58 177.4 245.37 175.31 263.58C173.18 282.19 164.82 337.99 164.82 337.99C164.795 338.187 164.695 338.367 164.54 338.492C164.386 338.617 164.188 338.677 163.99 338.66L154.54 337.77C154.362 337.756 154.194 337.679 154.068 337.553C153.941 337.426 153.864 337.258 153.85 337.08C153.42 332.4 151.49 302.77 153.06 281.61C153.62 274.05 155.74 267.88 156.31 263.7C156.95 259.08 155.31 256.13 153.96 245.21C151.47 224.71 148 192.27 148.44 176.13Z" fill="black"/>
<path opacity="0.5" d="M154 245.27C153.18 238.39 152.23 230.19 151.36 221.71L159.61 205.39L163.13 195.84L167.41 200.91C167.41 200.91 162.41 230.55 154.59 249.5C154.34 248.23 154.14 246.84 154 245.27Z" fill="black"/>
<path d="M87.7302 314.83C84.2002 320.64 81.9102 324.45 81.9102 324.45L88.1002 328.85C88.1002 328.85 90.9501 325.18 95.3102 319.54L87.7302 314.83Z" fill="#FFC3BD"/>
<path d="M90.7403 327.62C90.7182 327.584 90.7065 327.543 90.7065 327.5C90.7065 327.458 90.7182 327.416 90.7403 327.38C90.7583 327.34 90.7879 327.306 90.8254 327.283C90.8628 327.26 90.9063 327.248 90.9503 327.25C91.1103 327.25 94.7103 327.43 95.7603 328.59C95.9572 328.802 96.0647 329.081 96.0603 329.37C96.0696 329.536 96.0276 329.701 95.9399 329.842C95.8523 329.984 95.7232 330.095 95.5703 330.16C95.0003 330.37 93.9203 329.92 92.9703 329.32C92.1792 328.819 91.433 328.25 90.7403 327.62ZM91.4803 327.75C92.7803 328.83 94.7003 330.04 95.3603 329.75C95.4503 329.75 95.5703 329.64 95.5803 329.33C95.5856 329.243 95.5713 329.155 95.5384 329.074C95.5055 328.992 95.4549 328.919 95.3903 328.86C95.2984 328.754 95.1904 328.663 95.0703 328.59C93.9369 328.088 92.7191 327.803 91.4803 327.75Z" fill="#3473BA"/>
<path d="M90.6504 327.55C90.6309 327.519 90.6206 327.482 90.6206 327.445C90.6206 327.408 90.6309 327.372 90.6504 327.34C90.7204 327.25 92.2204 325.34 93.6504 325.15C93.8614 325.125 94.0753 325.142 94.2796 325.2C94.4839 325.259 94.6745 325.357 94.8404 325.49C95.3104 325.85 95.3004 326.2 95.1904 326.42C94.8104 327.37 91.9304 327.85 90.7704 327.68C90.744 327.686 90.7168 327.686 90.6904 327.68C90.6662 327.641 90.6524 327.596 90.6504 327.55ZM94.5904 325.75C94.3635 325.6 94.0892 325.54 93.8204 325.58C92.8378 325.872 91.9686 326.458 91.3304 327.26C92.6204 327.26 94.6404 326.78 94.9204 326.26C94.9204 326.2 95.0004 326.06 94.6904 325.83L94.5904 325.77V325.75Z" fill="#3473BA"/>
<path d="M90.1002 325.83L83.5602 321.57C83.4078 321.468 83.2247 321.422 83.0423 321.441C82.8598 321.459 82.6894 321.54 82.5602 321.67L76.7602 327.45C76.5147 327.697 76.377 328.032 76.377 328.38C76.377 328.729 76.5147 329.063 76.7602 329.31C76.8229 329.378 76.8934 329.439 76.9702 329.49C79.9702 331.34 80.9702 331.85 84.7202 334.22C89.1002 337.02 87.6502 336.84 92.7202 340.22C95.8002 342.22 98.6202 339.08 97.4202 338.06C91.9202 333.44 90.7702 326.22 90.1002 325.83Z" fill="#263238"/>
<path d="M172.83 187.63C172.83 187.63 152.08 245.93 141.61 263.63C132.32 279.31 95.7403 320.32 95.7403 320.32C95.4711 320.653 95.0835 320.869 94.6586 320.924C94.2337 320.978 93.8043 320.865 93.4603 320.61L87.7203 316.36C87.4019 316.126 87.1777 315.785 87.0879 315.401C86.998 315.016 87.0485 314.611 87.2303 314.26C90.2303 308.6 102.74 285.03 114.08 269.48C118.6 263.28 123.08 258.66 125.15 255.27C127.93 250.79 126.98 247.41 128.61 235.38C131.61 213.02 138.24 179.98 151.25 173.88L172.83 187.63Z" fill="#3473BA"/>
<path opacity="0.7" d="M172.83 187.63C172.83 187.63 152.08 245.93 141.61 263.63C132.32 279.31 96.1302 320.56 96.1302 320.56C95.8628 320.893 95.4769 321.109 95.0537 321.163C94.6304 321.217 94.2027 321.105 93.8602 320.85L87.3502 316.09C87.1331 315.933 86.9801 315.703 86.9194 315.442C86.8588 315.181 86.8946 314.907 87.0202 314.67C89.5402 309.83 102.44 285.44 114.08 269.48C118.6 263.28 123.08 258.66 125.15 255.27C127.93 250.79 126.98 247.41 128.61 235.38C131.61 213.02 138.24 179.98 151.25 173.88L172.83 187.63Z" fill="black"/>
<path d="M197.2 94.2001C197.63 97.0201 200.98 98.5701 202.53 101.77C202.53 101.77 206.95 97.9601 203.85 95.0901C200.75 92.2201 196.54 89.7801 197.2 94.2001Z" fill="#263238"/>
<path d="M202.61 97.4901C206.01 98.9101 207.76 105.62 203.61 108.11C203.67 108.47 203.92 108.7 204.14 108.57C208.87 105.84 207.14 97.2801 202.98 94.3201L202.61 97.4901Z" fill="#263238"/>
<path d="M194.47 100.2C191.28 103.309 189.438 107.547 189.34 112C189.27 116.39 187.2 119.29 190.25 122.45C200.81 125.28 200.89 126.57 202.41 127.27C203.09 125.13 203.28 118.99 200.53 116.9C198.53 115.37 196.62 113.68 196 111.23C195.173 107.966 194.889 104.587 195.16 101.23L194.47 100.2Z" fill="#263238"/>
<path d="M182.06 105.26C182.68 112.9 182.77 116.14 186.74 120C192.66 125.79 201.93 123.38 203.57 115.71C205.09 108.82 203.83 97.5102 196.27 94.5902C194.994 94.0885 193.631 93.8434 192.26 93.869C190.889 93.8946 189.536 94.1903 188.279 94.7392C187.023 95.2882 185.887 96.0796 184.936 97.0681C183.986 98.0567 183.239 99.2229 182.74 100.5C182.141 102.011 181.908 103.642 182.06 105.26Z" fill="#FFC3BD"/>
<path d="M199.29 108.05C199.8 109.475 200.506 110.822 201.39 112.05C201.066 112.267 200.699 112.411 200.314 112.471C199.929 112.532 199.535 112.507 199.16 112.4L199.29 108.05Z" fill="#ED893E"/>
<path d="M196.65 115.87C196.947 115.895 197.244 115.895 197.54 115.87C197.586 115.867 197.63 115.847 197.661 115.814C197.693 115.78 197.71 115.736 197.71 115.69C197.708 115.643 197.688 115.599 197.655 115.565C197.622 115.532 197.577 115.512 197.53 115.51C196.757 115.545 195.986 115.396 195.282 115.074C194.578 114.752 193.96 114.268 193.48 113.66C193.451 113.621 193.408 113.595 193.36 113.586C193.312 113.577 193.262 113.585 193.22 113.61C193.187 113.645 193.169 113.692 193.169 113.74C193.169 113.788 193.187 113.835 193.22 113.87C193.63 114.415 194.145 114.873 194.734 115.216C195.323 115.56 195.974 115.782 196.65 115.87Z" fill="#263238"/>
<path d="M183.29 92.3601C177.63 96.4901 172.36 110.36 184.52 117.31C187.11 116.08 185.41 113.31 184.83 108.96C184.45 106.12 189.44 101.23 191.83 99.6801C194.22 98.1301 196.68 95.6801 199.32 96.7401C199.965 97.1278 200.708 97.3222 201.46 97.3001C203.86 96.8101 203.11 95.3001 202.22 94.1001C200.784 92.4292 198.9 91.2043 196.79 90.5701C194.559 89.7757 192.171 89.5238 189.824 89.835C187.477 90.1463 185.237 91.0118 183.29 92.3601Z" fill="#263238"/>
<path d="M190.22 100.79C190.027 102.289 189.448 103.712 188.54 104.92C187.526 106.103 186.092 106.846 184.54 106.99C182.992 107.1 181.435 107.009 179.91 106.72C180.982 107.314 182.162 107.686 183.381 107.813C184.599 107.941 185.831 107.82 187.002 107.46C188.173 107.099 189.259 106.506 190.195 105.716C191.132 104.925 191.898 103.954 192.45 102.86C193 101.78 193.32 100.61 193.8 99.49C194.216 98.3462 194.969 97.3557 195.96 96.65C196.465 96.3117 197.062 96.1386 197.669 96.1547C198.277 96.1709 198.864 96.3754 199.35 96.74C199.568 96.7316 199.778 96.66 199.956 96.534C200.133 96.4079 200.27 96.2329 200.35 96.0302C200.429 95.8276 200.448 95.6061 200.404 95.393C200.359 95.1798 200.254 94.9842 200.1 94.83C198.65 94.7 191.27 92.85 190.22 100.79Z" fill="#263238"/>
<path d="M180.55 95.2002C177.39 98.2002 174.38 104.02 174.3 108.41C174.247 112.851 175.934 117.137 179 120.35C182.73 120.906 186.253 122.415 189.23 124.73C190.42 121.49 188.23 115.39 185.47 113.31C183.47 111.77 181.56 110.08 180.94 107.63C180.113 104.366 179.826 100.988 180.09 97.6302L180.55 95.2002Z" fill="#263238"/>
<path d="M179.9 111.06C180.172 111.745 180.576 112.37 181.092 112.897C181.607 113.424 182.222 113.843 182.9 114.13C184.71 114.9 185.83 113.34 185.57 111.51C185.3 109.86 184.05 107.51 182.13 107.51C181.713 107.522 181.306 107.637 180.945 107.846C180.584 108.054 180.28 108.35 180.062 108.705C179.844 109.06 179.717 109.464 179.694 109.881C179.671 110.297 179.752 110.713 179.93 111.09L179.9 111.06Z" fill="#FFC3BD"/>
<path d="M191.61 104.42C191.681 104.444 191.758 104.446 191.83 104.424C191.901 104.403 191.964 104.359 192.01 104.3C192.425 103.869 192.926 103.53 193.481 103.308C194.037 103.086 194.633 102.984 195.23 103.01C195.317 102.996 195.395 102.951 195.452 102.884C195.509 102.817 195.54 102.733 195.54 102.645C195.54 102.557 195.509 102.473 195.452 102.406C195.395 102.339 195.317 102.294 195.23 102.28C194.514 102.254 193.8 102.383 193.137 102.657C192.475 102.932 191.879 103.345 191.39 103.87C191.332 103.946 191.306 104.042 191.317 104.137C191.329 104.232 191.376 104.319 191.45 104.38L191.61 104.42Z" fill="#263238"/>
<path d="M203.24 103.84C203.301 103.856 203.366 103.856 203.427 103.841C203.488 103.825 203.544 103.794 203.59 103.75C203.625 103.717 203.653 103.678 203.672 103.634C203.691 103.59 203.7 103.543 203.7 103.495C203.7 103.447 203.691 103.4 203.672 103.356C203.653 103.312 203.625 103.273 203.59 103.24C203.196 102.816 202.707 102.49 202.163 102.29C201.619 102.09 201.036 102.022 200.46 102.09C200.364 102.11 200.28 102.165 200.224 102.245C200.168 102.325 200.145 102.424 200.16 102.52C200.168 102.568 200.186 102.613 200.213 102.654C200.239 102.695 200.273 102.729 200.313 102.757C200.354 102.784 200.399 102.802 200.446 102.812C200.494 102.821 200.543 102.82 200.59 102.81C201.045 102.761 201.506 102.82 201.933 102.984C202.361 103.147 202.744 103.41 203.05 103.75C203.108 103.791 203.172 103.822 203.24 103.84Z" fill="#263238"/>
<path d="M202.25 106.61C202.67 106.61 202.99 107.18 202.95 107.82C202.91 108.46 202.55 108.99 202.13 108.96C201.71 108.93 201.39 108.39 201.42 107.75C201.45 107.11 201.83 106.59 202.25 106.61Z" fill="#263238"/>
<path d="M203.64 106.28L202.06 106.65C202.77 107.45 203.64 106.28 203.64 106.28Z" fill="#263238"/>
<path d="M194.88 106.43C195.3 106.43 195.62 107 195.58 107.65C195.54 108.3 195.18 108.81 194.76 108.79C194.34 108.77 194.02 108.22 194.05 107.57C194.08 106.92 194.46 106.42 194.88 106.43Z" fill="#263238"/>
<path d="M196.27 106.11L194.68 106.48C195.4 107.28 196.27 106.11 196.27 106.11Z" fill="#263238"/>
<path d="M150.94 173.17L156.99 175.69L156.1 177.8L150.08 175.27L150.94 173.17Z" fill="#3473BA"/>
<path d="M158.599 176.372L157.721 178.476L163.673 180.961L164.551 178.857L158.599 176.372Z" fill="#3473BA"/>
<path d="M174.49 182.99L178.53 184.67L177.66 186.78L173.61 185.09L174.49 182.99Z" fill="#3473BA"/>
<path d="M180.138 185.333L179.258 187.437L181.03 188.178L181.909 186.074L180.138 185.333Z" fill="#3473BA"/>
<path d="M256.56 153.78C254.13 153.775 251.802 152.807 250.085 151.088C248.368 149.369 247.403 147.04 247.4 144.61V126.85C247.454 126.634 247.579 126.442 247.755 126.305C247.93 126.168 248.147 126.093 248.37 126.093C248.593 126.093 248.809 126.168 248.985 126.305C249.161 126.442 249.286 126.634 249.34 126.85V144.61C249.304 145.582 249.464 146.55 249.811 147.458C250.157 148.367 250.684 149.195 251.358 149.895C252.033 150.595 252.842 151.152 253.736 151.533C254.631 151.913 255.593 152.109 256.565 152.109C257.537 152.109 258.499 151.913 259.394 151.533C260.288 151.152 261.097 150.595 261.771 149.895C262.446 149.195 262.972 148.367 263.319 147.458C263.666 146.55 263.826 145.582 263.79 144.61V125.93C263.753 125.783 263.75 125.629 263.782 125.48C263.813 125.331 263.878 125.192 263.972 125.072C264.065 124.952 264.185 124.855 264.321 124.788C264.458 124.722 264.608 124.687 264.76 124.687C264.912 124.687 265.062 124.722 265.199 124.788C265.335 124.855 265.455 124.952 265.548 125.072C265.642 125.192 265.707 125.331 265.738 125.48C265.77 125.629 265.767 125.783 265.73 125.93V144.61C265.727 147.041 264.76 149.372 263.041 151.091C261.322 152.811 258.991 153.777 256.56 153.78Z" fill="#263238"/>
<path d="M288.828 122.15L245.178 128.97C242.804 129.341 241.181 131.566 241.551 133.94L251.52 197.746C251.891 200.119 254.116 201.743 256.49 201.372L300.14 194.552C302.514 194.181 304.137 191.956 303.766 189.583L293.798 125.777C293.427 123.403 291.202 121.78 288.828 122.15Z" fill="#3473BA"/>
<path opacity="0.6" d="M288.828 122.15L245.178 128.97C242.804 129.341 241.181 131.566 241.551 133.94L251.52 197.746C251.891 200.119 254.116 201.743 256.49 201.372L300.14 194.552C302.514 194.181 304.137 191.956 303.766 189.583L293.798 125.777C293.427 123.403 291.202 121.78 288.828 122.15Z" fill="white"/>
<path opacity="0.2" d="M291.414 156.623L256.319 162.295C255.772 162.384 255.4 162.899 255.489 163.445L255.54 163.762C255.628 164.309 256.143 164.68 256.69 164.592L291.785 158.92C292.332 158.832 292.704 158.317 292.615 157.77L292.564 157.453C292.476 156.907 291.961 156.535 291.414 156.623Z" fill="black"/>
<path opacity="0.2" d="M291.942 165.631L256.944 171.274C256.399 171.362 256.028 171.875 256.116 172.421L256.167 172.737C256.255 173.282 256.768 173.652 257.313 173.565L292.311 167.921C292.856 167.833 293.227 167.32 293.139 166.775L293.088 166.459C293 165.914 292.487 165.543 291.942 165.631Z" fill="black"/>
<path opacity="0.2" d="M293.454 175.001L258.456 180.644C257.911 180.732 257.54 181.245 257.628 181.791L257.679 182.107C257.767 182.652 258.28 183.023 258.825 182.935L293.823 177.291C294.368 177.203 294.739 176.69 294.651 176.145L294.6 175.829C294.512 175.284 293.999 174.913 293.454 175.001Z" fill="black"/>
<path d="M287.889 124.409L244.001 129.479C241.614 129.755 239.903 131.913 240.179 134.3L247.59 198.453C247.866 200.839 250.024 202.551 252.411 202.275L296.299 197.205C298.686 196.929 300.397 194.771 300.121 192.384L292.71 128.231C292.434 125.844 290.276 124.133 287.889 124.409Z" fill="#3473BA"/>
<path opacity="0.7" d="M287.889 124.409L244.001 129.479C241.614 129.755 239.903 131.913 240.179 134.3L247.59 198.453C247.866 200.839 250.024 202.551 252.411 202.275L296.299 197.205C298.686 196.929 300.397 194.771 300.121 192.384L292.71 128.231C292.434 125.844 290.276 124.133 287.889 124.409Z" fill="white"/>
<path opacity="0.2" d="M288.148 158.573L252.953 162.813C252.404 162.879 252.014 163.377 252.08 163.926L252.118 164.243C252.184 164.792 252.682 165.183 253.23 165.117L288.426 160.876C288.974 160.81 289.365 160.312 289.299 159.764L289.261 159.446C289.195 158.898 288.697 158.507 288.148 158.573Z" fill="black"/>
<path opacity="0.2" d="M289.277 167.99L254.081 172.23C253.533 172.297 253.142 172.795 253.208 173.343L253.246 173.661C253.312 174.209 253.81 174.6 254.359 174.534L289.554 170.293C290.103 170.227 290.493 169.729 290.427 169.181L290.389 168.863C290.323 168.315 289.825 167.924 289.277 167.99Z" fill="black"/>
<path opacity="0.2" d="M290.414 177.396L255.218 181.636C254.67 181.703 254.279 182.201 254.345 182.749L254.383 183.067C254.45 183.615 254.948 184.006 255.496 183.94L290.691 179.699C291.24 179.633 291.631 179.135 291.565 178.587L291.526 178.269C291.46 177.721 290.962 177.33 290.414 177.396Z" fill="black"/>
<path d="M296.53 144.29L296.63 198.6C296.63 198.937 296.496 199.26 296.258 199.498C296.019 199.736 295.696 199.87 295.36 199.87L245.14 199.96C244.973 199.961 244.808 199.93 244.654 199.867C244.5 199.804 244.36 199.712 244.242 199.594C244.124 199.477 244.03 199.338 243.966 199.184C243.902 199.031 243.87 198.866 243.87 198.7L243.75 128.05C243.748 127.884 243.78 127.719 243.843 127.565C243.905 127.411 243.998 127.271 244.115 127.153C244.232 127.034 244.372 126.941 244.525 126.877C244.679 126.813 244.843 126.78 245.01 126.78L278.85 126.72L296.53 144.29Z" fill="#3473BA"/>
<g opacity="0.8">
<path d="M296.53 144.29L296.63 198.6C296.63 198.937 296.496 199.26 296.258 199.498C296.019 199.736 295.696 199.87 295.36 199.87L245.14 199.96C244.973 199.961 244.808 199.93 244.654 199.867C244.5 199.804 244.36 199.712 244.242 199.594C244.124 199.477 244.03 199.338 243.966 199.184C243.902 199.031 243.87 198.866 243.87 198.7L243.75 128.05C243.748 127.884 243.78 127.719 243.843 127.565C243.905 127.411 243.998 127.271 244.115 127.153C244.232 127.034 244.372 126.941 244.525 126.877C244.679 126.813 244.843 126.78 245.01 126.78L278.85 126.72L296.53 144.29Z" fill="white"/>
</g>
<path d="M287.91 160.64L252.461 160.814C251.909 160.816 251.463 161.266 251.466 161.819L251.467 162.139C251.47 162.691 251.92 163.136 252.472 163.134L287.922 162.96C288.474 162.958 288.92 162.508 288.917 161.956L288.915 161.636C288.913 161.083 288.463 160.638 287.91 160.64Z" fill="#263238"/>
<path d="M287.918 170.171L252.468 170.338C251.916 170.34 251.47 170.79 251.473 171.343L251.474 171.663C251.477 172.215 251.927 172.66 252.479 172.658L287.929 172.491C288.481 172.488 288.927 172.038 288.924 171.486L288.923 171.166C288.92 170.614 288.47 170.168 287.918 170.171Z" fill="#263238"/>
<path d="M288.003 179.61L252.554 179.783C252.001 179.786 251.556 180.236 251.559 180.788L251.56 181.108C251.563 181.66 252.013 182.106 252.565 182.103L288.015 181.93C288.567 181.927 289.012 181.477 289.01 180.925L289.008 180.605C289.005 180.053 288.556 179.607 288.003 179.61Z" fill="#263238"/>
<path d="M278.88 126.68V143.06C278.88 143.395 279.012 143.717 279.248 143.954C279.484 144.192 279.805 144.327 280.14 144.33H296.48L278.88 126.68Z" fill="#3473BA"/>
<path opacity="0.9" d="M278.88 126.68V143.06C278.88 143.395 279.012 143.717 279.248 143.954C279.484 144.192 279.805 144.327 280.14 144.33H296.48L278.88 126.68Z" fill="white"/>
<path opacity="0.5" d="M287.91 160.64L252.461 160.814C251.909 160.816 251.463 161.266 251.466 161.819L251.467 162.139C251.47 162.691 251.92 163.136 252.472 163.134L287.922 162.96C288.474 162.958 288.92 162.508 288.917 161.956L288.915 161.636C288.913 161.083 288.463 160.638 287.91 160.64Z" fill="white"/>
<path opacity="0.5" d="M287.918 170.171L252.468 170.338C251.916 170.34 251.47 170.79 251.473 171.343L251.474 171.663C251.477 172.215 251.927 172.66 252.479 172.658L287.929 172.491C288.481 172.488 288.927 172.038 288.924 171.486L288.923 171.166C288.92 170.614 288.47 170.168 287.918 170.171Z" fill="white"/>
<path opacity="0.5" d="M288.003 179.61L252.554 179.783C252.001 179.786 251.556 180.236 251.559 180.788L251.56 181.108C251.563 181.66 252.013 182.106 252.565 182.103L288.015 181.93C288.567 181.927 289.012 181.477 289.01 180.925L289.008 180.605C289.005 180.053 288.556 179.607 288.003 179.61Z" fill="white"/>
<path d="M260.67 127.84H258.73V124.51C258.674 123.302 258.155 122.163 257.281 121.328C256.406 120.493 255.244 120.027 254.035 120.027C252.826 120.027 251.663 120.493 250.789 121.328C249.915 122.163 249.396 123.302 249.34 124.51V126.87H247.4V124.51C247.467 122.795 248.195 121.172 249.432 119.982C250.669 118.792 252.318 118.128 254.035 118.128C255.751 118.128 257.401 118.792 258.638 119.982C259.875 121.172 260.603 122.795 260.67 124.51V127.84Z" fill="#263238"/>
<path d="M256.51 145.47C255.408 145.467 254.352 145.028 253.574 144.248C252.797 143.468 252.36 142.412 252.36 141.31V126C252.323 125.852 252.32 125.699 252.351 125.55C252.383 125.401 252.448 125.261 252.541 125.142C252.635 125.022 252.754 124.925 252.891 124.858C253.028 124.791 253.178 124.757 253.33 124.757C253.482 124.757 253.632 124.791 253.768 124.858C253.905 124.925 254.024 125.022 254.118 125.142C254.211 125.261 254.276 125.401 254.308 125.55C254.339 125.699 254.337 125.852 254.3 126V141.36C254.279 141.663 254.321 141.968 254.423 142.254C254.525 142.541 254.685 142.803 254.893 143.025C255.101 143.247 255.352 143.424 255.631 143.545C255.91 143.666 256.211 143.729 256.515 143.729C256.819 143.729 257.12 143.666 257.398 143.545C257.677 143.424 257.928 143.247 258.136 143.025C258.344 142.803 258.504 142.541 258.606 142.254C258.708 141.968 258.75 141.663 258.73 141.36V126.87C258.693 126.722 258.69 126.569 258.721 126.42C258.753 126.271 258.818 126.132 258.911 126.012C259.005 125.892 259.124 125.795 259.261 125.728C259.398 125.661 259.548 125.627 259.7 125.627C259.852 125.627 260.002 125.661 260.138 125.728C260.275 125.795 260.394 125.892 260.488 126.012C260.581 126.132 260.646 126.271 260.678 126.42C260.709 126.569 260.707 126.722 260.67 126.87V141.31C260.67 142.413 260.231 143.471 259.451 144.252C258.671 145.032 257.613 145.47 256.51 145.47Z" fill="#263238"/>
<path d="M299.97 33.6799C300.312 33.6799 300.616 33.7466 300.882 33.8799C301.154 34.0133 301.368 34.2186 301.522 34.4959C301.677 34.7679 301.754 35.1199 301.754 35.5519V37.9999H300.754V35.6799C300.754 35.3013 300.664 35.0186 300.482 34.8319C300.306 34.6453 300.058 34.5519 299.738 34.5519C299.504 34.5519 299.296 34.5999 299.114 34.6959C298.933 34.7919 298.792 34.9359 298.69 35.1279C298.594 35.3146 298.546 35.5519 298.546 35.8399V37.9999H297.546V33.7279H298.498V34.8799L298.33 34.5279C298.48 34.2559 298.696 34.0479 298.978 33.9039C299.266 33.7546 299.597 33.6799 299.97 33.6799Z" fill="white"/>
<path d="M294.311 38.0559C293.873 38.0559 293.484 37.9626 293.143 37.7759C292.801 37.5839 292.532 37.3226 292.335 36.9919C292.137 36.6613 292.039 36.2853 292.039 35.8639C292.039 35.4373 292.137 35.0613 292.335 34.7359C292.532 34.4053 292.801 34.1466 293.143 33.9599C293.484 33.7733 293.873 33.6799 294.311 33.6799C294.753 33.6799 295.145 33.7733 295.487 33.9599C295.833 34.1466 296.103 34.4026 296.295 34.7279C296.492 35.0533 296.591 35.4319 296.591 35.8639C296.591 36.2853 296.492 36.6613 296.295 36.9919C296.103 37.3226 295.833 37.5839 295.487 37.7759C295.145 37.9626 294.753 38.0559 294.311 38.0559ZM294.311 37.1999C294.556 37.1999 294.775 37.1466 294.967 37.0399C295.159 36.9333 295.308 36.7786 295.415 36.5759C295.527 36.3733 295.583 36.1359 295.583 35.8639C295.583 35.5866 295.527 35.3493 295.415 35.1519C295.308 34.9493 295.159 34.7946 294.967 34.6879C294.775 34.5813 294.559 34.5279 294.319 34.5279C294.073 34.5279 293.855 34.5813 293.663 34.6879C293.476 34.7946 293.327 34.9493 293.215 35.1519C293.103 35.3493 293.047 35.5866 293.047 35.8639C293.047 36.1359 293.103 36.3733 293.215 36.5759C293.327 36.7786 293.476 36.9333 293.663 37.0399C293.855 37.1466 294.071 37.1999 294.311 37.1999Z" fill="white"/>
<path d="M290.078 38V33.728H291.078V38H290.078ZM290.582 33.024C290.395 33.024 290.241 32.9653 290.118 32.848C290.001 32.7306 289.942 32.5893 289.942 32.424C289.942 32.2533 290.001 32.112 290.118 32C290.241 31.8826 290.395 31.824 290.582 31.824C290.769 31.824 290.921 31.88 291.038 31.992C291.161 32.0986 291.222 32.2346 291.222 32.4C291.222 32.576 291.163 32.7253 291.046 32.848C290.929 32.9653 290.774 33.024 290.582 33.024Z" fill="white"/>
<path d="M288.295 38.0559C287.826 38.0559 287.463 37.9359 287.207 37.6959C286.951 37.4506 286.823 37.0906 286.823 36.6159V32.7839H287.823V36.5919C287.823 36.7946 287.874 36.9519 287.975 37.0639C288.082 37.1759 288.228 37.2319 288.415 37.2319C288.639 37.2319 288.826 37.1733 288.975 37.0559L289.255 37.7679C289.138 37.8639 288.994 37.9359 288.823 37.9839C288.652 38.0319 288.476 38.0559 288.295 38.0559ZM286.119 34.5599V33.7599H288.967V34.5599H286.119Z" fill="white"/>
<path d="M284.46 37.9999V37.1359L284.404 36.9519V35.4399C284.404 35.1466 284.316 34.9199 284.14 34.7599C283.964 34.5946 283.697 34.5119 283.34 34.5119C283.1 34.5119 282.863 34.5493 282.628 34.6239C282.399 34.6986 282.204 34.8026 282.044 34.9359L281.652 34.2079C281.881 34.0319 282.153 33.9013 282.468 33.8159C282.788 33.7253 283.119 33.6799 283.46 33.6799C284.079 33.6799 284.556 33.8293 284.892 34.1279C285.233 34.4213 285.404 34.8773 285.404 35.4959V37.9999H284.46ZM283.116 38.0559C282.796 38.0559 282.516 38.0026 282.276 37.8959C282.036 37.7839 281.849 37.6319 281.716 37.4399C281.588 37.2426 281.524 37.0213 281.524 36.7759C281.524 36.5359 281.58 36.3199 281.692 36.1279C281.809 35.9359 281.999 35.7839 282.26 35.6719C282.521 35.5599 282.868 35.5039 283.3 35.5039H284.54V36.1679H283.372C283.031 36.1679 282.801 36.2239 282.684 36.3359C282.567 36.4426 282.508 36.5759 282.508 36.7359C282.508 36.9173 282.58 37.0613 282.724 37.1679C282.868 37.2746 283.068 37.3279 283.324 37.3279C283.569 37.3279 283.788 37.2719 283.98 37.1599C284.177 37.0479 284.319 36.8826 284.404 36.6639L284.572 37.2639C284.476 37.5146 284.303 37.7093 284.052 37.8479C283.807 37.9866 283.495 38.0559 283.116 38.0559Z" fill="white"/>
<path d="M278.977 38.0559C278.502 38.0559 278.086 37.9626 277.729 37.7759C277.377 37.5839 277.102 37.3226 276.905 36.9919C276.713 36.6613 276.617 36.2853 276.617 35.8639C276.617 35.4373 276.71 35.0613 276.897 34.7359C277.089 34.4053 277.35 34.1466 277.681 33.9599C278.017 33.7733 278.398 33.6799 278.825 33.6799C279.241 33.6799 279.611 33.7706 279.937 33.9519C280.262 34.1333 280.518 34.3893 280.705 34.7199C280.891 35.0506 280.985 35.4399 280.985 35.8879C280.985 35.9306 280.982 35.9786 280.977 36.0319C280.977 36.0853 280.974 36.1359 280.969 36.1839H277.409V35.5199H280.441L280.049 35.7279C280.054 35.4826 280.003 35.2666 279.897 35.0799C279.79 34.8933 279.643 34.7466 279.457 34.6399C279.275 34.5333 279.065 34.4799 278.825 34.4799C278.579 34.4799 278.363 34.5333 278.177 34.6399C277.995 34.7466 277.851 34.8959 277.745 35.0879C277.643 35.2746 277.593 35.4959 277.593 35.7519V35.9119C277.593 36.1679 277.651 36.3946 277.769 36.5919C277.886 36.7893 278.051 36.9413 278.265 37.0479C278.478 37.1546 278.723 37.2079 279.001 37.2079C279.241 37.2079 279.457 37.1706 279.649 37.0959C279.841 37.0213 280.011 36.9039 280.161 36.7439L280.697 37.3599C280.505 37.5839 280.262 37.7573 279.969 37.8799C279.681 37.9973 279.35 38.0559 278.977 38.0559Z" fill="white"/>
<path d="M273.687 37.9999V33.7279H274.639V34.9039L274.527 34.5599C274.655 34.2719 274.855 34.0533 275.127 33.9039C275.404 33.7546 275.748 33.6799 276.159 33.6799V34.6319C276.116 34.6213 276.076 34.6159 276.039 34.6159C276.002 34.6106 275.964 34.6079 275.927 34.6079C275.548 34.6079 275.247 34.7199 275.023 34.9439C274.799 35.1626 274.687 35.4906 274.687 35.9279V37.9999H273.687Z" fill="white"/>
<path d="M270.563 38.0801C270.136 38.0801 269.739 38.0107 269.371 37.8721C269.008 37.7281 268.691 37.5281 268.419 37.2721C268.152 37.0107 267.944 36.7041 267.795 36.3521C267.645 36.0001 267.571 35.6161 267.571 35.2001C267.571 34.7841 267.645 34.4001 267.795 34.0481C267.944 33.6961 268.155 33.3921 268.427 33.1361C268.699 32.8747 269.016 32.6747 269.379 32.5361C269.741 32.3921 270.139 32.3201 270.571 32.3201C271.029 32.3201 271.448 32.4001 271.827 32.5601C272.205 32.7147 272.525 32.9467 272.787 33.2561L272.115 33.8881C271.912 33.6694 271.685 33.5067 271.435 33.4001C271.184 33.2881 270.912 33.2321 270.619 33.2321C270.325 33.2321 270.056 33.2801 269.811 33.3761C269.571 33.4721 269.36 33.6081 269.179 33.7841C269.003 33.9601 268.864 34.1681 268.763 34.4081C268.667 34.6481 268.619 34.9121 268.619 35.2001C268.619 35.4881 268.667 35.7521 268.763 35.9921C268.864 36.2321 269.003 36.4401 269.179 36.6161C269.36 36.7921 269.571 36.9281 269.811 37.0241C270.056 37.1201 270.325 37.1681 270.619 37.1681C270.912 37.1681 271.184 37.1147 271.435 37.0081C271.685 36.8961 271.912 36.7281 272.115 36.5041L272.787 37.1441C272.525 37.4481 272.205 37.6801 271.827 37.8401C271.448 38.0001 271.027 38.0801 270.563 38.0801Z" fill="white"/>
<path d="M263.881 38.0559C263.412 38.0559 263.049 37.9359 262.793 37.6959C262.537 37.4506 262.409 37.0906 262.409 36.6159V32.7839H263.409V36.5919C263.409 36.7946 263.46 36.9519 263.561 37.0639C263.668 37.1759 263.814 37.2319 264.001 37.2319C264.225 37.2319 264.412 37.1733 264.561 37.0559L264.841 37.7679C264.724 37.8639 264.58 37.9359 264.409 37.9839C264.238 38.0319 264.062 38.0559 263.881 38.0559ZM261.705 34.5599V33.7599H264.553V34.5599H261.705Z" fill="white"/>
<path d="M259.305 38.0559C258.83 38.0559 258.414 37.9626 258.057 37.7759C257.705 37.5839 257.43 37.3226 257.233 36.9919C257.041 36.6613 256.945 36.2853 256.945 35.8639C256.945 35.4373 257.038 35.0613 257.225 34.7359C257.417 34.4053 257.678 34.1466 258.009 33.9599C258.345 33.7733 258.726 33.6799 259.153 33.6799C259.569 33.6799 259.939 33.7706 260.265 33.9519C260.59 34.1333 260.846 34.3893 261.033 34.7199C261.219 35.0506 261.313 35.4399 261.313 35.8879C261.313 35.9306 261.31 35.9786 261.305 36.0319C261.305 36.0853 261.302 36.1359 261.297 36.1839H257.737V35.5199H260.769L260.377 35.7279C260.382 35.4826 260.331 35.2666 260.225 35.0799C260.118 34.8933 259.971 34.7466 259.785 34.6399C259.603 34.5333 259.393 34.4799 259.153 34.4799C258.907 34.4799 258.691 34.5333 258.505 34.6399C258.323 34.7466 258.179 34.8959 258.073 35.0879C257.971 35.2746 257.921 35.4959 257.921 35.7519V35.9119C257.921 36.1679 257.979 36.3946 258.097 36.5919C258.214 36.7893 258.379 36.9413 258.593 37.0479C258.806 37.1546 259.051 37.2079 259.329 37.2079C259.569 37.2079 259.785 37.1706 259.977 37.0959C260.169 37.0213 260.339 36.9039 260.489 36.7439L261.025 37.3599C260.833 37.5839 260.59 37.7573 260.297 37.8799C260.009 37.9973 259.678 38.0559 259.305 38.0559Z" fill="white"/>
<path d="M253.206 37.048L253.23 35.792L255.462 33.728H256.662L254.766 35.632L254.238 36.072L253.206 37.048ZM252.39 38V32.064H253.39V38H252.39ZM255.614 38L254.054 36.072L254.686 35.272L256.83 38H255.614Z" fill="white"/>
<path d="M249.741 38.0559C249.293 38.0559 248.893 37.9626 248.541 37.7759C248.195 37.5839 247.923 37.3226 247.725 36.9919C247.528 36.6613 247.429 36.2853 247.429 35.8639C247.429 35.4373 247.528 35.0613 247.725 34.7359C247.923 34.4053 248.195 34.1466 248.541 33.9599C248.893 33.7733 249.293 33.6799 249.741 33.6799C250.157 33.6799 250.523 33.7653 250.837 33.9359C251.157 34.1013 251.4 34.3466 251.565 34.6719L250.797 35.1199C250.669 34.9173 250.512 34.7679 250.325 34.6719C250.144 34.5759 249.947 34.5279 249.733 34.5279C249.488 34.5279 249.267 34.5813 249.069 34.6879C248.872 34.7946 248.717 34.9493 248.605 35.1519C248.493 35.3493 248.437 35.5866 248.437 35.8639C248.437 36.1413 248.493 36.3813 248.605 36.5839C248.717 36.7813 248.872 36.9333 249.069 37.0399C249.267 37.1466 249.488 37.1999 249.733 37.1999C249.947 37.1999 250.144 37.1519 250.325 37.0559C250.512 36.9599 250.669 36.8106 250.797 36.6079L251.565 37.0559C251.4 37.3759 251.157 37.6239 250.837 37.7999C250.523 37.9706 250.157 38.0559 249.741 38.0559Z" fill="white"/>
<path d="M245.469 38V33.728H246.469V38H245.469ZM245.973 33.024C245.786 33.024 245.631 32.9653 245.509 32.848C245.391 32.7306 245.333 32.5893 245.333 32.424C245.333 32.2533 245.391 32.112 245.509 32C245.631 31.8826 245.786 31.824 245.973 31.824C246.159 31.824 246.311 31.88 246.429 31.992C246.551 32.0986 246.613 32.2346 246.613 32.4C246.613 32.576 246.554 32.7253 246.437 32.848C246.319 32.9653 246.165 33.024 245.973 33.024Z" fill="white"/>
<path d="M241.888 37.9999V33.2799H240.032V32.3999H244.784V33.2799H242.928V37.9999H241.888Z" fill="white"/>
<path d="M414.959 242.056C414.49 242.056 414.127 241.936 413.871 241.696C413.615 241.451 413.487 241.091 413.487 240.616V236.784H414.487V240.592C414.487 240.795 414.538 240.952 414.639 241.064C414.746 241.176 414.893 241.232 415.079 241.232C415.303 241.232 415.49 241.173 415.639 241.056L415.919 241.768C415.802 241.864 415.658 241.936 415.487 241.984C415.317 242.032 415.141 242.056 414.959 242.056ZM412.783 238.56V237.76H415.631V238.56H412.783Z" fill="white"/>
<path d="M411.039 242V237.728H412.039V242H411.039ZM411.543 237.024C411.356 237.024 411.201 236.965 411.079 236.848C410.961 236.731 410.903 236.589 410.903 236.424C410.903 236.253 410.961 236.112 411.079 236C411.201 235.883 411.356 235.824 411.543 235.824C411.729 235.824 411.881 235.88 411.999 235.992C412.121 236.099 412.183 236.235 412.183 236.4C412.183 236.576 412.124 236.725 412.007 236.848C411.889 236.965 411.735 237.024 411.543 237.024Z" fill="white"/>
<path d="M408.009 237.68C408.35 237.68 408.651 237.747 408.913 237.88C409.179 238.013 409.387 238.219 409.537 238.496C409.686 238.768 409.761 239.12 409.761 239.552V242H408.761V239.68C408.761 239.301 408.678 239.019 408.513 238.832C408.347 238.645 408.11 238.552 407.801 238.552C407.582 238.552 407.387 238.6 407.217 238.696C407.051 238.792 406.921 238.933 406.825 239.12C406.734 239.307 406.689 239.544 406.689 239.832V242H405.689V239.68C405.689 239.301 405.606 239.019 405.441 238.832C405.275 238.645 405.038 238.552 404.729 238.552C404.51 238.552 404.315 238.6 404.145 238.696C403.979 238.792 403.849 238.933 403.753 239.12C403.662 239.307 403.617 239.544 403.617 239.832V242H402.617V237.728H403.569V238.864L403.401 238.528C403.545 238.251 403.753 238.04 404.025 237.896C404.302 237.752 404.617 237.68 404.969 237.68C405.369 237.68 405.715 237.779 406.009 237.976C406.307 238.173 406.505 238.472 406.601 238.872L406.209 238.736C406.347 238.416 406.577 238.16 406.897 237.968C407.217 237.776 407.587 237.68 408.009 237.68Z" fill="white"/>
<path d="M399.5 242.056C399.138 242.056 398.815 241.976 398.532 241.816C398.25 241.656 398.026 241.416 397.86 241.096C397.7 240.771 397.62 240.36 397.62 239.864C397.62 239.363 397.703 238.952 397.868 238.632C398.039 238.312 398.266 238.075 398.548 237.92C398.836 237.76 399.154 237.68 399.5 237.68C399.922 237.68 400.292 237.771 400.612 237.952C400.938 238.133 401.194 238.387 401.38 238.712C401.572 239.037 401.668 239.421 401.668 239.864C401.668 240.307 401.572 240.691 401.38 241.016C401.194 241.341 400.938 241.597 400.612 241.784C400.292 241.965 399.922 242.056 399.5 242.056ZM397.132 242V236.064H398.132V238.72L398.052 239.856L398.084 240.992V242H397.132ZM399.388 241.2C399.628 241.2 399.842 241.147 400.028 241.04C400.22 240.933 400.372 240.779 400.484 240.576C400.596 240.373 400.652 240.136 400.652 239.864C400.652 239.587 400.596 239.349 400.484 239.152C400.372 238.949 400.22 238.795 400.028 238.688C399.842 238.581 399.628 238.528 399.388 238.528C399.148 238.528 398.932 238.581 398.74 238.688C398.548 238.795 398.396 238.949 398.284 239.152C398.172 239.349 398.116 239.587 398.116 239.864C398.116 240.136 398.172 240.373 398.284 240.576C398.396 240.779 398.548 240.933 398.74 241.04C398.932 241.147 399.148 241.2 399.388 241.2Z" fill="white"/>
<path d="M393.495 242.056C393.133 242.056 392.813 241.989 392.535 241.856C392.258 241.717 392.042 241.509 391.887 241.232C391.733 240.949 391.655 240.595 391.655 240.168V237.728H392.655V240.032C392.655 240.416 392.741 240.704 392.911 240.896C393.087 241.083 393.335 241.176 393.655 241.176C393.89 241.176 394.093 241.128 394.263 241.032C394.439 240.936 394.575 240.792 394.671 240.6C394.773 240.408 394.823 240.171 394.823 239.888V237.728H395.823V242H394.871V240.848L395.039 241.2C394.895 241.477 394.685 241.691 394.407 241.84C394.13 241.984 393.826 242.056 393.495 242.056Z" fill="white"/>
<path d="M388.488 242.08C388.05 242.08 387.632 242.019 387.232 241.896C386.832 241.768 386.514 241.605 386.28 241.408L386.64 240.6C386.864 240.776 387.141 240.923 387.472 241.04C387.802 241.157 388.141 241.216 388.488 241.216C388.781 241.216 389.018 241.184 389.2 241.12C389.381 241.056 389.514 240.971 389.6 240.864C389.685 240.752 389.728 240.627 389.728 240.488C389.728 240.317 389.666 240.181 389.544 240.08C389.421 239.973 389.261 239.891 389.064 239.832C388.872 239.768 388.656 239.709 388.416 239.656C388.181 239.603 387.944 239.541 387.704 239.472C387.469 239.397 387.253 239.304 387.056 239.192C386.864 239.075 386.706 238.92 386.584 238.728C386.461 238.536 386.4 238.291 386.4 237.992C386.4 237.688 386.48 237.411 386.64 237.16C386.805 236.904 387.053 236.701 387.384 236.552C387.72 236.397 388.144 236.32 388.656 236.32C388.992 236.32 389.325 236.363 389.656 236.448C389.986 236.533 390.274 236.656 390.52 236.816L390.192 237.624C389.941 237.475 389.682 237.365 389.416 237.296C389.149 237.221 388.893 237.184 388.648 237.184C388.36 237.184 388.125 237.219 387.944 237.288C387.768 237.357 387.637 237.448 387.552 237.56C387.472 237.672 387.432 237.8 387.432 237.944C387.432 238.115 387.49 238.253 387.608 238.36C387.73 238.461 387.888 238.541 388.08 238.6C388.277 238.659 388.496 238.717 388.736 238.776C388.976 238.829 389.213 238.891 389.448 238.96C389.688 239.029 389.904 239.12 390.096 239.232C390.293 239.344 390.45 239.496 390.568 239.688C390.69 239.88 390.752 240.123 390.752 240.416C390.752 240.715 390.669 240.992 390.504 241.248C390.344 241.499 390.096 241.701 389.76 241.856C389.424 242.005 389 242.08 388.488 242.08Z" fill="white"/>
</svg>
