<svg width="320" height="307" viewBox="0 0 320 307" fill="none" xmlns="http://www.w3.org/2000/svg">
<g clip-path="url(#clip0_455_2699)">
<path d="M76.7002 0.181152H10.2773V59.675H76.7002V0.181152Z" fill="#FAFAFA"/>
<path d="M76.7257 59.6752V55.3738C76.7257 52.6013 76.7257 48.5072 76.6739 43.2989C76.6739 32.9082 76.6221 18.0606 76.5963 0.181384L76.7516 0.336855H10.3804L10.5616 0.155472V59.6234L10.4063 59.4679L58.4503 59.5457L71.9109 59.6493H71.9627L58.4503 59.7011L10.3028 59.7789H10.1475V0H76.8292V0.155472C76.8292 18.0606 76.7775 32.96 76.7516 43.3766C76.7516 48.559 76.7257 52.6272 76.6998 55.4257V58.5869C76.6998 59.3125 76.6998 59.6752 76.6998 59.6752H76.7257Z" fill="#E0E0E0"/>
<path d="M35.7483 10.7536C35.7483 10.7536 32.2537 10.935 27.9308 10.935C23.6079 10.935 20.1133 10.8573 20.1133 10.7536C20.1133 10.65 23.6079 10.5723 27.9308 10.5723C32.2537 10.5723 35.7483 10.65 35.7483 10.7536Z" fill="#E0E0E0"/>
<path d="M63.8864 15.2361C63.8864 15.2361 54.2828 15.4175 42.453 15.4175C30.6232 15.4175 21.0195 15.3397 21.0195 15.2361C21.0195 15.1324 30.6232 15.0547 42.453 15.0547C54.2828 15.0547 63.8864 15.1324 63.8864 15.2361Z" fill="#E0E0E0"/>
<path d="M23.0388 22.8027H20.2432V25.6012H23.0388V22.8027Z" fill="#F26639"/>
<path d="M29.9246 22.8027H27.1289V25.6012H29.9246V22.8027Z" fill="#F26639"/>
<path d="M36.9392 22.6729H34.1436V25.4713H36.9392V22.6729Z" fill="#F26639"/>
<path d="M43.6951 22.8027H40.8994V25.6012H43.6951V22.8027Z" fill="#F26639"/>
<path d="M50.5808 22.8027H47.7852V25.6012H50.5808V22.8027Z" fill="#F26639"/>
<path d="M57.4666 22.8027H54.6709V25.6012H57.4666V22.8027Z" fill="#F26639"/>
<path d="M64.3523 22.8027H61.5566V25.6012H64.3523V22.8027Z" fill="#7FE4FF"/>
<path d="M23.0388 28.7363H20.2432V31.5348H23.0388V28.7363Z" fill="#7FE4FF"/>
<path d="M29.9246 28.7363H27.1289V31.5348H29.9246V28.7363Z" fill="#F26639"/>
<path d="M36.8093 28.7363H34.0137V31.5348H36.8093V28.7363Z" fill="#7FE4FF"/>
<path d="M43.6951 28.7363H40.8994V31.5348H43.6951V28.7363Z" fill="#F26639"/>
<path d="M50.5808 28.7363H47.7852V31.5348H50.5808V28.7363Z" fill="#F26639"/>
<path d="M57.5964 28.6069H54.8008V31.4054H57.5964V28.6069Z" fill="#F26639"/>
<path d="M64.3523 28.7363H61.5566V31.5348H64.3523V28.7363Z" fill="#F26639"/>
<path d="M23.0388 34.6963H20.2432V37.4948H23.0388V34.6963Z" fill="#F26639"/>
<path d="M30.0535 34.5664H27.2578V37.3649H30.0535V34.5664Z" fill="#F26639"/>
<path d="M36.8093 34.6963H34.0137V37.4948H36.8093V34.6963Z" fill="#F26639"/>
<path d="M43.6951 34.6963H40.8994V37.4948H43.6951V34.6963Z" fill="#7FE4FF"/>
<path d="M50.5808 34.6963H47.7852V37.4948H50.5808V34.6963Z" fill="#F26639"/>
<path d="M57.4666 34.6963H54.6709V37.4948H57.4666V34.6963Z" fill="#F26639"/>
<path d="M64.3523 34.6963H61.5566V37.4948H64.3523V34.6963Z" fill="#F26639"/>
<path d="M23.0388 40.6558H20.2432V43.4543H23.0388V40.6558Z" fill="#F26639"/>
<path d="M29.9246 40.6558H27.1289V43.4543H29.9246V40.6558Z" fill="#F26639"/>
<path d="M36.8093 40.6558H34.0137V43.4543H36.8093V40.6558Z" fill="#F26639"/>
<path d="M43.825 40.5264H41.0293V43.3249H43.825V40.5264Z" fill="#F26639"/>
<path d="M50.5808 40.6558H47.7852V43.4543H50.5808V40.6558Z" fill="#F26639"/>
<path d="M57.4666 40.6558H54.6709V43.4543H57.4666V40.6558Z" fill="#7FE4FF"/>
<path d="M64.3523 40.6558H61.5566V43.4543H64.3523V40.6558Z" fill="#F26639"/>
<path d="M23.0388 46.6157H20.2432V49.4142H23.0388V46.6157Z" fill="#F26639"/>
<path d="M29.9246 46.6157H27.1289V49.4142H29.9246V46.6157Z" fill="#7FE4FF"/>
<path d="M36.8093 46.6157H34.0137V49.4142H36.8093V46.6157Z" fill="#F26639"/>
<path d="M43.6951 46.6157H40.8994V49.4142H43.6951V46.6157Z" fill="#F26639"/>
<path d="M50.5808 46.6157H47.7852V49.4142H50.5808V46.6157Z" fill="#F26639"/>
<path d="M57.5964 46.4858H54.8008V49.2843H57.5964V46.4858Z" fill="#F26639"/>
<path d="M64.3523 46.6157H61.5566V49.4142H64.3523V46.6157Z" fill="#F26639"/>
<path d="M23.7118 146.325H22.3398V157.337H23.7118V146.325Z" fill="white"/>
<path d="M28.5268 151.145H17.5254V152.518H28.5268V151.145Z" fill="white"/>
<path d="M202.194 217.868H101.446V264.38H202.194V217.868Z" fill="#0065BE"/>
<path d="M199.812 262.177H103.75V220.303H199.812V262.177ZM104.371 261.555H199.113V220.951H104.397V261.555H104.371Z" fill="#E0E0E0"/>
<path d="M226.812 217.868H202.194V264.38H226.812V217.868Z" fill="#009ADB"/>
<path d="M104.061 233.26H199.502C199.502 233.26 199.631 233.208 199.631 233.13C199.631 233.052 199.58 233 199.502 233H104.061C104.061 233 103.932 233.052 103.932 233.13C103.932 233.208 103.983 233.26 104.061 233.26Z" fill="#E0E0E0"/>
<path d="M152.105 233.13C152.364 228.932 152.364 224.709 152.105 220.485C152.105 220.407 152.028 220.381 151.95 220.381C151.898 220.381 151.872 220.433 151.846 220.485C151.588 224.683 151.588 228.906 151.846 233.13C151.846 233.182 151.898 233.234 151.95 233.234C152.002 233.234 152.054 233.182 152.054 233.13H152.105Z" fill="#E0E0E0"/>
<path d="M177.758 226.807C177.758 227.533 177.188 228.103 176.463 228.103C175.738 228.103 175.169 227.533 175.169 226.807C175.169 226.082 175.738 225.512 176.463 225.512C177.188 225.512 177.758 226.082 177.758 226.807Z" fill="#E0E0E0"/>
<path d="M127.695 226.807C127.695 227.533 127.126 228.103 126.401 228.103C125.676 228.103 125.106 227.533 125.106 226.807C125.106 226.082 125.676 225.512 126.401 225.512C127.126 225.512 127.695 226.082 127.695 226.807Z" fill="#E0E0E0"/>
<path d="M153.063 241.24C153.063 241.966 152.494 242.536 151.769 242.536C151.044 242.536 150.475 241.966 150.475 241.24C150.475 240.515 151.044 239.945 151.769 239.945C152.494 239.945 153.063 240.515 153.063 241.24Z" fill="#E0E0E0"/>
<path d="M113.484 264.354L108.307 293.556H111.206L120.784 264.354H113.484Z" fill="#19355A"/>
<path d="M195.05 264.354L199.399 293.608H196.474L187.75 264.354H195.05Z" fill="#19355A"/>
<path d="M214.516 264.354L219.434 293.608H216.535L207.242 264.354H214.516Z" fill="#19355A"/>
<path d="M152.985 254.404C152.985 255.129 152.416 255.699 151.691 255.699C150.966 255.699 150.396 255.129 150.396 254.404C150.396 253.678 150.966 253.108 151.691 253.108C152.416 253.108 152.985 253.704 152.985 254.404Z" fill="#E0E0E0"/>
<path d="M104.061 247.666H199.501C199.501 247.666 199.605 247.589 199.605 247.511C199.605 247.459 199.553 247.433 199.501 247.407H104.061C104.061 247.407 103.957 247.485 103.957 247.563C103.957 247.615 104.009 247.64 104.061 247.666Z" fill="#E0E0E0"/>
<path d="M305.919 293.686C305.919 293.686 238.279 293.868 154.875 293.868C71.4711 293.868 3.80566 293.79 3.80566 293.686C3.80566 293.583 71.4193 293.505 154.875 293.505C238.331 293.505 305.919 293.583 305.919 293.686Z" fill="#263238"/>
<path d="M253.991 24.1758H46.6201V207.088H253.991V24.1758Z" fill="white"/>
<path d="M253.991 135.52H46.6201V166.432H253.991V135.52Z" fill="white"/>
<path d="M253.991 100.176H46.6201V135.546H253.991V100.176Z" fill="#F5F5F5"/>
<path d="M253.991 171.485H46.6201V206.855H253.991V171.485Z" fill="#F5F5F5"/>
<path d="M171.83 111.188C171.83 111.188 147.368 111.37 117.211 111.37C87.0539 111.37 62.5918 111.292 62.5918 111.188C62.5918 111.085 87.0539 111.007 117.211 111.007C147.368 111.007 171.83 111.085 171.83 111.188Z" fill="#263238"/>
<path d="M108.694 121.035C108.694 121.035 98.3138 121.216 85.4744 121.216C72.6351 121.216 62.2549 121.139 62.2549 121.035C62.2549 120.931 72.6351 120.854 85.4744 120.854C98.3138 120.854 108.694 120.931 108.694 121.035Z" fill="#263238"/>
<path d="M171.83 146.066C171.83 146.066 147.368 146.247 117.211 146.247C87.0539 146.247 62.5918 146.169 62.5918 146.066C62.5918 145.962 87.0539 145.884 117.211 145.884C147.368 145.884 171.83 145.962 171.83 146.066Z" fill="#263238"/>
<path d="M108.694 155.886C108.694 155.886 98.3138 156.068 85.4744 156.068C72.6351 156.068 62.2549 155.99 62.2549 155.886C62.2549 155.783 72.6351 155.705 85.4744 155.705C98.3138 155.705 108.694 155.809 108.694 155.886Z" fill="#263238"/>
<path d="M171.83 180.943C171.83 180.943 147.368 181.124 117.211 181.124C87.0539 181.124 62.5918 181.047 62.5918 180.943C62.5918 180.839 87.0539 180.762 117.211 180.762C147.368 180.762 171.83 180.814 171.83 180.943Z" fill="#263238"/>
<path d="M108.694 190.764C108.694 190.764 98.3138 190.945 85.4744 190.945C72.6351 190.945 62.2549 190.868 62.2549 190.764C62.2549 190.66 72.6351 190.583 85.4744 190.583C98.3138 190.583 108.694 190.66 108.694 190.764Z" fill="#263238"/>
<path d="M253.991 23.9429H46.6201V41.3816H253.991V23.9429Z" fill="#E0E0E0"/>
<path d="M253.991 39.7231H46.6201V57.1619H253.991V39.7231Z" fill="#F5F5F5"/>
<path d="M59.0974 32.1049C59.0974 33.3227 58.0878 34.2815 56.8971 34.2815C55.6804 34.2815 54.7227 33.2709 54.7227 32.0789C54.7227 30.8611 55.7063 29.9023 56.9229 29.9023C58.1396 29.9023 59.0974 30.887 59.0974 32.0789C59.0974 32.0789 59.0974 32.0789 59.0974 32.1049Z" fill="#F26639"/>
<path d="M67.1218 32.1049C67.1218 33.3227 66.1122 34.2815 64.9215 34.2815C63.7048 34.2815 62.7471 33.2709 62.7471 32.0789C62.7471 30.8611 63.7566 29.9023 64.9474 29.9023C66.164 29.9023 67.1218 30.9129 67.1218 32.1049Z" fill="#F26639"/>
<path d="M75.1725 32.1049C75.1725 33.3227 74.163 34.2815 72.9723 34.2815C71.7556 34.2815 70.7979 33.2709 70.7979 32.0789C70.7979 30.887 71.7815 29.9023 72.9981 29.9023C74.2148 29.9023 75.1984 30.887 75.1984 32.1049H75.1725Z" fill="#F26639"/>
<path d="M254.043 207.114C254.043 205.948 253.992 135.804 253.94 23.9685L254.043 24.0981L46.7759 24.1499L46.9053 23.9685V207.114L46.7759 206.959L254.069 207.114L46.7759 207.27H46.6465V23.7871H254.069L254.173 23.813V23.9685C254.069 135.804 254.043 205.896 254.043 207.114Z" fill="#263238"/>
<path d="M235.793 113.728H205.481C202.107 113.728 199.372 116.465 199.372 119.843V119.869C199.372 123.246 202.107 125.984 205.481 125.984H235.793C239.167 125.984 241.902 123.246 241.902 119.869V119.843C241.902 116.465 239.167 113.728 235.793 113.728Z" fill="#F26639"/>
<path d="M235.767 161.38H205.481C202.09 161.38 199.372 158.633 199.372 155.265C199.372 151.87 202.116 149.149 205.481 149.149H235.767C239.159 149.149 241.877 151.896 241.877 155.265C241.877 158.659 239.133 161.38 235.767 161.38Z" fill="#F26639"/>
<path d="M235.793 183.793H205.481C202.107 183.793 199.372 186.531 199.372 189.909V189.935C199.372 193.312 202.107 196.05 205.481 196.05H235.793C239.167 196.05 241.902 193.312 241.902 189.935V189.909C241.902 186.531 239.167 183.793 235.793 183.793Z" fill="#F26639"/>
<path d="M254.561 272.749L255.104 286.146C255.104 286.146 241.669 291.198 241.54 293.686L267.529 293.556V272.646L254.561 272.749Z" fill="#263238"/>
<path d="M263.155 284.979C263.673 285.135 263.984 285.653 263.906 286.197C263.776 286.715 263.233 287.052 262.715 286.949C262.172 286.793 261.835 286.223 261.939 285.679C262.146 285.135 262.715 284.85 263.259 285.031" fill="#E0E0E0"/>
<path d="M267.556 293.556L267.478 291.483L242.576 292.39C242.576 292.39 241.411 292.909 241.54 293.712L267.53 293.556H267.556Z" fill="#455A64"/>
<path d="M254.69 286.016C254.69 286.016 255.337 286.197 255.959 286.586C256.58 286.974 256.916 287.519 257.046 287.467C257.175 287.415 256.968 286.689 256.191 286.197C255.415 285.705 254.664 285.86 254.69 285.99V286.016Z" fill="white"/>
<path d="M251.973 287.156C251.973 287.156 252.49 287.493 252.93 288.037C253.37 288.581 253.5 289.151 253.629 289.125C253.759 289.099 253.836 288.4 253.293 287.752C252.749 287.104 251.999 287.052 251.999 287.156H251.973Z" fill="white"/>
<path d="M250.445 290.421C250.445 290.421 250.729 289.799 250.393 289.125C250.056 288.452 249.461 288.167 249.409 288.27C249.358 288.374 249.72 288.737 249.979 289.307C250.238 289.877 250.289 290.421 250.419 290.421H250.445Z" fill="white"/>
<path d="M254.897 282.958C254.897 282.958 255.544 282.907 256.269 282.958C256.994 283.01 257.538 283.218 257.615 283.114C257.693 283.01 257.149 282.544 256.295 282.518C255.441 282.492 254.82 282.855 254.897 282.958Z" fill="white"/>
<path d="M294.555 275.859L297.92 291.743L296.962 305.061C296.884 305.968 297.583 306.772 298.489 306.823C298.515 306.823 298.567 306.823 298.593 306.823C299.136 306.823 299.628 306.564 299.939 306.124C301.932 303.351 309.206 293.012 308.921 291.872C308.559 290.551 306.462 274.9 306.462 274.9L294.503 275.859H294.555Z" fill="#263238"/>
<path d="M298.618 306.849L308.714 290.835L308.843 291.535C308.947 292.131 308.843 292.727 308.558 293.245C307.782 294.619 305.504 298.402 300.016 306.201C299.705 306.642 299.188 306.901 298.644 306.901L298.618 306.849Z" fill="#455A64"/>
<g opacity="0.6">
<path d="M304.495 286.301C304.158 286.689 304.158 287.259 304.495 287.648C304.857 288.011 305.452 288.037 305.841 287.7C306.203 287.285 306.203 286.689 305.841 286.275C305.426 285.938 304.805 285.99 304.469 286.404" fill="white"/>
</g>
<path d="M300.948 299.179C300.482 298.765 299.913 298.428 299.317 298.195C298.696 298.091 298.049 298.091 297.428 298.195C297.428 298.169 297.583 298.013 297.945 297.884C298.437 297.754 298.929 297.754 299.421 297.884C299.913 298.013 300.353 298.298 300.689 298.661C300.922 298.946 301 299.179 300.974 299.179H300.948Z" fill="white"/>
<path d="M300.223 301.537C299.705 301.382 299.213 301.226 298.67 301.123C298.126 301.123 297.609 301.148 297.091 301.2C298.074 300.475 299.421 300.63 300.223 301.537Z" fill="white"/>
<path d="M302.554 296.044C301.078 295.267 299.421 294.956 297.765 295.137C299.395 294.489 301.285 294.852 302.554 296.044Z" fill="white"/>
<path d="M301.932 291.146C301.932 291.146 300.948 291.043 299.809 291.224C298.67 291.405 297.816 291.846 297.738 291.742C298.929 290.784 300.534 290.55 301.932 291.12V291.146Z" fill="white"/>
<path d="M301.052 286.456C300.327 286.353 299.576 286.353 298.826 286.456C298.127 286.664 297.428 286.975 296.807 287.389C296.807 287.389 296.91 287.13 297.247 286.845C297.687 286.482 298.204 286.223 298.748 286.12C299.292 285.99 299.861 285.99 300.431 286.12C300.845 286.275 301.078 286.431 301.052 286.456Z" fill="white"/>
<path d="M298.696 285.575C298.618 285.394 298.567 285.187 298.567 284.979C298.515 284.409 298.567 283.839 298.748 283.295C298.851 282.881 299.058 282.518 299.369 282.259C299.602 282.103 299.913 282.103 300.146 282.259C300.353 282.44 300.508 282.673 300.534 282.958C300.663 284.073 299.99 285.135 298.903 285.472C297.842 285.783 296.703 285.42 296.004 284.565C295.823 284.358 295.771 284.073 295.823 283.787C295.926 283.528 296.159 283.347 296.444 283.321C296.858 283.321 297.246 283.451 297.609 283.658C298.101 283.917 298.541 284.28 298.929 284.694C299.084 284.85 299.188 285.005 299.291 285.213C298.774 284.694 298.152 284.254 297.505 283.891C297.195 283.71 296.832 283.632 296.496 283.606C296.34 283.606 296.211 283.71 296.159 283.865C296.159 284.047 296.211 284.228 296.315 284.358C296.936 285.083 297.919 285.368 298.825 285.109C299.706 284.798 300.275 283.917 300.197 282.984C300.197 282.803 300.094 282.621 299.939 282.518C299.809 282.414 299.654 282.414 299.524 282.518C299.266 282.751 299.058 283.036 298.981 283.373C298.774 284.073 298.67 284.798 298.722 285.55L298.696 285.575Z" fill="white"/>
<path d="M244.983 163.763C244.983 163.763 244.88 170.811 245.346 179.932C245.527 183.456 252.956 281.585 252.956 281.585L268.98 281.974L266.779 190.271L269.549 190.971C269.549 190.971 277.988 221.547 279.826 228.543C282 236.861 293.778 284.073 293.778 284.073L308.429 284.617L298.8 229.295L290.491 176.642L288.834 161.328L245.009 163.737L244.983 163.763Z" fill="#19355A"/>
<path d="M269.548 180.995C269.341 181.15 269.108 181.254 268.849 181.357C268.202 181.668 267.555 181.876 266.856 182.005C266.364 182.083 265.873 182.083 265.381 182.005C264.811 181.902 264.268 181.617 263.854 181.228C263.413 180.761 263.103 180.191 262.973 179.57C262.792 178.948 262.715 178.3 262.585 177.626C262.145 174.957 261.86 172.547 261.705 170.785C261.627 169.904 261.576 169.205 261.55 168.712C261.524 168.453 261.524 168.194 261.55 167.935C261.627 168.168 261.679 168.427 261.679 168.687C261.757 169.257 261.834 169.93 261.938 170.759C262.145 172.521 262.482 174.905 262.922 177.574C263.155 178.896 263.284 180.217 264.086 181.047C264.837 181.72 265.847 182.005 266.856 181.85C267.529 181.746 268.202 181.565 268.849 181.306C269.082 181.176 269.315 181.072 269.574 181.021L269.548 180.995Z" fill="#263238"/>
<path d="M265.045 168.453C265.045 168.453 265.149 168.375 265.382 168.375C265.692 168.375 266.003 168.479 266.262 168.686C266.65 168.971 266.909 169.438 266.909 169.956C266.831 170.837 266.055 171.485 265.175 171.407C264.786 171.381 264.398 171.2 264.139 170.889C263.854 170.5 263.751 169.982 263.88 169.516C263.958 169.205 264.139 168.92 264.398 168.712C264.579 168.583 264.709 168.557 264.709 168.583C264.424 168.842 264.217 169.179 264.113 169.567C264.036 169.956 264.113 170.397 264.398 170.708C264.735 171.07 265.252 171.174 265.718 170.993C266.184 170.863 266.521 170.448 266.572 169.956C266.572 169.542 266.391 169.153 266.081 168.894C265.796 168.661 265.433 168.505 265.045 168.479V168.453Z" fill="#263238"/>
<path d="M290.283 175.709C290.102 175.76 289.921 175.786 289.739 175.786C289.248 175.812 288.73 175.812 288.238 175.786C284.899 175.501 281.767 174.076 279.359 171.744C278.997 171.407 278.66 171.019 278.35 170.63C278.22 170.5 278.117 170.345 278.039 170.163C278.091 170.137 278.583 170.733 279.515 171.537C280.731 172.625 282.103 173.506 283.604 174.18C285.106 174.853 286.685 175.294 288.29 175.475C289.506 175.631 290.283 175.605 290.283 175.683V175.709Z" fill="#263238"/>
<path d="M251.455 168.402C251.3 168.946 251.092 169.49 250.808 170.008C250.238 171.2 249.539 172.34 248.737 173.377C247.986 174.361 247.132 175.217 246.174 175.968C245.812 176.279 245.398 176.538 244.983 176.719C245.346 176.383 245.708 176.072 246.096 175.761C247.002 174.957 247.857 174.076 248.607 173.118C249.384 172.081 250.083 170.993 250.678 169.853C251.17 168.946 251.429 168.35 251.481 168.376L251.455 168.402Z" fill="#263238"/>
<path d="M260.67 66.9824C261.162 60.5044 266.572 55.5034 273.044 55.5034H273.691C280.628 55.8921 284.2 62.0073 283.605 68.9517L282.104 90.5364L269.73 103.415L266.572 95.7188V90.5882C266.572 90.5882 259.894 89.5517 259.79 82.8923C259.79 79.6534 260.23 72.994 260.696 66.9824H260.67Z" fill="#FFBE9D"/>
<path d="M266.546 90.5882C269.652 90.5882 272.681 89.7072 275.295 88.0229C275.295 88.0229 273.224 92.8685 266.572 92.2466V90.5623L266.546 90.5882Z" fill="#EB996E"/>
<path d="M262.456 72.5531C262.456 73.0713 262.87 73.4859 263.388 73.5118C263.88 73.5636 264.32 73.1749 264.372 72.6826C264.372 72.1644 263.957 71.7239 263.44 71.7239C262.948 71.6721 262.508 72.0607 262.456 72.5531Z" fill="#263238"/>
<path d="M262.119 70.2733C262.119 70.2733 262.973 69.8587 263.983 69.8587C264.992 69.8587 265.769 70.3769 265.873 70.2474C265.976 70.1178 265.795 69.9623 265.484 69.7291C265.044 69.4182 264.501 69.2627 263.957 69.2627C263.413 69.2627 262.896 69.4441 262.482 69.755C262.171 69.9882 262.067 70.2214 262.119 70.2733Z" fill="#263238"/>
<path d="M271.724 72.8124C271.724 73.3306 272.138 73.7452 272.656 73.7711C273.173 73.797 273.613 73.4343 273.639 72.916C273.639 72.3978 273.225 71.9832 272.707 71.9573C272.215 71.9055 271.775 72.2941 271.724 72.7865V72.8124Z" fill="#263238"/>
<path d="M272.189 70.4285C272.189 70.4285 273.044 70.0139 274.053 70.0139C275.063 70.0139 275.839 70.5322 275.943 70.4026C276.046 70.2731 275.865 70.1176 275.555 69.8844C275.115 69.5734 274.571 69.418 274.027 69.418C273.484 69.418 272.966 69.5734 272.552 69.9103C272.241 70.1435 272.138 70.3767 272.189 70.4285Z" fill="#263238"/>
<path d="M268.488 78.0464C267.944 77.8651 267.374 77.7614 266.831 77.7614C266.572 77.7614 266.313 77.6837 266.261 77.5023C266.261 77.2173 266.313 76.9581 266.443 76.7249L267.219 74.7297C268.28 71.8794 269.057 69.5473 268.953 69.4955C268.85 69.4437 267.892 71.7239 266.805 74.5742C266.546 75.2739 266.313 75.9476 266.08 76.5954C265.925 76.9063 265.873 77.2691 265.951 77.6318C266.028 77.8132 266.184 77.9687 266.391 78.0205C266.546 78.0464 266.676 78.0723 266.831 78.0723C267.4 78.1501 267.97 78.1501 268.513 78.0723L268.488 78.0464Z" fill="#263238"/>
<path d="M271.516 78.7461C271.361 78.7461 271.361 79.8603 270.403 80.6377C269.446 81.415 268.255 81.3373 268.255 81.4669C268.255 81.5964 268.514 81.6741 269.031 81.7001C269.679 81.7001 270.326 81.4928 270.818 81.0782C271.309 80.6895 271.62 80.1194 271.672 79.4975C271.724 79.057 271.594 78.7461 271.516 78.772V78.7461Z" fill="#263238"/>
<path d="M271.93 66.386C272.034 66.6711 273.044 66.5156 274.26 66.6711C275.477 66.8265 276.435 67.1375 276.59 66.8784C276.668 66.7488 276.486 66.4897 276.098 66.2306C275.037 65.5569 273.717 65.4273 272.526 65.8419C272.086 66.0233 271.853 66.2306 271.905 66.386H271.93Z" fill="#263238"/>
<path d="M262.482 67.2672C262.663 67.5004 263.362 67.2672 264.217 67.2672C265.071 67.2672 265.796 67.4227 265.951 67.1895C266.029 67.0599 265.899 66.8267 265.589 66.6194C265.174 66.3603 264.683 66.2308 264.217 66.2567C263.725 66.2567 263.233 66.4381 262.845 66.7231C262.508 66.9563 262.405 67.1895 262.508 67.2931L262.482 67.2672Z" fill="#263238"/>
<path d="M258.185 61.152C258.288 60.5301 258.858 60.0637 259.479 60.0896C259.142 60.0119 258.858 59.8564 258.573 59.675C258.288 59.4677 258.159 59.105 258.236 58.7422C258.392 58.224 259.065 58.0944 259.582 57.9389C260.255 57.7316 260.851 57.2911 261.291 56.7211C261.912 55.8919 262.119 54.8554 262.637 53.9485C263.905 51.8496 266.623 51.15 268.72 52.4197C269.005 52.5752 269.264 52.7825 269.497 53.0157C271.231 51.1241 274.156 51.0204 276.02 52.7306C276.408 53.0675 276.719 53.4821 276.952 53.9226C279.67 52.7047 282.854 53.9226 284.07 56.6174C284.484 57.5503 284.64 58.5867 284.484 59.6232L280.395 62.2921C280.213 61.0743 279.074 60.1933 277.858 60.3747C277.78 60.3747 277.702 60.3747 277.625 60.4265C276.382 60.8152 275.632 62.2921 274.311 62.4476C273.302 62.5513 272.422 61.7998 271.412 61.5666C270.17 61.3852 268.927 61.6962 267.918 62.4217C266.908 63.1472 265.821 63.7432 264.682 64.1837C263.258 64.4947 261.783 64.3651 260.437 63.795C259.841 63.6137 259.298 63.2768 258.858 62.8622C258.366 62.4476 258.107 61.8257 258.185 61.1779V61.152Z" fill="#263238"/>
<path d="M279.618 60.3489L260.566 60.7894C261.214 59.4938 262.145 58.3796 263.336 57.5504C265.821 55.6329 268.824 54.5446 271.956 54.441C275.062 54.3891 281.379 58.1723 283.631 60.2971C285.417 62.0072 285.417 63.5101 285.417 63.5101C285.701 65.9718 284.33 68.7962 283.76 71.206C283.475 72.4498 282.932 76.2329 282.932 76.2329C281.87 76.2329 281.482 75.4037 281.637 74.3673L281.819 70.2991C279.67 68.5889 278.919 65.6349 279.981 63.0955C280.24 62.7328 280.809 61.0485 279.567 60.3748L279.618 60.3489Z" fill="#263238"/>
<path d="M282.181 69.9881C283.061 66.5936 283.838 62.94 282.725 59.5974L283.294 59.5456L283.527 59.701C284.899 59.1828 286.426 59.8824 286.944 61.2817C287.255 62.1108 287.125 63.0178 286.633 63.7433C287.798 63.6915 288.834 64.5466 289.015 65.6867C289.015 66.4641 288.834 67.2414 288.471 67.941C288.083 68.6147 287.876 69.3921 287.824 70.1695C287.798 70.9727 288.342 71.6983 289.144 71.8537C288.782 72.6829 287.902 73.1493 287.022 72.9679C287.332 73.6157 287.798 74.1858 288.394 74.5745C287.177 75.4555 285.469 75.2223 284.097 74.5745C283.242 74.2635 282.544 73.6417 282.129 72.8643C281.845 71.9315 281.87 70.9209 282.207 69.9881H282.181Z" fill="#263238"/>
<path d="M282.621 73.9006C282.621 73.9006 287.202 72.5272 287.073 77.0878C286.944 81.6483 282.388 80.5859 282.388 80.4563C282.388 80.3267 282.621 73.9006 282.621 73.9006Z" fill="#FFBE9D"/>
<path d="M283.424 78.7722C283.424 78.7722 283.501 78.824 283.631 78.9018C283.812 78.9795 284.045 78.9795 284.226 78.9018C284.848 78.539 285.21 77.8653 285.184 77.1657C285.184 76.777 285.132 76.3883 285.003 76.0255C284.925 75.7405 284.718 75.5073 284.433 75.4037C284.252 75.3518 284.045 75.4296 283.967 75.6109C283.89 75.7405 283.916 75.8442 283.916 75.8442C283.916 75.8442 283.812 75.7664 283.864 75.585C283.89 75.4814 283.967 75.3777 284.045 75.3C284.175 75.1964 284.33 75.1704 284.485 75.1964C284.873 75.2741 285.158 75.5591 285.288 75.9219C285.469 76.3106 285.546 76.7511 285.521 77.1916C285.521 78.0208 285.055 78.7981 284.304 79.135C284.071 79.1868 283.812 79.135 283.605 79.0054C283.424 78.9277 283.424 78.824 283.424 78.7981V78.7722Z" fill="#EB996E"/>
<path d="M287.229 69.9878C287.229 69.9878 287.359 69.8064 287.307 69.4436C287.203 68.9513 286.867 68.5108 286.427 68.2776C285.78 67.9926 285.055 67.8371 284.356 67.8371C283.528 67.8371 282.751 67.5002 282.259 66.8265C281.871 66.101 281.716 65.2718 281.819 64.4426C281.897 63.6653 282.078 62.9656 282.181 62.3697C282.337 61.7219 282.311 61.0482 282.104 60.4263C282.104 61.0741 282.078 61.696 281.948 62.3438C281.819 62.9397 281.612 63.6134 281.508 64.4167C281.353 65.3236 281.508 66.2306 281.974 67.0338C282.233 67.4484 282.622 67.7594 283.087 67.9148C283.502 68.0444 283.916 68.148 284.356 68.148C285.055 68.148 285.728 68.2517 286.375 68.4849C286.789 68.6922 287.1 69.029 287.229 69.4695C287.255 69.625 287.255 69.8064 287.255 69.9878H287.229Z" fill="#455A64"/>
<path d="M288.29 67.9669C288.29 67.9669 288.394 67.8373 288.42 67.5523C288.472 66.8527 288.161 66.179 287.592 65.7644C287.333 65.583 287.022 65.4534 286.711 65.3757C286.401 65.3239 286.116 65.2202 285.831 65.0388C285.598 64.8315 285.443 64.5206 285.469 64.2097V63.1214C285.443 62.1885 285.132 61.2557 284.615 60.4783C284.408 60.1156 284.019 59.8824 283.579 59.8564C283.294 59.8564 283.165 60.0119 283.165 60.0119C283.165 60.0119 283.32 59.9601 283.553 60.0119C283.916 60.0637 284.226 60.2969 284.382 60.6338C284.666 61.1261 284.848 61.6444 284.977 62.1885C285.055 62.4995 285.081 62.8363 285.106 63.1732V64.2615C285.106 64.6761 285.288 65.0907 285.624 65.3498C285.935 65.5312 286.271 65.6607 286.634 65.7125C287.177 65.7903 287.643 66.1012 287.928 66.5417C288.187 66.9822 288.29 67.4746 288.265 67.9669H288.29Z" fill="#455A64"/>
<path d="M261.266 56.6953C261.266 56.6953 261.602 56.9285 262.198 56.6435C262.534 56.4621 262.819 56.203 263.026 55.892C263.311 55.5034 263.647 55.1665 264.061 54.9074C265.148 54.2596 266.495 54.3114 267.53 55.0369C268.099 55.4256 268.617 55.9957 269.29 56.4103C269.627 56.6435 270.041 56.8249 270.455 56.9026C270.895 56.9544 271.335 56.9026 271.749 56.7471C272.552 56.4362 273.199 55.918 273.898 55.6329C274.571 55.3479 275.296 55.1924 276.021 55.1924C277.263 55.1665 278.506 55.5552 279.515 56.2807C280.188 56.773 280.758 57.4208 281.198 58.1464C281.508 58.6646 281.612 59.0015 281.638 58.9756C281.664 58.9497 281.638 58.8978 281.586 58.7424C281.508 58.5091 281.431 58.3019 281.327 58.0946C280.939 57.3172 280.369 56.6176 279.67 56.0993C278.635 55.2961 277.341 54.8556 276.021 54.8815C275.244 54.8815 274.467 55.0369 273.768 55.322C273.018 55.6329 272.397 56.1512 271.62 56.4362C271.258 56.5917 270.895 56.6435 270.507 56.5917C270.144 56.5139 269.782 56.3844 269.497 56.1512C268.876 55.7366 268.358 55.1665 267.737 54.7778C267.142 54.3632 266.443 54.1559 265.744 54.1819C265.123 54.1819 264.527 54.3891 263.984 54.7001C263.569 54.9851 263.207 55.3479 262.922 55.7625C262.715 56.0734 262.456 56.3325 262.172 56.5139C261.913 56.6694 261.602 56.7471 261.292 56.7212L261.266 56.6953Z" fill="#455A64"/>
<path d="M234.499 117.277L210.866 98.5948L207.501 95.0448C207.501 95.0448 199.45 87.5304 198.777 86.7012C198.001 85.7424 197.327 85.8979 197.017 86.2089C196.499 86.7012 196.68 87.6858 197.328 88.515C197.56 88.8001 201.288 93.2051 201.288 93.2051C200.693 92.9978 200.071 92.8423 199.424 92.7387C198.078 92.4536 196.137 93.2569 194.584 94.6303C193.03 96.0036 192.746 96.5218 193.238 97.1437C193.445 97.3769 193.729 97.5065 194.04 97.4806C194.532 97.4806 195.024 97.2992 195.386 96.9623C197.871 94.8116 199.683 95.589 199.683 95.589L200.123 96.0554C200.123 96.0554 197.664 96.2368 196.836 97.7397C196.706 97.947 196.629 98.1802 196.603 98.4393C195.515 99.3721 195.386 101.005 196.292 102.093C196.577 102.43 196.939 102.689 197.353 102.844C197.742 103.052 198.233 102.974 198.57 102.689C198.699 102.482 198.777 102.274 198.803 102.041C198.803 101.912 198.855 101.808 198.881 101.678L200.304 102.793C200.304 102.793 203.618 105.151 204.938 106.342L224.741 127.875C227.459 130.829 232.04 131.011 234.965 128.29C234.991 128.264 235.017 128.238 235.043 128.212C237.942 125.44 238.046 120.853 235.276 117.977C235.043 117.744 234.784 117.511 234.525 117.303L234.499 117.277Z" fill="#FFBE9D"/>
<path d="M209.882 98.8798C209.442 99.3463 208.769 99.5017 208.174 99.2426C207.578 99.0353 207.087 98.6466 206.491 98.3875C204.757 97.662 202.66 98.3875 200.952 97.5583C200.719 97.4547 200.46 97.2215 200.512 96.9883C200.563 96.7551 200.848 96.6514 201.081 96.6255L207.19 95.4595" fill="#FFBE9D"/>
<path d="M207.241 95.4595C207.008 95.4595 206.776 95.4595 206.543 95.5113C206.102 95.5631 205.507 95.6668 204.731 95.7963L202.038 96.2627L201.262 96.3923C200.925 96.3923 200.641 96.5478 200.408 96.781C200.278 96.9624 200.278 97.1956 200.408 97.377C200.511 97.5065 200.641 97.6361 200.796 97.7138C201.081 97.8434 201.365 97.947 201.65 98.0248C202.763 98.1802 203.876 98.258 204.989 98.258C205.455 98.2839 205.921 98.3875 206.361 98.543C206.75 98.7244 207.112 98.9058 207.474 99.1131C208.018 99.4499 208.691 99.5536 209.312 99.3463C209.752 99.1649 209.83 98.8798 209.83 98.8798C209.675 99.0094 209.468 99.139 209.286 99.2167C208.717 99.3463 208.096 99.2167 207.604 98.8798C207.241 98.6466 206.879 98.4393 206.491 98.258C206.025 98.0507 205.533 97.947 205.041 97.8952C203.928 97.8952 202.841 97.7915 201.754 97.662C201.495 97.6102 201.21 97.5065 200.977 97.4029C200.744 97.2733 200.615 97.0919 200.692 96.9883C200.77 96.8846 201.055 96.8069 201.314 96.7551L202.09 96.5996L204.756 96.0554C205.507 95.9 206.128 95.7704 206.543 95.6668C206.776 95.6409 207.009 95.5631 207.216 95.4854L207.241 95.4595Z" fill="#EB996E"/>
<path d="M200.227 96.0555C199.942 95.7704 199.605 95.5631 199.217 95.4336C198.803 95.3299 198.363 95.3558 197.974 95.5113C197.483 95.7186 197.043 96.0036 196.628 96.3405C196.214 96.7033 195.774 97.0142 195.282 97.2733C194.868 97.5065 194.428 97.6102 193.962 97.5843C193.652 97.5843 193.341 97.4029 193.16 97.1438C193.082 97.0401 193.056 96.9365 193.03 96.8328C193.03 96.8328 193.082 96.9365 193.211 97.0919C193.393 97.2992 193.677 97.4288 193.962 97.4288C194.376 97.4288 194.816 97.2992 195.179 97.0919C195.645 96.8328 196.085 96.5219 196.473 96.1591C196.887 95.7963 197.353 95.5113 197.845 95.304C198.285 95.1226 198.777 95.1226 199.217 95.2781C199.502 95.3818 199.761 95.5372 199.994 95.7704C200.149 95.9259 200.201 96.0295 200.175 96.0555H200.227Z" fill="#EB996E"/>
<path d="M197.043 88.2041C197.328 88.4632 197.561 88.7742 197.794 89.0851L199.528 91.2358L201.314 93.3606C201.573 93.6456 201.806 93.9306 202.013 94.2675C201.702 94.0343 201.418 93.7752 201.185 93.4901C200.693 92.9719 200.046 92.2464 199.347 91.4172C198.648 90.588 198.053 89.8106 197.638 89.2147C197.405 88.9037 197.198 88.5928 197.043 88.23V88.2041Z" fill="#EB996E"/>
<path d="M200.072 97.895C200.072 97.895 199.839 97.9728 199.735 97.9987C199.451 98.0764 199.192 98.2578 199.036 98.5428C198.959 98.7242 198.985 98.9315 199.114 99.1129C199.269 99.3202 199.451 99.4756 199.632 99.657C199.891 99.8643 200.046 100.123 200.098 100.434C200.098 100.771 199.968 101.134 199.709 101.341C199.451 101.549 199.114 101.652 198.778 101.626C198.467 101.6 198.182 101.471 197.923 101.289C197.561 100.953 197.25 100.564 196.991 100.149C196.81 99.8643 196.681 99.5534 196.603 99.2165C196.551 98.9833 196.603 98.8538 196.603 98.8538C196.603 98.8538 196.603 98.9833 196.681 99.1906C196.784 99.5016 196.94 99.7866 197.121 100.046C197.38 100.434 197.69 100.797 198.053 101.134C198.493 101.497 199.088 101.523 199.554 101.186C199.761 101.004 199.865 100.771 199.865 100.486C199.813 100.227 199.683 99.9939 199.476 99.8384C199.269 99.657 199.088 99.4756 198.933 99.2424C198.777 99.0351 198.752 98.7501 198.881 98.5169C199.062 98.206 199.373 97.9987 199.709 97.9728C199.813 97.9209 199.942 97.9209 200.072 97.9209V97.895Z" fill="#EB996E"/>
<path d="M198.699 101.419C198.699 101.419 198.803 101.471 198.88 101.678C198.984 101.989 198.932 102.3 198.751 102.559C198.466 102.922 198 103.129 197.534 103.077C196.991 103 196.499 102.715 196.162 102.274C195.8 101.86 195.593 101.315 195.541 100.771C195.489 100.02 195.774 99.2684 196.344 98.7761C196.499 98.6465 196.602 98.5947 196.602 98.5947C196.344 98.8798 196.111 99.1907 195.955 99.5535C195.593 100.409 195.722 101.419 196.318 102.145C196.628 102.533 197.068 102.818 197.586 102.896C197.974 102.948 198.389 102.792 198.647 102.507C198.803 102.3 198.88 102.015 198.829 101.73C198.777 101.549 198.699 101.445 198.699 101.445V101.419Z" fill="#EB996E"/>
<path d="M204.239 101.86C204.239 101.86 204.368 101.678 204.679 101.497C205.093 101.29 205.585 101.212 206.051 101.29L205.921 101.445C205.766 101.212 205.637 100.979 205.533 100.746C205.093 99.9423 204.86 99.0353 204.912 98.1284C205.093 98.9835 205.378 99.8386 205.74 100.642C205.87 100.875 205.999 101.108 206.103 101.29L206.232 101.523L205.973 101.471C205.533 101.393 205.093 101.419 204.679 101.601C204.394 101.756 204.213 101.886 204.213 101.86H204.239Z" fill="#EB996E"/>
<path d="M197.871 94.3452C197.871 94.3452 198.026 94.7857 197.767 95.278C197.508 95.7704 197.068 95.9777 197.068 95.9258C197.068 95.874 197.353 95.6149 197.56 95.1744C197.767 94.7339 197.793 94.3452 197.845 94.3452H197.871Z" fill="#EB996E"/>
<path d="M233.438 129.715L247.08 120.257C247.08 120.257 245.889 156.871 245.889 157.208C245.889 157.208 243.404 158.192 243.818 160.809L244.517 164.489C259.557 167.961 274.441 170.189 289.584 164.592L291.319 135.416L296.677 99.7867L284.485 94.6043L282.414 89.7588L269.782 103.363L266.546 94.5784L266.624 91.2617L263.569 94.5784L248.762 97.0141L230.332 111.965L224.3 107.068L215.188 119.739L225.569 130.207C228.183 130.907 230.979 130.726 233.49 129.637L233.438 129.715Z" fill="#215988"/>
<path d="M267.892 101.782C267.503 102.015 267.193 102.352 267.012 102.767C266.83 103.259 266.727 103.751 266.753 104.27C266.779 104.969 266.701 105.669 266.468 106.343L266.313 106.705L266.157 106.343C265.743 105.306 265.433 104.244 265.2 103.181C264.682 100.927 264.345 98.88 264.112 97.403C263.957 96.5997 263.879 95.7965 263.854 94.9673C264.086 95.7446 264.242 96.5479 264.371 97.3512C264.656 98.8282 265.018 100.875 265.536 103.104C265.769 104.166 266.08 105.203 266.468 106.213H266.157C266.364 105.591 266.468 104.943 266.468 104.27C266.468 103.726 266.597 103.181 266.83 102.689C266.986 102.352 267.219 102.093 267.529 101.912C267.762 101.756 267.892 101.756 267.892 101.756V101.782Z" fill="#263238"/>
<path d="M283.761 96.3145C283.657 96.5218 283.502 96.7291 283.346 96.9105C283.062 97.2733 282.648 97.8174 282.104 98.4652C281.043 99.7608 279.567 101.549 277.91 103.492L275.27 106.576L275.063 106.809L274.985 106.498C274.597 104.995 274.286 103.725 274.105 102.818C274.028 102.378 273.769 102.119 273.536 102.119C273.406 102.119 273.303 102.145 273.199 102.222C273.199 102.222 273.251 102.041 273.536 102.015C273.717 102.015 273.872 102.093 274.002 102.197C274.157 102.352 274.261 102.559 274.312 102.767C274.571 103.648 274.934 104.917 275.322 106.42L275.037 106.342L277.652 103.233C279.308 101.29 280.836 99.5276 281.949 98.2579C282.492 97.636 282.958 97.1178 283.269 96.7809C283.424 96.5736 283.605 96.4182 283.786 96.2627L283.761 96.3145Z" fill="#263238"/>
<path d="M265.51 153.632C265.484 153.476 265.458 153.321 265.484 153.165V146.947C265.536 142.801 265.717 137.1 266.183 130.803C266.649 124.507 267.322 118.832 267.866 114.712C268.151 112.639 268.409 111.007 268.591 109.867L268.824 108.571C268.85 108.415 268.875 108.26 268.927 108.104C268.927 108.26 268.927 108.415 268.927 108.571C268.875 108.908 268.824 109.348 268.772 109.892C268.617 111.084 268.409 112.743 268.151 114.738C267.659 118.832 267.038 124.507 266.572 130.803C266.106 137.1 265.873 142.801 265.743 146.921C265.691 148.968 265.666 150.626 265.64 151.818C265.64 152.362 265.64 152.803 265.588 153.139C265.588 153.295 265.562 153.476 265.51 153.632Z" fill="#263238"/>
<path d="M262.042 162.027C261.731 161.043 261.628 159.98 261.731 158.944C261.705 157.907 261.809 156.871 262.042 155.86C262.145 156.897 262.145 157.907 262.042 158.944C261.99 160.628 262.12 162.001 262.042 162.001V162.027Z" fill="#263238"/>
<path d="M279.592 151.947C279.23 152.129 278.867 152.258 278.505 152.362C277.806 152.621 276.745 152.932 275.425 153.321C272.034 154.305 268.565 155.109 265.096 155.73C261.628 156.352 258.107 156.793 254.587 157.026C253.215 157.104 252.127 157.181 251.377 157.181C250.988 157.207 250.6 157.207 250.212 157.181C250.6 157.104 250.988 157.052 251.377 157.052L254.587 156.793C257.279 156.534 261.006 156.093 265.07 155.419C269.134 154.746 272.784 153.813 275.399 153.113L278.505 152.258C278.867 152.129 279.256 152.025 279.644 151.947H279.592Z" fill="#263238"/>
<path d="M247.028 128.653C247.028 128.653 246.873 123.548 246.898 117.277C246.924 111.007 247.028 105.902 247.131 105.902C247.235 105.902 247.287 111.007 247.261 117.277C247.235 123.548 247.131 128.653 247.028 128.653Z" fill="#263238"/>
<g opacity="0.3">
<path d="M270.921 104.606C271.697 104.58 272.371 105.073 272.578 105.824C272.707 106.576 272.603 107.353 272.811 108.078C273.018 108.804 273.665 109.529 274.415 109.374C274.856 109.219 275.218 108.933 275.477 108.545C276.926 106.576 278.091 104.399 278.945 102.119C278.945 102.17 275.114 106.524 275.114 106.524C274.959 105.435 274.674 104.347 274.26 103.337C274.131 103 273.975 102.43 273.665 102.3C273.147 102.067 272.448 102.818 272.112 103.285C271.749 103.751 271.361 104.192 270.921 104.58" fill="black"/>
</g>
<g opacity="0.3">
<path d="M264.656 100.668C264.734 103.103 265.2 105.513 266.028 107.793C266.106 108.027 266.235 108.234 266.391 108.415C266.572 108.597 266.857 108.648 267.09 108.519C267.374 108.052 267.607 107.56 267.788 107.042C268.151 106.057 269.575 105.954 269.575 105.954C269.342 104.839 269.031 103.725 268.643 102.663C268.487 102.3 268.151 102.067 267.763 102.093C267.245 102.274 266.882 102.689 266.779 103.233C266.572 104.995 266.598 105.824 266.339 106.446C265.64 104.554 265.122 102.3 264.682 100.616" fill="black"/>
</g>
<g opacity="0.3">
<path d="M275.269 153.114C275.942 152.621 276.098 151.689 275.606 150.989C275.088 150.341 274.26 150.03 273.431 150.16C272.629 150.289 271.878 150.626 271.257 151.144C270.61 151.611 269.988 152.155 269.315 152.595C267.633 153.632 265.562 153.865 263.569 153.917C261.576 153.839 259.582 153.917 257.615 154.176C255.674 154.565 253.706 155.549 252.774 157.311C252.774 157.286 269.781 156.068 275.295 153.114H275.269Z" fill="black"/>
</g>
<path d="M296.625 99.8125C296.625 99.8125 301.776 103.492 303.019 106.809C304.261 110.125 308.869 132.954 309.62 136.841C310.578 141.738 310.604 147.801 303.537 150.108C300.922 150.963 284.873 149.641 284.873 149.641L285.391 138.214L294.062 138.551C294.062 138.551 293.545 137.774 294.787 136.867L292.018 122.019C292.018 122.019 293.027 106.239 293.156 105.876C293.286 105.513 296.625 99.8125 296.625 99.8125Z" fill="#215988"/>
<path d="M296.91 100.201C293.83 101.471 291.423 103.984 290.31 107.12C290.335 106.627 290.465 106.161 290.672 105.746C291.578 103.518 293.312 101.704 295.513 100.694C295.953 100.46 296.419 100.279 296.885 100.227L296.91 100.201Z" fill="#263238"/>
<path d="M299.706 140.883C299.706 140.883 299.524 140.494 299.188 139.976C298.722 139.277 298.127 138.707 297.428 138.24C296.729 137.774 295.952 137.463 295.15 137.333C294.528 137.255 294.114 137.333 294.114 137.255C294.451 137.1 294.813 137.022 295.176 137.074C296.056 137.152 296.91 137.437 297.635 137.929C298.385 138.396 299.007 139.043 299.421 139.821C299.628 140.132 299.731 140.494 299.706 140.857V140.883Z" fill="#263238"/>
<path d="M290.413 113.002C290.517 113.287 290.594 113.598 290.646 113.909C290.801 114.608 290.957 115.438 291.19 116.448C291.63 118.599 292.173 121.553 292.795 124.818C293.416 128.083 293.934 131.037 294.296 133.213C294.451 134.25 294.607 135.079 294.71 135.753C294.788 136.064 294.814 136.375 294.814 136.685C294.71 136.4 294.632 136.09 294.581 135.779C294.451 135.079 294.27 134.25 294.063 133.239C293.623 131.088 293.079 128.135 292.458 124.87C291.837 121.605 291.319 118.651 290.957 116.474C290.801 115.438 290.646 114.608 290.543 113.935C290.465 113.624 290.439 113.313 290.439 113.002H290.413Z" fill="#263238"/>
<path d="M284.874 149.641C284.848 149.356 284.848 149.045 284.874 148.76C284.874 148.138 284.874 147.309 284.925 146.35C284.977 144.277 285.081 141.453 285.236 138.214V138.033H285.417L286.841 138.085L294.063 138.395H294.141C295.228 139.302 296.03 140.468 296.522 141.764C296.652 142.127 296.755 142.49 296.807 142.878C296.833 143.008 296.859 143.137 296.833 143.267C296.781 143.267 296.703 142.723 296.341 141.816C295.823 140.572 294.995 139.484 293.934 138.655H294.011L286.789 138.447L285.365 138.395L285.547 138.24C285.391 141.453 285.262 144.303 285.132 146.35C285.055 147.335 285.003 148.138 284.977 148.76C284.977 149.071 284.925 149.356 284.848 149.641H284.874Z" fill="#263238"/>
<path d="M272.215 135.856L265.51 122.175C265.044 121.242 264.112 120.646 263.077 120.646H246.199C245.733 120.646 245.371 121.009 245.371 121.475C245.371 121.605 245.397 121.76 245.475 121.864L256.89 143.189C257.227 143.785 257.848 144.148 258.521 144.148H276.02L272.241 135.83L272.215 135.856Z" fill="#455A64"/>
<path d="M245.578 121.967H250.445L262.145 121.864C262.689 121.864 263.232 121.993 263.698 122.227C264.138 122.512 264.501 122.9 264.734 123.367C265.225 124.299 265.64 125.284 266.054 126.139L268.306 130.907L269.833 134.12C270.014 134.483 270.144 134.768 270.273 134.975C270.325 135.079 270.377 135.182 270.428 135.26C270.428 135.157 270.377 135.053 270.325 134.949C270.221 134.716 270.092 134.431 269.937 134.068C269.574 133.265 269.082 132.151 268.487 130.803C267.892 129.456 267.115 127.798 266.313 126.01C265.898 125.103 265.484 124.144 264.992 123.185C264.734 122.667 264.345 122.227 263.853 121.916C263.336 121.631 262.74 121.501 262.145 121.501C257.563 121.501 253.422 121.631 250.393 121.682L246.847 121.786L245.889 121.838C245.889 121.838 245.682 121.89 245.578 121.941V121.967Z" fill="#263238"/>
<path d="M255.985 124.973C255.7 125.077 255.545 125.388 255.648 125.673C255.648 125.725 255.7 125.776 255.726 125.802C255.907 126.087 256.27 126.243 256.606 126.139C256.839 126.087 257.02 125.906 257.072 125.699C257.072 125.362 256.891 125.025 256.554 124.921C256.347 124.895 256.166 124.921 255.959 124.973H255.985Z" fill="white"/>
<path d="M285.209 138.707L281.016 138.292C281.016 138.292 279.126 136.141 278.376 135.494C277.625 134.846 273.354 132.721 273.354 132.721C273.354 132.721 271.128 130.363 270.843 130.389C270.558 130.415 269.652 130.7 270.04 131.866C270.403 133.032 270.895 134.146 271.516 135.209L263.077 136.4C262.534 136.478 262.068 136.763 261.783 137.23C261.602 137.541 261.55 137.877 261.964 138.007C263.491 138.37 265.044 138.629 266.598 138.784L264.941 138.551C264.941 138.551 264.786 140.132 265.899 140.728C266.313 140.909 266.727 141.168 267.089 141.453C267.193 142.153 267.426 142.827 267.814 143.423C268.332 143.967 273.38 145.832 273.38 145.832C273.38 145.832 276.538 146.377 278.065 146.117L284.899 147.154L285.235 138.603L285.209 138.707Z" fill="#FFBE9D"/>
<path d="M270.688 135.39C271.49 135.442 272.292 135.442 273.095 135.39C273.897 135.442 274.7 135.39 275.502 135.208C274.7 135.079 273.897 135.027 273.095 135.079C272.292 135.027 271.464 135.131 270.688 135.39Z" fill="#EB996E"/>
<path d="M272.267 139.017C271.102 138.758 269.911 138.629 268.72 138.706H266.209C265.873 138.706 265.51 138.706 265.174 138.758C265.51 138.888 265.847 138.94 266.209 138.914C266.856 138.966 267.737 138.992 268.72 138.992C270.687 138.992 272.267 139.095 272.267 139.017Z" fill="#EB996E"/>
<path d="M272.603 141.79C272.603 141.79 271.361 141.79 269.833 141.738C268.306 141.687 267.063 141.427 267.063 141.531C267.944 141.868 268.875 142.049 269.833 142.049C270.765 142.153 271.697 142.049 272.603 141.816V141.79Z" fill="#EB996E"/>
<path d="M272.474 144.951C272.474 144.951 272.629 144.614 272.655 144.174C272.681 143.733 272.629 143.396 272.526 143.396C272.422 143.396 272.37 143.733 272.344 144.174C272.319 144.614 272.37 144.951 272.474 144.951Z" fill="#EB996E"/>
<path d="M272.785 141.142C272.785 141.142 272.889 140.857 272.992 140.52C273.096 140.183 273.251 139.976 273.199 139.924C273.147 139.872 272.837 140.028 272.707 140.442C272.578 140.857 272.707 141.168 272.785 141.142Z" fill="#EB996E"/>
<path d="M273.302 137.307C273.302 137.307 273.457 137.126 273.535 136.918C273.613 136.711 273.69 136.53 273.612 136.452C273.535 136.374 273.354 136.53 273.25 136.815C273.147 137.1 273.224 137.333 273.302 137.333V137.307Z" fill="#EB996E"/>
<path d="M103.189 84.1411C102.616 84.1411 102.067 84.0661 101.542 83.9161C101.017 83.7593 100.594 83.5581 100.273 83.3126L100.836 82.0648C101.143 82.283 101.504 82.4637 101.92 82.6069C102.343 82.7433 102.769 82.8115 103.199 82.8115C103.526 82.8115 103.789 82.7808 103.986 82.7194C104.191 82.6512 104.341 82.5592 104.436 82.4432C104.532 82.3273 104.58 82.1943 104.58 82.0443C104.58 81.8534 104.505 81.7034 104.355 81.5943C104.205 81.4784 104.007 81.3863 103.761 81.3181C103.516 81.2431 103.243 81.1749 102.943 81.1136C102.65 81.0454 102.353 80.9635 102.053 80.8681C101.76 80.7726 101.491 80.6499 101.245 80.4999C101 80.3498 100.798 80.1521 100.642 79.9066C100.492 79.6611 100.417 79.3475 100.417 78.9656C100.417 78.5565 100.526 78.1849 100.744 77.8507C100.969 77.5098 101.303 77.2404 101.746 77.0427C102.196 76.8381 102.759 76.7358 103.434 76.7358C103.884 76.7358 104.327 76.7904 104.764 76.8995C105.2 77.0018 105.585 77.1586 105.919 77.37L105.408 78.6281C105.074 78.4371 104.74 78.2974 104.406 78.2087C104.072 78.1133 103.744 78.0655 103.424 78.0655C103.103 78.0655 102.841 78.103 102.636 78.178C102.432 78.253 102.285 78.3519 102.196 78.4747C102.108 78.5906 102.063 78.727 102.063 78.8838C102.063 79.0679 102.138 79.2179 102.288 79.3338C102.438 79.4429 102.636 79.5316 102.882 79.5998C103.127 79.668 103.396 79.7361 103.69 79.8043C103.99 79.8725 104.286 79.9509 104.58 80.0396C104.88 80.1282 105.152 80.2476 105.398 80.3976C105.643 80.5476 105.841 80.7453 105.991 80.9908C106.148 81.2363 106.226 81.5466 106.226 81.9216C106.226 82.3239 106.114 82.6921 105.889 83.0263C105.664 83.3604 105.326 83.6297 104.876 83.8343C104.433 84.0389 103.87 84.1411 103.189 84.1411Z" fill="#F26639"/>
<path d="M96.047 84.0182V78.2085H93.7559V76.8584H99.9951V78.2085H97.704V84.0182H96.047Z" fill="#F26639"/>
<path d="M89.2252 79.7428H92.6721V81.0315H89.2252V79.7428ZM89.3479 82.6885H93.2449V84.0182H87.7012V76.8584H93.1119V78.1881H89.3479V82.6885Z" fill="#F26639"/>
<path d="M81.613 82.3817L81.5209 80.469L84.9474 76.8584H86.7885L83.6996 80.1826L82.779 81.1645L81.613 82.3817ZM80.1299 84.0182V76.8584H81.7766V84.0182H80.1299ZM85.0292 84.0182L82.4824 80.8986L83.5666 79.7223L86.9624 84.0182H85.0292Z" fill="#F26639"/>
<path d="M76.0552 84.1411C75.5029 84.1411 74.9881 84.0525 74.5108 83.8752C74.0403 83.6911 73.6311 83.432 73.2834 83.0978C72.9356 82.7637 72.6629 82.3716 72.4651 81.9216C72.2742 81.4715 72.1787 80.9772 72.1787 80.4385C72.1787 79.8998 72.2742 79.4054 72.4651 78.9554C72.6629 78.5053 72.9356 78.1133 73.2834 77.7791C73.6379 77.445 74.0505 77.1893 74.521 77.012C74.9915 76.8279 75.5063 76.7358 76.0655 76.7358C76.686 76.7358 77.2451 76.8449 77.7429 77.0631C78.2475 77.2745 78.6703 77.5882 79.0112 78.0042L77.9475 78.9861C77.702 78.7065 77.4292 78.4985 77.1292 78.3621C76.8292 78.2189 76.5019 78.1473 76.1473 78.1473C75.8132 78.1473 75.5063 78.2019 75.2267 78.311C74.9472 78.4201 74.7051 78.5769 74.5005 78.7815C74.296 78.9861 74.1357 79.2281 74.0198 79.5077C73.9107 79.7873 73.8562 80.0975 73.8562 80.4385C73.8562 80.7794 73.9107 81.0897 74.0198 81.3693C74.1357 81.6488 74.296 81.8909 74.5005 82.0955C74.7051 82.3 74.9472 82.4569 75.2267 82.566C75.5063 82.6751 75.8132 82.7296 76.1473 82.7296C76.5019 82.7296 76.8292 82.6614 77.1292 82.5251C77.4292 82.3819 77.702 82.1671 77.9475 81.8807L79.0112 82.8626C78.6703 83.2786 78.2475 83.5956 77.7429 83.8138C77.2451 84.032 76.6826 84.1411 76.0552 84.1411Z" fill="#F26639"/>
<path d="M69.2725 84.0182V76.8584H70.9294V84.0182H69.2725Z" fill="#F26639"/>
<path d="M64.4327 84.0182V78.2085H62.1416V76.8584H68.3809V78.2085H66.0897V84.0182H64.4327Z" fill="#F26639"/>
</g>
<defs>
<clipPath id="clip0_455_2699">
<rect width="320" height="306.849" fill="white"/>
</clipPath>
</defs>
</svg>
