<svg width="20" height="20" viewBox="0 0 20 20" fill="none" xmlns="http://www.w3.org/2000/svg">
<path d="M10 4.16667C9.66848 4.16667 9.35054 4.03497 9.11612 3.80055C8.8817 3.56613 8.75 3.24819 8.75 2.91667V1.25C8.75 0.918479 8.8817 0.600537 9.11612 0.366116C9.35054 0.131696 9.66848 0 10 0C10.3315 0 10.6495 0.131696 10.8839 0.366116C11.1183 0.600537 11.25 0.918479 11.25 1.25V2.91667C11.25 3.24819 11.1183 3.56613 10.8839 3.80055C10.6495 4.03497 10.3315 4.16667 10 4.16667ZM11.25 18.75V17.0833C11.25 16.7518 11.1183 16.4339 10.8839 16.1994C10.6495 15.965 10.3315 15.8333 10 15.8333C9.66848 15.8333 9.35054 15.965 9.11612 16.1994C8.8817 16.4339 8.75 16.7518 8.75 17.0833V18.75C8.75 19.0815 8.8817 19.3995 9.11612 19.6339C9.35054 19.8683 9.66848 20 10 20C10.3315 20 10.6495 19.8683 10.8839 19.6339C11.1183 19.3995 11.25 19.0815 11.25 18.75ZM4.16667 10C4.16667 9.66848 4.03497 9.35054 3.80055 9.11612C3.56613 8.8817 3.24819 8.75 2.91667 8.75H1.25C0.918479 8.75 0.600537 8.8817 0.366116 9.11612C0.131696 9.35054 0 9.66848 0 10C0 10.3315 0.131696 10.6495 0.366116 10.8839C0.600537 11.1183 0.918479 11.25 1.25 11.25H2.91667C3.24819 11.25 3.56613 11.1183 3.80055 10.8839C4.03497 10.6495 4.16667 10.3315 4.16667 10ZM20 10C20 9.66848 19.8683 9.35054 19.6339 9.11612C19.3995 8.8817 19.0815 8.75 18.75 8.75H17.0833C16.7518 8.75 16.4339 8.8817 16.1994 9.11612C15.965 9.35054 15.8333 9.66848 15.8333 10C15.8333 10.3315 15.965 10.6495 16.1994 10.8839C16.4339 11.1183 16.7518 11.25 17.0833 11.25H18.75C19.0815 11.25 19.3995 11.1183 19.6339 10.8839C19.8683 10.6495 20 10.3315 20 10ZM14.5633 4.44083L15.3808 2.98833C15.5371 2.70004 15.5738 2.36189 15.483 2.04679C15.3923 1.73169 15.1813 1.46486 14.8957 1.30384C14.61 1.14281 14.2725 1.10048 13.956 1.18596C13.6394 1.27145 13.3691 1.47791 13.2033 1.76083L12.385 3.21333C12.3043 3.3564 12.2526 3.51397 12.2329 3.67702C12.2132 3.84007 12.2257 4.00542 12.2699 4.16361C12.3141 4.3218 12.389 4.46973 12.4904 4.59894C12.5918 4.72816 12.7177 4.83612 12.8608 4.91667C13.0475 5.02282 13.2586 5.07854 13.4733 5.07833C13.6953 5.07839 13.9132 5.01938 14.1047 4.90734C14.2963 4.7953 14.4546 4.63429 14.5633 4.44083ZM6.79667 18.2392L7.615 16.7867C7.77778 16.4978 7.81913 16.1561 7.72998 15.8367C7.64082 15.5174 7.42845 15.2465 7.13958 15.0837C6.85072 14.921 6.50902 14.8796 6.18966 14.9688C5.8703 15.0579 5.59944 15.2703 5.43667 15.5592L4.61917 17.0117C4.46293 17.3 4.42622 17.6381 4.51698 17.9532C4.60773 18.2683 4.81867 18.5351 5.10432 18.6962C5.38997 18.8572 5.72745 18.8995 6.04402 18.814C6.3606 18.7285 6.6309 18.5221 6.79667 18.2392ZM4.91667 7.13917C5.0794 6.8504 5.12077 6.50883 5.0317 6.18956C4.94262 5.87029 4.73039 5.59948 4.44167 5.43667L2.98833 4.61917C2.70004 4.46293 2.36189 4.42622 2.04679 4.51698C1.73169 4.60773 1.46486 4.81867 1.30384 5.10432C1.14281 5.38997 1.10048 5.72745 1.18596 6.04402C1.27145 6.3606 1.47791 6.6309 1.76083 6.79667L3.21333 7.615C3.3564 7.69567 3.51397 7.74736 3.67702 7.7671C3.84007 7.78685 4.00542 7.77427 4.16361 7.73008C4.3218 7.68588 4.46973 7.61095 4.59894 7.50956C4.72816 7.40817 4.83612 7.28231 4.91667 7.13917ZM18.715 14.9058C18.8777 14.6171 18.9191 14.2755 18.83 13.9562C18.741 13.637 18.5287 13.3661 18.24 13.2033L16.7875 12.385C16.6445 12.3044 16.487 12.2528 16.324 12.233C16.161 12.2133 15.9957 12.2259 15.8376 12.27C15.6795 12.3142 15.5316 12.389 15.4024 12.4903C15.2732 12.5916 15.1652 12.7174 15.0846 12.8604C15.004 13.0034 14.9523 13.161 14.9326 13.3239C14.9129 13.4869 14.9255 13.6522 14.9696 13.8103C15.0588 14.1297 15.2711 14.4006 15.56 14.5633L17.0125 15.3808C17.3013 15.5436 17.6428 15.5849 17.9621 15.4959C18.2814 15.4068 18.5522 15.1946 18.715 14.9058ZM7.13917 4.91667C7.42803 4.754 7.64044 4.48324 7.72968 4.16396C7.81891 3.84468 7.77766 3.50303 7.615 3.21417L6.79667 1.76083C6.6309 1.47791 6.3606 1.27145 6.04402 1.18596C5.72745 1.10048 5.38997 1.14281 5.10432 1.30384C4.81867 1.46486 4.60773 1.73169 4.51698 2.04679C4.42622 2.36189 4.46293 2.70004 4.61917 2.98833L5.43667 4.44083C5.54551 4.63413 5.70384 4.79498 5.8954 4.90686C6.08695 5.01875 6.30483 5.07764 6.52667 5.0775C6.74133 5.07796 6.95242 5.02253 7.13917 4.91667ZM14.9058 18.715C15.1946 18.5522 15.4068 18.2814 15.4959 17.9621C15.5849 17.6428 15.5436 17.3013 15.3808 17.0125L14.5633 15.56C14.4006 15.2711 14.1297 15.0588 13.8103 14.9696C13.491 14.8804 13.1493 14.9218 12.8604 15.0846C12.5716 15.2474 12.3592 15.5182 12.27 15.8376C12.1809 16.1569 12.2222 16.4986 12.385 16.7875L13.2033 18.24C13.3661 18.5287 13.637 18.741 13.9562 18.83C14.2755 18.9191 14.6171 18.8777 14.9058 18.715ZM16.7867 7.615L18.2392 6.79667C18.5221 6.6309 18.7285 6.3606 18.814 6.04402C18.8995 5.72745 18.8572 5.38997 18.6962 5.10432C18.5351 4.81867 18.2683 4.60773 17.9532 4.51698C17.6381 4.42622 17.3 4.46293 17.0117 4.61917L15.5592 5.43667C15.2703 5.59944 15.0579 5.8703 14.9688 6.18966C14.8796 6.50902 14.921 6.85072 15.0837 7.13958C15.2465 7.42845 15.5174 7.64082 15.8367 7.72998C16.1561 7.81913 16.4978 7.77778 16.7867 7.615ZM2.98833 15.3808L4.44083 14.5633C4.58386 14.4827 4.70962 14.3748 4.81092 14.2456C4.91222 14.1164 4.98708 13.9685 5.03123 13.8103C5.07537 13.6522 5.08794 13.4869 5.06821 13.3239C5.04849 13.161 4.99685 13.0034 4.91625 12.8604C4.83565 12.7174 4.72767 12.5916 4.59847 12.4903C4.46927 12.389 4.32138 12.3142 4.16325 12.27C4.00512 12.2259 3.83985 12.2133 3.67686 12.233C3.51387 12.2528 3.35636 12.3044 3.21333 12.385L1.76083 13.2033C1.52037 13.3392 1.33167 13.5508 1.2242 13.8053C1.11673 14.0597 1.09654 14.3425 1.16679 14.6096C1.23704 14.8767 1.39377 15.113 1.6125 15.2816C1.83123 15.4503 2.09965 15.5417 2.37583 15.5417C2.5905 15.5422 2.8016 15.4867 2.98833 15.3808Z" fill="white"/>
</svg>
