<svg width="15" height="15" viewBox="0 0 15 15" fill="none" xmlns="http://www.w3.org/2000/svg">
<path d="M5.625 0H3.125C2.2962 0 1.50134 0.32924 0.915291 0.915291C0.32924 1.50134 0 2.2962 0 3.125V11.875C0 12.2854 0.0808305 12.6917 0.237876 13.0709C0.394922 13.45 0.625108 13.7945 0.915291 14.0847C1.50134 14.6708 2.2962 15 3.125 15H8.75V3.125C8.75 2.71462 8.66917 2.30826 8.51212 1.92911C8.35508 1.54997 8.12489 1.20547 7.83471 0.915291C7.54453 0.625108 7.20003 0.394922 6.82089 0.237876C6.44174 0.0808305 6.03538 0 5.625 0ZM3.125 11.875H2.5C2.33424 11.875 2.17527 11.8092 2.05806 11.6919C1.94085 11.5747 1.875 11.4158 1.875 11.25C1.875 11.0842 1.94085 10.9253 2.05806 10.8081C2.17527 10.6908 2.33424 10.625 2.5 10.625H3.125C3.29076 10.625 3.44973 10.6908 3.56694 10.8081C3.68415 10.9253 3.75 11.0842 3.75 11.25C3.75 11.4158 3.68415 11.5747 3.56694 11.6919C3.44973 11.8092 3.29076 11.875 3.125 11.875ZM3.125 9.375H2.5C2.33424 9.375 2.17527 9.30915 2.05806 9.19194C1.94085 9.07473 1.875 8.91576 1.875 8.75C1.875 8.58424 1.94085 8.42527 2.05806 8.30806C2.17527 8.19085 2.33424 8.125 2.5 8.125H3.125C3.29076 8.125 3.44973 8.19085 3.56694 8.30806C3.68415 8.42527 3.75 8.58424 3.75 8.75C3.75 8.91576 3.68415 9.07473 3.56694 9.19194C3.44973 9.30915 3.29076 9.375 3.125 9.375ZM3.125 6.875H2.5C2.33424 6.875 2.17527 6.80915 2.05806 6.69194C1.94085 6.57473 1.875 6.41576 1.875 6.25C1.875 6.08424 1.94085 5.92527 2.05806 5.80806C2.17527 5.69085 2.33424 5.625 2.5 5.625H3.125C3.29076 5.625 3.44973 5.69085 3.56694 5.80806C3.68415 5.92527 3.75 6.08424 3.75 6.25C3.75 6.41576 3.68415 6.57473 3.56694 6.69194C3.44973 6.80915 3.29076 6.875 3.125 6.875ZM3.125 4.375H2.5C2.33424 4.375 2.17527 4.30915 2.05806 4.19194C1.94085 4.07473 1.875 3.91576 1.875 3.75C1.875 3.58424 1.94085 3.42527 2.05806 3.30806C2.17527 3.19085 2.33424 3.125 2.5 3.125H3.125C3.29076 3.125 3.44973 3.19085 3.56694 3.30806C3.68415 3.42527 3.75 3.58424 3.75 3.75C3.75 3.91576 3.68415 4.07473 3.56694 4.19194C3.44973 4.30915 3.29076 4.375 3.125 4.375ZM6.25 11.875H5.625C5.45924 11.875 5.30027 11.8092 5.18306 11.6919C5.06585 11.5747 5 11.4158 5 11.25C5 11.0842 5.06585 10.9253 5.18306 10.8081C5.30027 10.6908 5.45924 10.625 5.625 10.625H6.25C6.41576 10.625 6.57473 10.6908 6.69194 10.8081C6.80915 10.9253 6.875 11.0842 6.875 11.25C6.875 11.4158 6.80915 11.5747 6.69194 11.6919C6.57473 11.8092 6.41576 11.875 6.25 11.875ZM6.25 9.375H5.625C5.45924 9.375 5.30027 9.30915 5.18306 9.19194C5.06585 9.07473 5 8.91576 5 8.75C5 8.58424 5.06585 8.42527 5.18306 8.30806C5.30027 8.19085 5.45924 8.125 5.625 8.125H6.25C6.41576 8.125 6.57473 8.19085 6.69194 8.30806C6.80915 8.42527 6.875 8.58424 6.875 8.75C6.875 8.91576 6.80915 9.07473 6.69194 9.19194C6.57473 9.30915 6.41576 9.375 6.25 9.375ZM6.25 6.875H5.625C5.45924 6.875 5.30027 6.80915 5.18306 6.69194C5.06585 6.57473 5 6.41576 5 6.25C5 6.08424 5.06585 5.92527 5.18306 5.80806C5.30027 5.69085 5.45924 5.625 5.625 5.625H6.25C6.41576 5.625 6.57473 5.69085 6.69194 5.80806C6.80915 5.92527 6.875 6.08424 6.875 6.25C6.875 6.41576 6.80915 6.57473 6.69194 6.69194C6.57473 6.80915 6.41576 6.875 6.25 6.875ZM6.25 4.375H5.625C5.45924 4.375 5.30027 4.30915 5.18306 4.19194C5.06585 4.07473 5 3.91576 5 3.75C5 3.58424 5.06585 3.42527 5.18306 3.30806C5.30027 3.19085 5.45924 3.125 5.625 3.125H6.25C6.41576 3.125 6.57473 3.19085 6.69194 3.30806C6.80915 3.42527 6.875 3.58424 6.875 3.75C6.875 3.91576 6.80915 4.07473 6.69194 4.19194C6.57473 4.30915 6.41576 4.375 6.25 4.375ZM11.875 3.125H10V15H11.875C12.7035 14.999 13.4978 14.6694 14.0836 14.0836C14.6694 13.4978 14.999 12.7035 15 11.875V6.25C14.999 5.4215 14.6694 4.62722 14.0836 4.04139C13.4978 3.45555 12.7035 3.12599 11.875 3.125ZM12.5 11.875C12.3764 11.875 12.2555 11.8383 12.1528 11.7697C12.05 11.701 11.9699 11.6034 11.9226 11.4892C11.8753 11.375 11.8629 11.2493 11.887 11.1281C11.9111 11.0068 11.9706 10.8955 12.0581 10.8081C12.1455 10.7206 12.2568 10.6611 12.3781 10.637C12.4993 10.6129 12.625 10.6253 12.7392 10.6726C12.8534 10.7199 12.951 10.8 13.0197 10.9028C13.0883 11.0055 13.125 11.1264 13.125 11.25C13.125 11.4158 13.0592 11.5747 12.9419 11.6919C12.8247 11.8092 12.6658 11.875 12.5 11.875ZM12.5 9.375C12.3764 9.375 12.2555 9.33834 12.1528 9.26967C12.05 9.20099 11.9699 9.10338 11.9226 8.98918C11.8753 8.87497 11.8629 8.74931 11.887 8.62807C11.9111 8.50683 11.9706 8.39547 12.0581 8.30806C12.1455 8.22065 12.2568 8.16113 12.3781 8.13701C12.4993 8.11289 12.625 8.12527 12.7392 8.17257C12.8534 8.21988 12.951 8.29999 13.0197 8.40277C13.0883 8.50555 13.125 8.62639 13.125 8.75C13.125 8.91576 13.0592 9.07473 12.9419 9.19194C12.8247 9.30915 12.6658 9.375 12.5 9.375ZM12.5 6.875C12.3764 6.875 12.2555 6.83834 12.1528 6.76967C12.05 6.70099 11.9699 6.60338 11.9226 6.48918C11.8753 6.37497 11.8629 6.24931 11.887 6.12807C11.9111 6.00683 11.9706 5.89547 12.0581 5.80806C12.1455 5.72065 12.2568 5.66112 12.3781 5.63701C12.4993 5.61289 12.625 5.62527 12.7392 5.67257C12.8534 5.71988 12.951 5.79999 13.0197 5.90277C13.0883 6.00555 13.125 6.12639 13.125 6.25C13.125 6.41576 13.0592 6.57473 12.9419 6.69194C12.8247 6.80915 12.6658 6.875 12.5 6.875Z" fill="#215988"/>
</svg>
